%TF.GenerationSoftware,KiCad,Pcbnew,10.0.2*%
%TF.CreationDate,2026-05-19T17:18:53+02:00*%
%TF.ProjectId,btaudio,62746175-6469-46f2-9e6b-696361645f70,rev?*%
%TF.SameCoordinates,Original*%
%TF.FileFunction,Copper,L4,Bot*%
%TF.FilePolarity,Positive*%
%FSLAX46Y46*%
G04 Gerber Fmt 4.6, Leading zero omitted, Abs format (unit mm)*
G04 Created by KiCad (PCBNEW 10.0.2) date 2026-05-19 17:18:53*
%MOMM*%
%LPD*%
G01*
G04 APERTURE LIST*
G04 Aperture macros list*
%AMFreePoly0*
4,1,23,0.550000,-0.750000,0.000000,-0.750000,0.000000,-0.745722,-0.065263,-0.745722,-0.191342,-0.711940,-0.304381,-0.646677,-0.396677,-0.554381,-0.461940,-0.441342,-0.495722,-0.315263,-0.495722,-0.250000,-0.500000,-0.250000,-0.500000,0.250000,-0.495722,0.250000,-0.495722,0.315263,-0.461940,0.441342,-0.396677,0.554381,-0.304381,0.646677,-0.191342,0.711940,-0.065263,0.745722,0.000000,0.745722,
0.000000,0.750000,0.550000,0.750000,0.550000,-0.750000,0.550000,-0.750000,$1*%
%AMFreePoly1*
4,1,23,0.000000,0.745722,0.065263,0.745722,0.191342,0.711940,0.304381,0.646677,0.396677,0.554381,0.461940,0.441342,0.495722,0.315263,0.495722,0.250000,0.500000,0.250000,0.500000,-0.250000,0.495722,-0.250000,0.495722,-0.315263,0.461940,-0.441342,0.396677,-0.554381,0.304381,-0.646677,0.191342,-0.711940,0.065263,-0.745722,0.000000,-0.745722,0.000000,-0.750000,-0.550000,-0.750000,
-0.550000,0.750000,0.000000,0.750000,0.000000,0.745722,0.000000,0.745722,$1*%
G04 Aperture macros list end*
%TA.AperFunction,EtchedComponent*%
%ADD10C,0.000000*%
%TD*%
%TA.AperFunction,ComponentPad*%
%ADD11O,1.000000X2.100000*%
%TD*%
%TA.AperFunction,ComponentPad*%
%ADD12O,1.000000X1.600000*%
%TD*%
%TA.AperFunction,ComponentPad*%
%ADD13R,1.700000X1.700000*%
%TD*%
%TA.AperFunction,ComponentPad*%
%ADD14C,1.700000*%
%TD*%
%TA.AperFunction,SMDPad,CuDef*%
%ADD15FreePoly0,270.000000*%
%TD*%
%TA.AperFunction,SMDPad,CuDef*%
%ADD16R,1.500000X1.000000*%
%TD*%
%TA.AperFunction,SMDPad,CuDef*%
%ADD17FreePoly1,270.000000*%
%TD*%
%TA.AperFunction,SMDPad,CuDef*%
%ADD18C,0.500000*%
%TD*%
%TA.AperFunction,SMDPad,CuDef*%
%ADD19FreePoly0,90.000000*%
%TD*%
%TA.AperFunction,SMDPad,CuDef*%
%ADD20FreePoly1,90.000000*%
%TD*%
%TA.AperFunction,ViaPad*%
%ADD21C,0.600000*%
%TD*%
%TA.AperFunction,Conductor*%
%ADD22C,0.200000*%
%TD*%
G04 APERTURE END LIST*
D10*
%TA.AperFunction,EtchedComponent*%
%TO.C,NT1*%
G36*
X137000000Y-126250000D02*
G01*
X136000000Y-126250000D01*
X136000000Y-125750000D01*
X137000000Y-125750000D01*
X137000000Y-126250000D01*
G37*
%TD.AperFunction*%
%TD*%
D11*
%TO.P,J2,SH,SHIELD_SH*%
%TO.N,GND*%
X143430000Y-122915000D03*
D12*
X143430000Y-127095000D03*
D11*
X152070000Y-122915000D03*
D12*
X152070000Y-127095000D03*
%TD*%
D13*
%TO.P,J1,1,Pin_1_1*%
%TO.N,GND*%
X151500000Y-107790000D03*
D14*
%TO.P,J1,2,Pin_2_2*%
%TO.N,Net-(J1-Pin_2)*%
X151500000Y-110330000D03*
%TO.P,J1,3,Pin_3_3*%
%TO.N,Net-(J1-Pin_3)*%
X151500000Y-112870000D03*
%TO.P,J1,4,Pin_4_4*%
%TO.N,Net-(J1-Pin_4)*%
X151500000Y-115410000D03*
%TD*%
D13*
%TO.P,J6,1,Pin_1_1*%
%TO.N,/VBAT*%
X146675000Y-107200000D03*
D14*
%TO.P,J6,2,Pin_2_2*%
%TO.N,GND*%
X144135000Y-107200000D03*
%TD*%
D15*
%TO.P,JP1,1,A_1*%
%TO.N,/+3V3*%
X132857500Y-116800000D03*
D16*
%TO.P,JP1,2,C_2*%
%TO.N,/GAIN0*%
X132857500Y-118100000D03*
D17*
%TO.P,JP1,3,B_3*%
%TO.N,GND*%
X132857500Y-119400000D03*
%TD*%
D18*
%TO.P,NT1,1,1_1*%
%TO.N,GND*%
X137000000Y-126000000D03*
%TO.P,NT1,2,2_2*%
%TO.N,/SGND_TRACE*%
X136000000Y-126000000D03*
%TD*%
D19*
%TO.P,JP2,1,A_1*%
%TO.N,/+3V3*%
X132900000Y-125500000D03*
D16*
%TO.P,JP2,2,C_2*%
%TO.N,/GAIN1*%
X132900000Y-124200000D03*
D20*
%TO.P,JP2,3,B_3*%
%TO.N,GND*%
X132900000Y-122900000D03*
%TD*%
D21*
%TO.N,GND*%
X151000000Y-100200000D03*
X151600000Y-104100000D03*
X144400000Y-98100000D03*
X140200000Y-103600000D03*
X147740000Y-80670000D03*
X134683197Y-78698113D03*
X134500000Y-89400000D03*
X143341437Y-79520000D03*
X137100000Y-120900000D03*
X136300000Y-82200000D03*
X134683195Y-83700162D03*
X138800000Y-79500000D03*
X137600000Y-103600000D03*
X146640000Y-80670000D03*
X141977567Y-80839182D03*
X137130141Y-79776859D03*
X138350000Y-116100000D03*
X133300000Y-107450000D03*
X133792723Y-83702233D03*
X140551742Y-79273363D03*
X132132976Y-81654238D03*
X133537135Y-121228167D03*
X135725990Y-78698113D03*
X134500000Y-96400000D03*
X137832820Y-80680870D03*
X137000000Y-126000000D03*
X134900000Y-116100000D03*
X140800000Y-96700000D03*
X139949192Y-80870308D03*
X132141313Y-80732976D03*
X137845462Y-79500000D03*
X146641437Y-79520000D03*
X136323291Y-79207788D03*
X136200000Y-120900000D03*
X133099998Y-83100000D03*
X140981536Y-80859933D03*
X134365687Y-94034313D03*
X133099998Y-82200002D03*
X136323289Y-83190487D03*
X136200000Y-121700000D03*
X150400000Y-80900000D03*
X144441437Y-79520000D03*
X148400000Y-82800000D03*
X138800000Y-80660000D03*
X143340000Y-80670000D03*
X133099998Y-79266022D03*
X147741437Y-79520000D03*
X135725988Y-83700162D03*
X148700000Y-79900000D03*
X136300002Y-80198275D03*
X145541437Y-79520000D03*
X133792725Y-78696042D03*
X133100000Y-80200000D03*
X141484018Y-79273363D03*
X140596619Y-107273497D03*
X140800000Y-103600000D03*
X135799355Y-103732141D03*
X149400000Y-80600000D03*
X134365642Y-91756239D03*
X145540000Y-80670000D03*
X150400000Y-82800000D03*
X151000000Y-88500000D03*
X137100000Y-121600000D03*
X136166308Y-106834934D03*
X147900000Y-104000000D03*
X136900000Y-86000000D03*
X141400000Y-108300000D03*
X133300000Y-103550000D03*
X133326965Y-126492614D03*
X134400000Y-87500000D03*
X151000000Y-83200000D03*
X144440000Y-80670000D03*
X137300000Y-81600000D03*
%TO.N,/VIN*%
X139500000Y-91350002D03*
X149400000Y-123425000D03*
X146000000Y-123424999D03*
%TO.N,/D+*%
X142060626Y-90065649D03*
X148200000Y-120500000D03*
%TO.N,/D-*%
X147400000Y-120500000D03*
X141300000Y-89600000D03*
%TO.N,/VBAT*%
X140700000Y-95600000D03*
X140500000Y-88500000D03*
X146525735Y-101325735D03*
%TO.N,/PCM_OUTR*%
X138300000Y-114100000D03*
X139000003Y-107100000D03*
%TO.N,/+3V3*%
X132100000Y-126200000D03*
X144200000Y-113100000D03*
X136723384Y-103746827D03*
X135000000Y-103700000D03*
X132600000Y-115900000D03*
X133400000Y-90100000D03*
X133600000Y-94800000D03*
X145200000Y-98100000D03*
X133600000Y-97100000D03*
X140596874Y-121350000D03*
X134808038Y-107286863D03*
X139650000Y-110600000D03*
%TO.N,Net-(U3-INL-)*%
X137884864Y-119364682D03*
X134900000Y-118100000D03*
%TO.N,Net-(J1-Pin_2)*%
X151100000Y-95500000D03*
%TO.N,Net-(U1-~{RST}{slash}PIO[1])*%
X146602118Y-102122083D03*
X149900000Y-93900000D03*
%TO.N,Net-(U3-INR-)*%
X135543761Y-119334358D03*
X138300000Y-118100000D03*
%TO.N,Net-(U1-SYS_CTRL)*%
X152000000Y-100600000D03*
X150385421Y-95012149D03*
%TO.N,/CAPP*%
X135600000Y-107400000D03*
X133800000Y-109900000D03*
%TO.N,/CAPM*%
X136900000Y-107400000D03*
X134000000Y-110800000D03*
%TO.N,/PCM_OUTL*%
X134950000Y-114100000D03*
X138200000Y-107100000D03*
%TO.N,/I2S_SCK*%
X139700000Y-101200000D03*
X140700000Y-86500000D03*
%TO.N,/I2S_SDATA*%
X138900000Y-101200000D03*
X140700000Y-85700000D03*
%TO.N,/I2S_LRCK*%
X138100000Y-101200000D03*
X138800000Y-85500000D03*
%TO.N,Net-(U2-LDOO)*%
X134950000Y-100400000D03*
X133700000Y-92200000D03*
%TO.N,Net-(U1-AIO[0]{slash}LED[0])*%
X140900000Y-97600000D03*
X146519955Y-115387500D03*
%TO.N,Net-(U1-AIO[1]{slash}LED[1])*%
X148370000Y-115387500D03*
X141500000Y-98200000D03*
%TO.N,/AMP_EN*%
X139000000Y-122100000D03*
X137800000Y-85800000D03*
X141400000Y-82800000D03*
%TO.N,/HP_OUTR*%
X134500000Y-126100000D03*
X135100000Y-120000000D03*
%TO.N,/GAIN0*%
X134267205Y-120901057D03*
%TO.N,/GAIN1*%
X134266282Y-121701056D03*
%TO.N,/SGND_TRACE*%
X136000000Y-126000000D03*
X139100000Y-120900000D03*
%TO.N,/HP_OUTL*%
X138200000Y-120100000D03*
X138500000Y-126100000D03*
%TD*%
%TO.N,GND*%
D22*
X132857500Y-119400000D02*
X132800000Y-119400000D01*
%TO.N,/VBAT*%
X138900000Y-89131372D02*
X139531372Y-88500000D01*
X142100000Y-98234314D02*
X142100000Y-97800000D01*
X142100000Y-97800000D02*
X141600000Y-97300000D01*
X146525735Y-101325735D02*
X145191421Y-101325735D01*
X141600000Y-96600000D02*
X140700000Y-95700000D01*
X140600000Y-95600000D02*
X138900000Y-93900000D01*
X139531372Y-88500000D02*
X140500000Y-88500000D01*
X138900000Y-93900000D02*
X138900000Y-89131372D01*
X140700000Y-95600000D02*
X140600000Y-95600000D01*
X145191421Y-101325735D02*
X142100000Y-98234314D01*
X141600000Y-97300000D02*
X141600000Y-96600000D01*
X140700000Y-95700000D02*
X140700000Y-95600000D01*
%TO.N,/PCM_OUTR*%
X139000003Y-107100000D02*
X139000003Y-113399997D01*
X139000003Y-113399997D02*
X138300000Y-114100000D01*
%TO.N,/+3V3*%
X132857500Y-116800000D02*
X132857500Y-116157500D01*
X132900000Y-125900000D02*
X132900000Y-125500000D01*
X132100000Y-126200000D02*
X132600000Y-126200000D01*
X132600000Y-126200000D02*
X132900000Y-125900000D01*
X132857500Y-116157500D02*
X132600000Y-115900000D01*
%TO.N,Net-(J1-Pin_2)*%
X152650000Y-109180000D02*
X152650000Y-97050000D01*
X152650000Y-97050000D02*
X151100000Y-95500000D01*
X151500000Y-110330000D02*
X152650000Y-109180000D01*
%TO.N,Net-(U1-~{RST}{slash}PIO[1])*%
X149900000Y-94600000D02*
X148200000Y-96300000D01*
X148200000Y-96300000D02*
X148200000Y-100500000D01*
X146602118Y-102097882D02*
X146602118Y-102122083D01*
X148200000Y-100500000D02*
X146602118Y-102097882D01*
X149900000Y-93900000D02*
X149900000Y-94600000D01*
%TO.N,Net-(U3-INR-)*%
X135543761Y-119334358D02*
X137065642Y-119334358D01*
X137065642Y-119334358D02*
X138300000Y-118100000D01*
%TO.N,Net-(U1-SYS_CTRL)*%
X150385421Y-95012149D02*
X150500000Y-95126728D01*
X152250000Y-100350000D02*
X152000000Y-100600000D01*
X150500000Y-95748529D02*
X152250000Y-97498529D01*
X150500000Y-95126728D02*
X150500000Y-95748529D01*
X152250000Y-97498529D02*
X152250000Y-100350000D01*
%TO.N,/CAPP*%
X135600000Y-108100000D02*
X135600000Y-107400000D01*
X133800000Y-109900000D02*
X135600000Y-108100000D01*
%TO.N,/CAPM*%
X136900000Y-107900000D02*
X136900000Y-107400000D01*
X134000000Y-110800000D02*
X136900000Y-107900000D01*
%TO.N,/PCM_OUTL*%
X138200000Y-107100000D02*
X138200000Y-110850000D01*
X138200000Y-110850000D02*
X134950000Y-114100000D01*
%TO.N,/I2S_SCK*%
X138500000Y-88965686D02*
X138500000Y-99951471D01*
X139700000Y-101151471D02*
X139700000Y-101200000D01*
X139600000Y-87865686D02*
X138500000Y-88965686D01*
X140200000Y-86500000D02*
X139600000Y-87100000D01*
X140700000Y-86500000D02*
X140200000Y-86500000D01*
X139600000Y-87100000D02*
X139600000Y-87865686D01*
X138500000Y-99951471D02*
X139700000Y-101151471D01*
%TO.N,/I2S_SDATA*%
X140700000Y-85700000D02*
X140400000Y-85700000D01*
X140400000Y-85700000D02*
X139200000Y-86900000D01*
X139000000Y-101100000D02*
X138900000Y-101200000D01*
X139200000Y-87700000D02*
X138100000Y-88800001D01*
X138100000Y-100200000D02*
X139000000Y-101100000D01*
X138100000Y-88800001D02*
X138100000Y-100200000D01*
X139200000Y-86900000D02*
X139200000Y-87700000D01*
%TO.N,/I2S_LRCK*%
X138100000Y-100985786D02*
X138100000Y-101200000D01*
X138800000Y-87500000D02*
X137700000Y-88600000D01*
X137700000Y-100585786D02*
X138100000Y-100985786D01*
X138800000Y-85500000D02*
X138800000Y-87500000D01*
X137700000Y-88600000D02*
X137700000Y-100585786D01*
%TO.N,Net-(U2-LDOO)*%
X133700000Y-92200000D02*
X133700000Y-92400000D01*
X133000000Y-98450000D02*
X134950000Y-100400000D01*
X133000000Y-93100000D02*
X133000000Y-98450000D01*
X133700000Y-92400000D02*
X133000000Y-93100000D01*
%TO.N,Net-(U1-AIO[0]{slash}LED[0])*%
X146519955Y-115387500D02*
X147312500Y-115387500D01*
X141251471Y-98800000D02*
X140900000Y-98448529D01*
X141534314Y-98800000D02*
X141251471Y-98800000D01*
X144800000Y-102065686D02*
X141534314Y-98800000D01*
X148300000Y-106465686D02*
X144800000Y-102965685D01*
X140900000Y-98448529D02*
X140900000Y-97600000D01*
X147312500Y-115387500D02*
X148300000Y-114400000D01*
X144800000Y-102965685D02*
X144800000Y-102065686D01*
X148300000Y-114400000D02*
X148300000Y-106465686D01*
%TO.N,Net-(U1-AIO[1]{slash}LED[1])*%
X148700000Y-115057500D02*
X148370000Y-115387500D01*
X148700000Y-106300000D02*
X148700000Y-115057500D01*
X145200000Y-102800000D02*
X148700000Y-106300000D01*
X145200000Y-101900000D02*
X145200000Y-102800000D01*
X141500000Y-98200000D02*
X145200000Y-101900000D01*
%TO.N,/AMP_EN*%
X139700000Y-83700000D02*
X137800000Y-85600000D01*
X139325735Y-103625736D02*
X139325736Y-103625735D01*
X138400000Y-87334314D02*
X138400000Y-86400000D01*
X142000000Y-106300000D02*
X139325735Y-103625736D01*
X137300000Y-88434314D02*
X138400000Y-87334314D01*
X139996874Y-121101471D02*
X140348345Y-120750000D01*
X137300000Y-100751471D02*
X137300000Y-88434314D01*
X140348345Y-120750000D02*
X140350000Y-120750000D01*
X138400000Y-86400000D02*
X137800000Y-85800000D01*
X141400000Y-83000000D02*
X140700000Y-83700000D01*
X140800000Y-120300000D02*
X140800000Y-115600000D01*
X142000000Y-114400000D02*
X142000000Y-106300000D01*
X140700000Y-83700000D02*
X139700000Y-83700000D01*
X137500000Y-100951471D02*
X137300000Y-100751471D01*
X140800000Y-115600000D02*
X142000000Y-114400000D01*
X140350000Y-120750000D02*
X140800000Y-120300000D01*
X139996874Y-121103126D02*
X139996874Y-121101471D01*
X139000000Y-122100000D02*
X139996874Y-121103126D01*
X137800000Y-85600000D02*
X137800000Y-85800000D01*
X139325736Y-103625735D02*
X137500000Y-101800000D01*
X137500000Y-101800000D02*
X137500000Y-100951471D01*
X141400000Y-82800000D02*
X141400000Y-83000000D01*
%TO.N,/HP_OUTR*%
X135100000Y-120000000D02*
X135100000Y-125500000D01*
X135100000Y-125500000D02*
X134500000Y-126100000D01*
%TO.N,/GAIN0*%
X134267205Y-118559705D02*
X134267205Y-120901057D01*
X133807500Y-118100000D02*
X134267205Y-118559705D01*
X132857500Y-118100000D02*
X133807500Y-118100000D01*
%TO.N,/GAIN1*%
X134000000Y-121967338D02*
X134266282Y-121701056D01*
X133850000Y-124200000D02*
X134000000Y-124050000D01*
X132900000Y-124200000D02*
X133850000Y-124200000D01*
X134000000Y-124050000D02*
X134000000Y-121967338D01*
%TO.N,/HP_OUTL*%
X138200000Y-125800000D02*
X138200000Y-120100000D01*
X138500000Y-126100000D02*
X138200000Y-125800000D01*
%TD*%
%TA.AperFunction,Conductor*%
%TO.N,GND*%
G36*
X139305703Y-95155384D02*
G01*
X139312181Y-95161416D01*
X139890256Y-95739491D01*
X139923741Y-95800814D01*
X139924192Y-95802980D01*
X139930261Y-95833491D01*
X139930263Y-95833499D01*
X139990602Y-95979172D01*
X139990609Y-95979185D01*
X140078210Y-96110288D01*
X140078213Y-96110292D01*
X140189707Y-96221786D01*
X140189711Y-96221789D01*
X140320814Y-96309390D01*
X140320827Y-96309397D01*
X140371206Y-96330264D01*
X140466503Y-96369737D01*
X140497018Y-96375806D01*
X140558929Y-96408191D01*
X140560508Y-96409743D01*
X140764804Y-96614039D01*
X140798289Y-96675362D01*
X140793305Y-96745054D01*
X140751433Y-96800987D01*
X140701318Y-96823337D01*
X140666504Y-96830262D01*
X140666498Y-96830264D01*
X140520827Y-96890602D01*
X140520814Y-96890609D01*
X140389711Y-96978210D01*
X140389707Y-96978213D01*
X140278213Y-97089707D01*
X140278210Y-97089711D01*
X140190609Y-97220814D01*
X140190602Y-97220827D01*
X140130264Y-97366498D01*
X140130261Y-97366510D01*
X140099500Y-97521153D01*
X140099500Y-97678846D01*
X140130261Y-97833489D01*
X140130264Y-97833501D01*
X140190602Y-97979172D01*
X140190609Y-97979185D01*
X140278602Y-98110874D01*
X140284252Y-98128920D01*
X140294477Y-98144830D01*
X140298928Y-98175789D01*
X140299480Y-98177551D01*
X140299500Y-98179765D01*
X140299500Y-98361859D01*
X140299499Y-98361877D01*
X140299499Y-98527583D01*
X140299498Y-98527583D01*
X140321659Y-98610289D01*
X140340423Y-98680314D01*
X140341274Y-98681787D01*
X140364368Y-98721787D01*
X140364370Y-98721790D01*
X140419479Y-98817243D01*
X140419481Y-98817246D01*
X140538349Y-98936114D01*
X140538355Y-98936119D01*
X140766610Y-99164374D01*
X140766620Y-99164385D01*
X140770950Y-99168715D01*
X140770951Y-99168716D01*
X140882755Y-99280520D01*
X140969566Y-99330639D01*
X140969568Y-99330641D01*
X141007622Y-99352611D01*
X141019686Y-99359577D01*
X141172414Y-99400500D01*
X141234217Y-99400500D01*
X141301256Y-99420185D01*
X141321898Y-99436819D01*
X144163181Y-102278102D01*
X144196666Y-102339425D01*
X144199500Y-102365783D01*
X144199500Y-102879015D01*
X144199499Y-102879033D01*
X144199499Y-103044739D01*
X144199498Y-103044739D01*
X144240423Y-103197470D01*
X144269358Y-103247585D01*
X144269359Y-103247589D01*
X144269360Y-103247589D01*
X144319479Y-103334399D01*
X144319481Y-103334402D01*
X144438349Y-103453270D01*
X144438355Y-103453275D01*
X146622898Y-105637819D01*
X146656383Y-105699142D01*
X146651399Y-105768834D01*
X146609527Y-105824767D01*
X146544063Y-105849184D01*
X146535217Y-105849500D01*
X145777129Y-105849500D01*
X145777123Y-105849501D01*
X145717516Y-105855908D01*
X145582671Y-105906202D01*
X145582664Y-105906206D01*
X145467455Y-105992452D01*
X145467452Y-105992455D01*
X145381206Y-106107664D01*
X145381204Y-106107669D01*
X145330908Y-106242517D01*
X145324501Y-106302116D01*
X145324500Y-106302135D01*
X145324500Y-108097870D01*
X145324501Y-108097876D01*
X145330908Y-108157483D01*
X145381202Y-108292328D01*
X145381206Y-108292335D01*
X145467452Y-108407544D01*
X145467455Y-108407547D01*
X145582664Y-108493793D01*
X145582671Y-108493797D01*
X145717517Y-108544091D01*
X145717516Y-108544091D01*
X145724444Y-108544835D01*
X145777127Y-108550500D01*
X147572872Y-108550499D01*
X147575500Y-108550499D01*
X147642539Y-108570184D01*
X147688294Y-108622987D01*
X147699500Y-108674499D01*
X147699500Y-114099903D01*
X147679815Y-114166942D01*
X147663181Y-114187584D01*
X147135058Y-114715706D01*
X147073735Y-114749191D01*
X147004043Y-114744207D01*
X146978486Y-114731127D01*
X146899140Y-114678109D01*
X146899127Y-114678102D01*
X146753456Y-114617764D01*
X146753444Y-114617761D01*
X146598800Y-114587000D01*
X146598797Y-114587000D01*
X146441113Y-114587000D01*
X146441110Y-114587000D01*
X146286465Y-114617761D01*
X146286453Y-114617764D01*
X146140782Y-114678102D01*
X146140769Y-114678109D01*
X146009666Y-114765710D01*
X146009662Y-114765713D01*
X145898168Y-114877207D01*
X145898165Y-114877211D01*
X145810564Y-115008314D01*
X145810557Y-115008327D01*
X145750219Y-115153998D01*
X145750216Y-115154010D01*
X145719455Y-115308653D01*
X145719455Y-115466346D01*
X145750216Y-115620989D01*
X145750219Y-115621001D01*
X145810557Y-115766672D01*
X145810564Y-115766685D01*
X145898165Y-115897788D01*
X145898168Y-115897792D01*
X146009662Y-116009286D01*
X146009666Y-116009289D01*
X146140769Y-116096890D01*
X146140782Y-116096897D01*
X146286453Y-116157235D01*
X146286458Y-116157237D01*
X146441108Y-116187999D01*
X146441111Y-116188000D01*
X146441113Y-116188000D01*
X146598799Y-116188000D01*
X146598800Y-116187999D01*
X146753452Y-116157237D01*
X146899134Y-116096894D01*
X146899140Y-116096890D01*
X147030830Y-116008898D01*
X147048876Y-116003247D01*
X147064786Y-115993023D01*
X147095747Y-115988571D01*
X147097508Y-115988020D01*
X147099721Y-115988000D01*
X147225831Y-115988000D01*
X147225847Y-115988001D01*
X147233443Y-115988001D01*
X147391554Y-115988001D01*
X147391557Y-115988001D01*
X147544285Y-115947077D01*
X147594404Y-115918139D01*
X147622416Y-115901967D01*
X147690317Y-115885496D01*
X147756343Y-115908349D01*
X147772095Y-115921674D01*
X147859707Y-116009286D01*
X147859711Y-116009289D01*
X147990814Y-116096890D01*
X147990827Y-116096897D01*
X148136498Y-116157235D01*
X148136503Y-116157237D01*
X148291153Y-116187999D01*
X148291156Y-116188000D01*
X148291158Y-116188000D01*
X148448844Y-116188000D01*
X148448845Y-116187999D01*
X148603497Y-116157237D01*
X148749179Y-116096894D01*
X148880289Y-116009289D01*
X148991789Y-115897789D01*
X149079394Y-115766679D01*
X149139737Y-115620997D01*
X149170500Y-115466342D01*
X149170500Y-115466335D01*
X149170579Y-115465542D01*
X149170791Y-115464881D01*
X149171689Y-115460368D01*
X149172208Y-115460471D01*
X149186595Y-115415694D01*
X149204754Y-115384241D01*
X149259577Y-115289284D01*
X149289534Y-115177481D01*
X149300500Y-115136558D01*
X149300500Y-114978443D01*
X149300500Y-106220943D01*
X149294754Y-106199500D01*
X149270148Y-106107669D01*
X149259577Y-106068216D01*
X149259576Y-106068215D01*
X149259576Y-106068213D01*
X149180524Y-105931290D01*
X149180521Y-105931286D01*
X149180520Y-105931284D01*
X149068716Y-105819480D01*
X149068715Y-105819479D01*
X149064385Y-105815149D01*
X149064374Y-105815139D01*
X146373596Y-103124361D01*
X146340111Y-103063038D01*
X146345095Y-102993346D01*
X146386967Y-102937413D01*
X146452431Y-102912996D01*
X146485469Y-102915063D01*
X146523273Y-102922583D01*
X146523276Y-102922583D01*
X146680962Y-102922583D01*
X146680963Y-102922582D01*
X146835615Y-102891820D01*
X146981297Y-102831477D01*
X147112407Y-102743872D01*
X147223907Y-102632372D01*
X147311512Y-102501262D01*
X147371855Y-102355580D01*
X147402618Y-102200925D01*
X147402618Y-102197978D01*
X147403055Y-102196489D01*
X147403215Y-102194865D01*
X147403523Y-102194895D01*
X147422303Y-102130939D01*
X147438932Y-102110301D01*
X148558506Y-100990727D01*
X148558511Y-100990724D01*
X148568714Y-100980520D01*
X148568716Y-100980520D01*
X148680520Y-100868716D01*
X148759577Y-100731784D01*
X148790510Y-100616341D01*
X148800500Y-100579058D01*
X148800500Y-100420943D01*
X148800500Y-96600096D01*
X148820185Y-96533057D01*
X148836815Y-96512419D01*
X149687818Y-95661415D01*
X149749141Y-95627931D01*
X149818833Y-95632915D01*
X149874766Y-95674787D01*
X149899183Y-95740251D01*
X149899499Y-95749097D01*
X149899499Y-95827583D01*
X149899498Y-95827583D01*
X149940423Y-95980314D01*
X149954835Y-96005276D01*
X150019477Y-96117241D01*
X150019481Y-96117246D01*
X150138349Y-96236114D01*
X150138355Y-96236119D01*
X151613181Y-97710945D01*
X151646666Y-97772268D01*
X151649500Y-97798626D01*
X151649500Y-99805164D01*
X151629815Y-99872203D01*
X151594391Y-99908266D01*
X151489710Y-99978210D01*
X151378213Y-100089707D01*
X151378210Y-100089711D01*
X151290609Y-100220814D01*
X151290602Y-100220827D01*
X151230264Y-100366498D01*
X151230261Y-100366510D01*
X151199500Y-100521153D01*
X151199500Y-100678846D01*
X151230261Y-100833489D01*
X151230264Y-100833501D01*
X151290602Y-100979172D01*
X151290609Y-100979185D01*
X151378210Y-101110288D01*
X151378213Y-101110292D01*
X151489707Y-101221786D01*
X151489711Y-101221789D01*
X151620814Y-101309390D01*
X151620827Y-101309397D01*
X151766498Y-101369735D01*
X151766503Y-101369737D01*
X151921153Y-101400499D01*
X151921156Y-101400500D01*
X151921158Y-101400500D01*
X151925500Y-101400500D01*
X151992539Y-101420185D01*
X152038294Y-101472989D01*
X152049500Y-101524500D01*
X152049500Y-108879902D01*
X152040854Y-108909344D01*
X152034331Y-108939331D01*
X152030577Y-108944345D01*
X152029815Y-108946941D01*
X152013184Y-108967579D01*
X151984521Y-108996243D01*
X151923197Y-109029727D01*
X151858523Y-109026491D01*
X151816245Y-109012754D01*
X151676272Y-108990584D01*
X151606287Y-108979500D01*
X151393713Y-108979500D01*
X151345042Y-108987208D01*
X151183760Y-109012753D01*
X150981585Y-109078444D01*
X150792179Y-109174951D01*
X150620213Y-109299890D01*
X150469890Y-109450213D01*
X150344951Y-109622179D01*
X150248444Y-109811585D01*
X150182753Y-110013760D01*
X150149500Y-110223713D01*
X150149500Y-110436286D01*
X150181382Y-110637584D01*
X150182754Y-110646243D01*
X150243594Y-110833489D01*
X150248444Y-110848414D01*
X150344951Y-111037820D01*
X150469890Y-111209786D01*
X150620213Y-111360109D01*
X150792182Y-111485050D01*
X150800946Y-111489516D01*
X150851742Y-111537491D01*
X150868536Y-111605312D01*
X150845998Y-111671447D01*
X150800946Y-111710484D01*
X150792182Y-111714949D01*
X150620213Y-111839890D01*
X150469890Y-111990213D01*
X150344951Y-112162179D01*
X150248444Y-112351585D01*
X150182753Y-112553760D01*
X150149500Y-112763713D01*
X150149500Y-112976286D01*
X150181581Y-113178842D01*
X150182754Y-113186243D01*
X150230601Y-113333501D01*
X150248444Y-113388414D01*
X150344951Y-113577820D01*
X150469890Y-113749786D01*
X150620213Y-113900109D01*
X150792182Y-114025050D01*
X150800946Y-114029516D01*
X150851742Y-114077491D01*
X150868536Y-114145312D01*
X150845998Y-114211447D01*
X150800946Y-114250484D01*
X150792182Y-114254949D01*
X150620213Y-114379890D01*
X150469890Y-114530213D01*
X150344951Y-114702179D01*
X150248444Y-114891585D01*
X150182753Y-115093760D01*
X150151785Y-115289284D01*
X150149500Y-115303713D01*
X150149500Y-115516287D01*
X150150238Y-115520945D01*
X150176864Y-115689059D01*
X150182754Y-115726243D01*
X150239850Y-115901967D01*
X150248444Y-115928414D01*
X150344951Y-116117820D01*
X150469890Y-116289786D01*
X150620213Y-116440109D01*
X150792179Y-116565048D01*
X150792181Y-116565049D01*
X150792184Y-116565051D01*
X150981588Y-116661557D01*
X151183757Y-116727246D01*
X151393713Y-116760500D01*
X151393714Y-116760500D01*
X151606286Y-116760500D01*
X151606287Y-116760500D01*
X151816243Y-116727246D01*
X152018412Y-116661557D01*
X152207816Y-116565051D01*
X152330150Y-116476171D01*
X152379786Y-116440109D01*
X152379788Y-116440106D01*
X152379792Y-116440104D01*
X152530104Y-116289792D01*
X152530106Y-116289788D01*
X152530109Y-116289786D01*
X152655048Y-116117820D01*
X152655047Y-116117820D01*
X152655051Y-116117816D01*
X152751557Y-115928412D01*
X152817246Y-115726243D01*
X152850500Y-115516287D01*
X152850500Y-115303713D01*
X152817246Y-115093757D01*
X152751557Y-114891588D01*
X152655051Y-114702184D01*
X152655049Y-114702181D01*
X152655048Y-114702179D01*
X152530109Y-114530213D01*
X152379786Y-114379890D01*
X152207820Y-114254951D01*
X152207115Y-114254591D01*
X152199054Y-114250485D01*
X152148259Y-114202512D01*
X152131463Y-114134692D01*
X152153999Y-114068556D01*
X152199054Y-114029515D01*
X152207816Y-114025051D01*
X152229789Y-114009086D01*
X152379786Y-113900109D01*
X152379788Y-113900106D01*
X152379792Y-113900104D01*
X152530104Y-113749792D01*
X152530106Y-113749788D01*
X152530109Y-113749786D01*
X152655048Y-113577820D01*
X152655047Y-113577820D01*
X152655051Y-113577816D01*
X152751557Y-113388412D01*
X152817246Y-113186243D01*
X152850500Y-112976287D01*
X152850500Y-112763713D01*
X152817246Y-112553757D01*
X152751557Y-112351588D01*
X152655051Y-112162184D01*
X152655049Y-112162181D01*
X152655048Y-112162179D01*
X152530109Y-111990213D01*
X152379786Y-111839890D01*
X152207820Y-111714951D01*
X152200876Y-111711413D01*
X152199054Y-111710485D01*
X152148259Y-111662512D01*
X152131463Y-111594692D01*
X152153999Y-111528556D01*
X152199054Y-111489515D01*
X152207816Y-111485051D01*
X152245791Y-111457461D01*
X152379786Y-111360109D01*
X152379788Y-111360106D01*
X152379792Y-111360104D01*
X152530104Y-111209792D01*
X152530106Y-111209788D01*
X152530109Y-111209786D01*
X152655048Y-111037820D01*
X152655047Y-111037820D01*
X152655051Y-111037816D01*
X152751557Y-110848412D01*
X152817246Y-110646243D01*
X152850500Y-110436287D01*
X152850500Y-110223713D01*
X152817246Y-110013757D01*
X152803506Y-109971473D01*
X152801512Y-109901635D01*
X152833753Y-109845480D01*
X152925007Y-109754227D01*
X152986327Y-109720746D01*
X153056018Y-109725730D01*
X153111952Y-109767602D01*
X153136368Y-109833067D01*
X153136684Y-109842156D01*
X153100243Y-128376247D01*
X153080426Y-128443247D01*
X153027533Y-128488898D01*
X152976246Y-128500003D01*
X131933289Y-128500528D01*
X131866249Y-128480845D01*
X131820493Y-128428042D01*
X131809286Y-128376875D01*
X131805743Y-127109088D01*
X131825240Y-127041997D01*
X131877915Y-126996095D01*
X131947046Y-126985958D01*
X131953920Y-126987125D01*
X131999013Y-126996095D01*
X132021157Y-127000500D01*
X132021158Y-127000500D01*
X132178844Y-127000500D01*
X132178845Y-127000499D01*
X132333497Y-126969737D01*
X132479179Y-126909394D01*
X132610289Y-126821789D01*
X132610288Y-126821789D01*
X132610873Y-126821399D01*
X132671124Y-126802532D01*
X132670997Y-126801562D01*
X132676568Y-126800828D01*
X132677550Y-126800521D01*
X132679002Y-126800507D01*
X132679054Y-126800501D01*
X132679057Y-126800501D01*
X132831785Y-126759577D01*
X132897462Y-126721658D01*
X132968716Y-126680520D01*
X133080520Y-126568716D01*
X133080520Y-126568714D01*
X133090723Y-126558512D01*
X133090726Y-126558507D01*
X133107418Y-126541815D01*
X133168743Y-126508333D01*
X133195097Y-126505500D01*
X133215819Y-126505500D01*
X133215826Y-126505500D01*
X133346662Y-126488275D01*
X133473829Y-126454200D01*
X133595743Y-126403701D01*
X133605311Y-126398176D01*
X133673210Y-126381700D01*
X133739238Y-126404548D01*
X133781879Y-126458109D01*
X133790605Y-126479178D01*
X133790609Y-126479185D01*
X133878210Y-126610288D01*
X133878213Y-126610292D01*
X133989707Y-126721786D01*
X133989711Y-126721789D01*
X134120814Y-126809390D01*
X134120827Y-126809397D01*
X134266498Y-126869735D01*
X134266503Y-126869737D01*
X134421153Y-126900499D01*
X134421156Y-126900500D01*
X134421158Y-126900500D01*
X134578844Y-126900500D01*
X134578845Y-126900499D01*
X134733497Y-126869737D01*
X134879179Y-126809394D01*
X135010289Y-126721789D01*
X135121789Y-126610289D01*
X135180811Y-126521956D01*
X135234421Y-126477152D01*
X135303746Y-126468445D01*
X135366774Y-126498599D01*
X135373867Y-126506017D01*
X135373903Y-126505982D01*
X135489707Y-126621786D01*
X135489711Y-126621789D01*
X135620814Y-126709390D01*
X135620827Y-126709397D01*
X135741974Y-126759577D01*
X135766503Y-126769737D01*
X135921153Y-126800499D01*
X135921156Y-126800500D01*
X135921158Y-126800500D01*
X136078844Y-126800500D01*
X136078845Y-126800499D01*
X136233497Y-126769737D01*
X136379179Y-126709394D01*
X136510289Y-126621789D01*
X136621789Y-126510289D01*
X136709394Y-126379179D01*
X136769737Y-126233497D01*
X136800500Y-126078842D01*
X136800500Y-125921158D01*
X136800500Y-125921155D01*
X136800499Y-125921153D01*
X136769737Y-125766503D01*
X136747712Y-125713330D01*
X136709397Y-125620827D01*
X136709390Y-125620814D01*
X136621789Y-125489711D01*
X136621786Y-125489707D01*
X136510292Y-125378213D01*
X136510288Y-125378210D01*
X136379185Y-125290609D01*
X136379172Y-125290602D01*
X136233501Y-125230264D01*
X136233489Y-125230261D01*
X136078845Y-125199500D01*
X136078842Y-125199500D01*
X135921158Y-125199500D01*
X135921155Y-125199500D01*
X135848691Y-125213914D01*
X135779100Y-125207687D01*
X135723922Y-125164824D01*
X135700678Y-125098934D01*
X135700500Y-125092297D01*
X135700500Y-120579765D01*
X135720185Y-120512726D01*
X135721398Y-120510874D01*
X135781347Y-120421155D01*
X135809394Y-120379179D01*
X135869737Y-120233497D01*
X135887471Y-120144339D01*
X135895090Y-120106041D01*
X135909310Y-120078855D01*
X135921560Y-120050714D01*
X135926220Y-120046527D01*
X135927475Y-120044130D01*
X135947812Y-120027132D01*
X136054050Y-119956147D01*
X136054049Y-119956147D01*
X136054637Y-119955755D01*
X136121314Y-119934878D01*
X136123527Y-119934858D01*
X136978973Y-119934858D01*
X136978989Y-119934859D01*
X136986585Y-119934859D01*
X137144698Y-119934859D01*
X137144699Y-119934859D01*
X137216138Y-119915716D01*
X137228137Y-119916001D01*
X137239386Y-119911806D01*
X137262419Y-119916816D01*
X137285986Y-119917377D01*
X137297634Y-119924477D01*
X137307659Y-119926658D01*
X137335913Y-119947809D01*
X137363181Y-119975077D01*
X137396666Y-120036400D01*
X137399500Y-120062758D01*
X137399500Y-120178846D01*
X137430261Y-120333489D01*
X137430264Y-120333501D01*
X137490602Y-120479172D01*
X137490609Y-120479185D01*
X137578602Y-120610874D01*
X137599480Y-120677551D01*
X137599500Y-120679765D01*
X137599500Y-125713330D01*
X137599499Y-125713348D01*
X137599499Y-125879054D01*
X137599498Y-125879054D01*
X137640422Y-126031783D01*
X137664748Y-126073917D01*
X137664749Y-126073918D01*
X137682887Y-126105334D01*
X137699500Y-126167334D01*
X137699500Y-126178846D01*
X137730261Y-126333489D01*
X137730264Y-126333501D01*
X137790602Y-126479172D01*
X137790609Y-126479185D01*
X137878210Y-126610288D01*
X137878213Y-126610292D01*
X137989707Y-126721786D01*
X137989711Y-126721789D01*
X138120814Y-126809390D01*
X138120827Y-126809397D01*
X138266498Y-126869735D01*
X138266503Y-126869737D01*
X138421153Y-126900499D01*
X138421156Y-126900500D01*
X138421158Y-126900500D01*
X138578844Y-126900500D01*
X138578845Y-126900499D01*
X138733497Y-126869737D01*
X138879179Y-126809394D01*
X139010289Y-126721789D01*
X139121789Y-126610289D01*
X139209394Y-126479179D01*
X139269737Y-126333497D01*
X139300500Y-126178842D01*
X139300500Y-126021158D01*
X139300500Y-126021155D01*
X139300499Y-126021153D01*
X139269737Y-125866503D01*
X139209443Y-125720939D01*
X139209397Y-125720827D01*
X139209390Y-125720814D01*
X139121789Y-125589711D01*
X139121786Y-125589707D01*
X139010292Y-125478213D01*
X139010288Y-125478210D01*
X138879185Y-125390609D01*
X138879169Y-125390601D01*
X138877038Y-125389718D01*
X138876094Y-125388957D01*
X138873809Y-125387736D01*
X138874040Y-125387302D01*
X138822638Y-125345873D01*
X138800579Y-125279577D01*
X138800500Y-125275161D01*
X138800500Y-123369234D01*
X144284500Y-123369234D01*
X144284500Y-123520765D01*
X144323719Y-123667136D01*
X144360075Y-123730106D01*
X144399485Y-123798365D01*
X144506635Y-123905515D01*
X144637865Y-123981281D01*
X144784234Y-124020500D01*
X144784236Y-124020500D01*
X144935764Y-124020500D01*
X144935766Y-124020500D01*
X145082135Y-123981281D01*
X145213365Y-123905515D01*
X145213368Y-123905511D01*
X145217523Y-123903113D01*
X145285423Y-123886640D01*
X145351450Y-123909492D01*
X145375379Y-123931838D01*
X145378211Y-123935289D01*
X145489707Y-124046785D01*
X145489711Y-124046788D01*
X145620814Y-124134389D01*
X145620827Y-124134396D01*
X145766498Y-124194734D01*
X145766503Y-124194736D01*
X145921153Y-124225498D01*
X145921156Y-124225499D01*
X145921158Y-124225499D01*
X146078844Y-124225499D01*
X146078845Y-124225498D01*
X146233497Y-124194736D01*
X146346166Y-124148066D01*
X146379172Y-124134396D01*
X146379172Y-124134395D01*
X146379179Y-124134393D01*
X146510289Y-124046788D01*
X146621789Y-123935288D01*
X146709394Y-123804178D01*
X146769737Y-123658496D01*
X146800500Y-123503841D01*
X146800500Y-123346157D01*
X146800500Y-123346154D01*
X146800499Y-123346153D01*
X148599500Y-123346153D01*
X148599500Y-123503846D01*
X148630261Y-123658489D01*
X148630264Y-123658501D01*
X148690602Y-123804172D01*
X148690609Y-123804185D01*
X148778210Y-123935288D01*
X148778213Y-123935292D01*
X148889707Y-124046786D01*
X148889711Y-124046789D01*
X149020814Y-124134390D01*
X149020827Y-124134397D01*
X149166496Y-124194734D01*
X149166503Y-124194737D01*
X149321148Y-124225498D01*
X149321153Y-124225499D01*
X149321156Y-124225500D01*
X149321158Y-124225500D01*
X149478844Y-124225500D01*
X149478845Y-124225499D01*
X149633497Y-124194737D01*
X149779179Y-124134394D01*
X149910289Y-124046789D01*
X150021789Y-123935289D01*
X150055854Y-123884307D01*
X150109465Y-123839502D01*
X150178790Y-123830795D01*
X150241818Y-123860949D01*
X150246637Y-123865517D01*
X150286635Y-123905515D01*
X150417865Y-123981281D01*
X150564234Y-124020500D01*
X150564236Y-124020500D01*
X150715764Y-124020500D01*
X150715766Y-124020500D01*
X150862135Y-123981281D01*
X150993365Y-123905515D01*
X151100515Y-123798365D01*
X151176281Y-123667135D01*
X151215500Y-123520766D01*
X151215500Y-123369234D01*
X151176281Y-123222865D01*
X151100515Y-123091635D01*
X150993365Y-122984485D01*
X150911424Y-122937176D01*
X150862136Y-122908719D01*
X150788950Y-122889109D01*
X150715766Y-122869500D01*
X150564234Y-122869500D01*
X150417863Y-122908719D01*
X150286635Y-122984485D01*
X150286630Y-122984489D01*
X150262655Y-123008463D01*
X150201331Y-123041946D01*
X150131640Y-123036959D01*
X150075707Y-122995086D01*
X150071875Y-122989669D01*
X150021792Y-122914715D01*
X150021786Y-122914707D01*
X149910292Y-122803213D01*
X149910288Y-122803210D01*
X149779185Y-122715609D01*
X149779172Y-122715602D01*
X149633501Y-122655264D01*
X149633489Y-122655261D01*
X149478845Y-122624500D01*
X149478842Y-122624500D01*
X149321158Y-122624500D01*
X149321155Y-122624500D01*
X149166510Y-122655261D01*
X149166498Y-122655264D01*
X149020827Y-122715602D01*
X149020814Y-122715609D01*
X148889711Y-122803210D01*
X148889707Y-122803213D01*
X148778213Y-122914707D01*
X148778210Y-122914711D01*
X148690609Y-123045814D01*
X148690602Y-123045827D01*
X148630264Y-123191498D01*
X148630261Y-123191510D01*
X148599500Y-123346153D01*
X146800499Y-123346153D01*
X146800499Y-123346152D01*
X146782607Y-123256204D01*
X146769737Y-123191502D01*
X146709397Y-123045827D01*
X146709397Y-123045826D01*
X146709390Y-123045813D01*
X146621789Y-122914710D01*
X146621786Y-122914706D01*
X146510292Y-122803212D01*
X146510288Y-122803209D01*
X146379185Y-122715608D01*
X146379172Y-122715601D01*
X146233501Y-122655263D01*
X146233489Y-122655260D01*
X146078845Y-122624499D01*
X146078842Y-122624499D01*
X145921158Y-122624499D01*
X145921155Y-122624499D01*
X145766510Y-122655260D01*
X145766498Y-122655263D01*
X145620827Y-122715601D01*
X145620814Y-122715608D01*
X145489711Y-122803209D01*
X145489707Y-122803212D01*
X145378211Y-122914708D01*
X145363199Y-122937176D01*
X145309586Y-122981980D01*
X145240261Y-122990686D01*
X145198098Y-122975670D01*
X145082138Y-122908720D01*
X145082135Y-122908719D01*
X144935766Y-122869500D01*
X144784234Y-122869500D01*
X144637863Y-122908719D01*
X144506635Y-122984485D01*
X144506632Y-122984487D01*
X144399487Y-123091632D01*
X144399485Y-123091635D01*
X144323719Y-123222863D01*
X144284500Y-123369234D01*
X138800500Y-123369234D01*
X138800500Y-123024500D01*
X138820185Y-122957461D01*
X138872989Y-122911706D01*
X138924500Y-122900500D01*
X139078844Y-122900500D01*
X139078845Y-122900499D01*
X139233497Y-122869737D01*
X139379179Y-122809394D01*
X139510289Y-122721789D01*
X139621789Y-122610289D01*
X139709394Y-122479179D01*
X139769737Y-122333497D01*
X139800500Y-122178842D01*
X139800638Y-122178150D01*
X139809402Y-122161393D01*
X139813423Y-122142914D01*
X139832167Y-122117875D01*
X139833023Y-122116239D01*
X139834526Y-122114708D01*
X139949202Y-122000031D01*
X140010525Y-121966547D01*
X140080217Y-121971531D01*
X140105774Y-121984611D01*
X140217688Y-122059390D01*
X140217701Y-122059397D01*
X140363372Y-122119735D01*
X140363377Y-122119737D01*
X140479895Y-122142914D01*
X140518027Y-122150499D01*
X140518030Y-122150500D01*
X140518032Y-122150500D01*
X140675718Y-122150500D01*
X140675719Y-122150499D01*
X140830371Y-122119737D01*
X140976053Y-122059394D01*
X141107163Y-121971789D01*
X141218663Y-121860289D01*
X141306268Y-121729179D01*
X141366611Y-121583497D01*
X141397374Y-121428842D01*
X141397374Y-121271158D01*
X141397374Y-121271155D01*
X141397373Y-121271153D01*
X141393661Y-121252490D01*
X141366611Y-121116503D01*
X141366609Y-121116498D01*
X141306271Y-120970827D01*
X141306269Y-120970823D01*
X141306268Y-120970821D01*
X141231484Y-120858899D01*
X141210607Y-120792224D01*
X141229091Y-120724844D01*
X141233160Y-120718676D01*
X141239322Y-120709913D01*
X141280520Y-120668716D01*
X141333781Y-120576465D01*
X141359577Y-120531785D01*
X141389221Y-120421153D01*
X146599500Y-120421153D01*
X146599500Y-120578846D01*
X146630261Y-120733489D01*
X146630264Y-120733501D01*
X146690602Y-120879172D01*
X146690609Y-120879185D01*
X146778210Y-121010288D01*
X146778213Y-121010292D01*
X146889707Y-121121786D01*
X146889711Y-121121789D01*
X147020814Y-121209390D01*
X147020827Y-121209397D01*
X147166498Y-121269735D01*
X147166503Y-121269737D01*
X147320479Y-121300365D01*
X147321153Y-121300499D01*
X147321156Y-121300500D01*
X147321158Y-121300500D01*
X147478844Y-121300500D01*
X147478845Y-121300499D01*
X147633497Y-121269737D01*
X147752548Y-121220425D01*
X147822017Y-121212956D01*
X147847452Y-121220425D01*
X147966498Y-121269735D01*
X147966503Y-121269737D01*
X148120479Y-121300365D01*
X148121153Y-121300499D01*
X148121156Y-121300500D01*
X148121158Y-121300500D01*
X148278844Y-121300500D01*
X148278845Y-121300499D01*
X148433497Y-121269737D01*
X148579179Y-121209394D01*
X148710289Y-121121789D01*
X148821789Y-121010289D01*
X148909394Y-120879179D01*
X148969737Y-120733497D01*
X149000500Y-120578842D01*
X149000500Y-120421158D01*
X149000500Y-120421155D01*
X149000499Y-120421153D01*
X148992569Y-120381286D01*
X148969737Y-120266503D01*
X148933427Y-120178842D01*
X148909397Y-120120827D01*
X148909390Y-120120814D01*
X148821789Y-119989711D01*
X148821786Y-119989707D01*
X148710292Y-119878213D01*
X148710288Y-119878210D01*
X148579185Y-119790609D01*
X148579172Y-119790602D01*
X148433501Y-119730264D01*
X148433489Y-119730261D01*
X148278845Y-119699500D01*
X148278842Y-119699500D01*
X148121158Y-119699500D01*
X148121155Y-119699500D01*
X147966510Y-119730261D01*
X147966498Y-119730264D01*
X147847452Y-119779574D01*
X147777982Y-119787043D01*
X147752548Y-119779574D01*
X147633501Y-119730264D01*
X147633489Y-119730261D01*
X147478845Y-119699500D01*
X147478842Y-119699500D01*
X147321158Y-119699500D01*
X147321155Y-119699500D01*
X147166510Y-119730261D01*
X147166498Y-119730264D01*
X147020827Y-119790602D01*
X147020814Y-119790609D01*
X146889711Y-119878210D01*
X146889707Y-119878213D01*
X146778213Y-119989707D01*
X146778210Y-119989711D01*
X146690609Y-120120814D01*
X146690602Y-120120827D01*
X146630264Y-120266498D01*
X146630261Y-120266510D01*
X146599500Y-120421153D01*
X141389221Y-120421153D01*
X141400500Y-120379057D01*
X141400500Y-120220943D01*
X141400500Y-115900096D01*
X141420185Y-115833057D01*
X141436815Y-115812419D01*
X142358506Y-114890727D01*
X142358511Y-114890724D01*
X142368714Y-114880520D01*
X142368716Y-114880520D01*
X142480520Y-114768716D01*
X142543531Y-114659577D01*
X142559577Y-114631785D01*
X142600500Y-114479058D01*
X142600500Y-114320943D01*
X142600500Y-113021153D01*
X143399500Y-113021153D01*
X143399500Y-113178846D01*
X143430261Y-113333489D01*
X143430264Y-113333501D01*
X143490602Y-113479172D01*
X143490609Y-113479185D01*
X143578210Y-113610288D01*
X143578213Y-113610292D01*
X143689707Y-113721786D01*
X143689711Y-113721789D01*
X143820814Y-113809390D01*
X143820827Y-113809397D01*
X143958683Y-113866498D01*
X143966503Y-113869737D01*
X144119167Y-113900104D01*
X144121153Y-113900499D01*
X144121156Y-113900500D01*
X144121158Y-113900500D01*
X144278844Y-113900500D01*
X144278845Y-113900499D01*
X144433497Y-113869737D01*
X144579179Y-113809394D01*
X144710289Y-113721789D01*
X144821789Y-113610289D01*
X144909394Y-113479179D01*
X144969737Y-113333497D01*
X145000500Y-113178842D01*
X145000500Y-113021158D01*
X145000500Y-113021155D01*
X145000499Y-113021153D01*
X144969737Y-112866503D01*
X144969735Y-112866498D01*
X144909397Y-112720827D01*
X144909390Y-112720814D01*
X144821789Y-112589711D01*
X144821786Y-112589707D01*
X144710292Y-112478213D01*
X144710288Y-112478210D01*
X144579185Y-112390609D01*
X144579172Y-112390602D01*
X144433501Y-112330264D01*
X144433489Y-112330261D01*
X144278845Y-112299500D01*
X144278842Y-112299500D01*
X144121158Y-112299500D01*
X144121155Y-112299500D01*
X143966510Y-112330261D01*
X143966498Y-112330264D01*
X143820827Y-112390602D01*
X143820814Y-112390609D01*
X143689711Y-112478210D01*
X143689707Y-112478213D01*
X143578213Y-112589707D01*
X143578210Y-112589711D01*
X143490609Y-112720814D01*
X143490602Y-112720827D01*
X143430264Y-112866498D01*
X143430261Y-112866510D01*
X143399500Y-113021153D01*
X142600500Y-113021153D01*
X142600500Y-106220943D01*
X142594755Y-106199500D01*
X142559577Y-106068215D01*
X142515836Y-105992454D01*
X142498178Y-105961869D01*
X142480521Y-105931285D01*
X142364385Y-105815149D01*
X142364374Y-105815139D01*
X139813328Y-103264094D01*
X139813316Y-103264080D01*
X138761417Y-102212181D01*
X138727932Y-102150858D01*
X138732916Y-102081166D01*
X138774788Y-102025233D01*
X138840252Y-102000816D01*
X138849098Y-102000500D01*
X138978844Y-102000500D01*
X138978845Y-102000499D01*
X139133497Y-101969737D01*
X139252548Y-101920425D01*
X139322017Y-101912956D01*
X139347453Y-101920425D01*
X139466503Y-101969737D01*
X139621153Y-102000499D01*
X139621156Y-102000500D01*
X139621158Y-102000500D01*
X139778844Y-102000500D01*
X139778845Y-102000499D01*
X139933497Y-101969737D01*
X140079179Y-101909394D01*
X140210289Y-101821789D01*
X140321789Y-101710289D01*
X140409394Y-101579179D01*
X140469737Y-101433497D01*
X140500500Y-101278842D01*
X140500500Y-101121158D01*
X140500500Y-101121155D01*
X140500499Y-101121153D01*
X140498159Y-101109390D01*
X140469737Y-100966503D01*
X140429230Y-100868709D01*
X140409397Y-100820827D01*
X140409390Y-100820814D01*
X140321789Y-100689711D01*
X140321786Y-100689707D01*
X140210292Y-100578213D01*
X140210288Y-100578210D01*
X140079185Y-100490609D01*
X140079172Y-100490602D01*
X139933501Y-100430264D01*
X139933489Y-100430261D01*
X139838730Y-100411412D01*
X139776819Y-100379027D01*
X139775240Y-100377476D01*
X139136819Y-99739055D01*
X139103334Y-99677732D01*
X139100500Y-99651374D01*
X139100500Y-95249097D01*
X139120185Y-95182058D01*
X139172989Y-95136303D01*
X139242147Y-95126359D01*
X139305703Y-95155384D01*
G37*
%TD.AperFunction*%
%TA.AperFunction,Conductor*%
G36*
X131939467Y-119075916D02*
G01*
X131942147Y-119075531D01*
X131967829Y-119082085D01*
X132000017Y-119094091D01*
X132059627Y-119100500D01*
X133542705Y-119100499D01*
X133609744Y-119120184D01*
X133655499Y-119172987D01*
X133666705Y-119224499D01*
X133666705Y-120321291D01*
X133647020Y-120388330D01*
X133645807Y-120390182D01*
X133557814Y-120521871D01*
X133557807Y-120521884D01*
X133497469Y-120667555D01*
X133497466Y-120667567D01*
X133466705Y-120822210D01*
X133466705Y-120979903D01*
X133497466Y-121134546D01*
X133497469Y-121134558D01*
X133546318Y-121252490D01*
X133553787Y-121321959D01*
X133546318Y-121347394D01*
X133496546Y-121467554D01*
X133496543Y-121467566D01*
X133465782Y-121622209D01*
X133465782Y-121658403D01*
X133449170Y-121720402D01*
X133440424Y-121735550D01*
X133440423Y-121735552D01*
X133440423Y-121735553D01*
X133399499Y-121888281D01*
X133399499Y-121888283D01*
X133399499Y-122056384D01*
X133399500Y-122056397D01*
X133399500Y-123075500D01*
X133379815Y-123142539D01*
X133327011Y-123188294D01*
X133275500Y-123199500D01*
X132102129Y-123199500D01*
X132102123Y-123199501D01*
X132042514Y-123205909D01*
X131967832Y-123233763D01*
X131898140Y-123238747D01*
X131836817Y-123205261D01*
X131803333Y-123143937D01*
X131800500Y-123117581D01*
X131800500Y-119198269D01*
X131809144Y-119168828D01*
X131815668Y-119138842D01*
X131818898Y-119135611D01*
X131820185Y-119131230D01*
X131843373Y-119111136D01*
X131865074Y-119089437D01*
X131869537Y-119088466D01*
X131872989Y-119085475D01*
X131903363Y-119081107D01*
X131933347Y-119074585D01*
X131939467Y-119075916D01*
G37*
%TD.AperFunction*%
%TA.AperFunction,Conductor*%
G36*
X153141495Y-78320185D02*
G01*
X153187250Y-78372989D01*
X153198455Y-78424741D01*
X153188458Y-83509390D01*
X153163083Y-96414730D01*
X153143266Y-96481730D01*
X153090373Y-96527381D01*
X153021195Y-96537189D01*
X152957696Y-96508039D01*
X152951402Y-96502167D01*
X151934574Y-95485339D01*
X151901089Y-95424016D01*
X151900638Y-95421849D01*
X151869738Y-95266510D01*
X151869737Y-95266503D01*
X151833569Y-95179185D01*
X151809397Y-95120827D01*
X151809390Y-95120814D01*
X151721789Y-94989711D01*
X151721786Y-94989707D01*
X151610292Y-94878213D01*
X151610288Y-94878210D01*
X151479185Y-94790609D01*
X151479172Y-94790602D01*
X151333501Y-94730264D01*
X151333491Y-94730261D01*
X151182129Y-94700153D01*
X151120218Y-94667768D01*
X151096960Y-94636984D01*
X151094813Y-94632967D01*
X151007210Y-94501859D01*
X150895713Y-94390362D01*
X150895709Y-94390359D01*
X150764604Y-94302757D01*
X150764601Y-94302755D01*
X150764600Y-94302755D01*
X150738346Y-94291880D01*
X150683944Y-94248039D01*
X150661880Y-94181745D01*
X150669456Y-94139775D01*
X150667969Y-94139324D01*
X150669731Y-94133509D01*
X150669737Y-94133497D01*
X150700500Y-93978842D01*
X150700500Y-93821158D01*
X150700500Y-93821155D01*
X150700499Y-93821153D01*
X150669738Y-93666510D01*
X150669737Y-93666503D01*
X150663425Y-93651265D01*
X150609397Y-93520827D01*
X150609390Y-93520814D01*
X150521789Y-93389711D01*
X150521786Y-93389707D01*
X150410292Y-93278213D01*
X150410288Y-93278210D01*
X150279185Y-93190609D01*
X150279172Y-93190602D01*
X150133501Y-93130264D01*
X150133489Y-93130261D01*
X149978845Y-93099500D01*
X149978842Y-93099500D01*
X149821158Y-93099500D01*
X149821155Y-93099500D01*
X149666510Y-93130261D01*
X149666498Y-93130264D01*
X149520827Y-93190602D01*
X149520814Y-93190609D01*
X149389711Y-93278210D01*
X149389707Y-93278213D01*
X149278213Y-93389707D01*
X149278210Y-93389711D01*
X149190609Y-93520814D01*
X149190602Y-93520827D01*
X149130264Y-93666498D01*
X149130261Y-93666510D01*
X149099500Y-93821153D01*
X149099500Y-93978846D01*
X149130261Y-94133489D01*
X149130264Y-94133501D01*
X149190602Y-94279172D01*
X149190612Y-94279190D01*
X149206558Y-94303055D01*
X149227436Y-94369732D01*
X149208951Y-94437112D01*
X149191137Y-94459626D01*
X147834665Y-95816098D01*
X147834659Y-95816104D01*
X147831286Y-95819478D01*
X147831284Y-95819480D01*
X147719480Y-95931284D01*
X147691173Y-95980314D01*
X147685427Y-95990264D01*
X147685426Y-95990267D01*
X147676761Y-96005276D01*
X147640423Y-96068215D01*
X147599499Y-96220943D01*
X147599499Y-96220945D01*
X147599499Y-96389046D01*
X147599500Y-96389059D01*
X147599500Y-100199902D01*
X147579815Y-100266941D01*
X147563181Y-100287583D01*
X147174398Y-100676365D01*
X147113075Y-100709850D01*
X147043383Y-100704866D01*
X147017826Y-100691786D01*
X146904920Y-100616344D01*
X146904907Y-100616337D01*
X146759236Y-100555999D01*
X146759224Y-100555996D01*
X146604580Y-100525235D01*
X146604577Y-100525235D01*
X146446893Y-100525235D01*
X146446890Y-100525235D01*
X146292245Y-100555996D01*
X146292233Y-100555999D01*
X146146562Y-100616337D01*
X146146549Y-100616344D01*
X146014860Y-100704337D01*
X145948182Y-100725215D01*
X145945969Y-100725235D01*
X145491519Y-100725235D01*
X145424480Y-100705550D01*
X145403838Y-100688916D01*
X142736819Y-98021897D01*
X142736413Y-98021153D01*
X144399500Y-98021153D01*
X144399500Y-98178846D01*
X144430261Y-98333489D01*
X144430264Y-98333501D01*
X144490602Y-98479172D01*
X144490609Y-98479185D01*
X144578210Y-98610288D01*
X144578213Y-98610292D01*
X144689707Y-98721786D01*
X144689711Y-98721789D01*
X144820814Y-98809390D01*
X144820827Y-98809397D01*
X144966498Y-98869735D01*
X144966503Y-98869737D01*
X145121153Y-98900499D01*
X145121156Y-98900500D01*
X145121158Y-98900500D01*
X145278844Y-98900500D01*
X145278845Y-98900499D01*
X145433497Y-98869737D01*
X145556674Y-98818716D01*
X145579172Y-98809397D01*
X145579172Y-98809396D01*
X145579179Y-98809394D01*
X145710289Y-98721789D01*
X145821789Y-98610289D01*
X145909394Y-98479179D01*
X145969737Y-98333497D01*
X146000500Y-98178842D01*
X146000500Y-98021158D01*
X146000500Y-98021155D01*
X146000499Y-98021153D01*
X145969738Y-97866510D01*
X145969737Y-97866503D01*
X145909445Y-97720943D01*
X145909397Y-97720827D01*
X145909390Y-97720814D01*
X145821789Y-97589711D01*
X145821786Y-97589707D01*
X145710292Y-97478213D01*
X145710288Y-97478210D01*
X145579185Y-97390609D01*
X145579172Y-97390602D01*
X145433501Y-97330264D01*
X145433489Y-97330261D01*
X145278845Y-97299500D01*
X145278842Y-97299500D01*
X145121158Y-97299500D01*
X145121155Y-97299500D01*
X144966510Y-97330261D01*
X144966498Y-97330264D01*
X144820827Y-97390602D01*
X144820814Y-97390609D01*
X144689711Y-97478210D01*
X144689707Y-97478213D01*
X144578213Y-97589707D01*
X144578210Y-97589711D01*
X144490609Y-97720814D01*
X144490602Y-97720827D01*
X144430264Y-97866498D01*
X144430261Y-97866510D01*
X144399500Y-98021153D01*
X142736413Y-98021153D01*
X142703334Y-97960574D01*
X142700500Y-97934216D01*
X142700500Y-97889060D01*
X142700501Y-97889047D01*
X142700501Y-97720944D01*
X142689221Y-97678846D01*
X142659577Y-97568216D01*
X142659573Y-97568209D01*
X142580524Y-97431290D01*
X142580518Y-97431282D01*
X142236819Y-97087583D01*
X142203334Y-97026260D01*
X142200500Y-96999902D01*
X142200500Y-96520943D01*
X142200499Y-96520939D01*
X142189051Y-96478213D01*
X142188056Y-96474499D01*
X142159577Y-96368215D01*
X142124873Y-96308106D01*
X142124873Y-96308105D01*
X142080524Y-96231290D01*
X142080521Y-96231286D01*
X142080520Y-96231284D01*
X141968716Y-96119480D01*
X141968715Y-96119479D01*
X141964385Y-96115149D01*
X141964374Y-96115139D01*
X141536819Y-95687584D01*
X141503334Y-95626261D01*
X141500500Y-95599903D01*
X141500500Y-95521155D01*
X141500499Y-95521153D01*
X141480734Y-95421789D01*
X141469737Y-95366503D01*
X141428314Y-95266498D01*
X141409397Y-95220827D01*
X141409390Y-95220814D01*
X141321789Y-95089711D01*
X141321786Y-95089707D01*
X141210292Y-94978213D01*
X141210288Y-94978210D01*
X141079185Y-94890609D01*
X141079172Y-94890602D01*
X140933501Y-94830264D01*
X140933489Y-94830261D01*
X140778845Y-94799500D01*
X140778842Y-94799500D01*
X140700097Y-94799500D01*
X140633058Y-94779815D01*
X140612416Y-94763181D01*
X139536819Y-93687584D01*
X139503334Y-93626261D01*
X139500500Y-93599903D01*
X139500500Y-92267849D01*
X139520185Y-92200810D01*
X139572989Y-92155055D01*
X139600309Y-92146232D01*
X139616291Y-92143052D01*
X139733497Y-92119739D01*
X139879179Y-92059396D01*
X140010289Y-91971791D01*
X140121789Y-91860291D01*
X140209394Y-91729181D01*
X140269737Y-91583499D01*
X140300500Y-91428844D01*
X140300500Y-91271160D01*
X140300500Y-91271157D01*
X140300499Y-91271155D01*
X140269738Y-91116512D01*
X140269737Y-91116505D01*
X140269735Y-91116500D01*
X140209397Y-90970829D01*
X140209390Y-90970816D01*
X140121789Y-90839713D01*
X140121786Y-90839709D01*
X140010292Y-90728215D01*
X140010288Y-90728212D01*
X139879185Y-90640611D01*
X139879172Y-90640604D01*
X139733501Y-90580266D01*
X139733491Y-90580263D01*
X139600308Y-90553771D01*
X139538397Y-90521386D01*
X139503823Y-90460670D01*
X139500500Y-90432154D01*
X139500500Y-89431469D01*
X139520185Y-89364430D01*
X139536819Y-89343788D01*
X139743788Y-89136819D01*
X139770715Y-89122115D01*
X139796534Y-89105523D01*
X139802734Y-89104631D01*
X139805111Y-89103334D01*
X139831469Y-89100500D01*
X139920234Y-89100500D01*
X139987273Y-89120185D01*
X139989125Y-89121398D01*
X140120814Y-89209390D01*
X140120827Y-89209397D01*
X140266498Y-89269735D01*
X140266503Y-89269737D01*
X140398083Y-89295910D01*
X140417121Y-89299697D01*
X140479032Y-89332082D01*
X140513606Y-89392797D01*
X140514548Y-89445504D01*
X140499500Y-89521158D01*
X140499500Y-89678846D01*
X140530261Y-89833489D01*
X140530264Y-89833501D01*
X140590602Y-89979172D01*
X140590609Y-89979185D01*
X140678210Y-90110288D01*
X140678213Y-90110292D01*
X140789707Y-90221786D01*
X140789711Y-90221789D01*
X140920814Y-90309390D01*
X140920827Y-90309397D01*
X141066498Y-90369735D01*
X141066503Y-90369737D01*
X141221153Y-90400499D01*
X141221156Y-90400500D01*
X141221158Y-90400500D01*
X141255333Y-90400500D01*
X141322372Y-90420185D01*
X141358435Y-90455609D01*
X141438836Y-90575937D01*
X141438839Y-90575941D01*
X141550333Y-90687435D01*
X141550337Y-90687438D01*
X141681440Y-90775039D01*
X141681453Y-90775046D01*
X141827124Y-90835384D01*
X141827129Y-90835386D01*
X141981779Y-90866148D01*
X141981782Y-90866149D01*
X141981784Y-90866149D01*
X142139470Y-90866149D01*
X142139471Y-90866148D01*
X142294123Y-90835386D01*
X142439805Y-90775043D01*
X142570915Y-90687438D01*
X142682415Y-90575938D01*
X142770020Y-90444828D01*
X142830363Y-90299146D01*
X142861126Y-90144491D01*
X142861126Y-89986807D01*
X142861126Y-89986804D01*
X142861125Y-89986802D01*
X142830631Y-89833501D01*
X142830363Y-89832152D01*
X142784246Y-89720814D01*
X142770023Y-89686476D01*
X142770016Y-89686463D01*
X142682415Y-89555360D01*
X142682412Y-89555356D01*
X142570918Y-89443862D01*
X142570914Y-89443859D01*
X142439811Y-89356258D01*
X142439798Y-89356251D01*
X142294127Y-89295913D01*
X142294115Y-89295910D01*
X142139471Y-89265149D01*
X142139468Y-89265149D01*
X142105293Y-89265149D01*
X142038254Y-89245464D01*
X142002191Y-89210040D01*
X141921789Y-89089711D01*
X141921786Y-89089707D01*
X141810292Y-88978213D01*
X141810288Y-88978210D01*
X141679185Y-88890609D01*
X141679172Y-88890602D01*
X141533501Y-88830264D01*
X141533491Y-88830261D01*
X141382877Y-88800302D01*
X141320966Y-88767917D01*
X141286392Y-88707201D01*
X141285452Y-88654493D01*
X141300500Y-88578844D01*
X141300500Y-88421155D01*
X141300499Y-88421153D01*
X141269738Y-88266510D01*
X141269737Y-88266503D01*
X141269735Y-88266498D01*
X141209397Y-88120827D01*
X141209390Y-88120814D01*
X141121789Y-87989711D01*
X141121786Y-87989707D01*
X141010292Y-87878213D01*
X141010288Y-87878210D01*
X140879185Y-87790609D01*
X140879172Y-87790602D01*
X140733501Y-87730264D01*
X140733489Y-87730261D01*
X140578845Y-87699500D01*
X140578842Y-87699500D01*
X140421158Y-87699500D01*
X140421155Y-87699500D01*
X140348691Y-87713914D01*
X140327707Y-87712036D01*
X140306853Y-87715035D01*
X140293605Y-87708984D01*
X140279100Y-87707687D01*
X140262461Y-87694762D01*
X140243297Y-87686010D01*
X140235423Y-87673758D01*
X140223922Y-87664824D01*
X140216912Y-87644955D01*
X140205523Y-87627232D01*
X140201988Y-87602648D01*
X140200678Y-87598934D01*
X140200500Y-87592297D01*
X140200500Y-87400097D01*
X140220185Y-87333058D01*
X140236819Y-87312416D01*
X140275684Y-87273551D01*
X140337007Y-87240066D01*
X140406699Y-87245050D01*
X140410799Y-87246663D01*
X140466503Y-87269737D01*
X140621153Y-87300499D01*
X140621156Y-87300500D01*
X140621158Y-87300500D01*
X140778844Y-87300500D01*
X140778845Y-87300499D01*
X140933497Y-87269737D01*
X141079179Y-87209394D01*
X141210289Y-87121789D01*
X141321789Y-87010289D01*
X141409394Y-86879179D01*
X141469737Y-86733497D01*
X141500500Y-86578842D01*
X141500500Y-86421158D01*
X141500500Y-86421155D01*
X141500499Y-86421153D01*
X141478447Y-86310292D01*
X141469737Y-86266503D01*
X141433569Y-86179185D01*
X141420425Y-86147452D01*
X141412956Y-86077983D01*
X141420425Y-86052548D01*
X141469735Y-85933501D01*
X141469737Y-85933497D01*
X141500500Y-85778842D01*
X141500500Y-85621158D01*
X141500500Y-85621155D01*
X141500499Y-85621153D01*
X141469738Y-85466510D01*
X141469737Y-85466503D01*
X141450812Y-85420814D01*
X141409397Y-85320827D01*
X141409390Y-85320814D01*
X141321789Y-85189711D01*
X141321786Y-85189707D01*
X141210292Y-85078213D01*
X141210288Y-85078210D01*
X141079185Y-84990609D01*
X141079172Y-84990602D01*
X140933501Y-84930264D01*
X140933489Y-84930261D01*
X140778845Y-84899500D01*
X140778842Y-84899500D01*
X140621158Y-84899500D01*
X140621155Y-84899500D01*
X140466510Y-84930261D01*
X140466498Y-84930264D01*
X140320827Y-84990602D01*
X140320814Y-84990609D01*
X140189711Y-85078210D01*
X140189707Y-85078213D01*
X140083425Y-85184496D01*
X140078458Y-85189197D01*
X140068876Y-85197775D01*
X140031284Y-85219480D01*
X139919480Y-85331284D01*
X139919478Y-85331286D01*
X139917062Y-85333702D01*
X139802551Y-85448213D01*
X139741228Y-85481697D01*
X139671536Y-85476713D01*
X139615603Y-85434841D01*
X139593253Y-85384722D01*
X139574353Y-85289711D01*
X139569737Y-85266503D01*
X139550260Y-85219480D01*
X139509397Y-85120827D01*
X139509390Y-85120814D01*
X139421791Y-84989714D01*
X139419947Y-84987467D01*
X139419348Y-84986058D01*
X139418405Y-84984646D01*
X139418672Y-84984467D01*
X139392631Y-84923158D01*
X139404420Y-84854290D01*
X139428110Y-84821124D01*
X139912418Y-84336816D01*
X139973740Y-84303334D01*
X140000098Y-84300500D01*
X140613331Y-84300500D01*
X140613347Y-84300501D01*
X140620943Y-84300501D01*
X140779054Y-84300501D01*
X140779057Y-84300501D01*
X140931785Y-84259577D01*
X140981904Y-84230639D01*
X141068716Y-84180520D01*
X141180520Y-84068716D01*
X141180520Y-84068714D01*
X141190728Y-84058507D01*
X141190730Y-84058504D01*
X141694585Y-83554648D01*
X141734809Y-83527771D01*
X141779179Y-83509394D01*
X141910289Y-83421789D01*
X142021789Y-83310289D01*
X142109394Y-83179179D01*
X142169737Y-83033497D01*
X142200500Y-82878842D01*
X142200500Y-82721158D01*
X142200500Y-82721155D01*
X142200499Y-82721153D01*
X142169738Y-82566510D01*
X142169737Y-82566503D01*
X142169735Y-82566498D01*
X142109397Y-82420827D01*
X142109390Y-82420814D01*
X142021789Y-82289711D01*
X142021786Y-82289707D01*
X141910292Y-82178213D01*
X141910288Y-82178210D01*
X141779185Y-82090609D01*
X141779172Y-82090602D01*
X141633501Y-82030264D01*
X141633489Y-82030261D01*
X141478845Y-81999500D01*
X141478842Y-81999500D01*
X141321158Y-81999500D01*
X141321155Y-81999500D01*
X141166510Y-82030261D01*
X141166498Y-82030264D01*
X141020827Y-82090602D01*
X141020814Y-82090609D01*
X140889711Y-82178210D01*
X140889707Y-82178213D01*
X140778213Y-82289707D01*
X140778210Y-82289711D01*
X140690609Y-82420814D01*
X140690602Y-82420827D01*
X140630264Y-82566498D01*
X140630261Y-82566510D01*
X140599500Y-82721153D01*
X140599500Y-82878842D01*
X140600097Y-82884904D01*
X140598947Y-82885017D01*
X140600651Y-82889585D01*
X140594800Y-82916481D01*
X140592334Y-82943890D01*
X140587102Y-82951867D01*
X140585800Y-82957858D01*
X140564649Y-82986113D01*
X140487584Y-83063180D01*
X140426262Y-83096666D01*
X140399902Y-83099500D01*
X139786670Y-83099500D01*
X139786654Y-83099499D01*
X139779058Y-83099499D01*
X139620943Y-83099499D01*
X139544579Y-83119961D01*
X139468214Y-83140423D01*
X139468209Y-83140426D01*
X139331290Y-83219475D01*
X139331282Y-83219481D01*
X137505415Y-85045348D01*
X137465188Y-85072227D01*
X137420829Y-85090601D01*
X137420814Y-85090609D01*
X137289711Y-85178210D01*
X137289707Y-85178213D01*
X137178213Y-85289707D01*
X137178210Y-85289711D01*
X137090609Y-85420814D01*
X137090602Y-85420827D01*
X137030264Y-85566498D01*
X137030261Y-85566510D01*
X136999500Y-85721153D01*
X136999500Y-85878846D01*
X137030261Y-86033489D01*
X137030264Y-86033501D01*
X137090602Y-86179172D01*
X137090609Y-86179185D01*
X137178210Y-86310288D01*
X137178213Y-86310292D01*
X137289707Y-86421786D01*
X137289711Y-86421789D01*
X137420814Y-86509390D01*
X137420827Y-86509397D01*
X137566498Y-86569735D01*
X137566503Y-86569737D01*
X137676987Y-86591713D01*
X137699691Y-86596230D01*
X137761602Y-86628615D01*
X137796176Y-86689330D01*
X137799500Y-86717847D01*
X137799500Y-87034216D01*
X137779815Y-87101255D01*
X137763181Y-87121897D01*
X136819481Y-88065596D01*
X136819479Y-88065599D01*
X136781558Y-88131282D01*
X136781557Y-88131284D01*
X136740423Y-88202528D01*
X136740423Y-88202529D01*
X136699499Y-88355257D01*
X136699499Y-88355259D01*
X136699499Y-88523360D01*
X136699500Y-88523373D01*
X136699500Y-100664801D01*
X136699499Y-100664819D01*
X136699499Y-100830525D01*
X136699498Y-100830525D01*
X136740423Y-100983257D01*
X136740424Y-100983258D01*
X136767716Y-101030529D01*
X136813767Y-101110292D01*
X136819481Y-101120188D01*
X136863181Y-101163888D01*
X136896666Y-101225211D01*
X136899500Y-101251569D01*
X136899500Y-101713330D01*
X136899499Y-101713348D01*
X136899499Y-101720943D01*
X136899499Y-101879058D01*
X136923797Y-101969737D01*
X136940423Y-102031785D01*
X136969358Y-102081900D01*
X136969359Y-102081904D01*
X136969360Y-102081904D01*
X137019479Y-102168714D01*
X137019481Y-102168717D01*
X137138349Y-102287585D01*
X137138355Y-102287590D01*
X138840875Y-103990110D01*
X138840896Y-103990133D01*
X141363181Y-106512416D01*
X141396666Y-106573739D01*
X141399500Y-106600097D01*
X141399500Y-114099902D01*
X141379815Y-114166941D01*
X141363181Y-114187583D01*
X140319481Y-115231282D01*
X140319475Y-115231290D01*
X140274933Y-115308441D01*
X140274933Y-115308442D01*
X140240423Y-115368214D01*
X140240423Y-115368215D01*
X140199499Y-115520943D01*
X140199499Y-115520945D01*
X140199499Y-115689046D01*
X140199500Y-115689059D01*
X140199500Y-119999902D01*
X140190855Y-120029342D01*
X140184332Y-120059329D01*
X140180577Y-120064344D01*
X140179815Y-120066941D01*
X140163181Y-120087583D01*
X139992490Y-120258273D01*
X139980314Y-120268953D01*
X139979634Y-120269474D01*
X139878275Y-120370834D01*
X139816952Y-120404319D01*
X139747260Y-120399335D01*
X139702913Y-120370834D01*
X139610292Y-120278213D01*
X139610288Y-120278210D01*
X139479185Y-120190609D01*
X139479172Y-120190602D01*
X139333501Y-120130264D01*
X139333489Y-120130261D01*
X139178845Y-120099500D01*
X139178842Y-120099500D01*
X139117848Y-120099500D01*
X139050809Y-120079815D01*
X139005054Y-120027011D01*
X138996231Y-119999692D01*
X138969738Y-119866508D01*
X138969737Y-119866507D01*
X138969737Y-119866503D01*
X138933730Y-119779574D01*
X138909397Y-119720827D01*
X138909390Y-119720814D01*
X138821789Y-119589711D01*
X138821786Y-119589707D01*
X138721683Y-119489604D01*
X138688198Y-119428281D01*
X138685364Y-119401923D01*
X138685364Y-119285837D01*
X138685363Y-119285835D01*
X138662916Y-119172987D01*
X138654601Y-119131185D01*
X138650044Y-119120184D01*
X138591927Y-118979874D01*
X138594579Y-118978775D01*
X138582833Y-118922385D01*
X138607826Y-118857138D01*
X138658981Y-118817759D01*
X138679179Y-118809394D01*
X138810289Y-118721789D01*
X138921789Y-118610289D01*
X139009394Y-118479179D01*
X139069737Y-118333497D01*
X139100500Y-118178842D01*
X139100500Y-118021158D01*
X139100500Y-118021155D01*
X139100499Y-118021153D01*
X139069738Y-117866510D01*
X139069738Y-117866508D01*
X139069737Y-117866503D01*
X139069735Y-117866498D01*
X139009397Y-117720827D01*
X139009390Y-117720814D01*
X138921789Y-117589711D01*
X138921786Y-117589707D01*
X138810292Y-117478213D01*
X138810288Y-117478210D01*
X138679185Y-117390609D01*
X138679172Y-117390602D01*
X138533501Y-117330264D01*
X138533489Y-117330261D01*
X138378845Y-117299500D01*
X138378842Y-117299500D01*
X138221158Y-117299500D01*
X138221155Y-117299500D01*
X138066510Y-117330261D01*
X138066498Y-117330264D01*
X137920827Y-117390602D01*
X137920814Y-117390609D01*
X137789711Y-117478210D01*
X137789707Y-117478213D01*
X137678213Y-117589707D01*
X137678210Y-117589711D01*
X137590609Y-117720814D01*
X137590602Y-117720827D01*
X137530264Y-117866498D01*
X137530261Y-117866508D01*
X137499361Y-118021850D01*
X137466976Y-118083761D01*
X137465425Y-118085339D01*
X136853226Y-118697539D01*
X136791903Y-118731024D01*
X136765545Y-118733858D01*
X136123527Y-118733858D01*
X136056488Y-118714173D01*
X136054636Y-118712960D01*
X135922946Y-118624967D01*
X135922933Y-118624960D01*
X135777262Y-118564622D01*
X135777255Y-118564620D01*
X135737662Y-118556744D01*
X135675752Y-118524358D01*
X135641179Y-118463641D01*
X135644920Y-118393872D01*
X135647286Y-118387696D01*
X135669737Y-118333497D01*
X135700500Y-118178842D01*
X135700500Y-118021158D01*
X135700500Y-118021155D01*
X135700499Y-118021153D01*
X135669738Y-117866510D01*
X135669738Y-117866508D01*
X135669737Y-117866503D01*
X135669735Y-117866498D01*
X135609397Y-117720827D01*
X135609390Y-117720814D01*
X135521789Y-117589711D01*
X135521786Y-117589707D01*
X135410292Y-117478213D01*
X135410288Y-117478210D01*
X135279185Y-117390609D01*
X135279172Y-117390602D01*
X135133501Y-117330264D01*
X135133489Y-117330261D01*
X134978845Y-117299500D01*
X134978842Y-117299500D01*
X134821158Y-117299500D01*
X134821155Y-117299500D01*
X134666510Y-117330261D01*
X134666498Y-117330264D01*
X134520827Y-117390602D01*
X134520814Y-117390609D01*
X134389711Y-117478210D01*
X134311151Y-117556770D01*
X134304184Y-117560573D01*
X134299544Y-117567010D01*
X134273958Y-117577077D01*
X134249827Y-117590254D01*
X134241912Y-117589687D01*
X134234527Y-117592594D01*
X134207560Y-117587231D01*
X134180136Y-117585270D01*
X134173782Y-117580513D01*
X134165999Y-117578966D01*
X134146213Y-117559875D01*
X134124202Y-117543398D01*
X134120147Y-117534726D01*
X134115718Y-117530452D01*
X134102795Y-117497609D01*
X134101354Y-117491512D01*
X134099291Y-117445346D01*
X134113000Y-117350000D01*
X134113000Y-116734174D01*
X134095775Y-116603338D01*
X134061700Y-116476171D01*
X134011201Y-116354257D01*
X134011198Y-116354252D01*
X134011197Y-116354249D01*
X134011196Y-116354248D01*
X133945379Y-116240250D01*
X133945375Y-116240243D01*
X133865041Y-116135551D01*
X133771949Y-116042459D01*
X133701004Y-115988020D01*
X133667267Y-115962132D01*
X133667249Y-115962120D01*
X133553253Y-115896304D01*
X133553248Y-115896302D01*
X133553243Y-115896299D01*
X133464305Y-115859459D01*
X133409903Y-115815618D01*
X133390143Y-115769090D01*
X133381619Y-115726239D01*
X133369737Y-115666503D01*
X133350885Y-115620989D01*
X133309397Y-115520827D01*
X133309390Y-115520814D01*
X133221789Y-115389711D01*
X133221786Y-115389707D01*
X133110292Y-115278213D01*
X133110288Y-115278210D01*
X132979185Y-115190609D01*
X132979172Y-115190602D01*
X132833501Y-115130264D01*
X132833489Y-115130261D01*
X132678845Y-115099500D01*
X132678842Y-115099500D01*
X132521158Y-115099500D01*
X132521155Y-115099500D01*
X132366510Y-115130261D01*
X132366498Y-115130264D01*
X132220827Y-115190602D01*
X132220814Y-115190609D01*
X132089711Y-115278210D01*
X132089707Y-115278213D01*
X132012181Y-115355740D01*
X131950858Y-115389225D01*
X131881166Y-115384241D01*
X131825233Y-115342369D01*
X131800816Y-115276905D01*
X131800500Y-115268059D01*
X131800500Y-109821153D01*
X132999500Y-109821153D01*
X132999500Y-109978846D01*
X133030261Y-110133489D01*
X133030264Y-110133501D01*
X133090602Y-110279172D01*
X133090609Y-110279185D01*
X133178210Y-110410288D01*
X133178213Y-110410292D01*
X133202184Y-110434263D01*
X133235669Y-110495586D01*
X133231035Y-110560378D01*
X133232030Y-110560680D01*
X133230700Y-110565062D01*
X133230685Y-110565278D01*
X133230466Y-110565833D01*
X133230260Y-110566511D01*
X133199500Y-110721153D01*
X133199500Y-110878846D01*
X133230261Y-111033489D01*
X133230264Y-111033501D01*
X133290602Y-111179172D01*
X133290609Y-111179185D01*
X133378210Y-111310288D01*
X133378213Y-111310292D01*
X133489707Y-111421786D01*
X133489711Y-111421789D01*
X133620814Y-111509390D01*
X133620827Y-111509397D01*
X133766498Y-111569735D01*
X133766503Y-111569737D01*
X133918644Y-111600000D01*
X133921153Y-111600499D01*
X133921156Y-111600500D01*
X133921158Y-111600500D01*
X134078844Y-111600500D01*
X134078845Y-111600499D01*
X134233497Y-111569737D01*
X134379179Y-111509394D01*
X134510289Y-111421789D01*
X134621789Y-111310289D01*
X134709394Y-111179179D01*
X134769737Y-111033497D01*
X134789113Y-110936085D01*
X134800638Y-110878150D01*
X134833023Y-110816239D01*
X134834519Y-110814715D01*
X137268713Y-108380521D01*
X137268716Y-108380520D01*
X137380520Y-108268716D01*
X137381131Y-108267657D01*
X137387661Y-108261104D01*
X137411544Y-108248006D01*
X137433541Y-108231942D01*
X137441730Y-108231453D01*
X137448923Y-108227509D01*
X137476093Y-108229402D01*
X137503287Y-108227780D01*
X137510440Y-108231796D01*
X137518624Y-108232367D01*
X137540460Y-108248652D01*
X137564210Y-108261987D01*
X137568055Y-108269231D01*
X137574633Y-108274137D01*
X137584198Y-108299643D01*
X137596969Y-108323701D01*
X137598360Y-108337404D01*
X137599168Y-108339558D01*
X137598767Y-108341414D01*
X137599500Y-108348627D01*
X137599500Y-110549903D01*
X137579815Y-110616942D01*
X137563181Y-110637584D01*
X134935339Y-113265425D01*
X134874016Y-113298910D01*
X134871850Y-113299361D01*
X134716508Y-113330261D01*
X134716498Y-113330264D01*
X134570827Y-113390602D01*
X134570814Y-113390609D01*
X134439711Y-113478210D01*
X134439707Y-113478213D01*
X134328213Y-113589707D01*
X134328210Y-113589711D01*
X134240609Y-113720814D01*
X134240602Y-113720827D01*
X134180264Y-113866498D01*
X134180261Y-113866510D01*
X134149500Y-114021153D01*
X134149500Y-114178846D01*
X134180261Y-114333489D01*
X134180264Y-114333501D01*
X134240602Y-114479172D01*
X134240609Y-114479185D01*
X134328210Y-114610288D01*
X134328213Y-114610292D01*
X134439707Y-114721786D01*
X134439711Y-114721789D01*
X134570814Y-114809390D01*
X134570827Y-114809397D01*
X134716498Y-114869735D01*
X134716503Y-114869737D01*
X134826340Y-114891585D01*
X134871153Y-114900499D01*
X134871156Y-114900500D01*
X134871158Y-114900500D01*
X135028844Y-114900500D01*
X135028845Y-114900499D01*
X135183497Y-114869737D01*
X135329179Y-114809394D01*
X135460289Y-114721789D01*
X135571789Y-114610289D01*
X135659394Y-114479179D01*
X135719737Y-114333497D01*
X135739113Y-114236085D01*
X135750638Y-114178150D01*
X135783023Y-114116239D01*
X135784518Y-114114716D01*
X138187822Y-111711413D01*
X138249145Y-111677928D01*
X138318837Y-111682912D01*
X138374770Y-111724784D01*
X138399187Y-111790248D01*
X138399503Y-111799094D01*
X138399503Y-113099899D01*
X138390858Y-113129336D01*
X138384335Y-113159327D01*
X138380579Y-113164343D01*
X138379818Y-113166938D01*
X138363188Y-113187575D01*
X138285339Y-113265425D01*
X138285337Y-113265427D01*
X138224013Y-113298911D01*
X138221848Y-113299362D01*
X138066508Y-113330261D01*
X138066498Y-113330264D01*
X137920827Y-113390602D01*
X137920814Y-113390609D01*
X137789711Y-113478210D01*
X137789707Y-113478213D01*
X137678213Y-113589707D01*
X137678210Y-113589711D01*
X137590609Y-113720814D01*
X137590602Y-113720827D01*
X137530264Y-113866498D01*
X137530261Y-113866510D01*
X137499500Y-114021153D01*
X137499500Y-114178846D01*
X137530261Y-114333489D01*
X137530264Y-114333501D01*
X137590602Y-114479172D01*
X137590609Y-114479185D01*
X137678210Y-114610288D01*
X137678213Y-114610292D01*
X137789707Y-114721786D01*
X137789711Y-114721789D01*
X137920814Y-114809390D01*
X137920827Y-114809397D01*
X138066498Y-114869735D01*
X138066503Y-114869737D01*
X138176340Y-114891585D01*
X138221153Y-114900499D01*
X138221156Y-114900500D01*
X138221158Y-114900500D01*
X138378844Y-114900500D01*
X138378845Y-114900499D01*
X138533497Y-114869737D01*
X138679179Y-114809394D01*
X138810289Y-114721789D01*
X138921789Y-114610289D01*
X139009394Y-114479179D01*
X139069737Y-114333497D01*
X139089113Y-114236085D01*
X139100638Y-114178150D01*
X139133023Y-114116239D01*
X139134513Y-114114721D01*
X139480523Y-113768713D01*
X139559580Y-113631781D01*
X139600504Y-113479054D01*
X139600504Y-113320939D01*
X139600504Y-113313344D01*
X139600503Y-113313326D01*
X139600503Y-111524500D01*
X139620188Y-111457461D01*
X139672992Y-111411706D01*
X139724503Y-111400500D01*
X139728844Y-111400500D01*
X139728845Y-111400499D01*
X139883497Y-111369737D01*
X140029179Y-111309394D01*
X140160289Y-111221789D01*
X140271789Y-111110289D01*
X140359394Y-110979179D01*
X140419737Y-110833497D01*
X140450500Y-110678842D01*
X140450500Y-110521158D01*
X140450500Y-110521155D01*
X140450499Y-110521153D01*
X140428447Y-110410292D01*
X140419737Y-110366503D01*
X140383569Y-110279185D01*
X140359397Y-110220827D01*
X140359390Y-110220814D01*
X140271789Y-110089711D01*
X140271786Y-110089707D01*
X140160292Y-109978213D01*
X140160288Y-109978210D01*
X140029185Y-109890609D01*
X140029172Y-109890602D01*
X139883501Y-109830264D01*
X139883489Y-109830261D01*
X139728845Y-109799500D01*
X139728842Y-109799500D01*
X139724503Y-109799500D01*
X139657464Y-109779815D01*
X139611709Y-109727011D01*
X139600503Y-109675500D01*
X139600503Y-107679765D01*
X139620188Y-107612726D01*
X139621401Y-107610874D01*
X139709393Y-107479185D01*
X139709393Y-107479184D01*
X139709397Y-107479179D01*
X139769740Y-107333497D01*
X139800503Y-107178842D01*
X139800503Y-107021158D01*
X139800503Y-107021155D01*
X139800502Y-107021153D01*
X139769740Y-106866503D01*
X139766525Y-106858741D01*
X139709400Y-106720827D01*
X139709393Y-106720814D01*
X139621792Y-106589711D01*
X139621789Y-106589707D01*
X139510295Y-106478213D01*
X139510291Y-106478210D01*
X139379188Y-106390609D01*
X139379175Y-106390602D01*
X139233504Y-106330264D01*
X139233492Y-106330261D01*
X139078848Y-106299500D01*
X139078845Y-106299500D01*
X138921161Y-106299500D01*
X138921158Y-106299500D01*
X138766513Y-106330261D01*
X138766501Y-106330264D01*
X138647453Y-106379575D01*
X138577983Y-106387044D01*
X138552549Y-106379575D01*
X138433501Y-106330264D01*
X138433489Y-106330261D01*
X138278845Y-106299500D01*
X138278842Y-106299500D01*
X138121158Y-106299500D01*
X138121155Y-106299500D01*
X137966510Y-106330261D01*
X137966498Y-106330264D01*
X137820827Y-106390602D01*
X137820814Y-106390609D01*
X137689711Y-106478210D01*
X137689707Y-106478213D01*
X137578213Y-106589707D01*
X137578210Y-106589711D01*
X137508195Y-106694496D01*
X137454583Y-106739301D01*
X137385258Y-106748008D01*
X137336202Y-106728707D01*
X137279185Y-106690609D01*
X137279172Y-106690602D01*
X137133501Y-106630264D01*
X137133489Y-106630261D01*
X136978845Y-106599500D01*
X136978842Y-106599500D01*
X136821158Y-106599500D01*
X136821155Y-106599500D01*
X136666510Y-106630261D01*
X136666498Y-106630264D01*
X136520827Y-106690602D01*
X136520814Y-106690609D01*
X136389711Y-106778210D01*
X136389707Y-106778213D01*
X136337681Y-106830240D01*
X136276358Y-106863725D01*
X136206666Y-106858741D01*
X136162319Y-106830240D01*
X136110292Y-106778213D01*
X136110288Y-106778210D01*
X135979185Y-106690609D01*
X135979172Y-106690602D01*
X135833501Y-106630264D01*
X135833489Y-106630261D01*
X135678845Y-106599500D01*
X135678842Y-106599500D01*
X135521158Y-106599500D01*
X135521155Y-106599500D01*
X135366505Y-106630261D01*
X135366496Y-106630264D01*
X135365822Y-106630544D01*
X135365440Y-106630584D01*
X135360670Y-106632032D01*
X135360395Y-106631126D01*
X135296352Y-106638004D01*
X135249492Y-106619079D01*
X135187223Y-106577472D01*
X135187210Y-106577465D01*
X135041539Y-106517127D01*
X135041527Y-106517124D01*
X134886883Y-106486363D01*
X134886880Y-106486363D01*
X134729196Y-106486363D01*
X134729193Y-106486363D01*
X134574548Y-106517124D01*
X134574536Y-106517127D01*
X134428865Y-106577465D01*
X134428852Y-106577472D01*
X134297749Y-106665073D01*
X134297745Y-106665076D01*
X134186251Y-106776570D01*
X134186248Y-106776574D01*
X134098647Y-106907677D01*
X134098640Y-106907690D01*
X134038302Y-107053361D01*
X134038299Y-107053373D01*
X134007538Y-107208016D01*
X134007538Y-107365709D01*
X134038299Y-107520352D01*
X134038302Y-107520364D01*
X134098640Y-107666035D01*
X134098647Y-107666048D01*
X134186248Y-107797151D01*
X134186251Y-107797155D01*
X134297745Y-107908649D01*
X134297749Y-107908652D01*
X134428852Y-107996253D01*
X134428865Y-107996260D01*
X134558385Y-108049908D01*
X134612789Y-108093748D01*
X134634854Y-108160042D01*
X134617575Y-108227742D01*
X134598614Y-108252150D01*
X133785339Y-109065425D01*
X133724016Y-109098910D01*
X133721850Y-109099361D01*
X133566508Y-109130261D01*
X133566498Y-109130264D01*
X133420827Y-109190602D01*
X133420814Y-109190609D01*
X133289711Y-109278210D01*
X133289707Y-109278213D01*
X133178213Y-109389707D01*
X133178210Y-109389711D01*
X133090609Y-109520814D01*
X133090602Y-109520827D01*
X133030264Y-109666498D01*
X133030261Y-109666510D01*
X132999500Y-109821153D01*
X131800500Y-109821153D01*
X131800500Y-103621153D01*
X134199500Y-103621153D01*
X134199500Y-103778846D01*
X134230261Y-103933489D01*
X134230264Y-103933501D01*
X134290602Y-104079172D01*
X134290609Y-104079185D01*
X134378210Y-104210288D01*
X134378213Y-104210292D01*
X134489707Y-104321786D01*
X134489711Y-104321789D01*
X134620814Y-104409390D01*
X134620827Y-104409397D01*
X134733872Y-104456221D01*
X134766503Y-104469737D01*
X134921153Y-104500499D01*
X134921156Y-104500500D01*
X134921158Y-104500500D01*
X135078844Y-104500500D01*
X135078845Y-104500499D01*
X135233497Y-104469737D01*
X135379179Y-104409394D01*
X135510289Y-104321789D01*
X135621789Y-104210289D01*
X135709394Y-104079179D01*
X135737433Y-104011484D01*
X135781271Y-103957084D01*
X135847565Y-103935018D01*
X135915265Y-103952296D01*
X135962876Y-104003432D01*
X135966554Y-104011486D01*
X136013988Y-104126002D01*
X136013993Y-104126012D01*
X136101594Y-104257115D01*
X136101597Y-104257119D01*
X136213091Y-104368613D01*
X136213095Y-104368616D01*
X136344198Y-104456217D01*
X136344211Y-104456224D01*
X136489882Y-104516562D01*
X136489887Y-104516564D01*
X136644537Y-104547326D01*
X136644540Y-104547327D01*
X136644542Y-104547327D01*
X136802228Y-104547327D01*
X136802229Y-104547326D01*
X136956881Y-104516564D01*
X137102563Y-104456221D01*
X137233673Y-104368616D01*
X137345173Y-104257116D01*
X137432778Y-104126006D01*
X137493121Y-103980324D01*
X137523884Y-103825669D01*
X137523884Y-103667985D01*
X137523884Y-103667982D01*
X137523883Y-103667980D01*
X137493122Y-103513337D01*
X137493121Y-103513330D01*
X137492491Y-103511808D01*
X137432781Y-103367654D01*
X137432774Y-103367641D01*
X137345173Y-103236538D01*
X137345170Y-103236534D01*
X137233676Y-103125040D01*
X137233672Y-103125037D01*
X137102569Y-103037436D01*
X137102556Y-103037429D01*
X136956885Y-102977091D01*
X136956873Y-102977088D01*
X136802229Y-102946327D01*
X136802226Y-102946327D01*
X136644542Y-102946327D01*
X136644539Y-102946327D01*
X136489894Y-102977088D01*
X136489882Y-102977091D01*
X136344211Y-103037429D01*
X136344198Y-103037436D01*
X136213095Y-103125037D01*
X136213091Y-103125040D01*
X136101597Y-103236534D01*
X136101594Y-103236538D01*
X136013993Y-103367641D01*
X136013988Y-103367650D01*
X135985951Y-103435340D01*
X135942110Y-103489743D01*
X135875816Y-103511808D01*
X135808117Y-103494529D01*
X135760506Y-103443392D01*
X135756829Y-103435339D01*
X135709397Y-103320827D01*
X135709390Y-103320814D01*
X135621789Y-103189711D01*
X135621786Y-103189707D01*
X135510292Y-103078213D01*
X135510288Y-103078210D01*
X135379185Y-102990609D01*
X135379172Y-102990602D01*
X135233501Y-102930264D01*
X135233489Y-102930261D01*
X135078845Y-102899500D01*
X135078842Y-102899500D01*
X134921158Y-102899500D01*
X134921155Y-102899500D01*
X134766510Y-102930261D01*
X134766498Y-102930264D01*
X134620827Y-102990602D01*
X134620814Y-102990609D01*
X134489711Y-103078210D01*
X134489707Y-103078213D01*
X134378213Y-103189707D01*
X134378210Y-103189711D01*
X134290609Y-103320814D01*
X134290602Y-103320827D01*
X134230264Y-103466498D01*
X134230261Y-103466510D01*
X134199500Y-103621153D01*
X131800500Y-103621153D01*
X131800500Y-98529054D01*
X132399498Y-98529054D01*
X132399499Y-98529057D01*
X132440423Y-98681785D01*
X132440424Y-98681787D01*
X132440423Y-98681787D01*
X132453986Y-98705277D01*
X132453987Y-98705279D01*
X132519475Y-98818709D01*
X132519481Y-98818717D01*
X132638349Y-98937585D01*
X132638355Y-98937590D01*
X134115425Y-100414660D01*
X134148910Y-100475983D01*
X134149361Y-100478149D01*
X134180261Y-100633491D01*
X134180264Y-100633501D01*
X134240602Y-100779172D01*
X134240609Y-100779185D01*
X134328210Y-100910288D01*
X134328213Y-100910292D01*
X134439707Y-101021786D01*
X134439711Y-101021789D01*
X134570814Y-101109390D01*
X134570827Y-101109397D01*
X134702382Y-101163888D01*
X134716503Y-101169737D01*
X134869685Y-101200207D01*
X134871153Y-101200499D01*
X134871156Y-101200500D01*
X134871158Y-101200500D01*
X135028844Y-101200500D01*
X135028845Y-101200499D01*
X135183497Y-101169737D01*
X135329179Y-101109394D01*
X135460289Y-101021789D01*
X135571789Y-100910289D01*
X135659394Y-100779179D01*
X135719737Y-100633497D01*
X135750500Y-100478842D01*
X135750500Y-100321158D01*
X135750500Y-100321155D01*
X135750499Y-100321153D01*
X135730543Y-100220827D01*
X135719737Y-100166503D01*
X135687929Y-100089711D01*
X135659397Y-100020827D01*
X135659390Y-100020814D01*
X135571789Y-99889711D01*
X135571786Y-99889707D01*
X135460292Y-99778213D01*
X135460288Y-99778210D01*
X135329185Y-99690609D01*
X135329172Y-99690602D01*
X135183501Y-99630264D01*
X135183491Y-99630261D01*
X135028149Y-99599361D01*
X134966238Y-99566976D01*
X134964660Y-99565425D01*
X133636819Y-98237584D01*
X133622115Y-98210656D01*
X133605523Y-98184838D01*
X133604631Y-98178637D01*
X133603334Y-98176261D01*
X133600500Y-98149903D01*
X133600500Y-98017847D01*
X133620185Y-97950808D01*
X133672989Y-97905053D01*
X133700309Y-97896230D01*
X133736354Y-97889060D01*
X133833497Y-97869737D01*
X133979179Y-97809394D01*
X134110289Y-97721789D01*
X134221789Y-97610289D01*
X134309394Y-97479179D01*
X134369737Y-97333497D01*
X134400500Y-97178842D01*
X134400500Y-97021158D01*
X134400500Y-97021155D01*
X134400499Y-97021153D01*
X134374531Y-96890606D01*
X134369737Y-96866503D01*
X134369735Y-96866498D01*
X134309397Y-96720827D01*
X134309390Y-96720814D01*
X134221789Y-96589711D01*
X134221786Y-96589707D01*
X134110292Y-96478213D01*
X134110288Y-96478210D01*
X133979185Y-96390609D01*
X133979172Y-96390602D01*
X133833501Y-96330264D01*
X133833491Y-96330261D01*
X133700308Y-96303769D01*
X133638397Y-96271384D01*
X133603823Y-96210668D01*
X133600500Y-96182152D01*
X133600500Y-95717847D01*
X133620185Y-95650808D01*
X133672989Y-95605053D01*
X133700309Y-95596230D01*
X133716291Y-95593050D01*
X133833497Y-95569737D01*
X133979179Y-95509394D01*
X134110289Y-95421789D01*
X134221789Y-95310289D01*
X134309394Y-95179179D01*
X134369737Y-95033497D01*
X134400500Y-94878842D01*
X134400500Y-94721158D01*
X134400500Y-94721155D01*
X134400499Y-94721153D01*
X134389880Y-94667768D01*
X134369737Y-94566503D01*
X134342961Y-94501859D01*
X134309397Y-94420827D01*
X134309390Y-94420814D01*
X134221789Y-94289711D01*
X134221786Y-94289707D01*
X134110292Y-94178213D01*
X134110288Y-94178210D01*
X133979185Y-94090609D01*
X133979172Y-94090602D01*
X133833501Y-94030264D01*
X133833491Y-94030261D01*
X133700308Y-94003769D01*
X133638397Y-93971384D01*
X133603823Y-93910668D01*
X133600500Y-93882152D01*
X133600500Y-93400096D01*
X133620185Y-93333057D01*
X133636815Y-93312419D01*
X133994585Y-92954648D01*
X134034809Y-92927771D01*
X134079179Y-92909394D01*
X134210289Y-92821789D01*
X134321789Y-92710289D01*
X134409394Y-92579179D01*
X134469737Y-92433497D01*
X134500500Y-92278842D01*
X134500500Y-92121158D01*
X134500500Y-92121155D01*
X134500499Y-92121153D01*
X134488214Y-92059392D01*
X134469737Y-91966503D01*
X134469735Y-91966498D01*
X134409397Y-91820827D01*
X134409390Y-91820814D01*
X134321789Y-91689711D01*
X134321786Y-91689707D01*
X134210292Y-91578213D01*
X134210288Y-91578210D01*
X134079185Y-91490609D01*
X134079172Y-91490602D01*
X133933501Y-91430264D01*
X133933489Y-91430261D01*
X133778845Y-91399500D01*
X133778842Y-91399500D01*
X133621158Y-91399500D01*
X133621155Y-91399500D01*
X133466510Y-91430261D01*
X133466498Y-91430264D01*
X133320827Y-91490602D01*
X133320814Y-91490609D01*
X133189711Y-91578210D01*
X133189707Y-91578213D01*
X133078213Y-91689707D01*
X133078210Y-91689711D01*
X132990609Y-91820814D01*
X132990602Y-91820827D01*
X132930264Y-91966498D01*
X132930261Y-91966510D01*
X132899500Y-92121153D01*
X132899500Y-92278842D01*
X132900097Y-92284904D01*
X132897624Y-92285147D01*
X132892328Y-92343907D01*
X132864648Y-92386115D01*
X132634194Y-92616569D01*
X132634186Y-92616577D01*
X132631286Y-92619478D01*
X132631284Y-92619480D01*
X132519480Y-92731284D01*
X132497869Y-92768716D01*
X132491794Y-92779236D01*
X132491792Y-92779240D01*
X132467227Y-92821789D01*
X132440423Y-92868215D01*
X132399499Y-93020943D01*
X132399499Y-93179057D01*
X132399499Y-93179059D01*
X132399500Y-93189053D01*
X132399500Y-98363330D01*
X132399499Y-98363348D01*
X132399499Y-98529054D01*
X132399498Y-98529054D01*
X131800500Y-98529054D01*
X131800500Y-90021153D01*
X132599500Y-90021153D01*
X132599500Y-90178846D01*
X132630261Y-90333489D01*
X132630264Y-90333501D01*
X132690602Y-90479172D01*
X132690609Y-90479185D01*
X132778210Y-90610288D01*
X132778213Y-90610292D01*
X132889707Y-90721786D01*
X132889711Y-90721789D01*
X133020814Y-90809390D01*
X133020827Y-90809397D01*
X133157838Y-90866148D01*
X133166503Y-90869737D01*
X133321153Y-90900499D01*
X133321156Y-90900500D01*
X133321158Y-90900500D01*
X133478844Y-90900500D01*
X133478845Y-90900499D01*
X133633497Y-90869737D01*
X133779179Y-90809394D01*
X133910289Y-90721789D01*
X134021789Y-90610289D01*
X134109394Y-90479179D01*
X134169737Y-90333497D01*
X134200500Y-90178842D01*
X134200500Y-90021158D01*
X134200500Y-90021155D01*
X134200499Y-90021153D01*
X134193667Y-89986807D01*
X134169737Y-89866503D01*
X134156062Y-89833489D01*
X134109397Y-89720827D01*
X134109390Y-89720814D01*
X134021789Y-89589711D01*
X134021786Y-89589707D01*
X133910292Y-89478213D01*
X133910288Y-89478210D01*
X133779185Y-89390609D01*
X133779172Y-89390602D01*
X133633501Y-89330264D01*
X133633489Y-89330261D01*
X133478845Y-89299500D01*
X133478842Y-89299500D01*
X133321158Y-89299500D01*
X133321155Y-89299500D01*
X133166510Y-89330261D01*
X133166498Y-89330264D01*
X133020827Y-89390602D01*
X133020814Y-89390609D01*
X132889711Y-89478210D01*
X132889707Y-89478213D01*
X132778213Y-89589707D01*
X132778210Y-89589711D01*
X132690609Y-89720814D01*
X132690602Y-89720827D01*
X132630264Y-89866498D01*
X132630261Y-89866510D01*
X132599500Y-90021153D01*
X131800500Y-90021153D01*
X131800500Y-78424500D01*
X131820185Y-78357461D01*
X131872989Y-78311706D01*
X131924500Y-78300500D01*
X153074456Y-78300500D01*
X153141495Y-78320185D01*
G37*
%TD.AperFunction*%
%TD*%
M02*
