M48
; DRILL file KiCad 10.0.2 date 2026-05-19T17:18:50
; FORMAT={-:-/ absolute / metric / decimal}
; #@! TF.CreationDate,2026-05-19T17:18:50+02:00
; #@! TF.GenerationSoftware,Kicad,Pcbnew,10.0.2
; #@! TF.FileFunction,Plated,1,4,PTH
FMAT,2
METRIC
; #@! TA.AperFunction,Plated,PTH,ViaDrill
T1C0.300
; #@! TA.AperFunction,Plated,PTH,ComponentDrill
T2C0.600
; #@! TA.AperFunction,Plated,PTH,ComponentDrill
T3C1.000
%
G90
G05
T1
X132.1Y-126.2
X132.133Y-81.654
X132.141Y-80.733
X132.6Y-115.9
X133.1Y-79.266
X133.1Y-82.2
X133.1Y-83.1
X133.1Y-80.2
X133.3Y-103.55
X133.3Y-107.45
X133.327Y-126.493
X133.4Y-90.1
X133.537Y-121.228
X133.6Y-94.8
X133.6Y-97.1
X133.7Y-92.2
X133.793Y-83.702
X133.793Y-78.696
X133.8Y-109.9
X134.0Y-110.8
X134.266Y-121.701
X134.267Y-120.901
X134.366Y-91.756
X134.366Y-94.034
X134.4Y-87.5
X134.5Y-89.4
X134.5Y-96.4
X134.5Y-126.1
X134.683Y-83.7
X134.683Y-78.698
X134.808Y-107.287
X134.9Y-116.1
X134.9Y-118.1
X134.95Y-100.4
X134.95Y-114.1
X135.0Y-103.7
X135.1Y-120.0
X135.544Y-119.334
X135.6Y-107.4
X135.726Y-83.7
X135.726Y-78.698
X135.799Y-103.732
X136.0Y-126.0
X136.166Y-106.835
X136.2Y-120.9
X136.2Y-121.7
X136.3Y-82.2
X136.3Y-80.198
X136.323Y-83.19
X136.323Y-79.208
X136.723Y-103.747
X136.9Y-86.0
X136.9Y-107.4
X137.0Y-126.0
X137.1Y-120.9
X137.1Y-121.6
X137.13Y-79.777
X137.3Y-81.6
X137.6Y-103.6
X137.8Y-85.8
X137.833Y-80.681
X137.845Y-79.5
X137.885Y-119.365
X138.1Y-101.2
X138.2Y-107.1
X138.2Y-120.1
X138.3Y-114.1
X138.3Y-118.1
X138.35Y-116.1
X138.5Y-126.1
X138.8Y-79.5
X138.8Y-80.66
X138.8Y-85.5
X138.9Y-101.2
X139.0Y-122.1
X139.0Y-107.1
X139.1Y-120.9
X139.5Y-91.35
X139.65Y-110.6
X139.7Y-101.2
X139.949Y-80.87
X140.2Y-103.6
X140.5Y-88.5
X140.552Y-79.273
X140.597Y-107.273
X140.597Y-121.35
X140.7Y-85.7
X140.7Y-86.5
X140.7Y-95.6
X140.8Y-96.7
X140.8Y-103.6
X140.9Y-97.6
X140.982Y-80.86
X141.3Y-89.6
X141.4Y-82.8
X141.4Y-108.3
X141.484Y-79.273
X141.5Y-98.2
X141.978Y-80.839
X142.061Y-90.066
X143.34Y-80.67
X143.341Y-79.52
X144.2Y-113.1
X144.4Y-98.1
X144.44Y-80.67
X144.441Y-79.52
X145.2Y-98.1
X145.54Y-80.67
X145.541Y-79.52
X146.0Y-123.425
X146.52Y-115.387
X146.526Y-101.326
X146.602Y-102.122
X146.64Y-80.67
X146.641Y-79.52
X147.4Y-120.5
X147.74Y-80.67
X147.741Y-79.52
X147.9Y-104.0
X148.2Y-120.5
X148.37Y-115.387
X148.4Y-82.8
X148.7Y-79.9
X149.4Y-80.6
X149.4Y-123.425
X149.9Y-93.9
X150.385Y-95.012
X150.4Y-80.9
X150.4Y-82.8
X151.0Y-83.2
X151.0Y-88.5
X151.0Y-100.2
X151.1Y-95.5
X151.6Y-104.1
X152.0Y-100.6
T3
X144.135Y-107.2
X146.675Y-107.2
X151.5Y-107.79
X151.5Y-110.33
X151.5Y-112.87
X151.5Y-115.41
T2
G00X143.43Y-122.365
M15
G01X143.43Y-123.465
M16
G05
G00X143.43Y-126.795
M15
G01X143.43Y-127.395
M16
G05
G00X152.07Y-122.365
M15
G01X152.07Y-123.465
M16
G05
G00X152.07Y-126.795
M15
G01X152.07Y-127.395
M16
G05
M30
