%TF.GenerationSoftware,KiCad,Pcbnew,10.0.2*%
%TF.CreationDate,2026-05-19T17:18:54+02:00*%
%TF.ProjectId,btaudio,62746175-6469-46f2-9e6b-696361645f70,rev?*%
%TF.SameCoordinates,Original*%
%TF.FileFunction,Paste,Top*%
%TF.FilePolarity,Positive*%
%FSLAX46Y46*%
G04 Gerber Fmt 4.6, Leading zero omitted, Abs format (unit mm)*
G04 Created by KiCad (PCBNEW 10.0.2) date 2026-05-19 17:18:54*
%MOMM*%
%LPD*%
G01*
G04 APERTURE LIST*
G04 Aperture macros list*
%AMRoundRect*
0 Rectangle with rounded corners*
0 $1 Rounding radius*
0 $2 $3 $4 $5 $6 $7 $8 $9 X,Y pos of 4 corners*
0 Add a 4 corners polygon primitive as box body*
4,1,4,$2,$3,$4,$5,$6,$7,$8,$9,$2,$3,0*
0 Add four circle primitives for the rounded corners*
1,1,$1+$1,$2,$3*
1,1,$1+$1,$4,$5*
1,1,$1+$1,$6,$7*
1,1,$1+$1,$8,$9*
0 Add four rect primitives between the rounded corners*
20,1,$1+$1,$2,$3,$4,$5,0*
20,1,$1+$1,$4,$5,$6,$7,0*
20,1,$1+$1,$6,$7,$8,$9,0*
20,1,$1+$1,$8,$9,$2,$3,0*%
G04 Aperture macros list end*
%ADD10RoundRect,0.250000X0.262500X0.450000X-0.262500X0.450000X-0.262500X-0.450000X0.262500X-0.450000X0*%
%ADD11RoundRect,0.150000X-0.150000X-0.575000X0.150000X-0.575000X0.150000X0.575000X-0.150000X0.575000X0*%
%ADD12RoundRect,0.075000X-0.075000X-0.650000X0.075000X-0.650000X0.075000X0.650000X-0.075000X0.650000X0*%
%ADD13RoundRect,0.250000X0.450000X-0.262500X0.450000X0.262500X-0.450000X0.262500X-0.450000X-0.262500X0*%
%ADD14RoundRect,0.250000X0.475000X-0.250000X0.475000X0.250000X-0.475000X0.250000X-0.475000X-0.250000X0*%
%ADD15RoundRect,0.250000X-0.262500X-0.450000X0.262500X-0.450000X0.262500X0.450000X-0.262500X0.450000X0*%
%ADD16RoundRect,0.250000X-0.250000X-0.475000X0.250000X-0.475000X0.250000X0.475000X-0.250000X0.475000X0*%
%ADD17RoundRect,0.147500X0.147500X0.172500X-0.147500X0.172500X-0.147500X-0.172500X0.147500X-0.172500X0*%
%ADD18RoundRect,0.250000X0.250000X0.475000X-0.250000X0.475000X-0.250000X-0.475000X0.250000X-0.475000X0*%
%ADD19RoundRect,0.250000X-0.325000X-0.650000X0.325000X-0.650000X0.325000X0.650000X-0.325000X0.650000X0*%
%ADD20RoundRect,0.250000X-0.475000X0.250000X-0.475000X-0.250000X0.475000X-0.250000X0.475000X0.250000X0*%
%ADD21RoundRect,0.150000X0.150000X-0.587500X0.150000X0.587500X-0.150000X0.587500X-0.150000X-0.587500X0*%
%ADD22RoundRect,0.250000X-0.275000X-0.750000X0.275000X-0.750000X0.275000X0.750000X-0.275000X0.750000X0*%
%ADD23RoundRect,0.140000X0.170000X-0.140000X0.170000X0.140000X-0.170000X0.140000X-0.170000X-0.140000X0*%
%ADD24R,0.450000X1.475000*%
%ADD25R,0.800000X0.700000*%
%ADD26R,0.700000X0.800000*%
%ADD27RoundRect,0.243750X0.456250X-0.243750X0.456250X0.243750X-0.456250X0.243750X-0.456250X-0.243750X0*%
%ADD28R,0.300000X0.850000*%
%ADD29R,0.850000X0.300000*%
%ADD30R,1.700000X1.700000*%
%ADD31RoundRect,0.225000X-0.525000X0.775000X-0.525000X-0.775000X0.525000X-0.775000X0.525000X0.775000X0*%
%ADD32R,1.050000X1.000000*%
%ADD33R,2.200000X1.050000*%
%ADD34RoundRect,0.250000X-0.450000X0.262500X-0.450000X-0.262500X0.450000X-0.262500X0.450000X0.262500X0*%
G04 APERTURE END LIST*
D10*
%TO.C,R4*%
X146212500Y-119800000D03*
X144387500Y-119800000D03*
%TD*%
D11*
%TO.C,J2*%
X144500000Y-122000000D03*
X145300000Y-122000000D03*
D12*
X146500000Y-122000000D03*
X147500000Y-122000000D03*
X148000000Y-122000000D03*
X149000000Y-122000000D03*
D11*
X150200000Y-122000000D03*
X151000000Y-122000000D03*
X151000000Y-122000000D03*
X150200000Y-122000000D03*
D12*
X149500000Y-122000000D03*
X148500000Y-122000000D03*
X147000000Y-122000000D03*
X146000000Y-122000000D03*
D11*
X145300000Y-122000000D03*
X144500000Y-122000000D03*
%TD*%
D13*
%TO.C,R15*%
X148700000Y-112850000D03*
X148700000Y-111025000D03*
%TD*%
D14*
%TO.C,C33*%
X133000000Y-122250000D03*
X133000000Y-120350000D03*
%TD*%
D15*
%TO.C,R11*%
X137487500Y-114100000D03*
X139312500Y-114100000D03*
%TD*%
D14*
%TO.C,C13*%
X133300000Y-108450000D03*
X133300000Y-106550000D03*
%TD*%
D16*
%TO.C,C21*%
X133900000Y-118100000D03*
X135800000Y-118100000D03*
%TD*%
D17*
%TO.C,L1*%
X141470000Y-80100000D03*
X140500000Y-80100000D03*
%TD*%
D18*
%TO.C,C4*%
X144600000Y-110300000D03*
X142700000Y-110300000D03*
%TD*%
D19*
%TO.C,C25*%
X132500000Y-89825000D03*
X135450000Y-89825000D03*
%TD*%
D20*
%TO.C,C7*%
X137500000Y-93350000D03*
X137500000Y-95250000D03*
%TD*%
%TO.C,C8*%
X137500000Y-88550000D03*
X137500000Y-90450000D03*
%TD*%
D18*
%TO.C,C22*%
X139350000Y-118100000D03*
X137450000Y-118100000D03*
%TD*%
D16*
%TO.C,C32*%
X137700000Y-124500000D03*
X139600000Y-124500000D03*
%TD*%
D21*
%TO.C,U5*%
X142150000Y-114437500D03*
X144050000Y-114437500D03*
X143100000Y-112562500D03*
%TD*%
D22*
%TO.C,SW1*%
X147675000Y-102300000D03*
X152125000Y-102300000D03*
%TD*%
D18*
%TO.C,C29*%
X139350000Y-116100000D03*
X137450000Y-116100000D03*
%TD*%
D15*
%TO.C,R5*%
X149487500Y-119800000D03*
X151312500Y-119800000D03*
%TD*%
D23*
%TO.C,C17*%
X142400000Y-80100000D03*
X142400000Y-79140000D03*
%TD*%
%TO.C,C18*%
X139600000Y-80080000D03*
X139600000Y-79120000D03*
%TD*%
D19*
%TO.C,C31*%
X132500000Y-96900000D03*
X135450000Y-96900000D03*
%TD*%
D24*
%TO.C,U2*%
X134975000Y-108438000D03*
X135625000Y-108438000D03*
X136275000Y-108438000D03*
X136925000Y-108438000D03*
X137575000Y-108438000D03*
X138225000Y-108438000D03*
X138875000Y-108438000D03*
X139525000Y-108438000D03*
X140175000Y-108438000D03*
X140825000Y-108438000D03*
X140825000Y-102562000D03*
X140175000Y-102562000D03*
X139525000Y-102562000D03*
X138875000Y-102562000D03*
X138225000Y-102562000D03*
X137575000Y-102562000D03*
X136925000Y-102562000D03*
X136275000Y-102562000D03*
X135625000Y-102562000D03*
X134975000Y-102562000D03*
%TD*%
D25*
%TO.C,U1*%
X139800000Y-82500000D03*
X139800000Y-83500000D03*
X139800000Y-84500000D03*
X139800000Y-85500000D03*
X139800000Y-86500000D03*
X139800000Y-87500000D03*
X139800000Y-88500000D03*
X139800000Y-89500000D03*
X139800000Y-90500000D03*
X139800000Y-91500000D03*
X139800000Y-92500000D03*
X139800000Y-93500000D03*
X139800000Y-94500000D03*
X139800000Y-95500000D03*
X139800000Y-96500000D03*
X139800000Y-97500000D03*
X139800000Y-98500000D03*
D26*
X141400000Y-99100000D03*
X142400000Y-99100000D03*
X143400000Y-99100000D03*
X144400000Y-99100000D03*
X145400000Y-99100000D03*
X146400000Y-99100000D03*
X147400000Y-99100000D03*
X148400000Y-99100000D03*
X149400000Y-99100000D03*
X150400000Y-99100000D03*
D25*
X152000000Y-98500000D03*
X152000000Y-97500000D03*
X152000000Y-96500000D03*
X152000000Y-95500000D03*
X152000000Y-94500000D03*
X152000000Y-93500000D03*
X152000000Y-92500000D03*
X152000000Y-91500000D03*
X152000000Y-90500000D03*
X152000000Y-89500000D03*
X152000000Y-88500000D03*
X152000000Y-87500000D03*
X152000000Y-86500000D03*
X152000000Y-85500000D03*
X152000000Y-84500000D03*
X152000000Y-83500000D03*
X152000000Y-82500000D03*
D26*
X150400000Y-81900000D03*
X149400000Y-81900000D03*
X148400000Y-81900000D03*
X147400000Y-81900000D03*
X146400000Y-81900000D03*
X145400000Y-81900000D03*
X144400000Y-81900000D03*
X143400000Y-81900000D03*
X142400000Y-81900000D03*
X141400000Y-81900000D03*
%TD*%
D14*
%TO.C,C34*%
X140300000Y-122250000D03*
X140300000Y-120350000D03*
%TD*%
D18*
%TO.C,C23*%
X135600000Y-124500000D03*
X133700000Y-124500000D03*
%TD*%
D16*
%TO.C,C14*%
X138750000Y-110500000D03*
X140650000Y-110500000D03*
%TD*%
%TO.C,C28*%
X133900000Y-116100000D03*
X135800000Y-116100000D03*
%TD*%
D14*
%TO.C,C16*%
X136900000Y-112150000D03*
X136900000Y-110250000D03*
%TD*%
D10*
%TO.C,R10*%
X135762500Y-114100000D03*
X133937500Y-114100000D03*
%TD*%
D20*
%TO.C,C24*%
X133300000Y-102550000D03*
X133300000Y-104450000D03*
%TD*%
D18*
%TO.C,C26*%
X135850000Y-100500000D03*
X133950000Y-100500000D03*
%TD*%
D27*
%TO.C,D5*%
X148700000Y-116275000D03*
X148700000Y-114400000D03*
%TD*%
D28*
%TO.C,U3*%
X137400000Y-119800000D03*
X136900000Y-119800000D03*
X136400000Y-119800000D03*
X135900000Y-119800000D03*
D29*
X135150000Y-120550000D03*
X135150000Y-121050000D03*
X135150000Y-121550000D03*
X135150000Y-122050000D03*
D28*
X135900000Y-122800000D03*
X136400000Y-122800000D03*
X136900000Y-122800000D03*
X137400000Y-122800000D03*
D29*
X138150000Y-122050000D03*
X138150000Y-121550000D03*
X138150000Y-121050000D03*
X138150000Y-120550000D03*
D30*
X136650000Y-121300000D03*
%TD*%
D31*
%TO.C,J3*%
X136500000Y-127600000D03*
X134500000Y-127600000D03*
X138500000Y-127600000D03*
%TD*%
D13*
%TO.C,R14*%
X146800000Y-112850000D03*
X146800000Y-111025000D03*
%TD*%
D32*
%TO.C,AE2*%
X136225000Y-81200000D03*
D33*
X134700000Y-79725000D03*
D32*
X133175000Y-81200000D03*
D33*
X134700000Y-82675000D03*
%TD*%
D19*
%TO.C,C27*%
X132500000Y-92200000D03*
X135450000Y-92200000D03*
%TD*%
%TO.C,C11*%
X132500000Y-87500000D03*
X135450000Y-87500000D03*
%TD*%
D27*
%TO.C,D4*%
X146800000Y-116275000D03*
X146800000Y-114400000D03*
%TD*%
D18*
%TO.C,C5*%
X144050000Y-116600000D03*
X142150000Y-116600000D03*
%TD*%
D19*
%TO.C,C30*%
X132500000Y-94525000D03*
X135450000Y-94525000D03*
%TD*%
D16*
%TO.C,C15*%
X132950000Y-110500000D03*
X134850000Y-110500000D03*
%TD*%
D34*
%TO.C,R12*%
X137400000Y-84987500D03*
X137400000Y-86812500D03*
%TD*%
M02*
