%TF.GenerationSoftware,KiCad,Pcbnew,10.0.2*%
%TF.CreationDate,2026-05-19T17:18:54+02:00*%
%TF.ProjectId,btaudio,62746175-6469-46f2-9e6b-696361645f70,rev?*%
%TF.SameCoordinates,Original*%
%TF.FileFunction,Legend,Top*%
%TF.FilePolarity,Positive*%
%FSLAX46Y46*%
G04 Gerber Fmt 4.6, Leading zero omitted, Abs format (unit mm)*
G04 Created by KiCad (PCBNEW 10.0.2) date 2026-05-19 17:18:54*
%MOMM*%
%LPD*%
G01*
G04 APERTURE LIST*
%ADD10C,0.200000*%
%ADD11C,0.300000*%
%ADD12C,0.120000*%
%ADD13C,0.250000*%
%ADD14C,0.100000*%
G04 APERTURE END LIST*
D10*
G36*
X150666461Y-106253983D02*
G01*
X150599287Y-106249445D01*
X150539988Y-106236431D01*
X150487370Y-106215515D01*
X150439361Y-106186059D01*
X150399781Y-106150294D01*
X150367752Y-106107804D01*
X150344425Y-106060015D01*
X150330098Y-106006550D01*
X150325132Y-105946176D01*
X150325132Y-105512523D01*
X150330134Y-105451255D01*
X150344494Y-105397604D01*
X150367752Y-105350224D01*
X150399738Y-105308153D01*
X150439312Y-105272600D01*
X150487370Y-105243184D01*
X150539988Y-105222268D01*
X150599287Y-105209255D01*
X150666461Y-105204716D01*
X150734627Y-105209290D01*
X150794104Y-105222335D01*
X150846224Y-105243184D01*
X150893853Y-105272561D01*
X150933218Y-105308109D01*
X150965170Y-105350224D01*
X150988463Y-105397608D01*
X151002843Y-105451259D01*
X151007852Y-105512523D01*
X150797986Y-105512523D01*
X150793754Y-105472915D01*
X150782107Y-105442377D01*
X150763670Y-105418795D01*
X150738966Y-105401575D01*
X150707238Y-105390606D01*
X150666461Y-105386616D01*
X150625684Y-105390606D01*
X150593957Y-105401575D01*
X150569253Y-105418795D01*
X150550851Y-105442372D01*
X150539223Y-105472910D01*
X150534998Y-105512523D01*
X150534998Y-105946176D01*
X150539174Y-105984894D01*
X150550762Y-106015301D01*
X150569253Y-106039294D01*
X150594010Y-106056901D01*
X150625739Y-106068083D01*
X150666461Y-106072145D01*
X150707183Y-106068083D01*
X150738912Y-106056901D01*
X150763670Y-106039294D01*
X150782196Y-106015296D01*
X150793803Y-105984889D01*
X150797986Y-105946176D01*
X150797986Y-105851044D01*
X150646861Y-105851044D01*
X150646861Y-105673418D01*
X151007852Y-105673418D01*
X151007852Y-105946176D01*
X151002879Y-106006547D01*
X150988532Y-106060012D01*
X150965170Y-106107804D01*
X150933175Y-106150338D01*
X150893805Y-106186099D01*
X150846224Y-106215515D01*
X150794104Y-106236364D01*
X150734627Y-106249410D01*
X150666461Y-106253983D01*
G37*
G36*
X151164350Y-106240000D02*
G01*
X151164350Y-105218699D01*
X151409143Y-105218699D01*
X151673596Y-106009191D01*
X151663765Y-105889573D01*
X151654667Y-105753835D01*
X151651186Y-105638430D01*
X151651186Y-105218699D01*
X151835834Y-105218699D01*
X151835834Y-106240000D01*
X151591042Y-106240000D01*
X151329398Y-105449570D01*
X151337824Y-105555876D01*
X151345518Y-105680379D01*
X151348998Y-105792303D01*
X151348998Y-106240000D01*
X151164350Y-106240000D01*
G37*
G36*
X152409257Y-105223505D02*
G01*
X152470587Y-105237252D01*
X152524660Y-105259304D01*
X152573881Y-105290297D01*
X152614636Y-105328128D01*
X152647758Y-105373305D01*
X152671818Y-105423951D01*
X152686674Y-105481099D01*
X152691844Y-105546107D01*
X152691844Y-105911250D01*
X152686710Y-105975322D01*
X152671887Y-106032263D01*
X152647758Y-106083319D01*
X152614619Y-106128968D01*
X152573858Y-106167263D01*
X152524660Y-106198723D01*
X152470549Y-106221152D01*
X152409222Y-106235120D01*
X152339341Y-106240000D01*
X152007720Y-106240000D01*
X152007720Y-106051140D01*
X152217586Y-106051140D01*
X152339341Y-106051140D01*
X152379706Y-106046561D01*
X152413491Y-106033485D01*
X152442167Y-106012000D01*
X152464130Y-105983713D01*
X152477408Y-105950607D01*
X152482040Y-105911250D01*
X152482040Y-105546107D01*
X152477392Y-105506771D01*
X152464103Y-105473927D01*
X152442167Y-105446089D01*
X152413536Y-105424964D01*
X152379750Y-105412078D01*
X152339341Y-105407560D01*
X152217586Y-105407560D01*
X152217586Y-106051140D01*
X152007720Y-106051140D01*
X152007720Y-105218699D01*
X152339341Y-105218699D01*
X152409257Y-105223505D01*
G37*
G36*
X143246460Y-105663982D02*
G01*
X143179286Y-105659444D01*
X143119987Y-105646430D01*
X143067369Y-105625514D01*
X143019360Y-105596058D01*
X142979780Y-105560293D01*
X142947751Y-105517803D01*
X142924424Y-105470014D01*
X142910097Y-105416549D01*
X142905131Y-105356175D01*
X142905131Y-104922522D01*
X142910133Y-104861254D01*
X142924493Y-104807603D01*
X142947751Y-104760223D01*
X142979737Y-104718152D01*
X143019311Y-104682599D01*
X143067369Y-104653183D01*
X143119987Y-104632267D01*
X143179286Y-104619254D01*
X143246460Y-104614715D01*
X143314626Y-104619289D01*
X143374103Y-104632334D01*
X143426223Y-104653183D01*
X143473852Y-104682560D01*
X143513217Y-104718108D01*
X143545169Y-104760223D01*
X143568462Y-104807607D01*
X143582842Y-104861258D01*
X143587851Y-104922522D01*
X143377985Y-104922522D01*
X143373753Y-104882914D01*
X143362106Y-104852376D01*
X143343669Y-104828794D01*
X143318965Y-104811574D01*
X143287237Y-104800605D01*
X143246460Y-104796615D01*
X143205683Y-104800605D01*
X143173956Y-104811574D01*
X143149252Y-104828794D01*
X143130850Y-104852371D01*
X143119222Y-104882909D01*
X143114997Y-104922522D01*
X143114997Y-105356175D01*
X143119173Y-105394893D01*
X143130761Y-105425300D01*
X143149252Y-105449293D01*
X143174009Y-105466900D01*
X143205738Y-105478082D01*
X143246460Y-105482144D01*
X143287182Y-105478082D01*
X143318911Y-105466900D01*
X143343669Y-105449293D01*
X143362195Y-105425295D01*
X143373802Y-105394888D01*
X143377985Y-105356175D01*
X143377985Y-105261043D01*
X143226860Y-105261043D01*
X143226860Y-105083417D01*
X143587851Y-105083417D01*
X143587851Y-105356175D01*
X143582878Y-105416546D01*
X143568531Y-105470011D01*
X143545169Y-105517803D01*
X143513174Y-105560337D01*
X143473804Y-105596098D01*
X143426223Y-105625514D01*
X143374103Y-105646363D01*
X143314626Y-105659409D01*
X143246460Y-105663982D01*
G37*
G36*
X143744349Y-105650000D02*
G01*
X143744349Y-104628698D01*
X143989142Y-104628698D01*
X144253596Y-105419190D01*
X144243765Y-105299572D01*
X144234667Y-105163834D01*
X144231186Y-105048429D01*
X144231186Y-104628698D01*
X144415834Y-104628698D01*
X144415834Y-105650000D01*
X144171042Y-105650000D01*
X143909397Y-104859569D01*
X143917823Y-104965875D01*
X143925517Y-105090378D01*
X143928997Y-105202302D01*
X143928997Y-105650000D01*
X143744349Y-105650000D01*
G37*
G36*
X144989257Y-104633504D02*
G01*
X145050587Y-104647251D01*
X145104660Y-104669303D01*
X145153881Y-104700296D01*
X145194636Y-104738127D01*
X145227758Y-104783304D01*
X145251818Y-104833950D01*
X145266674Y-104891098D01*
X145271844Y-104956106D01*
X145271844Y-105321249D01*
X145266710Y-105385321D01*
X145251887Y-105442262D01*
X145227758Y-105493318D01*
X145194619Y-105538967D01*
X145153858Y-105577262D01*
X145104660Y-105608722D01*
X145050549Y-105631151D01*
X144989222Y-105645119D01*
X144919341Y-105650000D01*
X144587720Y-105650000D01*
X144587720Y-105461139D01*
X144797586Y-105461139D01*
X144919341Y-105461139D01*
X144959706Y-105456560D01*
X144993491Y-105443484D01*
X145022167Y-105421999D01*
X145044130Y-105393712D01*
X145057408Y-105360606D01*
X145062040Y-105321249D01*
X145062040Y-104956106D01*
X145057392Y-104916770D01*
X145044103Y-104883926D01*
X145022167Y-104856088D01*
X144993536Y-104834963D01*
X144959750Y-104822077D01*
X144919341Y-104817559D01*
X144797586Y-104817559D01*
X144797586Y-105461139D01*
X144587720Y-105461139D01*
X144587720Y-104628698D01*
X144919341Y-104628698D01*
X144989257Y-104633504D01*
G37*
G36*
X145974770Y-105650000D02*
G01*
X145721551Y-104628698D01*
X145938378Y-104628698D01*
X146079672Y-105273682D01*
X146097197Y-105359045D01*
X146113256Y-105447156D01*
X146127239Y-105359045D01*
X146142626Y-105272278D01*
X146279768Y-104628698D01*
X146490977Y-104628698D01*
X146240567Y-105650000D01*
X145974770Y-105650000D01*
G37*
G36*
X147014372Y-104632626D02*
G01*
X147073414Y-104643816D01*
X147125215Y-104661610D01*
X147173402Y-104687083D01*
X147212676Y-104717599D01*
X147244161Y-104753262D01*
X147267644Y-104794228D01*
X147281915Y-104839983D01*
X147286843Y-104891748D01*
X147281248Y-104947850D01*
X147265276Y-104995531D01*
X147239276Y-105036523D01*
X147204377Y-105070085D01*
X147163775Y-105092963D01*
X147116178Y-105105765D01*
X147116178Y-105108574D01*
X147170399Y-105121429D01*
X147217600Y-105148447D01*
X147256585Y-105187179D01*
X147286171Y-105235886D01*
X147304358Y-105291363D01*
X147310656Y-105354832D01*
X147305563Y-105412230D01*
X147290800Y-105463363D01*
X147266570Y-105509438D01*
X147233750Y-105549998D01*
X147193037Y-105584407D01*
X147143411Y-105612936D01*
X147089548Y-105633047D01*
X147028643Y-105645609D01*
X146959496Y-105650000D01*
X146618106Y-105650000D01*
X146618106Y-105480739D01*
X146820949Y-105480739D01*
X146952474Y-105480739D01*
X146996811Y-105476294D01*
X147032051Y-105463948D01*
X147060185Y-105444347D01*
X147081511Y-105417762D01*
X147094688Y-105384808D01*
X147099386Y-105343597D01*
X147094703Y-105302368D01*
X147081536Y-105269168D01*
X147060185Y-105242175D01*
X147031999Y-105222186D01*
X146996758Y-105209627D01*
X146952474Y-105205111D01*
X146820949Y-105205111D01*
X146820949Y-105480739D01*
X146618106Y-105480739D01*
X146618106Y-105040003D01*
X146820949Y-105040003D01*
X146944109Y-105040003D01*
X146983887Y-105035989D01*
X147015443Y-105024845D01*
X147040585Y-105007152D01*
X147059703Y-104983233D01*
X147071424Y-104954127D01*
X147075573Y-104918309D01*
X147071357Y-104881625D01*
X147059585Y-104852624D01*
X147040585Y-104829527D01*
X147015547Y-104812609D01*
X146983992Y-104801892D01*
X146944109Y-104798019D01*
X146820949Y-104798019D01*
X146820949Y-105040003D01*
X146618106Y-105040003D01*
X146618106Y-104628698D01*
X146946918Y-104628698D01*
X147014372Y-104632626D01*
G37*
G36*
X148169414Y-105650000D02*
G01*
X147955396Y-105650000D01*
X147906426Y-105419190D01*
X147662977Y-105419190D01*
X147614006Y-105650000D01*
X147399988Y-105650000D01*
X147497751Y-105251273D01*
X147697964Y-105251273D01*
X147870033Y-105251273D01*
X147821063Y-105005076D01*
X147800791Y-104899441D01*
X147784732Y-104817559D01*
X147770016Y-104898770D01*
X147749744Y-105003672D01*
X147697964Y-105251273D01*
X147497751Y-105251273D01*
X147650398Y-104628698D01*
X147916195Y-104628698D01*
X148169414Y-105650000D01*
G37*
G36*
X148518987Y-105650000D02*
G01*
X148518987Y-104817559D01*
X148260150Y-104817559D01*
X148260150Y-104628698D01*
X148987689Y-104628698D01*
X148987689Y-104817559D01*
X148728852Y-104817559D01*
X148728852Y-105650000D01*
X148518987Y-105650000D01*
G37*
G36*
X143791699Y-103013220D02*
G01*
X143854183Y-103026070D01*
X143908592Y-103046495D01*
X143958404Y-103075676D01*
X143999334Y-103111447D01*
X144032362Y-103154206D01*
X144056452Y-103202586D01*
X144071288Y-103257170D01*
X144076448Y-103319314D01*
X144070916Y-103384119D01*
X144054773Y-103442962D01*
X144028148Y-103497001D01*
X143991866Y-103544736D01*
X143948540Y-103582188D01*
X143897356Y-103610268D01*
X144090430Y-104030000D01*
X143862430Y-104030000D01*
X143697322Y-103643852D01*
X143599380Y-103643852D01*
X143599380Y-104030000D01*
X143392323Y-104030000D01*
X143392323Y-103462013D01*
X143599380Y-103462013D01*
X143719731Y-103462013D01*
X143765083Y-103457672D01*
X143800476Y-103445735D01*
X143828114Y-103427025D01*
X143849024Y-103401381D01*
X143861959Y-103369369D01*
X143866582Y-103329084D01*
X143861921Y-103286869D01*
X143848940Y-103253512D01*
X143828114Y-103226990D01*
X143800365Y-103207472D01*
X143764970Y-103195089D01*
X143719731Y-103190598D01*
X143599380Y-103190598D01*
X143599380Y-103462013D01*
X143392323Y-103462013D01*
X143392323Y-103008698D01*
X143719731Y-103008698D01*
X143791699Y-103013220D01*
G37*
G36*
X144561697Y-104043982D02*
G01*
X144490682Y-104039499D01*
X144428376Y-104026698D01*
X144373508Y-104006247D01*
X144323205Y-103977039D01*
X144282050Y-103941475D01*
X144249005Y-103899207D01*
X144224927Y-103851314D01*
X144210122Y-103797413D01*
X144204980Y-103736175D01*
X144409228Y-103736175D01*
X144413991Y-103772504D01*
X144427655Y-103802571D01*
X144450505Y-103827889D01*
X144479819Y-103846287D01*
X144516255Y-103857945D01*
X144561697Y-103862144D01*
X144606303Y-103858061D01*
X144641289Y-103846835D01*
X144668736Y-103829293D01*
X144690003Y-103805107D01*
X144702756Y-103776413D01*
X144707205Y-103741793D01*
X144700870Y-103700622D01*
X144681987Y-103664185D01*
X144663089Y-103644294D01*
X144638783Y-103629132D01*
X144607920Y-103618695D01*
X144483356Y-103589324D01*
X144406773Y-103563977D01*
X144343846Y-103527809D01*
X144292419Y-103480881D01*
X144261521Y-103438720D01*
X144239635Y-103393133D01*
X144226335Y-103343393D01*
X144221772Y-103288539D01*
X144227779Y-103221193D01*
X144244846Y-103164028D01*
X144272320Y-103115104D01*
X144310615Y-103073056D01*
X144356886Y-103040033D01*
X144411608Y-103015655D01*
X144476407Y-103000207D01*
X144553332Y-102994715D01*
X144630152Y-103000221D01*
X144695328Y-103015756D01*
X144750805Y-103040359D01*
X144798124Y-103073789D01*
X144837600Y-103116308D01*
X144865705Y-103165112D01*
X144883038Y-103221448D01*
X144889105Y-103287135D01*
X144684856Y-103287135D01*
X144680716Y-103253283D01*
X144669026Y-103226058D01*
X144649869Y-103203909D01*
X144624901Y-103187794D01*
X144593326Y-103177527D01*
X144553332Y-103173806D01*
X144514253Y-103177451D01*
X144483624Y-103187479D01*
X144459603Y-103203176D01*
X144441086Y-103224710D01*
X144429926Y-103250396D01*
X144426020Y-103281517D01*
X144431855Y-103317261D01*
X144448596Y-103345236D01*
X144477478Y-103367398D01*
X144522557Y-103383672D01*
X144651273Y-103413042D01*
X144709537Y-103430695D01*
X144760140Y-103455774D01*
X144804126Y-103488220D01*
X144842210Y-103528447D01*
X144872841Y-103574587D01*
X144894780Y-103624958D01*
X144908223Y-103680357D01*
X144912857Y-103741793D01*
X144907899Y-103801174D01*
X144893567Y-103853938D01*
X144870176Y-103901284D01*
X144838076Y-103943110D01*
X144797862Y-103978199D01*
X144748482Y-104006919D01*
X144694597Y-104026950D01*
X144632792Y-104039551D01*
X144561697Y-104043982D01*
G37*
G36*
X145293204Y-104030000D02*
G01*
X145293204Y-103197559D01*
X145034368Y-103197559D01*
X145034368Y-103008698D01*
X145761906Y-103008698D01*
X145761906Y-103197559D01*
X145503070Y-103197559D01*
X145503070Y-104030000D01*
X145293204Y-104030000D01*
G37*
D11*
X133211653Y-128400828D02*
X132711653Y-127686542D01*
X132354510Y-128400828D02*
X132354510Y-126900828D01*
X132354510Y-126900828D02*
X132925939Y-126900828D01*
X132925939Y-126900828D02*
X133068796Y-126972257D01*
X133068796Y-126972257D02*
X133140225Y-127043685D01*
X133140225Y-127043685D02*
X133211653Y-127186542D01*
X133211653Y-127186542D02*
X133211653Y-127400828D01*
X133211653Y-127400828D02*
X133140225Y-127543685D01*
X133140225Y-127543685D02*
X133068796Y-127615114D01*
X133068796Y-127615114D02*
X132925939Y-127686542D01*
X132925939Y-127686542D02*
X132354510Y-127686542D01*
X140768796Y-128400828D02*
X140054510Y-128400828D01*
X140054510Y-128400828D02*
X140054510Y-126900828D01*
%TO.C,R4*%
D12*
X145527064Y-119065000D02*
X145072936Y-119065000D01*
X145527064Y-120535000D02*
X145072936Y-120535000D01*
%TO.C,J2*%
X143050000Y-124145000D02*
X143050000Y-126145000D01*
X143050000Y-128045000D02*
X143050000Y-129945000D01*
X143050000Y-129945000D02*
X152450000Y-129945000D01*
X152450000Y-124145000D02*
X152450000Y-126145000D01*
X152450000Y-128045000D02*
X152450000Y-129945000D01*
%TO.C,R15*%
X147965000Y-112164564D02*
X147965000Y-111710436D01*
X149435000Y-112164564D02*
X149435000Y-111710436D01*
%TO.C,C33*%
X132265000Y-121561252D02*
X132265000Y-121038748D01*
X133735000Y-121561252D02*
X133735000Y-121038748D01*
%TO.C,R11*%
X138172936Y-113365000D02*
X138627064Y-113365000D01*
X138172936Y-114835000D02*
X138627064Y-114835000D01*
%TO.C,C13*%
X132565000Y-107761252D02*
X132565000Y-107238748D01*
X134035000Y-107761252D02*
X134035000Y-107238748D01*
%TO.C,C21*%
X134588748Y-117365000D02*
X135111252Y-117365000D01*
X134588748Y-118835000D02*
X135111252Y-118835000D01*
%TO.C,C4*%
X143911252Y-109565000D02*
X143388748Y-109565000D01*
X143911252Y-111035000D02*
X143388748Y-111035000D01*
%TO.C,C25*%
X133263748Y-88915000D02*
X134686252Y-88915000D01*
X133263748Y-90735000D02*
X134686252Y-90735000D01*
%TO.C,J1*%
X150120000Y-106410000D02*
X151500000Y-106410000D01*
X150120000Y-107790000D02*
X150120000Y-106410000D01*
X150120000Y-109060000D02*
X150120000Y-116790000D01*
X150120000Y-109060000D02*
X152880000Y-109060000D01*
X150120000Y-116790000D02*
X152880000Y-116790000D01*
X152880000Y-109060000D02*
X152880000Y-116790000D01*
%TO.C,C7*%
X136765000Y-94038748D02*
X136765000Y-94561252D01*
X138235000Y-94038748D02*
X138235000Y-94561252D01*
%TO.C,SW6*%
X143200000Y-102000000D02*
X143200000Y-101400000D01*
X143900000Y-100700000D02*
X145300000Y-100700000D01*
X145300000Y-102700000D02*
X143900000Y-102700000D01*
X146000000Y-101400000D02*
X146000000Y-102000000D01*
X143200000Y-101400000D02*
G75*
G02*
X143900000Y-100700000I699999J1D01*
G01*
X143900000Y-102700000D02*
G75*
G02*
X143200000Y-102000000I-1J699999D01*
G01*
X145300000Y-100700000D02*
G75*
G02*
X146000000Y-101400000I0J-700000D01*
G01*
X146000000Y-102000000D02*
G75*
G02*
X145300000Y-102700000I-700000J0D01*
G01*
%TO.C,C8*%
X136765000Y-89238748D02*
X136765000Y-89761252D01*
X138235000Y-89238748D02*
X138235000Y-89761252D01*
%TO.C,C22*%
X138661252Y-117365000D02*
X138138748Y-117365000D01*
X138661252Y-118835000D02*
X138138748Y-118835000D01*
%TO.C,C32*%
X138388748Y-123765000D02*
X138911252Y-123765000D01*
X138388748Y-125235000D02*
X138911252Y-125235000D01*
%TO.C,U5*%
X141540000Y-112740000D02*
X142540000Y-112740000D01*
X141540000Y-114260000D02*
X141540000Y-112740000D01*
X141590000Y-114260000D02*
X141540000Y-114260000D01*
X143490000Y-114260000D02*
X142710000Y-114260000D01*
X143660000Y-112740000D02*
X144660000Y-112740000D01*
X144660000Y-112740000D02*
X144660000Y-114260000D01*
X144660000Y-114260000D02*
X144610000Y-114260000D01*
X142720000Y-114800000D02*
X143050000Y-114560000D01*
X143050000Y-115040000D01*
X142720000Y-114800000D01*
G36*
X143050000Y-115040000D02*
G01*
X142720000Y-114800000D01*
X143050000Y-114560000D01*
X143050000Y-115040000D01*
G37*
%TO.C,SW1*%
X147800000Y-100650000D02*
X152000000Y-100650000D01*
X147800000Y-101040000D02*
X147800000Y-100650000D01*
X147800000Y-103560000D02*
X147800000Y-103950000D01*
X147800000Y-103950000D02*
X152000000Y-103950000D01*
X152000000Y-100650000D02*
X152000000Y-101040000D01*
X152000000Y-103950000D02*
X152000000Y-103560000D01*
%TO.C,C29*%
X138661252Y-115365000D02*
X138138748Y-115365000D01*
X138661252Y-116835000D02*
X138138748Y-116835000D01*
%TO.C,R5*%
X150172936Y-119065000D02*
X150627064Y-119065000D01*
X150172936Y-120535000D02*
X150627064Y-120535000D01*
%TO.C,C17*%
X142040000Y-79727836D02*
X142040000Y-79512164D01*
X142760000Y-79727836D02*
X142760000Y-79512164D01*
%TO.C,C18*%
X139240000Y-79707836D02*
X139240000Y-79492164D01*
X139960000Y-79707836D02*
X139960000Y-79492164D01*
%TO.C,C31*%
X133263748Y-95990000D02*
X134686252Y-95990000D01*
X133263748Y-97810000D02*
X134686252Y-97810000D01*
%TO.C,U2*%
D10*
X134400000Y-109175000D02*
X134400000Y-107700000D01*
X134650000Y-103650000D02*
X141150000Y-103650000D01*
X134650000Y-107350000D02*
X134650000Y-103650000D01*
X141150000Y-103650000D02*
X141150000Y-107350000D01*
X141150000Y-107350000D02*
X134650000Y-107350000D01*
%TO.C,C34*%
D12*
X139565000Y-121561252D02*
X139565000Y-121038748D01*
X141035000Y-121561252D02*
X141035000Y-121038748D01*
%TO.C,C23*%
X134911252Y-123765000D02*
X134388748Y-123765000D01*
X134911252Y-125235000D02*
X134388748Y-125235000D01*
%TO.C,C14*%
X139438748Y-109765000D02*
X139961252Y-109765000D01*
X139438748Y-111235000D02*
X139961252Y-111235000D01*
%TO.C,C28*%
X134588748Y-115365000D02*
X135111252Y-115365000D01*
X134588748Y-116835000D02*
X135111252Y-116835000D01*
%TO.C,C16*%
X136165000Y-111461252D02*
X136165000Y-110938748D01*
X137635000Y-111461252D02*
X137635000Y-110938748D01*
%TO.C,R10*%
X135077064Y-113365000D02*
X134622936Y-113365000D01*
X135077064Y-114835000D02*
X134622936Y-114835000D01*
%TO.C,C24*%
X132565000Y-103238748D02*
X132565000Y-103761252D01*
X134035000Y-103238748D02*
X134035000Y-103761252D01*
%TO.C,C26*%
X135161252Y-99765000D02*
X134638748Y-99765000D01*
X135161252Y-101235000D02*
X134638748Y-101235000D01*
%TO.C,D5*%
X147740000Y-114337500D02*
X147740000Y-117022500D01*
X147740000Y-117022500D02*
X149660000Y-117022500D01*
X149660000Y-117022500D02*
X149660000Y-114337500D01*
%TO.C,U3*%
D13*
X138275000Y-119375000D02*
G75*
G02*
X138025000Y-119375000I-125000J0D01*
G01*
X138025000Y-119375000D02*
G75*
G02*
X138275000Y-119375000I125000J0D01*
G01*
%TO.C,R14*%
D12*
X146065000Y-112164564D02*
X146065000Y-111710436D01*
X147535000Y-112164564D02*
X147535000Y-111710436D01*
%TO.C,J6*%
X142755000Y-105820000D02*
X142755000Y-108580000D01*
X145405000Y-105820000D02*
X142755000Y-105820000D01*
X145405000Y-105820000D02*
X145405000Y-108580000D01*
X145405000Y-108580000D02*
X142755000Y-108580000D01*
X146675000Y-105820000D02*
X148055000Y-105820000D01*
X148055000Y-105820000D02*
X148055000Y-107200000D01*
%TO.C,AE2*%
D14*
X137200000Y-81200000D02*
X137200000Y-81200000D01*
X137300000Y-81200000D02*
X137300000Y-81200000D01*
X137200000Y-81200000D02*
G75*
G02*
X137300000Y-81200000I50000J0D01*
G01*
X137300000Y-81200000D02*
G75*
G02*
X137200000Y-81200000I-50000J0D01*
G01*
%TO.C,C27*%
D12*
X133263748Y-91290000D02*
X134686252Y-91290000D01*
X133263748Y-93110000D02*
X134686252Y-93110000D01*
%TO.C,C11*%
X133263748Y-86590000D02*
X134686252Y-86590000D01*
X133263748Y-88410000D02*
X134686252Y-88410000D01*
%TO.C,D4*%
X145840000Y-114337500D02*
X145840000Y-117022500D01*
X145840000Y-117022500D02*
X147760000Y-117022500D01*
X147760000Y-117022500D02*
X147760000Y-114337500D01*
%TO.C,C5*%
X143361252Y-115865000D02*
X142838748Y-115865000D01*
X143361252Y-117335000D02*
X142838748Y-117335000D01*
%TO.C,C30*%
X133263748Y-93615000D02*
X134686252Y-93615000D01*
X133263748Y-95435000D02*
X134686252Y-95435000D01*
%TO.C,C15*%
X133638748Y-109765000D02*
X134161252Y-109765000D01*
X133638748Y-111235000D02*
X134161252Y-111235000D01*
%TO.C,R12*%
X136665000Y-85672936D02*
X136665000Y-86127064D01*
X138135000Y-85672936D02*
X138135000Y-86127064D01*
%TD*%
M02*
