%TF.GenerationSoftware,KiCad,Pcbnew,10.0.2*%
%TF.CreationDate,2026-05-19T17:18:53+02:00*%
%TF.ProjectId,btaudio,62746175-6469-46f2-9e6b-696361645f70,rev?*%
%TF.SameCoordinates,Original*%
%TF.FileFunction,Copper,L3,Inr*%
%TF.FilePolarity,Positive*%
%FSLAX46Y46*%
G04 Gerber Fmt 4.6, Leading zero omitted, Abs format (unit mm)*
G04 Created by KiCad (PCBNEW 10.0.2) date 2026-05-19 17:18:53*
%MOMM*%
%LPD*%
G01*
G04 APERTURE LIST*
%TA.AperFunction,ComponentPad*%
%ADD10O,1.000000X2.100000*%
%TD*%
%TA.AperFunction,ComponentPad*%
%ADD11O,1.000000X1.600000*%
%TD*%
%TA.AperFunction,ComponentPad*%
%ADD12R,1.700000X1.700000*%
%TD*%
%TA.AperFunction,ComponentPad*%
%ADD13C,1.700000*%
%TD*%
%TA.AperFunction,ViaPad*%
%ADD14C,0.600000*%
%TD*%
%TA.AperFunction,Conductor*%
%ADD15C,0.200000*%
%TD*%
%TA.AperFunction,Conductor*%
%ADD16C,0.280000*%
%TD*%
G04 APERTURE END LIST*
D10*
%TO.N,GND*%
%TO.C,J2*%
X143430000Y-122915000D03*
D11*
X143430000Y-127095000D03*
D10*
X152070000Y-122915000D03*
D11*
X152070000Y-127095000D03*
%TD*%
D12*
%TO.N,GND*%
%TO.C,J1*%
X151500000Y-107790000D03*
D13*
%TO.N,Net-(J1-Pin_2)*%
X151500000Y-110330000D03*
%TO.N,Net-(J1-Pin_3)*%
X151500000Y-112870000D03*
%TO.N,Net-(J1-Pin_4)*%
X151500000Y-115410000D03*
%TD*%
D12*
%TO.N,/VBAT*%
%TO.C,J6*%
X146675000Y-107200000D03*
D13*
%TO.N,GND*%
X144135000Y-107200000D03*
%TD*%
D14*
%TO.N,GND*%
X151000000Y-100200000D03*
X151600000Y-104100000D03*
X144400000Y-98100000D03*
X140200000Y-103600000D03*
X147740000Y-80670000D03*
X134683197Y-78698113D03*
X134500000Y-89400000D03*
X143341437Y-79520000D03*
X137100000Y-120900000D03*
X136300000Y-82200000D03*
X134683195Y-83700162D03*
X138800000Y-79500000D03*
X137600000Y-103600000D03*
X146640000Y-80670000D03*
X141977567Y-80839182D03*
X137130141Y-79776859D03*
X138350000Y-116100000D03*
X133300000Y-107450000D03*
X133792723Y-83702233D03*
X140551742Y-79273363D03*
X132132976Y-81654238D03*
X133537135Y-121228167D03*
X135725990Y-78698113D03*
X134500000Y-96400000D03*
X137832820Y-80680870D03*
X137000000Y-126000000D03*
X134900000Y-116100000D03*
X140800000Y-96700000D03*
X139949192Y-80870308D03*
X132141313Y-80732976D03*
X137845462Y-79500000D03*
X146641437Y-79520000D03*
X136323291Y-79207788D03*
X136200000Y-120900000D03*
X133099998Y-83100000D03*
X140981536Y-80859933D03*
X134365687Y-94034313D03*
X133099998Y-82200002D03*
X136323289Y-83190487D03*
X136200000Y-121700000D03*
X150400000Y-80900000D03*
X144441437Y-79520000D03*
X148400000Y-82800000D03*
X138800000Y-80660000D03*
X143340000Y-80670000D03*
X133099998Y-79266022D03*
X147741437Y-79520000D03*
X135725988Y-83700162D03*
X148700000Y-79900000D03*
X136300002Y-80198275D03*
X145541437Y-79520000D03*
X133792725Y-78696042D03*
X133100000Y-80200000D03*
X141484018Y-79273363D03*
X140596619Y-107273497D03*
X140800000Y-103600000D03*
X135799355Y-103732141D03*
X149400000Y-80600000D03*
X134365642Y-91756239D03*
X145540000Y-80670000D03*
X150400000Y-82800000D03*
X151000000Y-88500000D03*
X137100000Y-121600000D03*
X136166308Y-106834934D03*
X147900000Y-104000000D03*
X136900000Y-86000000D03*
X141400000Y-108300000D03*
X133300000Y-103550000D03*
X133326965Y-126492614D03*
X134400000Y-87500000D03*
X151000000Y-83200000D03*
X144440000Y-80670000D03*
X137300000Y-81600000D03*
%TO.N,/VIN*%
X139500000Y-91350002D03*
X149400000Y-123425000D03*
X146000000Y-123424999D03*
%TO.N,/D+*%
X142060626Y-90065649D03*
X148200000Y-120500000D03*
%TO.N,/D-*%
X147400000Y-120500000D03*
X141300000Y-89600000D03*
%TO.N,/VBAT*%
X140700000Y-95600000D03*
X140500000Y-88500000D03*
X146525735Y-101325735D03*
%TO.N,/PCM_OUTR*%
X138300000Y-114100000D03*
X139000003Y-107100000D03*
%TO.N,/+3V3*%
X132100000Y-126200000D03*
X144200000Y-113100000D03*
X136723384Y-103746827D03*
X135000000Y-103700000D03*
X132600000Y-115900000D03*
X133400000Y-90100000D03*
X133600000Y-94800000D03*
X145200000Y-98100000D03*
X133600000Y-97100000D03*
X140596874Y-121350000D03*
X134808038Y-107286863D03*
X139650000Y-110600000D03*
%TO.N,Net-(U3-INL-)*%
X137884864Y-119364682D03*
X134900000Y-118100000D03*
%TO.N,Net-(J1-Pin_2)*%
X151100000Y-95500000D03*
%TO.N,Net-(U1-~{RST}{slash}PIO[1])*%
X146602118Y-102122083D03*
X149900000Y-93900000D03*
%TO.N,Net-(U3-INR-)*%
X135543761Y-119334358D03*
X138300000Y-118100000D03*
%TO.N,Net-(U1-SYS_CTRL)*%
X152000000Y-100600000D03*
X150385421Y-95012149D03*
%TO.N,/CAPP*%
X135600000Y-107400000D03*
X133800000Y-109900000D03*
%TO.N,/CAPM*%
X136900000Y-107400000D03*
X134000000Y-110800000D03*
%TO.N,/PCM_OUTL*%
X134950000Y-114100000D03*
X138200000Y-107100000D03*
%TO.N,/I2S_SCK*%
X139700000Y-101200000D03*
X140700000Y-86500000D03*
%TO.N,/I2S_SDATA*%
X138900000Y-101200000D03*
X140700000Y-85700000D03*
%TO.N,/I2S_LRCK*%
X138100000Y-101200000D03*
X138800000Y-85500000D03*
%TO.N,Net-(U2-LDOO)*%
X134950000Y-100400000D03*
X133700000Y-92200000D03*
%TO.N,Net-(U1-AIO[0]{slash}LED[0])*%
X140900000Y-97600000D03*
X146519955Y-115387500D03*
%TO.N,Net-(U1-AIO[1]{slash}LED[1])*%
X148370000Y-115387500D03*
X141500000Y-98200000D03*
%TO.N,/AMP_EN*%
X139000000Y-122100000D03*
X137800000Y-85800000D03*
X141400000Y-82800000D03*
%TO.N,/HP_OUTR*%
X134500000Y-126100000D03*
X135100000Y-120000000D03*
%TO.N,/GAIN0*%
X134267205Y-120901057D03*
%TO.N,/GAIN1*%
X134266282Y-121701056D03*
%TO.N,/SGND_TRACE*%
X136000000Y-126000000D03*
X139100000Y-120900000D03*
%TO.N,/HP_OUTL*%
X138200000Y-120100000D03*
X138500000Y-126100000D03*
%TD*%
%TO.N,/VIN*%
D15*
X140000000Y-87400000D02*
X139100000Y-88300000D01*
X152650000Y-120175000D02*
X152650000Y-88350000D01*
X152650000Y-88350000D02*
X151700000Y-87400000D01*
X149400000Y-123425000D02*
X152650000Y-120175000D01*
X151700000Y-87400000D02*
X140000000Y-87400000D01*
X139100000Y-90950002D02*
X139500000Y-91350002D01*
X146000000Y-123424999D02*
X146123530Y-123424999D01*
X139100000Y-88300000D02*
X139100000Y-90950002D01*
%TO.N,/D+*%
D16*
X149390000Y-97621299D02*
X149390000Y-117678702D01*
X147990000Y-119078702D02*
X147990000Y-120290000D01*
X147990000Y-120290000D02*
X148200000Y-120500000D01*
X142060626Y-90065649D02*
X142060626Y-90291925D01*
X149390000Y-117678702D02*
X147990000Y-119078702D01*
X142060626Y-90291925D02*
X149390000Y-97621299D01*
%TO.N,/D-*%
X144865649Y-93634350D02*
X149010000Y-97778701D01*
X141300000Y-89600000D02*
X141300000Y-90068701D01*
X142625368Y-91733480D02*
X142461425Y-91897422D01*
X142461425Y-92236833D02*
X142546277Y-92321685D01*
X147610000Y-118921300D02*
X147610000Y-120290000D01*
X143734223Y-93170207D02*
X143898159Y-93006270D01*
X149010000Y-97778701D02*
X149010000Y-117521298D01*
X142885689Y-92321685D02*
X143049631Y-92157742D01*
X147610000Y-120290000D02*
X147400000Y-120500000D01*
X149010000Y-117521298D02*
X147610000Y-118921300D01*
X144237570Y-93006270D02*
X144322424Y-93091125D01*
X143473896Y-92582008D02*
X143309959Y-92745944D01*
X144322424Y-93091125D02*
X144865649Y-93634350D01*
X143309959Y-93085355D02*
X143394811Y-93170207D01*
X143389042Y-92157742D02*
X143473896Y-92242597D01*
X141300000Y-90068701D02*
X142625368Y-91394069D01*
X143898159Y-93006270D02*
G75*
G02*
X144237570Y-93006269I169706J-169707D01*
G01*
X143309959Y-92745944D02*
G75*
G03*
X143310008Y-93085306I169741J-169656D01*
G01*
X142625368Y-91394069D02*
G75*
G02*
X142625394Y-91733506I-169668J-169731D01*
G01*
X143473896Y-92242597D02*
G75*
G02*
X143473894Y-92582005I-169696J-169703D01*
G01*
X143049631Y-92157742D02*
G75*
G02*
X143389042Y-92157741I169706J-169707D01*
G01*
X143394811Y-93170207D02*
G75*
G03*
X143734223Y-93170207I169706J169704D01*
G01*
X142546277Y-92321685D02*
G75*
G03*
X142885689Y-92321685I169706J169704D01*
G01*
X142461425Y-91897422D02*
G75*
G03*
X142461452Y-92236805I169675J-169678D01*
G01*
%TO.N,Net-(U3-INL-)*%
D15*
X134900000Y-118100000D02*
X135000000Y-118200000D01*
X135000000Y-118200000D02*
X136720182Y-118200000D01*
X136720182Y-118200000D02*
X137884864Y-119364682D01*
%TO.N,/SGND_TRACE*%
X136000000Y-126000000D02*
X136000000Y-124000000D01*
X136000000Y-124000000D02*
X139100000Y-120900000D01*
%TD*%
%TA.AperFunction,Conductor*%
%TO.N,GND*%
G36*
X139879186Y-89026118D02*
G01*
X139886172Y-89029308D01*
X139922339Y-89054418D01*
X139989707Y-89121786D01*
X139989711Y-89121789D01*
X140120814Y-89209390D01*
X140120827Y-89209397D01*
X140266498Y-89269735D01*
X140266503Y-89269737D01*
X140398083Y-89295910D01*
X140399685Y-89296228D01*
X140399753Y-89296264D01*
X140432917Y-89307960D01*
X140446771Y-89315207D01*
X140459638Y-89327622D01*
X140461581Y-89328639D01*
X140462661Y-89330538D01*
X140497041Y-89363708D01*
X140497937Y-89365281D01*
X140514171Y-89424442D01*
X140514309Y-89432174D01*
X140511947Y-89458576D01*
X140504238Y-89497337D01*
X140499500Y-89521158D01*
X140499500Y-89678846D01*
X140499500Y-89678848D01*
X140499499Y-89678848D01*
X140529995Y-89832152D01*
X140530261Y-89833489D01*
X140530264Y-89833500D01*
X140530263Y-89833500D01*
X140590596Y-89979160D01*
X140590600Y-89979168D01*
X140590602Y-89979172D01*
X140590609Y-89979184D01*
X140595701Y-89986804D01*
X140628696Y-90036184D01*
X140643928Y-90068022D01*
X140653834Y-90099658D01*
X140657836Y-90125833D01*
X140658903Y-90125729D01*
X140659499Y-90131791D01*
X140684108Y-90255503D01*
X140684114Y-90255531D01*
X140732394Y-90372090D01*
X140802491Y-90476997D01*
X140802493Y-90476999D01*
X141816644Y-91491149D01*
X141816645Y-91491150D01*
X141837796Y-91519405D01*
X141845288Y-91533126D01*
X141860139Y-91601395D01*
X141859307Y-91613030D01*
X141850185Y-91651638D01*
X141784467Y-91810298D01*
X141784462Y-91810320D01*
X141750631Y-91980398D01*
X141750631Y-91980401D01*
X141750631Y-92153853D01*
X141750631Y-92153855D01*
X141750630Y-92153855D01*
X141784462Y-92323933D01*
X141784468Y-92323960D01*
X141850840Y-92484197D01*
X141850841Y-92484199D01*
X141850842Y-92484200D01*
X141947199Y-92628410D01*
X141947205Y-92628417D01*
X141960804Y-92642016D01*
X141963915Y-92645127D01*
X141963916Y-92645128D01*
X142021664Y-92702876D01*
X142021666Y-92702878D01*
X142066611Y-92747825D01*
X142066625Y-92747837D01*
X142093373Y-92774585D01*
X142140574Y-92821786D01*
X142154696Y-92835908D01*
X142298901Y-92932263D01*
X142298905Y-92932265D01*
X142298908Y-92932267D01*
X142459149Y-92998642D01*
X142470846Y-93000968D01*
X142494893Y-93005752D01*
X142494894Y-93005752D01*
X142499184Y-93006605D01*
X142505409Y-93007843D01*
X142505410Y-93007844D01*
X142538694Y-93019586D01*
X142552548Y-93026833D01*
X142602825Y-93075346D01*
X142609563Y-93087178D01*
X142623426Y-93124346D01*
X142624604Y-93130264D01*
X142632999Y-93172473D01*
X142633005Y-93172490D01*
X142699375Y-93332721D01*
X142699376Y-93332722D01*
X142795733Y-93476932D01*
X142795739Y-93476939D01*
X142809338Y-93490538D01*
X142812449Y-93493649D01*
X142812450Y-93493650D01*
X142882570Y-93563770D01*
X142915151Y-93596352D01*
X142915153Y-93596354D01*
X142915158Y-93596358D01*
X142985300Y-93666500D01*
X143003227Y-93684428D01*
X143003230Y-93684430D01*
X143147435Y-93780785D01*
X143147439Y-93780787D01*
X143147442Y-93780789D01*
X143307683Y-93847164D01*
X143307684Y-93847164D01*
X143307687Y-93847164D01*
X143307688Y-93847165D01*
X143351070Y-93855794D01*
X143477789Y-93881002D01*
X143651241Y-93881002D01*
X143651242Y-93881002D01*
X143666958Y-93877875D01*
X143765683Y-93858237D01*
X143821351Y-93847164D01*
X143974264Y-93783824D01*
X143977489Y-93782694D01*
X143979340Y-93782598D01*
X143993206Y-93778323D01*
X144014495Y-93773888D01*
X144084134Y-93779487D01*
X144084901Y-93779781D01*
X144093272Y-93782988D01*
X144136597Y-93811102D01*
X148320574Y-97995079D01*
X148341723Y-98023330D01*
X148354331Y-98046419D01*
X148369500Y-98105848D01*
X148369500Y-114451822D01*
X148364475Y-114486766D01*
X148360070Y-114501764D01*
X148322301Y-114560530D01*
X148316748Y-114565342D01*
X148259734Y-114593249D01*
X148136513Y-114617759D01*
X148136504Y-114617762D01*
X148136498Y-114617764D01*
X148136493Y-114617765D01*
X148136475Y-114617772D01*
X147990833Y-114678098D01*
X147990824Y-114678103D01*
X147990807Y-114678113D01*
X147859708Y-114765711D01*
X147859707Y-114765712D01*
X147859701Y-114765717D01*
X147748217Y-114877201D01*
X147748212Y-114877207D01*
X147748211Y-114877208D01*
X147660613Y-115008307D01*
X147660603Y-115008324D01*
X147660598Y-115008333D01*
X147600264Y-115153996D01*
X147600257Y-115154027D01*
X147569500Y-115308650D01*
X147569500Y-115308653D01*
X147569500Y-115466346D01*
X147569500Y-115466348D01*
X147569499Y-115466348D01*
X147600257Y-115620971D01*
X147600264Y-115621002D01*
X147660598Y-115766665D01*
X147660603Y-115766674D01*
X147660613Y-115766691D01*
X147748211Y-115897790D01*
X147748212Y-115897791D01*
X147748217Y-115897797D01*
X147859701Y-116009281D01*
X147859707Y-116009286D01*
X147859711Y-116009289D01*
X147990814Y-116096890D01*
X147990827Y-116096897D01*
X148136498Y-116157235D01*
X148136503Y-116157237D01*
X148182082Y-116166303D01*
X148246949Y-116179206D01*
X148246981Y-116179211D01*
X148246987Y-116179213D01*
X148252205Y-116180251D01*
X148285480Y-116191990D01*
X148299337Y-116199238D01*
X148312174Y-116211623D01*
X148314115Y-116212639D01*
X148315197Y-116214540D01*
X148349613Y-116247745D01*
X148353248Y-116254127D01*
X148369500Y-116315497D01*
X148369500Y-117186803D01*
X148369499Y-117186805D01*
X148369500Y-117186807D01*
X148364476Y-117221742D01*
X148357064Y-117246982D01*
X148325769Y-117299724D01*
X147201707Y-118423789D01*
X147112489Y-118513007D01*
X147112485Y-118513010D01*
X147042400Y-118617899D01*
X147042395Y-118617906D01*
X147042392Y-118617914D01*
X146994115Y-118734466D01*
X146994108Y-118734497D01*
X146969500Y-118858208D01*
X146969500Y-119740787D01*
X146969499Y-119740789D01*
X146969500Y-119740791D01*
X146964476Y-119775726D01*
X146958564Y-119795858D01*
X146928050Y-119847812D01*
X146923342Y-119852605D01*
X146903776Y-119868811D01*
X146889706Y-119878212D01*
X146778217Y-119989701D01*
X146778212Y-119989707D01*
X146778211Y-119989708D01*
X146690613Y-120120807D01*
X146690603Y-120120824D01*
X146690598Y-120120833D01*
X146630264Y-120266496D01*
X146630257Y-120266527D01*
X146599500Y-120421150D01*
X146599500Y-120421153D01*
X146599500Y-120578846D01*
X146599500Y-120578848D01*
X146599499Y-120578848D01*
X146630257Y-120733471D01*
X146630264Y-120733502D01*
X146690598Y-120879165D01*
X146690603Y-120879174D01*
X146690613Y-120879191D01*
X146778211Y-121010290D01*
X146778212Y-121010291D01*
X146778217Y-121010297D01*
X146889701Y-121121781D01*
X146889707Y-121121786D01*
X146889711Y-121121789D01*
X147020814Y-121209390D01*
X147020827Y-121209397D01*
X147166498Y-121269735D01*
X147166503Y-121269737D01*
X147311928Y-121298664D01*
X147313542Y-121298985D01*
X147313558Y-121298993D01*
X147316224Y-121299700D01*
X147321155Y-121300500D01*
X147478844Y-121300500D01*
X147482964Y-121300500D01*
X147490814Y-121298118D01*
X147633497Y-121269737D01*
X147736082Y-121227244D01*
X147770271Y-121218519D01*
X147796427Y-121215707D01*
X147857132Y-121224434D01*
X147966498Y-121269735D01*
X147966503Y-121269737D01*
X148111928Y-121298664D01*
X148113542Y-121298985D01*
X148113558Y-121298993D01*
X148116224Y-121299700D01*
X148121155Y-121300500D01*
X148278844Y-121300500D01*
X148282964Y-121300500D01*
X148290814Y-121298118D01*
X148433497Y-121269737D01*
X148579179Y-121209394D01*
X148710289Y-121121789D01*
X148821789Y-121010289D01*
X148909394Y-120879179D01*
X148912253Y-120872278D01*
X148960032Y-120756927D01*
X148969737Y-120733497D01*
X149000500Y-120578842D01*
X149000500Y-120421158D01*
X149000500Y-120421155D01*
X149000500Y-120420973D01*
X149000065Y-120418972D01*
X148997809Y-120407633D01*
X148983061Y-120333489D01*
X148969737Y-120266503D01*
X148938739Y-120191666D01*
X148909397Y-120120827D01*
X148909390Y-120120814D01*
X148821789Y-119989711D01*
X148821786Y-119989707D01*
X148821781Y-119989701D01*
X148710295Y-119878215D01*
X148710291Y-119878212D01*
X148705439Y-119874970D01*
X148700428Y-119871621D01*
X148700427Y-119871620D01*
X148700426Y-119871620D01*
X148674171Y-119848033D01*
X148660718Y-119831934D01*
X148634471Y-119777691D01*
X148633102Y-119771114D01*
X148630500Y-119745845D01*
X148630500Y-119413197D01*
X148635522Y-119378264D01*
X148642934Y-119353019D01*
X148674228Y-119300277D01*
X149887509Y-118086997D01*
X149931503Y-118021155D01*
X149957604Y-117982093D01*
X150005886Y-117865530D01*
X150030500Y-117741786D01*
X150030500Y-117615618D01*
X150030500Y-116035001D01*
X150034705Y-116020679D01*
X150035522Y-116000068D01*
X150038534Y-115989811D01*
X150048173Y-115974811D01*
X150050185Y-115967962D01*
X150055817Y-115959916D01*
X150061258Y-115952765D01*
X150063315Y-115951249D01*
X150076307Y-115931034D01*
X150114373Y-115913648D01*
X150117518Y-115911333D01*
X150119756Y-115911190D01*
X150139862Y-115902008D01*
X150177959Y-115907485D01*
X150187246Y-115906894D01*
X150191916Y-115909491D01*
X150209021Y-115911951D01*
X150239438Y-115935925D01*
X150248306Y-115940858D01*
X150250214Y-115944418D01*
X150255150Y-115948309D01*
X150257583Y-115951418D01*
X150270424Y-115971552D01*
X150286278Y-116002667D01*
X150334287Y-116096890D01*
X150334287Y-116096891D01*
X150344947Y-116117814D01*
X150344950Y-116117818D01*
X150344951Y-116117820D01*
X150469890Y-116289786D01*
X150469892Y-116289788D01*
X150620216Y-116440112D01*
X150792169Y-116565042D01*
X150792200Y-116565060D01*
X150792442Y-116565182D01*
X150981588Y-116661557D01*
X151183757Y-116727246D01*
X151393713Y-116760500D01*
X151393714Y-116760500D01*
X151606286Y-116760500D01*
X151606287Y-116760500D01*
X151816243Y-116727246D01*
X151870235Y-116709701D01*
X151904999Y-116703686D01*
X151918882Y-116703289D01*
X151986453Y-116721053D01*
X152033691Y-116772521D01*
X152036776Y-116778798D01*
X152049500Y-116833509D01*
X152049500Y-119857073D01*
X152044476Y-119892010D01*
X152037064Y-119917251D01*
X152005769Y-119969995D01*
X149397946Y-122577816D01*
X149397947Y-122577816D01*
X149369693Y-122598967D01*
X149340599Y-122614854D01*
X149305363Y-122627640D01*
X149166515Y-122655259D01*
X149166509Y-122655260D01*
X149166508Y-122655261D01*
X149166498Y-122655264D01*
X149166493Y-122655265D01*
X149166475Y-122655272D01*
X149020833Y-122715598D01*
X149020824Y-122715603D01*
X149020807Y-122715613D01*
X148889708Y-122803211D01*
X148889707Y-122803212D01*
X148889701Y-122803217D01*
X148778217Y-122914701D01*
X148778212Y-122914707D01*
X148778211Y-122914708D01*
X148690613Y-123045807D01*
X148690603Y-123045824D01*
X148690598Y-123045833D01*
X148630264Y-123191496D01*
X148630257Y-123191527D01*
X148599500Y-123346150D01*
X148599500Y-123346152D01*
X148599500Y-123346153D01*
X148599500Y-123503846D01*
X148599500Y-123503848D01*
X148599499Y-123503848D01*
X148630257Y-123658471D01*
X148630264Y-123658502D01*
X148690598Y-123804165D01*
X148690602Y-123804172D01*
X148690608Y-123804184D01*
X148690613Y-123804191D01*
X148778211Y-123935290D01*
X148778212Y-123935291D01*
X148778217Y-123935297D01*
X148889701Y-124046781D01*
X148889707Y-124046786D01*
X148889708Y-124046787D01*
X148889711Y-124046789D01*
X149020814Y-124134390D01*
X149020827Y-124134397D01*
X149166496Y-124194734D01*
X149166503Y-124194737D01*
X149314401Y-124224156D01*
X149315275Y-124224343D01*
X149315647Y-124224544D01*
X149316247Y-124224703D01*
X149321155Y-124225500D01*
X149478844Y-124225500D01*
X149482964Y-124225500D01*
X149490814Y-124223118D01*
X149633497Y-124194737D01*
X149779179Y-124134394D01*
X149910289Y-124046789D01*
X150021789Y-123935289D01*
X150045951Y-123899126D01*
X150069529Y-123872877D01*
X150080183Y-123863974D01*
X150144244Y-123836089D01*
X150213214Y-123847264D01*
X150213215Y-123847265D01*
X150223146Y-123852016D01*
X150257313Y-123876193D01*
X150286635Y-123905515D01*
X150417865Y-123981281D01*
X150564234Y-124020500D01*
X150564236Y-124020500D01*
X150715764Y-124020500D01*
X150715766Y-124020500D01*
X150862135Y-123981281D01*
X150993365Y-123905515D01*
X151100515Y-123798365D01*
X151176281Y-123667135D01*
X151215500Y-123520766D01*
X151215500Y-123369234D01*
X151176281Y-123222865D01*
X151176276Y-123222857D01*
X151158178Y-123191510D01*
X151100515Y-123091635D01*
X150993365Y-122984485D01*
X150992666Y-122983981D01*
X150990158Y-122982632D01*
X150968326Y-122970028D01*
X150956271Y-122963068D01*
X150956267Y-122963065D01*
X150956265Y-122963065D01*
X150956260Y-122963062D01*
X150928526Y-122941250D01*
X150918943Y-122931200D01*
X150886931Y-122869097D01*
X150893574Y-122799550D01*
X150896738Y-122791645D01*
X150924168Y-122750064D01*
X152890737Y-120783495D01*
X152918986Y-120762348D01*
X152928915Y-120756926D01*
X152946341Y-120753135D01*
X152961998Y-120744589D01*
X152979774Y-120745862D01*
X152997187Y-120742075D01*
X153013898Y-120748308D01*
X153031689Y-120749583D01*
X153045953Y-120760264D01*
X153062651Y-120766492D01*
X153073340Y-120780770D01*
X153087617Y-120791461D01*
X153104511Y-120822409D01*
X153104523Y-120822425D01*
X153104528Y-120822440D01*
X153107180Y-120829553D01*
X153114993Y-120873116D01*
X153100278Y-128358418D01*
X153095184Y-128393349D01*
X153090750Y-128408338D01*
X153052858Y-128467039D01*
X153052846Y-128467049D01*
X153051425Y-128468275D01*
X152996671Y-128495579D01*
X152989219Y-128497193D01*
X152962974Y-128500003D01*
X131951120Y-128500526D01*
X131951120Y-128500527D01*
X131951119Y-128500526D01*
X131951117Y-128500527D01*
X131916185Y-128495506D01*
X131907323Y-128492904D01*
X131901186Y-128491102D01*
X131842407Y-128453331D01*
X131842402Y-128453325D01*
X131841156Y-128451887D01*
X131813743Y-128397221D01*
X131812121Y-128389817D01*
X131809249Y-128363638D01*
X131805792Y-127126906D01*
X131810718Y-127091967D01*
X131813593Y-127082072D01*
X131851204Y-127023192D01*
X131914680Y-126993991D01*
X131950310Y-126993942D01*
X132030698Y-127005500D01*
X132030699Y-127005500D01*
X132407549Y-127005500D01*
X132407559Y-127005500D01*
X132466047Y-127002102D01*
X132466052Y-127002101D01*
X132466077Y-127002100D01*
X132494593Y-126998776D01*
X132552314Y-126988628D01*
X132686204Y-126935949D01*
X132744019Y-126903026D01*
X132745860Y-126902043D01*
X132746925Y-126901372D01*
X132769531Y-126883810D01*
X132860547Y-126813107D01*
X132863225Y-126809394D01*
X132887638Y-126775538D01*
X132944701Y-126696404D01*
X132977086Y-126634493D01*
X133024953Y-126498809D01*
X133040921Y-126418527D01*
X133047973Y-126395282D01*
X133060865Y-126364157D01*
X133072316Y-126342732D01*
X133091046Y-126314702D01*
X133106456Y-126295925D01*
X133130276Y-126272105D01*
X133149053Y-126256695D01*
X133177083Y-126237965D01*
X133198504Y-126226516D01*
X133229632Y-126213622D01*
X133252885Y-126206569D01*
X133285933Y-126199995D01*
X133310123Y-126197614D01*
X133343810Y-126197614D01*
X133368000Y-126199996D01*
X133401036Y-126206568D01*
X133424294Y-126213623D01*
X133445098Y-126222240D01*
X133452177Y-126225172D01*
X133452183Y-126225174D01*
X133452188Y-126225176D01*
X133456027Y-126226511D01*
X133507538Y-126244425D01*
X133535154Y-126252267D01*
X133592376Y-126264983D01*
X133621447Y-126265502D01*
X133688125Y-126286379D01*
X133732931Y-126339991D01*
X133733796Y-126342030D01*
X133790598Y-126479165D01*
X133790603Y-126479174D01*
X133790613Y-126479191D01*
X133878211Y-126610290D01*
X133878212Y-126610291D01*
X133878217Y-126610297D01*
X133989701Y-126721781D01*
X133989707Y-126721786D01*
X133989711Y-126721789D01*
X134120814Y-126809390D01*
X134120827Y-126809397D01*
X134266498Y-126869735D01*
X134266503Y-126869737D01*
X134421153Y-126900499D01*
X134421156Y-126900500D01*
X134421158Y-126900500D01*
X134578844Y-126900500D01*
X134578845Y-126900499D01*
X134733497Y-126869737D01*
X134879179Y-126809394D01*
X135010289Y-126721789D01*
X135121789Y-126610289D01*
X135170908Y-126536775D01*
X135194491Y-126510523D01*
X135194768Y-126510292D01*
X135205138Y-126501625D01*
X135269201Y-126473739D01*
X135338165Y-126484912D01*
X135346325Y-126488815D01*
X135382436Y-126514978D01*
X135401797Y-126535226D01*
X135409319Y-126541398D01*
X135489707Y-126621786D01*
X135489711Y-126621789D01*
X135620814Y-126709390D01*
X135620827Y-126709397D01*
X135766498Y-126769735D01*
X135766503Y-126769737D01*
X135921153Y-126800499D01*
X135921156Y-126800500D01*
X135921158Y-126800500D01*
X136078844Y-126800500D01*
X136078845Y-126800499D01*
X136233497Y-126769737D01*
X136379179Y-126709394D01*
X136510289Y-126621789D01*
X136621789Y-126510289D01*
X136709394Y-126379179D01*
X136769737Y-126233497D01*
X136800500Y-126078842D01*
X136800500Y-125921158D01*
X136800500Y-125921155D01*
X136800500Y-125920972D01*
X136800064Y-125918967D01*
X136797223Y-125904684D01*
X136789818Y-125867456D01*
X136796045Y-125797866D01*
X136838908Y-125742689D01*
X136887244Y-125721649D01*
X136890457Y-125721010D01*
X136958964Y-125707383D01*
X136983155Y-125705000D01*
X137016845Y-125705000D01*
X137041027Y-125707381D01*
X137074080Y-125713955D01*
X137097332Y-125721009D01*
X137128449Y-125733899D01*
X137149883Y-125745354D01*
X137177904Y-125764077D01*
X137196691Y-125779496D01*
X137220501Y-125803306D01*
X137235922Y-125822096D01*
X137260503Y-125858884D01*
X137282972Y-125889901D01*
X137291138Y-125900318D01*
X137294561Y-125904684D01*
X137305374Y-125917450D01*
X137319317Y-125933913D01*
X137430518Y-126025198D01*
X137430527Y-126025205D01*
X137430534Y-126025209D01*
X137490086Y-126061277D01*
X137490169Y-126061327D01*
X137490290Y-126061400D01*
X137490295Y-126061403D01*
X137622719Y-126117664D01*
X137630882Y-126121132D01*
X137629626Y-126124088D01*
X137675900Y-126152104D01*
X137706014Y-126211597D01*
X137730257Y-126333471D01*
X137730264Y-126333502D01*
X137790598Y-126479165D01*
X137790603Y-126479174D01*
X137790613Y-126479191D01*
X137878211Y-126610290D01*
X137878212Y-126610291D01*
X137878217Y-126610297D01*
X137989701Y-126721781D01*
X137989707Y-126721786D01*
X137989711Y-126721789D01*
X138120814Y-126809390D01*
X138120827Y-126809397D01*
X138266498Y-126869735D01*
X138266503Y-126869737D01*
X138421153Y-126900499D01*
X138421156Y-126900500D01*
X138421158Y-126900500D01*
X138578844Y-126900500D01*
X138578845Y-126900499D01*
X138733497Y-126869737D01*
X138846196Y-126823056D01*
X138915665Y-126815587D01*
X138974850Y-126843904D01*
X139046012Y-126905567D01*
X139046015Y-126905568D01*
X139046016Y-126905569D01*
X139112537Y-126935949D01*
X139176889Y-126965338D01*
X139243928Y-126985023D01*
X139243932Y-126985024D01*
X139386348Y-127005500D01*
X140723323Y-127005500D01*
X140723327Y-127005500D01*
X140857276Y-126987430D01*
X140920644Y-126970016D01*
X141045020Y-126917095D01*
X141156972Y-126826716D01*
X141204537Y-126775537D01*
X141286486Y-126657288D01*
X141288432Y-126653392D01*
X141288437Y-126653382D01*
X141978732Y-125271300D01*
X141978731Y-125271299D01*
X141996608Y-125235508D01*
X141996609Y-125235503D01*
X142868663Y-123489520D01*
X142908436Y-123379680D01*
X142910900Y-123369234D01*
X144284500Y-123369234D01*
X144284500Y-123520765D01*
X144321406Y-123658502D01*
X144323720Y-123667139D01*
X144360074Y-123730106D01*
X144399480Y-123798358D01*
X144399483Y-123798362D01*
X144399485Y-123798365D01*
X144506635Y-123905515D01*
X144637865Y-123981281D01*
X144784234Y-124020500D01*
X144784236Y-124020500D01*
X144935764Y-124020500D01*
X144935766Y-124020500D01*
X145082135Y-123981281D01*
X145202094Y-123912021D01*
X145234847Y-123898909D01*
X145250044Y-123895223D01*
X145319826Y-123898546D01*
X145326370Y-123900811D01*
X145375758Y-123933436D01*
X145376059Y-123933136D01*
X145377528Y-123934605D01*
X145377685Y-123934709D01*
X145378199Y-123935276D01*
X145378206Y-123935283D01*
X145378211Y-123935289D01*
X145463421Y-124020499D01*
X145489708Y-124046786D01*
X145489711Y-124046788D01*
X145620814Y-124134389D01*
X145620827Y-124134396D01*
X145766498Y-124194734D01*
X145766503Y-124194736D01*
X145921153Y-124225498D01*
X145921156Y-124225499D01*
X145921158Y-124225499D01*
X146078844Y-124225499D01*
X146078845Y-124225498D01*
X146233497Y-124194736D01*
X146346166Y-124148066D01*
X146372634Y-124137103D01*
X146375425Y-124136130D01*
X146376868Y-124135463D01*
X146381528Y-124133420D01*
X146390787Y-124129584D01*
X146399671Y-124120700D01*
X146510289Y-124046788D01*
X146621789Y-123935288D01*
X146709394Y-123804178D01*
X146769737Y-123658496D01*
X146800500Y-123503841D01*
X146800500Y-123346157D01*
X146800500Y-123346154D01*
X146800500Y-123346153D01*
X146800500Y-123345970D01*
X146800064Y-123343965D01*
X146786033Y-123273426D01*
X146769737Y-123191502D01*
X146712857Y-123054181D01*
X146711199Y-123049174D01*
X146709398Y-123045831D01*
X146709397Y-123045827D01*
X146709397Y-123045826D01*
X146709390Y-123045813D01*
X146621789Y-122914710D01*
X146621787Y-122914707D01*
X146621786Y-122914706D01*
X146621781Y-122914700D01*
X146510297Y-122803216D01*
X146510291Y-122803211D01*
X146510290Y-122803210D01*
X146379191Y-122715612D01*
X146379186Y-122715609D01*
X146379185Y-122715608D01*
X146379172Y-122715601D01*
X146379165Y-122715597D01*
X146233502Y-122655263D01*
X146233471Y-122655256D01*
X146078847Y-122624499D01*
X146078845Y-122624499D01*
X146078842Y-122624499D01*
X145921158Y-122624499D01*
X145921155Y-122624499D01*
X145921153Y-122624499D01*
X145766527Y-122655256D01*
X145766496Y-122655263D01*
X145620833Y-122715597D01*
X145620824Y-122715602D01*
X145620807Y-122715612D01*
X145489708Y-122803210D01*
X145378208Y-122914711D01*
X145373097Y-122922360D01*
X145349516Y-122948609D01*
X145337525Y-122958630D01*
X145273461Y-122986515D01*
X145273459Y-122986516D01*
X145269525Y-122987010D01*
X145212468Y-122980787D01*
X145208720Y-122979452D01*
X145188327Y-122970028D01*
X145082140Y-122908721D01*
X145082134Y-122908718D01*
X144974984Y-122880008D01*
X144935766Y-122869500D01*
X144935765Y-122869500D01*
X144784234Y-122869500D01*
X144637859Y-122908720D01*
X144637857Y-122908721D01*
X144506645Y-122984478D01*
X144506631Y-122984487D01*
X144506626Y-122984491D01*
X144399491Y-123091626D01*
X144399487Y-123091631D01*
X144399478Y-123091645D01*
X144323721Y-123222857D01*
X144323720Y-123222859D01*
X144323719Y-123222863D01*
X144284500Y-123369234D01*
X142910900Y-123369234D01*
X142921503Y-123324273D01*
X142935000Y-123208241D01*
X142935000Y-122328453D01*
X142937383Y-122304262D01*
X142951639Y-122232591D01*
X142958694Y-122209331D01*
X142961546Y-122202446D01*
X142986666Y-122141799D01*
X142998113Y-122120384D01*
X143038731Y-122059595D01*
X143054140Y-122040819D01*
X143105819Y-121989140D01*
X143124600Y-121973727D01*
X143185376Y-121933118D01*
X143206799Y-121921666D01*
X143274341Y-121893689D01*
X143297573Y-121886642D01*
X143407711Y-121864735D01*
X143490170Y-121840902D01*
X143529346Y-121825871D01*
X143606592Y-121788426D01*
X143718544Y-121698047D01*
X143766109Y-121646868D01*
X143848062Y-121528610D01*
X146050977Y-117118031D01*
X146089945Y-117011554D01*
X146103000Y-116957845D01*
X146117255Y-116845374D01*
X146125084Y-116273787D01*
X146131131Y-116254190D01*
X146132320Y-116233714D01*
X146141223Y-116221482D01*
X146145684Y-116207025D01*
X146161367Y-116193807D01*
X146173438Y-116177224D01*
X146187542Y-116171747D01*
X146199110Y-116161998D01*
X146219450Y-116159357D01*
X146238570Y-116151933D01*
X146259868Y-116154109D01*
X146268398Y-116153002D01*
X146273805Y-116153979D01*
X146283217Y-116155894D01*
X146286453Y-116157235D01*
X146286458Y-116157237D01*
X146433774Y-116186540D01*
X146434009Y-116186588D01*
X146434140Y-116186657D01*
X146436202Y-116187203D01*
X146441110Y-116188000D01*
X146598799Y-116188000D01*
X146602919Y-116188000D01*
X146610769Y-116185618D01*
X146753452Y-116157237D01*
X146899134Y-116096894D01*
X147030244Y-116009289D01*
X147141744Y-115897789D01*
X147229349Y-115766679D01*
X147289692Y-115620997D01*
X147320455Y-115466342D01*
X147320455Y-115308658D01*
X147320455Y-115308655D01*
X147320455Y-115308473D01*
X147320020Y-115306472D01*
X147290353Y-115157330D01*
X147289939Y-115154906D01*
X147289692Y-115154005D01*
X147289692Y-115154003D01*
X147279858Y-115130261D01*
X147229352Y-115008327D01*
X147229345Y-115008314D01*
X147141744Y-114877211D01*
X147141741Y-114877207D01*
X147141736Y-114877201D01*
X147030252Y-114765717D01*
X147030246Y-114765712D01*
X147030245Y-114765711D01*
X146899146Y-114678113D01*
X146899145Y-114678112D01*
X146899140Y-114678109D01*
X146899127Y-114678102D01*
X146899120Y-114678098D01*
X146753457Y-114617764D01*
X146753426Y-114617757D01*
X146598802Y-114587000D01*
X146598800Y-114587000D01*
X146598797Y-114587000D01*
X146441113Y-114587000D01*
X146441110Y-114587000D01*
X146441107Y-114587000D01*
X146297668Y-114615532D01*
X146228077Y-114609305D01*
X146172899Y-114566442D01*
X146149655Y-114500552D01*
X146149489Y-114492217D01*
X146150043Y-114451822D01*
X146205447Y-110407336D01*
X146205462Y-110406140D01*
X146205470Y-110405434D01*
X146205486Y-110403750D01*
X146209942Y-109846713D01*
X146219328Y-108673507D01*
X146239548Y-108606627D01*
X146292717Y-108561296D01*
X146343324Y-108550499D01*
X147572871Y-108550499D01*
X147572872Y-108550499D01*
X147632483Y-108544091D01*
X147767331Y-108493796D01*
X147882546Y-108407546D01*
X147968796Y-108292331D01*
X148019091Y-108157483D01*
X148025500Y-108097873D01*
X148025499Y-106302128D01*
X148019091Y-106242517D01*
X147968796Y-106107669D01*
X147968795Y-106107668D01*
X147968793Y-106107664D01*
X147968782Y-106107649D01*
X147966392Y-106103929D01*
X147966391Y-106103928D01*
X147963489Y-106100579D01*
X147882547Y-105992455D01*
X147882544Y-105992452D01*
X147882542Y-105992450D01*
X147824616Y-105949086D01*
X147767335Y-105906206D01*
X147767332Y-105906204D01*
X147767330Y-105906203D01*
X147767328Y-105906202D01*
X147632482Y-105855908D01*
X147632483Y-105855908D01*
X147572883Y-105849501D01*
X147572881Y-105849500D01*
X147572873Y-105849500D01*
X147572864Y-105849500D01*
X147571841Y-105849500D01*
X146366916Y-105849500D01*
X146299877Y-105829815D01*
X146254122Y-105777011D01*
X146242920Y-105724508D01*
X146257663Y-103881522D01*
X146264545Y-103021217D01*
X146270502Y-103001515D01*
X146271604Y-102980958D01*
X146280408Y-102968748D01*
X146284765Y-102954339D01*
X146300431Y-102940981D01*
X146312471Y-102924286D01*
X146326476Y-102918775D01*
X146337933Y-102909008D01*
X146358335Y-102906241D01*
X146377489Y-102898705D01*
X146403587Y-102900103D01*
X146407169Y-102899618D01*
X146412712Y-102900590D01*
X146515635Y-102921063D01*
X146518367Y-102921787D01*
X146523273Y-102922583D01*
X146680962Y-102922583D01*
X146685082Y-102922583D01*
X146692932Y-102920201D01*
X146835615Y-102891820D01*
X146981297Y-102831477D01*
X147112407Y-102743872D01*
X147223907Y-102632372D01*
X147311512Y-102501262D01*
X147371855Y-102355580D01*
X147402618Y-102200925D01*
X147402618Y-102043241D01*
X147402618Y-102043238D01*
X147402618Y-102043054D01*
X147402182Y-102041049D01*
X147387997Y-101969737D01*
X147371856Y-101888593D01*
X147371855Y-101888588D01*
X147371855Y-101888586D01*
X147331028Y-101790020D01*
X147311515Y-101742910D01*
X147311507Y-101742895D01*
X147296799Y-101720883D01*
X147293170Y-101713493D01*
X147292385Y-101708943D01*
X147286140Y-101695890D01*
X147279871Y-101675868D01*
X147276375Y-101615728D01*
X147277626Y-101609127D01*
X147284903Y-101584747D01*
X147287214Y-101579170D01*
X147291420Y-101569013D01*
X147295472Y-101559232D01*
X147326235Y-101404577D01*
X147326235Y-101246893D01*
X147326235Y-101246890D01*
X147326235Y-101246706D01*
X147325799Y-101244701D01*
X147317007Y-101200500D01*
X147295474Y-101092246D01*
X147295473Y-101092244D01*
X147295472Y-101092238D01*
X147295470Y-101092233D01*
X147235132Y-100946562D01*
X147235125Y-100946549D01*
X147147524Y-100815446D01*
X147147521Y-100815442D01*
X147147516Y-100815436D01*
X147036032Y-100703952D01*
X147036026Y-100703947D01*
X147036025Y-100703946D01*
X146904926Y-100616348D01*
X146904925Y-100616347D01*
X146904920Y-100616344D01*
X146904907Y-100616337D01*
X146904900Y-100616333D01*
X146759237Y-100555999D01*
X146759206Y-100555992D01*
X146604582Y-100525235D01*
X146604580Y-100525235D01*
X146604577Y-100525235D01*
X146446893Y-100525235D01*
X146446890Y-100525235D01*
X146446882Y-100525235D01*
X146433655Y-100527866D01*
X146364063Y-100521636D01*
X146308888Y-100478770D01*
X146285646Y-100412879D01*
X146285473Y-100405256D01*
X146285783Y-100366510D01*
X146305034Y-97960225D01*
X146300666Y-97889750D01*
X146296124Y-97855488D01*
X146281973Y-97786290D01*
X146224037Y-97654590D01*
X146187087Y-97595290D01*
X146094394Y-97485249D01*
X144219294Y-95814041D01*
X140060259Y-92107247D01*
X140023311Y-92047948D01*
X140024286Y-91978085D01*
X140055081Y-91926998D01*
X140121789Y-91860291D01*
X140209394Y-91729181D01*
X140269737Y-91583499D01*
X140300500Y-91428844D01*
X140300500Y-91271160D01*
X140300500Y-91271157D01*
X140300500Y-91270973D01*
X140300064Y-91268968D01*
X140269739Y-91116512D01*
X140269736Y-91116503D01*
X140233515Y-91029056D01*
X140209402Y-90970842D01*
X140209397Y-90970829D01*
X140209390Y-90970816D01*
X140121789Y-90839713D01*
X140121786Y-90839709D01*
X140121781Y-90839703D01*
X140010297Y-90728219D01*
X140010291Y-90728214D01*
X140010290Y-90728213D01*
X139879182Y-90640609D01*
X139879180Y-90640608D01*
X139862081Y-90633525D01*
X139793510Y-90605122D01*
X139763164Y-90587115D01*
X139750990Y-90577305D01*
X139711146Y-90519916D01*
X139706844Y-90506993D01*
X139700500Y-90467837D01*
X139700500Y-89149770D01*
X139705521Y-89114843D01*
X139708707Y-89103990D01*
X139746477Y-89045209D01*
X139810031Y-89016180D01*
X139879186Y-89026118D01*
G37*
%TD.AperFunction*%
%TA.AperFunction,Conductor*%
G36*
X136437187Y-118805521D02*
G01*
X136462431Y-118812934D01*
X136515177Y-118844230D01*
X137037681Y-119366734D01*
X137058831Y-119394987D01*
X137074718Y-119424081D01*
X137087504Y-119459317D01*
X137115123Y-119598166D01*
X137115124Y-119598170D01*
X137115125Y-119598173D01*
X137115128Y-119598183D01*
X137115131Y-119598191D01*
X137115136Y-119598205D01*
X137175462Y-119743847D01*
X137175467Y-119743856D01*
X137175477Y-119743873D01*
X137263072Y-119874968D01*
X137350574Y-119962470D01*
X137371724Y-119990722D01*
X137384331Y-120013809D01*
X137399500Y-120073238D01*
X137399500Y-120178846D01*
X137399500Y-120178848D01*
X137399499Y-120178848D01*
X137430257Y-120333471D01*
X137430261Y-120333489D01*
X137430263Y-120333500D01*
X137490598Y-120479165D01*
X137490603Y-120479174D01*
X137490613Y-120479191D01*
X137578211Y-120610290D01*
X137578212Y-120610291D01*
X137578217Y-120610297D01*
X137689701Y-120721781D01*
X137689707Y-120721786D01*
X137689711Y-120721789D01*
X137820814Y-120809390D01*
X137820827Y-120809397D01*
X137966498Y-120869735D01*
X137966503Y-120869737D01*
X137966507Y-120869737D01*
X137966508Y-120869738D01*
X137983833Y-120873184D01*
X137999871Y-120878843D01*
X138017112Y-120884926D01*
X138029180Y-120891239D01*
X138079459Y-120939755D01*
X138095525Y-121007753D01*
X138076612Y-121067220D01*
X138072208Y-121074209D01*
X138054980Y-121095783D01*
X136981801Y-122168961D01*
X136920478Y-122202446D01*
X136850786Y-122197462D01*
X136804887Y-122167382D01*
X136776445Y-122137906D01*
X136753870Y-122120370D01*
X136721268Y-122095044D01*
X136721262Y-122095040D01*
X136721248Y-122095032D01*
X136721238Y-122095026D01*
X136596233Y-122023846D01*
X136596228Y-122023844D01*
X136474155Y-121995000D01*
X136456207Y-121990759D01*
X136386617Y-121984533D01*
X136386614Y-121984533D01*
X136386613Y-121984533D01*
X136242963Y-121992234D01*
X136242952Y-121992235D01*
X136241683Y-121992487D01*
X136241022Y-121992619D01*
X136216842Y-121995000D01*
X136183159Y-121995000D01*
X136158970Y-121992617D01*
X136134566Y-121987763D01*
X136125924Y-121986044D01*
X136102667Y-121978988D01*
X136071547Y-121966098D01*
X136050108Y-121954639D01*
X136022096Y-121935922D01*
X136003306Y-121920501D01*
X135979496Y-121896691D01*
X135964075Y-121877901D01*
X135955278Y-121864735D01*
X135945356Y-121849886D01*
X135933899Y-121828451D01*
X135921009Y-121797333D01*
X135913954Y-121774072D01*
X135907382Y-121741028D01*
X135905000Y-121716840D01*
X135905000Y-121683155D01*
X135907381Y-121658971D01*
X135913955Y-121625919D01*
X135921008Y-121602670D01*
X135946596Y-121540897D01*
X135964593Y-121489884D01*
X135972062Y-121464450D01*
X135984511Y-121411770D01*
X135989646Y-121267981D01*
X135988489Y-121257222D01*
X135982178Y-121198518D01*
X135982174Y-121198496D01*
X135946597Y-121059108D01*
X135946595Y-121059101D01*
X135936626Y-121035035D01*
X135921009Y-120997333D01*
X135913954Y-120974072D01*
X135907382Y-120941028D01*
X135905000Y-120916840D01*
X135905000Y-120907707D01*
X135904818Y-120894111D01*
X135904666Y-120888470D01*
X135904662Y-120888317D01*
X135904659Y-120888215D01*
X135904097Y-120873996D01*
X135904096Y-120873993D01*
X135904029Y-120872280D01*
X135904029Y-120872278D01*
X135904017Y-120871980D01*
X135903896Y-120870633D01*
X135903895Y-120870624D01*
X135903896Y-120870616D01*
X135892560Y-120815986D01*
X135892363Y-120815014D01*
X135891243Y-120809385D01*
X135876024Y-120732881D01*
X135865024Y-120701702D01*
X135854479Y-120671213D01*
X135854202Y-120670398D01*
X135853740Y-120669203D01*
X135852775Y-120666983D01*
X135828693Y-120620948D01*
X135828479Y-120620537D01*
X135788330Y-120542633D01*
X135788327Y-120542630D01*
X135784267Y-120534751D01*
X135787210Y-120533234D01*
X135769622Y-120482458D01*
X135786077Y-120414554D01*
X135790362Y-120407661D01*
X135809394Y-120379179D01*
X135869737Y-120233497D01*
X135890062Y-120131318D01*
X135891612Y-120123524D01*
X135903353Y-120090244D01*
X135915547Y-120066933D01*
X135956532Y-120021307D01*
X136008668Y-119986471D01*
X136044587Y-119962470D01*
X136054050Y-119956147D01*
X136165550Y-119844647D01*
X136253155Y-119713537D01*
X136313498Y-119567855D01*
X136342097Y-119424081D01*
X136344261Y-119413203D01*
X136344261Y-119255331D01*
X136343826Y-119253330D01*
X136314158Y-119104182D01*
X136313755Y-119101825D01*
X136313498Y-119100862D01*
X136313498Y-119100861D01*
X136313496Y-119100856D01*
X136266923Y-118988417D01*
X136258197Y-118954227D01*
X136256700Y-118940304D01*
X136269105Y-118871544D01*
X136312964Y-118822723D01*
X136316930Y-118820175D01*
X136383955Y-118800500D01*
X136402255Y-118800500D01*
X136437187Y-118805521D01*
G37*
%TD.AperFunction*%
%TA.AperFunction,Conductor*%
G36*
X134941027Y-115807381D02*
G01*
X134974080Y-115813955D01*
X134997332Y-115821009D01*
X135028449Y-115833899D01*
X135049883Y-115845354D01*
X135077904Y-115864077D01*
X135096691Y-115879496D01*
X135120502Y-115903307D01*
X135135922Y-115922096D01*
X135154637Y-115950104D01*
X135166096Y-115971543D01*
X135173664Y-115989813D01*
X135178988Y-116002667D01*
X135186041Y-116025919D01*
X135192616Y-116058966D01*
X135194999Y-116083157D01*
X135195000Y-116083163D01*
X135195000Y-116116839D01*
X135192616Y-116141035D01*
X135186043Y-116174073D01*
X135178988Y-116197329D01*
X135166098Y-116228449D01*
X135154639Y-116249888D01*
X135135920Y-116277903D01*
X135120499Y-116296693D01*
X135096693Y-116320499D01*
X135077903Y-116335920D01*
X135049885Y-116354641D01*
X135028446Y-116366100D01*
X134997328Y-116378989D01*
X134974071Y-116386045D01*
X134957340Y-116389373D01*
X134941031Y-116392617D01*
X134916841Y-116395000D01*
X134883159Y-116395000D01*
X134858970Y-116392617D01*
X134834566Y-116387763D01*
X134825924Y-116386044D01*
X134802667Y-116378988D01*
X134771547Y-116366098D01*
X134750108Y-116354639D01*
X134722096Y-116335922D01*
X134703306Y-116320501D01*
X134679496Y-116296691D01*
X134664075Y-116277901D01*
X134645356Y-116249886D01*
X134633899Y-116228451D01*
X134621009Y-116197333D01*
X134613954Y-116174072D01*
X134607382Y-116141028D01*
X134605000Y-116116840D01*
X134605000Y-116083157D01*
X134607382Y-116058969D01*
X134613954Y-116025925D01*
X134621008Y-116002667D01*
X134633902Y-115971539D01*
X134645353Y-115950115D01*
X134664080Y-115922089D01*
X134679491Y-115903311D01*
X134703311Y-115879491D01*
X134722088Y-115864081D01*
X134750118Y-115845351D01*
X134771539Y-115833902D01*
X134802667Y-115821008D01*
X134825920Y-115813955D01*
X134858968Y-115807381D01*
X134883158Y-115805000D01*
X134916845Y-115805000D01*
X134941027Y-115807381D01*
G37*
%TD.AperFunction*%
%TA.AperFunction,Conductor*%
G36*
X138391027Y-115807381D02*
G01*
X138424080Y-115813955D01*
X138447332Y-115821009D01*
X138478449Y-115833899D01*
X138499883Y-115845354D01*
X138527904Y-115864077D01*
X138546691Y-115879496D01*
X138570502Y-115903307D01*
X138585922Y-115922096D01*
X138604637Y-115950104D01*
X138616096Y-115971543D01*
X138623664Y-115989813D01*
X138628988Y-116002667D01*
X138636041Y-116025919D01*
X138642616Y-116058966D01*
X138644999Y-116083157D01*
X138645000Y-116083163D01*
X138645000Y-116116839D01*
X138642616Y-116141035D01*
X138636043Y-116174073D01*
X138628988Y-116197329D01*
X138616098Y-116228449D01*
X138604639Y-116249888D01*
X138585920Y-116277903D01*
X138570499Y-116296693D01*
X138546693Y-116320499D01*
X138527903Y-116335920D01*
X138499885Y-116354641D01*
X138478446Y-116366100D01*
X138447328Y-116378989D01*
X138424071Y-116386045D01*
X138407340Y-116389373D01*
X138391031Y-116392617D01*
X138366841Y-116395000D01*
X138333159Y-116395000D01*
X138308970Y-116392617D01*
X138284566Y-116387763D01*
X138275924Y-116386044D01*
X138252667Y-116378988D01*
X138221547Y-116366098D01*
X138200108Y-116354639D01*
X138172096Y-116335922D01*
X138153306Y-116320501D01*
X138129496Y-116296691D01*
X138114075Y-116277901D01*
X138095356Y-116249886D01*
X138083899Y-116228451D01*
X138071009Y-116197333D01*
X138063954Y-116174072D01*
X138057382Y-116141028D01*
X138055000Y-116116840D01*
X138055000Y-116083157D01*
X138057382Y-116058969D01*
X138063954Y-116025925D01*
X138071008Y-116002667D01*
X138083902Y-115971539D01*
X138095353Y-115950115D01*
X138114080Y-115922089D01*
X138129491Y-115903311D01*
X138153311Y-115879491D01*
X138172088Y-115864081D01*
X138200118Y-115845351D01*
X138221539Y-115833902D01*
X138252667Y-115821008D01*
X138275920Y-115813955D01*
X138308968Y-115807381D01*
X138333158Y-115805000D01*
X138366845Y-115805000D01*
X138391027Y-115807381D01*
G37*
%TD.AperFunction*%
%TA.AperFunction,Conductor*%
G36*
X151417005Y-88005521D02*
G01*
X151442249Y-88012934D01*
X151494995Y-88044230D01*
X152000573Y-88549808D01*
X152021723Y-88578060D01*
X152034331Y-88601149D01*
X152049500Y-88660578D01*
X152049500Y-95059267D01*
X152046083Y-95070900D01*
X152044473Y-95094216D01*
X152041937Y-95102849D01*
X152032301Y-95117838D01*
X152029815Y-95126306D01*
X152023140Y-95132089D01*
X152004156Y-95161623D01*
X151940596Y-95190640D01*
X151871439Y-95180688D01*
X151827850Y-95144910D01*
X151824983Y-95143088D01*
X151824587Y-95142232D01*
X151822387Y-95140426D01*
X151817703Y-95133930D01*
X151811079Y-95123721D01*
X151809390Y-95120814D01*
X151721787Y-94989708D01*
X151721786Y-94989707D01*
X151721781Y-94989701D01*
X151610297Y-94878217D01*
X151610291Y-94878212D01*
X151610290Y-94878211D01*
X151479191Y-94790613D01*
X151479190Y-94790612D01*
X151479185Y-94790609D01*
X151479172Y-94790602D01*
X151479165Y-94790598D01*
X151333523Y-94730272D01*
X151333509Y-94730267D01*
X151333501Y-94730264D01*
X151333491Y-94730261D01*
X151333488Y-94730260D01*
X151333484Y-94730259D01*
X151199616Y-94703631D01*
X151199615Y-94703630D01*
X151199615Y-94703631D01*
X151166331Y-94691889D01*
X151144890Y-94680673D01*
X151103467Y-94645596D01*
X151103036Y-94645026D01*
X151102259Y-94643998D01*
X151096517Y-94635489D01*
X151096505Y-94635498D01*
X151007213Y-94501863D01*
X151007207Y-94501855D01*
X150895718Y-94390366D01*
X150895712Y-94390361D01*
X150895711Y-94390360D01*
X150764550Y-94302721D01*
X150764550Y-94302720D01*
X150763563Y-94302062D01*
X150758946Y-94300412D01*
X150754822Y-94298704D01*
X150724461Y-94280690D01*
X150712292Y-94270883D01*
X150702129Y-94256246D01*
X150700417Y-94254866D01*
X150699721Y-94252777D01*
X150672445Y-94213490D01*
X150672444Y-94213484D01*
X150671874Y-94211771D01*
X150667503Y-94150593D01*
X150677841Y-94093323D01*
X150677929Y-94093338D01*
X150678179Y-94091051D01*
X150700500Y-93978842D01*
X150700500Y-93821158D01*
X150700500Y-93821155D01*
X150700500Y-93820973D01*
X150700065Y-93818971D01*
X150692455Y-93780713D01*
X150669739Y-93666510D01*
X150669735Y-93666498D01*
X150640680Y-93596352D01*
X150609397Y-93520827D01*
X150609390Y-93520814D01*
X150521789Y-93389711D01*
X150521786Y-93389707D01*
X150521781Y-93389701D01*
X150410297Y-93278217D01*
X150410291Y-93278212D01*
X150410290Y-93278211D01*
X150279191Y-93190613D01*
X150279190Y-93190612D01*
X150279185Y-93190609D01*
X150279172Y-93190602D01*
X150279165Y-93190598D01*
X150133502Y-93130264D01*
X150133471Y-93130257D01*
X149978847Y-93099500D01*
X149978845Y-93099500D01*
X149978842Y-93099500D01*
X149821158Y-93099500D01*
X149821155Y-93099500D01*
X149821153Y-93099500D01*
X149666527Y-93130257D01*
X149666496Y-93130264D01*
X149520833Y-93190598D01*
X149520824Y-93190603D01*
X149520807Y-93190613D01*
X149389708Y-93278211D01*
X149389707Y-93278212D01*
X149389701Y-93278217D01*
X149278217Y-93389701D01*
X149278212Y-93389707D01*
X149278211Y-93389708D01*
X149190613Y-93520807D01*
X149190603Y-93520824D01*
X149190598Y-93520833D01*
X149130264Y-93666496D01*
X149130257Y-93666527D01*
X149099500Y-93821150D01*
X149099500Y-93821153D01*
X149099500Y-93978846D01*
X149099500Y-93978848D01*
X149099499Y-93978848D01*
X149130257Y-94133471D01*
X149130264Y-94133502D01*
X149190598Y-94279165D01*
X149190603Y-94279174D01*
X149190613Y-94279191D01*
X149278211Y-94410290D01*
X149278212Y-94410291D01*
X149278217Y-94410297D01*
X149389707Y-94521787D01*
X149389710Y-94521789D01*
X149520815Y-94609390D01*
X149520821Y-94609394D01*
X149530605Y-94613446D01*
X149530606Y-94613447D01*
X149560959Y-94631457D01*
X149573125Y-94641261D01*
X149612969Y-94698641D01*
X149613543Y-94700365D01*
X149617925Y-94761540D01*
X149607596Y-94818823D01*
X149607489Y-94818803D01*
X149607238Y-94821103D01*
X149584921Y-94933297D01*
X149584921Y-94933302D01*
X149584921Y-95090995D01*
X149584921Y-95090997D01*
X149584920Y-95090997D01*
X149615678Y-95245620D01*
X149615685Y-95245651D01*
X149676019Y-95391314D01*
X149676024Y-95391323D01*
X149676034Y-95391340D01*
X149763632Y-95522439D01*
X149763633Y-95522440D01*
X149763638Y-95522446D01*
X149875122Y-95633930D01*
X149875128Y-95633935D01*
X149875132Y-95633938D01*
X150006235Y-95721539D01*
X150006248Y-95721546D01*
X150151919Y-95781884D01*
X150151924Y-95781886D01*
X150237866Y-95798981D01*
X150285804Y-95808516D01*
X150285807Y-95808518D01*
X150319084Y-95820257D01*
X150340528Y-95831474D01*
X150382014Y-95866631D01*
X150383210Y-95868215D01*
X150388900Y-95876652D01*
X150388912Y-95876645D01*
X150478209Y-96010289D01*
X150589701Y-96121781D01*
X150589707Y-96121786D01*
X150589711Y-96121789D01*
X150720814Y-96209390D01*
X150720827Y-96209397D01*
X150866498Y-96269735D01*
X150866503Y-96269737D01*
X151016131Y-96299500D01*
X151021153Y-96300499D01*
X151021156Y-96300500D01*
X151021158Y-96300500D01*
X151178844Y-96300500D01*
X151178845Y-96300499D01*
X151333497Y-96269737D01*
X151479179Y-96209394D01*
X151610289Y-96121789D01*
X151721789Y-96010289D01*
X151809394Y-95879179D01*
X151809394Y-95879178D01*
X151812781Y-95874110D01*
X151814555Y-95875295D01*
X151819583Y-95864721D01*
X151827771Y-95854560D01*
X151852689Y-95837258D01*
X151855561Y-95834326D01*
X151856194Y-95833974D01*
X151862186Y-95830664D01*
X151885159Y-95814714D01*
X151954984Y-95812218D01*
X151995795Y-95836431D01*
X151999337Y-95837733D01*
X152000432Y-95839182D01*
X152015074Y-95847869D01*
X152034570Y-95884335D01*
X152041474Y-95893466D01*
X152041810Y-95897876D01*
X152044992Y-95903827D01*
X152046171Y-95908817D01*
X152049500Y-95937352D01*
X152049500Y-99657670D01*
X152044475Y-99692614D01*
X152040070Y-99707612D01*
X152002327Y-99766355D01*
X152000958Y-99767542D01*
X151946085Y-99795021D01*
X151936133Y-99797186D01*
X151921941Y-99799422D01*
X151921155Y-99799499D01*
X151766527Y-99830257D01*
X151766496Y-99830264D01*
X151620833Y-99890598D01*
X151620824Y-99890603D01*
X151620807Y-99890613D01*
X151489708Y-99978211D01*
X151489707Y-99978212D01*
X151489701Y-99978217D01*
X151378217Y-100089701D01*
X151378212Y-100089707D01*
X151378211Y-100089708D01*
X151290613Y-100220807D01*
X151290603Y-100220824D01*
X151290598Y-100220833D01*
X151230264Y-100366496D01*
X151230257Y-100366527D01*
X151199500Y-100521150D01*
X151199500Y-100521153D01*
X151199500Y-100678846D01*
X151199500Y-100678848D01*
X151199499Y-100678848D01*
X151230257Y-100833471D01*
X151230264Y-100833502D01*
X151290598Y-100979165D01*
X151290603Y-100979174D01*
X151290613Y-100979191D01*
X151378211Y-101110290D01*
X151378212Y-101110291D01*
X151378217Y-101110297D01*
X151489701Y-101221781D01*
X151489707Y-101221786D01*
X151489711Y-101221789D01*
X151620814Y-101309390D01*
X151620827Y-101309397D01*
X151766498Y-101369735D01*
X151766503Y-101369737D01*
X151921153Y-101400499D01*
X151921156Y-101400500D01*
X151921158Y-101400500D01*
X151921647Y-101400500D01*
X151926260Y-101401367D01*
X151926819Y-101401652D01*
X151938290Y-101404255D01*
X151957605Y-101409927D01*
X152016355Y-101447672D01*
X152017542Y-101449041D01*
X152045018Y-101503902D01*
X152046663Y-101511460D01*
X152049500Y-101537831D01*
X152049500Y-108900042D01*
X152049499Y-108900046D01*
X152049500Y-108900049D01*
X152044475Y-108934983D01*
X152040564Y-108948300D01*
X152002787Y-109007076D01*
X151939229Y-109036098D01*
X151939227Y-109036098D01*
X151932310Y-109037092D01*
X151876355Y-109032284D01*
X151816250Y-109012755D01*
X151816248Y-109012754D01*
X151816226Y-109012750D01*
X151640451Y-108984911D01*
X151640450Y-108984911D01*
X151606287Y-108979500D01*
X151606286Y-108979500D01*
X151393714Y-108979500D01*
X151393713Y-108979500D01*
X151359550Y-108984911D01*
X151183759Y-109012753D01*
X150981580Y-109078445D01*
X150792182Y-109174949D01*
X150620210Y-109299892D01*
X150469891Y-109450211D01*
X150469889Y-109450214D01*
X150344951Y-109622179D01*
X150344944Y-109622191D01*
X150273077Y-109763237D01*
X150262846Y-109774069D01*
X150252745Y-109792081D01*
X150245408Y-109799850D01*
X150230007Y-109808840D01*
X150225103Y-109814033D01*
X150216368Y-109818675D01*
X150208275Y-109822570D01*
X150205786Y-109822979D01*
X150185067Y-109835074D01*
X150143147Y-109833278D01*
X150139331Y-109833906D01*
X150137301Y-109833028D01*
X150115261Y-109832084D01*
X150083724Y-109809854D01*
X150075203Y-109806168D01*
X150072243Y-109801760D01*
X150058154Y-109791829D01*
X150041907Y-109756586D01*
X150036251Y-109748163D01*
X150036169Y-109744139D01*
X150033552Y-109738461D01*
X150032796Y-109734587D01*
X150030500Y-109710837D01*
X150030500Y-97558213D01*
X150017052Y-97490609D01*
X150014586Y-97478211D01*
X150005886Y-97434471D01*
X149977731Y-97366498D01*
X149957606Y-97317912D01*
X149957605Y-97317910D01*
X149887509Y-97213003D01*
X149887507Y-97213000D01*
X149887504Y-97212997D01*
X142910052Y-90235546D01*
X142910047Y-90235541D01*
X142888900Y-90207290D01*
X142876293Y-90184201D01*
X142861126Y-90124776D01*
X142861126Y-89986622D01*
X142860691Y-89984620D01*
X142859221Y-89977231D01*
X142830631Y-89833501D01*
X142830363Y-89832152D01*
X142784246Y-89720814D01*
X142770023Y-89686476D01*
X142770016Y-89686463D01*
X142682415Y-89555360D01*
X142682412Y-89555356D01*
X142682407Y-89555350D01*
X142570923Y-89443866D01*
X142570917Y-89443861D01*
X142570916Y-89443860D01*
X142439817Y-89356262D01*
X142439816Y-89356261D01*
X142439811Y-89356258D01*
X142439798Y-89356251D01*
X142439791Y-89356247D01*
X142294128Y-89295913D01*
X142294097Y-89295906D01*
X142139473Y-89265149D01*
X142139471Y-89265149D01*
X142139468Y-89265149D01*
X142123123Y-89265149D01*
X142123122Y-89265148D01*
X142123122Y-89265149D01*
X142088187Y-89260126D01*
X142068053Y-89254214D01*
X142016096Y-89223699D01*
X142011304Y-89218992D01*
X141995097Y-89199424D01*
X141921789Y-89089711D01*
X141921786Y-89089707D01*
X141921781Y-89089701D01*
X141810297Y-88978217D01*
X141810291Y-88978212D01*
X141810290Y-88978211D01*
X141679191Y-88890613D01*
X141679190Y-88890612D01*
X141679185Y-88890609D01*
X141679172Y-88890602D01*
X141679165Y-88890598D01*
X141533523Y-88830272D01*
X141533509Y-88830267D01*
X141533501Y-88830264D01*
X141533491Y-88830261D01*
X141533488Y-88830260D01*
X141533484Y-88830259D01*
X141400365Y-88803780D01*
X141400364Y-88803779D01*
X141400364Y-88803780D01*
X141367080Y-88792038D01*
X141353226Y-88784791D01*
X141302960Y-88736297D01*
X141302064Y-88734723D01*
X141285827Y-88675559D01*
X141285689Y-88667816D01*
X141288051Y-88641426D01*
X141300500Y-88578844D01*
X141300500Y-88421155D01*
X141300500Y-88420973D01*
X141300065Y-88418971D01*
X141292126Y-88379059D01*
X141269738Y-88266510D01*
X141269737Y-88266503D01*
X141237392Y-88188417D01*
X141228666Y-88154221D01*
X141227183Y-88140422D01*
X141239591Y-88071663D01*
X141287204Y-88020528D01*
X141291721Y-88017847D01*
X141354978Y-88000500D01*
X151382073Y-88000500D01*
X151417005Y-88005521D01*
G37*
%TD.AperFunction*%
%TA.AperFunction,Conductor*%
G36*
X141260063Y-107950611D02*
G01*
X141395061Y-107998237D01*
X141395064Y-107998237D01*
X141395068Y-107998239D01*
X141474081Y-108013955D01*
X141497327Y-108021007D01*
X141528453Y-108033900D01*
X141549886Y-108045356D01*
X141553687Y-108047896D01*
X141577901Y-108064075D01*
X141596691Y-108079496D01*
X141620501Y-108103306D01*
X141635923Y-108122097D01*
X141654641Y-108150111D01*
X141666100Y-108171549D01*
X141669518Y-108179801D01*
X141669526Y-108179822D01*
X141678989Y-108202669D01*
X141686044Y-108225925D01*
X141692617Y-108258971D01*
X141695000Y-108283160D01*
X141695000Y-108316839D01*
X141692616Y-108341035D01*
X141686043Y-108374073D01*
X141678988Y-108397329D01*
X141666098Y-108428449D01*
X141654639Y-108449888D01*
X141635920Y-108477903D01*
X141620499Y-108496693D01*
X141596693Y-108520499D01*
X141577903Y-108535920D01*
X141549885Y-108554641D01*
X141528446Y-108566100D01*
X141497328Y-108578989D01*
X141474071Y-108586045D01*
X141457340Y-108589373D01*
X141441031Y-108592617D01*
X141416841Y-108595000D01*
X141383159Y-108595000D01*
X141358970Y-108592617D01*
X141334566Y-108587763D01*
X141325924Y-108586044D01*
X141302667Y-108578988D01*
X141271547Y-108566098D01*
X141250108Y-108554639D01*
X141222096Y-108535922D01*
X141203306Y-108520501D01*
X141179496Y-108496691D01*
X141164075Y-108477901D01*
X141145358Y-108449889D01*
X141145357Y-108449888D01*
X141145356Y-108449886D01*
X141133899Y-108428451D01*
X141121009Y-108397333D01*
X141113954Y-108374072D01*
X141107382Y-108341028D01*
X141105000Y-108316840D01*
X141105000Y-108222011D01*
X141105492Y-108210975D01*
X141105777Y-108207782D01*
X141105777Y-108207779D01*
X141104833Y-108155100D01*
X141104833Y-108155091D01*
X141095776Y-108083002D01*
X141106950Y-108014035D01*
X141153638Y-107962054D01*
X141221018Y-107943567D01*
X141260063Y-107950611D01*
G37*
%TD.AperFunction*%
%TA.AperFunction,Conductor*%
G36*
X144211137Y-106356525D02*
G01*
X144323241Y-106374280D01*
X144342130Y-106378815D01*
X144450092Y-106413894D01*
X144468056Y-106421335D01*
X144569194Y-106472868D01*
X144585774Y-106483028D01*
X144645205Y-106526207D01*
X144677585Y-106549732D01*
X144692381Y-106562369D01*
X144770884Y-106640872D01*
X144825388Y-106688101D01*
X144853642Y-106709252D01*
X144914319Y-106748247D01*
X145049127Y-106798529D01*
X145117400Y-106813381D01*
X145117402Y-106813381D01*
X145119594Y-106813617D01*
X145121820Y-106813697D01*
X145133105Y-106814504D01*
X145209347Y-106819956D01*
X145274809Y-106844372D01*
X145316681Y-106900305D01*
X145324500Y-106943640D01*
X145324500Y-107456358D01*
X145304815Y-107523397D01*
X145252011Y-107569152D01*
X145209346Y-107580042D01*
X145165186Y-107583200D01*
X145082201Y-107589135D01*
X145082198Y-107589135D01*
X145082198Y-107589136D01*
X144947390Y-107639415D01*
X144947384Y-107639418D01*
X144888027Y-107671829D01*
X144886553Y-107672599D01*
X144886068Y-107672898D01*
X144770886Y-107759123D01*
X144770874Y-107759134D01*
X144692380Y-107837629D01*
X144677586Y-107850264D01*
X144677584Y-107850266D01*
X144585776Y-107916968D01*
X144569186Y-107927135D01*
X144468062Y-107978660D01*
X144450086Y-107986106D01*
X144342145Y-108021179D01*
X144323225Y-108025721D01*
X144271587Y-108033900D01*
X144211145Y-108043473D01*
X144191749Y-108045000D01*
X144078251Y-108045000D01*
X144058853Y-108043473D01*
X143946774Y-108025721D01*
X143927853Y-108021179D01*
X143819912Y-107986106D01*
X143801936Y-107978660D01*
X143700815Y-107927136D01*
X143684226Y-107916970D01*
X143592411Y-107850264D01*
X143577614Y-107837626D01*
X143497369Y-107757381D01*
X143484731Y-107742584D01*
X143418030Y-107650776D01*
X143407864Y-107634187D01*
X143356333Y-107533053D01*
X143348889Y-107515080D01*
X143347050Y-107509420D01*
X143313817Y-107407138D01*
X143309282Y-107388248D01*
X143291525Y-107276131D01*
X143290000Y-107256745D01*
X143290000Y-107143254D01*
X143291525Y-107123869D01*
X143309282Y-107011751D01*
X143313816Y-106992865D01*
X143348896Y-106884899D01*
X143356334Y-106866943D01*
X143407871Y-106765797D01*
X143418024Y-106749228D01*
X143484735Y-106657407D01*
X143497363Y-106642622D01*
X143577622Y-106562363D01*
X143592407Y-106549735D01*
X143684228Y-106483024D01*
X143700797Y-106472871D01*
X143801941Y-106421335D01*
X143819901Y-106413896D01*
X143927867Y-106378815D01*
X143946769Y-106374278D01*
X144029708Y-106361142D01*
X144029710Y-106361142D01*
X144058859Y-106356526D01*
X144078254Y-106355000D01*
X144191753Y-106355000D01*
X144211137Y-106356525D01*
G37*
%TD.AperFunction*%
%TA.AperFunction,Conductor*%
G36*
X133341027Y-107157381D02*
G01*
X133374080Y-107163955D01*
X133397332Y-107171009D01*
X133428449Y-107183899D01*
X133449883Y-107195354D01*
X133477904Y-107214077D01*
X133496691Y-107229496D01*
X133520501Y-107253306D01*
X133535922Y-107272096D01*
X133554637Y-107300105D01*
X133566094Y-107321539D01*
X133578991Y-107352675D01*
X133586045Y-107375929D01*
X133592255Y-107407149D01*
X133592617Y-107408966D01*
X133594999Y-107433151D01*
X133595000Y-107433158D01*
X133595000Y-107466839D01*
X133592616Y-107491035D01*
X133586043Y-107524073D01*
X133578988Y-107547329D01*
X133566098Y-107578449D01*
X133554639Y-107599888D01*
X133535920Y-107627903D01*
X133520499Y-107646693D01*
X133496693Y-107670499D01*
X133477903Y-107685920D01*
X133449885Y-107704641D01*
X133428448Y-107716100D01*
X133418531Y-107720208D01*
X133397328Y-107728989D01*
X133374071Y-107736045D01*
X133357340Y-107739373D01*
X133341031Y-107742617D01*
X133316841Y-107745000D01*
X133283159Y-107745000D01*
X133258969Y-107742617D01*
X133225924Y-107736044D01*
X133202665Y-107728988D01*
X133171546Y-107716098D01*
X133150108Y-107704639D01*
X133122096Y-107685922D01*
X133103306Y-107670501D01*
X133079496Y-107646691D01*
X133064075Y-107627901D01*
X133060883Y-107623124D01*
X133045356Y-107599886D01*
X133033899Y-107578451D01*
X133021009Y-107547333D01*
X133013954Y-107524072D01*
X133007382Y-107491028D01*
X133005000Y-107466840D01*
X133005000Y-107433151D01*
X133007382Y-107408966D01*
X133013956Y-107375915D01*
X133021008Y-107352668D01*
X133033900Y-107321543D01*
X133045353Y-107300115D01*
X133064080Y-107272089D01*
X133079491Y-107253311D01*
X133103311Y-107229491D01*
X133122088Y-107214081D01*
X133150118Y-107195351D01*
X133171539Y-107183902D01*
X133202667Y-107171008D01*
X133225920Y-107163955D01*
X133258968Y-107157381D01*
X133283158Y-107155000D01*
X133316845Y-107155000D01*
X133341027Y-107157381D01*
G37*
%TD.AperFunction*%
%TA.AperFunction,Conductor*%
G36*
X140637646Y-106980878D02*
G01*
X140670699Y-106987452D01*
X140693951Y-106994506D01*
X140725068Y-107007396D01*
X140746502Y-107018851D01*
X140774523Y-107037574D01*
X140793310Y-107052993D01*
X140817120Y-107076803D01*
X140832541Y-107095593D01*
X140851258Y-107123605D01*
X140862718Y-107145046D01*
X140875608Y-107176167D01*
X140882662Y-107199421D01*
X140889235Y-107232459D01*
X140891619Y-107256655D01*
X140891619Y-107351451D01*
X140891125Y-107362505D01*
X140890843Y-107365649D01*
X140890843Y-107365659D01*
X140891782Y-107418354D01*
X140891782Y-107418360D01*
X140891783Y-107418365D01*
X140892107Y-107420941D01*
X140900842Y-107490499D01*
X140889664Y-107559468D01*
X140842972Y-107611446D01*
X140775592Y-107629929D01*
X140736554Y-107622885D01*
X140601558Y-107575259D01*
X140601559Y-107575259D01*
X140527172Y-107560462D01*
X140527132Y-107560454D01*
X140522500Y-107559531D01*
X140522489Y-107559525D01*
X140499282Y-107552484D01*
X140486836Y-107547329D01*
X140468167Y-107539595D01*
X140446730Y-107528138D01*
X140440645Y-107524072D01*
X140418713Y-107509418D01*
X140399925Y-107493998D01*
X140376115Y-107470188D01*
X140360693Y-107451396D01*
X140341978Y-107423386D01*
X140332263Y-107405213D01*
X140332111Y-107405287D01*
X140330612Y-107402173D01*
X140330608Y-107402163D01*
X140278504Y-107307747D01*
X140273410Y-107284823D01*
X140264038Y-107263293D01*
X140265972Y-107251352D01*
X140263349Y-107239545D01*
X140271456Y-107217507D01*
X140275213Y-107194323D01*
X140285833Y-107178427D01*
X140287473Y-107173972D01*
X140294821Y-107164977D01*
X140295741Y-107163953D01*
X140353348Y-107099819D01*
X140357879Y-107095039D01*
X140399930Y-107052988D01*
X140418707Y-107037578D01*
X140446737Y-107018848D01*
X140468158Y-107007399D01*
X140499286Y-106994505D01*
X140522539Y-106987452D01*
X140555587Y-106980878D01*
X140579777Y-106978497D01*
X140613464Y-106978497D01*
X140637646Y-106980878D01*
G37*
%TD.AperFunction*%
%TA.AperFunction,Conductor*%
G36*
X140241036Y-103307383D02*
G01*
X140288098Y-103316744D01*
X140305159Y-103321424D01*
X140310131Y-103323178D01*
X140310152Y-103323185D01*
X140335536Y-103330638D01*
X140335560Y-103330645D01*
X140388225Y-103343091D01*
X140532014Y-103348227D01*
X140601481Y-103340759D01*
X140601491Y-103340756D01*
X140601494Y-103340756D01*
X140634708Y-103332279D01*
X140641183Y-103330810D01*
X140758959Y-103307383D01*
X140783150Y-103305000D01*
X140816845Y-103305000D01*
X140841027Y-103307381D01*
X140874080Y-103313955D01*
X140897332Y-103321009D01*
X140928449Y-103333899D01*
X140949883Y-103345354D01*
X140977904Y-103364077D01*
X140996691Y-103379496D01*
X141020501Y-103403306D01*
X141035918Y-103422090D01*
X141054642Y-103450112D01*
X141066094Y-103471540D01*
X141078985Y-103502660D01*
X141078990Y-103502671D01*
X141086045Y-103525930D01*
X141092617Y-103558968D01*
X141095000Y-103583157D01*
X141095000Y-103616839D01*
X141092616Y-103641035D01*
X141086043Y-103674073D01*
X141078988Y-103697329D01*
X141066098Y-103728449D01*
X141054639Y-103749888D01*
X141035920Y-103777903D01*
X141020499Y-103796693D01*
X140996693Y-103820499D01*
X140977903Y-103835920D01*
X140949885Y-103854641D01*
X140928448Y-103866100D01*
X140922690Y-103868485D01*
X140897328Y-103878989D01*
X140874071Y-103886045D01*
X140857340Y-103889373D01*
X140841031Y-103892617D01*
X140816841Y-103895000D01*
X140783159Y-103895000D01*
X140758968Y-103892617D01*
X140732701Y-103887392D01*
X140711889Y-103883252D01*
X140694838Y-103878575D01*
X140689866Y-103876821D01*
X140689845Y-103876814D01*
X140664438Y-103869354D01*
X140664430Y-103869352D01*
X140621651Y-103859244D01*
X140611774Y-103856910D01*
X140467985Y-103851773D01*
X140406541Y-103858378D01*
X140406538Y-103858378D01*
X140398516Y-103859241D01*
X140398484Y-103859244D01*
X140363731Y-103868116D01*
X140362110Y-103868485D01*
X140361952Y-103868475D01*
X140358798Y-103869191D01*
X140254345Y-103889969D01*
X140241032Y-103892617D01*
X140216842Y-103895000D01*
X140183159Y-103895000D01*
X140158969Y-103892617D01*
X140129700Y-103886795D01*
X140125924Y-103886044D01*
X140102665Y-103878988D01*
X140071546Y-103866098D01*
X140050108Y-103854639D01*
X140022096Y-103835922D01*
X140003306Y-103820501D01*
X139979496Y-103796691D01*
X139964075Y-103777901D01*
X139945356Y-103749886D01*
X139933899Y-103728451D01*
X139921009Y-103697333D01*
X139913954Y-103674072D01*
X139907382Y-103641028D01*
X139905000Y-103616840D01*
X139905000Y-103583157D01*
X139907382Y-103558969D01*
X139913954Y-103525925D01*
X139921008Y-103502667D01*
X139933902Y-103471539D01*
X139945353Y-103450115D01*
X139964080Y-103422089D01*
X139979491Y-103403311D01*
X140003311Y-103379491D01*
X140022088Y-103364081D01*
X140050118Y-103345351D01*
X140071539Y-103333902D01*
X140102667Y-103321008D01*
X140125920Y-103313955D01*
X140158968Y-103307381D01*
X140183158Y-103305000D01*
X140216845Y-103305000D01*
X140241036Y-103307383D01*
G37*
%TD.AperFunction*%
%TA.AperFunction,Conductor*%
G36*
X137635838Y-103306870D02*
G01*
X137637283Y-103306696D01*
X137638102Y-103307093D01*
X137641027Y-103307381D01*
X137674080Y-103313955D01*
X137697332Y-103321009D01*
X137728449Y-103333899D01*
X137749883Y-103345354D01*
X137777904Y-103364077D01*
X137796691Y-103379496D01*
X137820501Y-103403306D01*
X137835918Y-103422090D01*
X137854642Y-103450112D01*
X137866094Y-103471540D01*
X137878985Y-103502660D01*
X137878990Y-103502671D01*
X137886043Y-103525925D01*
X137886045Y-103525930D01*
X137892617Y-103558968D01*
X137895000Y-103583160D01*
X137895000Y-103616839D01*
X137892616Y-103641035D01*
X137886043Y-103674073D01*
X137878988Y-103697329D01*
X137866098Y-103728449D01*
X137854639Y-103749888D01*
X137835920Y-103777903D01*
X137820499Y-103796693D01*
X137796693Y-103820499D01*
X137777903Y-103835920D01*
X137749885Y-103854641D01*
X137728448Y-103866100D01*
X137722690Y-103868485D01*
X137697328Y-103878989D01*
X137674091Y-103886041D01*
X137672792Y-103886299D01*
X137672096Y-103886437D01*
X137602504Y-103880223D01*
X137547319Y-103837370D01*
X137524063Y-103771484D01*
X137523884Y-103764825D01*
X137523884Y-103667800D01*
X137523449Y-103665799D01*
X137515149Y-103624072D01*
X137493781Y-103516653D01*
X137493665Y-103515320D01*
X137493120Y-103513328D01*
X137492484Y-103511791D01*
X137492484Y-103511790D01*
X137477847Y-103476452D01*
X137470378Y-103406982D01*
X137501654Y-103344503D01*
X137561743Y-103308852D01*
X137592408Y-103305000D01*
X137616845Y-103305000D01*
X137635838Y-103306870D01*
G37*
%TD.AperFunction*%
%TA.AperFunction,Conductor*%
G36*
X133341027Y-103257381D02*
G01*
X133374080Y-103263955D01*
X133397332Y-103271009D01*
X133428449Y-103283899D01*
X133449883Y-103295354D01*
X133477904Y-103314077D01*
X133496691Y-103329496D01*
X133520501Y-103353306D01*
X133535923Y-103372097D01*
X133554641Y-103400111D01*
X133566100Y-103421550D01*
X133578989Y-103452668D01*
X133586044Y-103475924D01*
X133588244Y-103486985D01*
X133592617Y-103508969D01*
X133595000Y-103533157D01*
X133595000Y-103566840D01*
X133592617Y-103591032D01*
X133586045Y-103624070D01*
X133578989Y-103647328D01*
X133570511Y-103667800D01*
X133566100Y-103678448D01*
X133554641Y-103699885D01*
X133535920Y-103727903D01*
X133520499Y-103746693D01*
X133496693Y-103770499D01*
X133477903Y-103785920D01*
X133449885Y-103804641D01*
X133428446Y-103816100D01*
X133397328Y-103828989D01*
X133374071Y-103836045D01*
X133357340Y-103839373D01*
X133341031Y-103842617D01*
X133316841Y-103845000D01*
X133283159Y-103845000D01*
X133258970Y-103842617D01*
X133232589Y-103837370D01*
X133225924Y-103836044D01*
X133202667Y-103828988D01*
X133171547Y-103816098D01*
X133150108Y-103804639D01*
X133122096Y-103785922D01*
X133103306Y-103770501D01*
X133079496Y-103746691D01*
X133064075Y-103727901D01*
X133045358Y-103699889D01*
X133033899Y-103678451D01*
X133032086Y-103674073D01*
X133021009Y-103647332D01*
X133013954Y-103624072D01*
X133007382Y-103591028D01*
X133005000Y-103566840D01*
X133005000Y-103533157D01*
X133007382Y-103508969D01*
X133013954Y-103475925D01*
X133013955Y-103475924D01*
X133013954Y-103475921D01*
X133021008Y-103452667D01*
X133033902Y-103421539D01*
X133045353Y-103400115D01*
X133064080Y-103372089D01*
X133079491Y-103353311D01*
X133103311Y-103329491D01*
X133122088Y-103314081D01*
X133150118Y-103295351D01*
X133171539Y-103283902D01*
X133202667Y-103271008D01*
X133225920Y-103263955D01*
X133258968Y-103257381D01*
X133283158Y-103255000D01*
X133316845Y-103255000D01*
X133341027Y-103257381D01*
G37*
%TD.AperFunction*%
%TA.AperFunction,Conductor*%
G36*
X140920414Y-96392408D02*
G01*
X140974280Y-96433487D01*
X140994965Y-96461119D01*
X140998799Y-96466538D01*
X141054639Y-96550109D01*
X141066098Y-96571547D01*
X141078988Y-96602667D01*
X141086044Y-96625926D01*
X141091093Y-96651307D01*
X141084866Y-96720899D01*
X141042004Y-96776077D01*
X140976115Y-96799322D01*
X140969476Y-96799500D01*
X140821153Y-96799500D01*
X140666527Y-96830257D01*
X140666485Y-96830267D01*
X140662039Y-96831378D01*
X140661699Y-96830019D01*
X140639465Y-96830755D01*
X140611353Y-96834798D01*
X140605002Y-96831897D01*
X140598025Y-96832129D01*
X140573635Y-96817573D01*
X140547797Y-96805773D01*
X140544022Y-96799899D01*
X140538028Y-96796322D01*
X140525379Y-96770890D01*
X140510023Y-96746995D01*
X140508611Y-96737175D01*
X140506914Y-96733763D01*
X140505000Y-96712060D01*
X140505000Y-96683155D01*
X140507381Y-96658971D01*
X140513955Y-96625919D01*
X140521009Y-96602669D01*
X140531268Y-96577901D01*
X140536689Y-96564811D01*
X140544322Y-96549477D01*
X140563425Y-96516954D01*
X140576503Y-96491400D01*
X140583949Y-96474501D01*
X140628994Y-96421090D01*
X140695764Y-96400511D01*
X140697422Y-96400500D01*
X140782965Y-96400500D01*
X140790820Y-96398116D01*
X140850825Y-96386181D01*
X140920414Y-96392408D01*
G37*
%TD.AperFunction*%
%TA.AperFunction,Conductor*%
G36*
X134541027Y-96107381D02*
G01*
X134574080Y-96113955D01*
X134597332Y-96121009D01*
X134628449Y-96133899D01*
X134649883Y-96145354D01*
X134677904Y-96164077D01*
X134696691Y-96179496D01*
X134720501Y-96203306D01*
X134735923Y-96222097D01*
X134754641Y-96250111D01*
X134766096Y-96271541D01*
X134769644Y-96280105D01*
X134769650Y-96280119D01*
X134773985Y-96290587D01*
X134774279Y-96291295D01*
X134774325Y-96291407D01*
X134778992Y-96302677D01*
X134786044Y-96325924D01*
X134792617Y-96358969D01*
X134795000Y-96383158D01*
X134795000Y-96416839D01*
X134792616Y-96441035D01*
X134786043Y-96474073D01*
X134778988Y-96497329D01*
X134766098Y-96528449D01*
X134754639Y-96549888D01*
X134735920Y-96577903D01*
X134720499Y-96596693D01*
X134696693Y-96620499D01*
X134677903Y-96635920D01*
X134649885Y-96654641D01*
X134628446Y-96666100D01*
X134597328Y-96678989D01*
X134574071Y-96686045D01*
X134557340Y-96689373D01*
X134541031Y-96692617D01*
X134516841Y-96695000D01*
X134483159Y-96695000D01*
X134458970Y-96692617D01*
X134434566Y-96687763D01*
X134425924Y-96686044D01*
X134402667Y-96678988D01*
X134371547Y-96666098D01*
X134350108Y-96654639D01*
X134322096Y-96635922D01*
X134303306Y-96620501D01*
X134279496Y-96596691D01*
X134264075Y-96577901D01*
X134245356Y-96549886D01*
X134233899Y-96528451D01*
X134221009Y-96497333D01*
X134213954Y-96474072D01*
X134207382Y-96441028D01*
X134205000Y-96416840D01*
X134205000Y-96383157D01*
X134207382Y-96358969D01*
X134213954Y-96325925D01*
X134213955Y-96325924D01*
X134213954Y-96325921D01*
X134221008Y-96302667D01*
X134233902Y-96271539D01*
X134245353Y-96250115D01*
X134264080Y-96222089D01*
X134279491Y-96203311D01*
X134303311Y-96179491D01*
X134322088Y-96164081D01*
X134350118Y-96145351D01*
X134371539Y-96133902D01*
X134402667Y-96121008D01*
X134425920Y-96113955D01*
X134458968Y-96107381D01*
X134483158Y-96105000D01*
X134516845Y-96105000D01*
X134541027Y-96107381D01*
G37*
%TD.AperFunction*%
%TA.AperFunction,Conductor*%
G36*
X134406714Y-93741694D02*
G01*
X134439767Y-93748268D01*
X134463019Y-93755322D01*
X134494136Y-93768212D01*
X134515570Y-93779667D01*
X134543591Y-93798390D01*
X134562378Y-93813809D01*
X134586188Y-93837619D01*
X134601610Y-93856410D01*
X134620328Y-93884424D01*
X134631782Y-93905852D01*
X134634741Y-93912994D01*
X134634750Y-93913014D01*
X134637201Y-93918934D01*
X134639414Y-93924275D01*
X134639422Y-93924295D01*
X134644677Y-93936984D01*
X134651729Y-93960233D01*
X134658304Y-93993282D01*
X134660687Y-94017474D01*
X134660687Y-94051152D01*
X134658303Y-94075348D01*
X134651730Y-94108386D01*
X134644675Y-94131642D01*
X134631785Y-94162762D01*
X134620326Y-94184201D01*
X134601607Y-94212216D01*
X134586186Y-94231006D01*
X134562380Y-94254812D01*
X134543590Y-94270233D01*
X134515572Y-94288954D01*
X134494133Y-94300413D01*
X134463015Y-94313302D01*
X134439758Y-94320358D01*
X134423027Y-94323686D01*
X134406718Y-94326930D01*
X134382528Y-94329313D01*
X134348846Y-94329313D01*
X134324657Y-94326930D01*
X134300253Y-94322076D01*
X134291611Y-94320357D01*
X134268354Y-94313301D01*
X134251925Y-94306496D01*
X134211696Y-94279616D01*
X134120381Y-94188301D01*
X134115749Y-94181370D01*
X134111512Y-94178428D01*
X134093502Y-94148075D01*
X134087468Y-94133509D01*
X134086698Y-94131649D01*
X134079641Y-94108385D01*
X134073069Y-94075341D01*
X134070687Y-94051153D01*
X134070687Y-94017470D01*
X134073069Y-93993282D01*
X134079641Y-93960238D01*
X134086695Y-93936980D01*
X134099589Y-93905852D01*
X134111040Y-93884428D01*
X134129767Y-93856402D01*
X134145178Y-93837624D01*
X134168998Y-93813804D01*
X134187775Y-93798394D01*
X134215805Y-93779664D01*
X134237226Y-93768215D01*
X134268354Y-93755321D01*
X134291607Y-93748268D01*
X134324655Y-93741694D01*
X134348845Y-93739313D01*
X134382532Y-93739313D01*
X134406714Y-93741694D01*
G37*
%TD.AperFunction*%
%TA.AperFunction,Conductor*%
G36*
X153091562Y-78305523D02*
G01*
X153106560Y-78309927D01*
X153121555Y-78319563D01*
X153138654Y-78324582D01*
X153165329Y-78347693D01*
X153166473Y-78349013D01*
X153193959Y-78403981D01*
X153195619Y-78411647D01*
X153198428Y-78438134D01*
X153188458Y-83509390D01*
X153180191Y-87713974D01*
X153180190Y-87713976D01*
X153180191Y-87713978D01*
X153175098Y-87748903D01*
X153171890Y-87759748D01*
X153133998Y-87818450D01*
X153070384Y-87847348D01*
X153001251Y-87837268D01*
X153001246Y-87837266D01*
X153001245Y-87837265D01*
X152994206Y-87834034D01*
X152958257Y-87809022D01*
X152191928Y-87042693D01*
X152191919Y-87042683D01*
X152187588Y-87038352D01*
X152068717Y-86919481D01*
X152068716Y-86919480D01*
X152000714Y-86880220D01*
X151998653Y-86878920D01*
X151994489Y-86874197D01*
X151989430Y-86869798D01*
X151966842Y-86860663D01*
X151931786Y-86840423D01*
X151893603Y-86830192D01*
X151779057Y-86799499D01*
X151779054Y-86799499D01*
X151611443Y-86799499D01*
X151611380Y-86799500D01*
X141625533Y-86799500D01*
X141625530Y-86799499D01*
X141625529Y-86799500D01*
X141590594Y-86794476D01*
X141577276Y-86790565D01*
X141518499Y-86752789D01*
X141489478Y-86689240D01*
X141487911Y-86678344D01*
X141489031Y-86636502D01*
X141500069Y-86581010D01*
X141500500Y-86579027D01*
X141500500Y-86420973D01*
X141500065Y-86418971D01*
X141478447Y-86310291D01*
X141469737Y-86266503D01*
X141433569Y-86179185D01*
X141427247Y-86163922D01*
X141418519Y-86129726D01*
X141417666Y-86121789D01*
X141415707Y-86103571D01*
X141424434Y-86042867D01*
X141468054Y-85937557D01*
X141469221Y-85935001D01*
X141469730Y-85933510D01*
X141469735Y-85933501D01*
X141469737Y-85933497D01*
X141500499Y-85778848D01*
X141500500Y-85778844D01*
X141500500Y-85621376D01*
X141500500Y-85621158D01*
X141500500Y-85621155D01*
X141500499Y-85621153D01*
X141469737Y-85466503D01*
X141450955Y-85421158D01*
X141409397Y-85320827D01*
X141409390Y-85320814D01*
X141321789Y-85189711D01*
X141321786Y-85189707D01*
X141321781Y-85189701D01*
X141210297Y-85078217D01*
X141210291Y-85078212D01*
X141210290Y-85078211D01*
X141079191Y-84990613D01*
X141079190Y-84990612D01*
X141079185Y-84990609D01*
X141079172Y-84990602D01*
X141079165Y-84990598D01*
X140933502Y-84930264D01*
X140933471Y-84930257D01*
X140778847Y-84899500D01*
X140778845Y-84899500D01*
X140778842Y-84899500D01*
X140621158Y-84899500D01*
X140621155Y-84899500D01*
X140621153Y-84899500D01*
X140466527Y-84930257D01*
X140466496Y-84930264D01*
X140320833Y-84990598D01*
X140320824Y-84990603D01*
X140320807Y-84990613D01*
X140189708Y-85078211D01*
X140189707Y-85078212D01*
X140189701Y-85078217D01*
X140078217Y-85189701D01*
X140078212Y-85189707D01*
X140078211Y-85189708D01*
X139990613Y-85320807D01*
X139990603Y-85320824D01*
X139990602Y-85320827D01*
X139990599Y-85320831D01*
X139930264Y-85466496D01*
X139930257Y-85466527D01*
X139899500Y-85621150D01*
X139899500Y-85621153D01*
X139899500Y-85778846D01*
X139899500Y-85778848D01*
X139899499Y-85778848D01*
X139930257Y-85933471D01*
X139930261Y-85933489D01*
X139930264Y-85933501D01*
X139971680Y-86033489D01*
X139972752Y-86036077D01*
X139979393Y-86062101D01*
X139981479Y-86070273D01*
X139984291Y-86096426D01*
X139975563Y-86157134D01*
X139930264Y-86266496D01*
X139930257Y-86266527D01*
X139899500Y-86421150D01*
X139899500Y-86578850D01*
X139916118Y-86662393D01*
X139918007Y-86697634D01*
X139916739Y-86711812D01*
X139916738Y-86711823D01*
X139916603Y-86713338D01*
X139912764Y-86723093D01*
X139894419Y-86773500D01*
X139894545Y-86773589D01*
X139891890Y-86777369D01*
X139891191Y-86777925D01*
X139891022Y-86778356D01*
X139887128Y-86781163D01*
X139837250Y-86820915D01*
X139822515Y-86825872D01*
X139768216Y-86840422D01*
X139768215Y-86840422D01*
X139727732Y-86863795D01*
X139718095Y-86869360D01*
X139710773Y-86873586D01*
X139710771Y-86873587D01*
X139703733Y-86877650D01*
X139703733Y-86877651D01*
X139631282Y-86919480D01*
X139631281Y-86919481D01*
X139631276Y-86919485D01*
X138619481Y-87931281D01*
X138618980Y-87931977D01*
X138617624Y-87934498D01*
X138577295Y-88004352D01*
X138577287Y-88004366D01*
X138573425Y-88011052D01*
X138573421Y-88011060D01*
X138569361Y-88018094D01*
X138569359Y-88018096D01*
X138567955Y-88020528D01*
X138548585Y-88054075D01*
X138546614Y-88056644D01*
X138540187Y-88068652D01*
X138539390Y-88072066D01*
X138499499Y-88220943D01*
X138499499Y-88391400D01*
X138499500Y-88391451D01*
X138499500Y-90439580D01*
X138479815Y-90506619D01*
X138427011Y-90552374D01*
X138357853Y-90562318D01*
X138294297Y-90533293D01*
X138292996Y-90532150D01*
X137171854Y-89532918D01*
X137105831Y-89474074D01*
X136519755Y-88951726D01*
X136488922Y-88926358D01*
X136473336Y-88914535D01*
X136440635Y-88891704D01*
X136429818Y-88886779D01*
X136309683Y-88832082D01*
X136242632Y-88812479D01*
X136242621Y-88812476D01*
X136100181Y-88792166D01*
X135423760Y-88792955D01*
X135423756Y-88792955D01*
X135316607Y-88804570D01*
X135265249Y-88815774D01*
X135162996Y-88849840D01*
X135041962Y-88927625D01*
X135041951Y-88927633D01*
X134989159Y-88973377D01*
X134894933Y-89082118D01*
X134894930Y-89082122D01*
X134835164Y-89212988D01*
X134815476Y-89280036D01*
X134794998Y-89422465D01*
X134794815Y-89425030D01*
X134792749Y-89440367D01*
X134786044Y-89474071D01*
X134778988Y-89497329D01*
X134766098Y-89528449D01*
X134754639Y-89549888D01*
X134735920Y-89577903D01*
X134720499Y-89596693D01*
X134696693Y-89620499D01*
X134677903Y-89635920D01*
X134649885Y-89654641D01*
X134628446Y-89666100D01*
X134597328Y-89678989D01*
X134574071Y-89686045D01*
X134557340Y-89689373D01*
X134541031Y-89692617D01*
X134516841Y-89695000D01*
X134483159Y-89695000D01*
X134458970Y-89692617D01*
X134428111Y-89686479D01*
X134425924Y-89686044D01*
X134402674Y-89678991D01*
X134387720Y-89672798D01*
X134387708Y-89672793D01*
X134371544Y-89666097D01*
X134350111Y-89654641D01*
X134322097Y-89635923D01*
X134303306Y-89620501D01*
X134279496Y-89596691D01*
X134264075Y-89577901D01*
X134245358Y-89549889D01*
X134245357Y-89549888D01*
X134245356Y-89549886D01*
X134233899Y-89528451D01*
X134221009Y-89497333D01*
X134213955Y-89474078D01*
X134207054Y-89439382D01*
X134205616Y-89427894D01*
X134205357Y-89427922D01*
X134197631Y-89356258D01*
X134193385Y-89316869D01*
X134182119Y-89265226D01*
X134147810Y-89162444D01*
X134069882Y-89041494D01*
X134067045Y-89038228D01*
X134024336Y-88989054D01*
X134024069Y-88988745D01*
X134024059Y-88988735D01*
X133915212Y-88894642D01*
X133897941Y-88886779D01*
X133784264Y-88835026D01*
X133717204Y-88815421D01*
X133717201Y-88815420D01*
X133717199Y-88815420D01*
X133574774Y-88795112D01*
X133574768Y-88795112D01*
X132112795Y-88796817D01*
X132112791Y-88796817D01*
X132005345Y-88808497D01*
X131951001Y-88820387D01*
X131881304Y-88815485D01*
X131825321Y-88773680D01*
X131800826Y-88708244D01*
X131800500Y-88699252D01*
X131800500Y-85878848D01*
X136999499Y-85878848D01*
X137030257Y-86033471D01*
X137030264Y-86033502D01*
X137090598Y-86179165D01*
X137090603Y-86179174D01*
X137090613Y-86179191D01*
X137178211Y-86310290D01*
X137178212Y-86310291D01*
X137178217Y-86310297D01*
X137289701Y-86421781D01*
X137289707Y-86421786D01*
X137289711Y-86421789D01*
X137420814Y-86509390D01*
X137420827Y-86509397D01*
X137566498Y-86569735D01*
X137566503Y-86569737D01*
X137721153Y-86600499D01*
X137721156Y-86600500D01*
X137721158Y-86600500D01*
X137878844Y-86600500D01*
X137878845Y-86600499D01*
X138033497Y-86569737D01*
X138179179Y-86509394D01*
X138310289Y-86421789D01*
X138418955Y-86313122D01*
X138436804Y-86298338D01*
X138452644Y-86287546D01*
X138519122Y-86266069D01*
X138531170Y-86265745D01*
X138559210Y-86269765D01*
X138559493Y-86268343D01*
X138656044Y-86287548D01*
X138713513Y-86298979D01*
X138716247Y-86299703D01*
X138721155Y-86300500D01*
X138878844Y-86300500D01*
X138882964Y-86300500D01*
X138890814Y-86298118D01*
X139033497Y-86269737D01*
X139179179Y-86209394D01*
X139310289Y-86121789D01*
X139421789Y-86010289D01*
X139509394Y-85879179D01*
X139569737Y-85733497D01*
X139600500Y-85578842D01*
X139600500Y-85421158D01*
X139600500Y-85421155D01*
X139600500Y-85420971D01*
X139600064Y-85418966D01*
X139580543Y-85320827D01*
X139574353Y-85289708D01*
X139569737Y-85266503D01*
X139537929Y-85189711D01*
X139509397Y-85120827D01*
X139509390Y-85120814D01*
X139421789Y-84989711D01*
X139421786Y-84989707D01*
X139421781Y-84989701D01*
X139310297Y-84878217D01*
X139310291Y-84878212D01*
X139310290Y-84878211D01*
X139179191Y-84790613D01*
X139179190Y-84790612D01*
X139179185Y-84790609D01*
X139179172Y-84790602D01*
X139179165Y-84790598D01*
X139033502Y-84730264D01*
X139033471Y-84730257D01*
X138878847Y-84699500D01*
X138878845Y-84699500D01*
X138878842Y-84699500D01*
X138721158Y-84699500D01*
X138721155Y-84699500D01*
X138721153Y-84699500D01*
X138566527Y-84730257D01*
X138566496Y-84730264D01*
X138420833Y-84790598D01*
X138420824Y-84790603D01*
X138420807Y-84790613D01*
X138289714Y-84878206D01*
X138289711Y-84878209D01*
X138181039Y-84986882D01*
X138163154Y-85001692D01*
X138147336Y-85012464D01*
X138080847Y-85033929D01*
X138068254Y-85034265D01*
X138036492Y-85030776D01*
X138036477Y-85030854D01*
X138035587Y-85030677D01*
X138034813Y-85030592D01*
X138033476Y-85030257D01*
X137878849Y-84999500D01*
X137878845Y-84999500D01*
X137878842Y-84999500D01*
X137721158Y-84999500D01*
X137721155Y-84999500D01*
X137721153Y-84999500D01*
X137566527Y-85030257D01*
X137566496Y-85030264D01*
X137420833Y-85090598D01*
X137420824Y-85090603D01*
X137420807Y-85090613D01*
X137289708Y-85178211D01*
X137289707Y-85178212D01*
X137289701Y-85178217D01*
X137178217Y-85289701D01*
X137178212Y-85289707D01*
X137178211Y-85289708D01*
X137090613Y-85420807D01*
X137090603Y-85420824D01*
X137090598Y-85420833D01*
X137030264Y-85566496D01*
X137030257Y-85566527D01*
X136999500Y-85721150D01*
X136999500Y-85721153D01*
X136999500Y-85878846D01*
X136999500Y-85878848D01*
X136999499Y-85878848D01*
X131800500Y-85878848D01*
X131800500Y-82878848D01*
X140599499Y-82878848D01*
X140630257Y-83033471D01*
X140630264Y-83033502D01*
X140690598Y-83179165D01*
X140690603Y-83179174D01*
X140690613Y-83179191D01*
X140778211Y-83310290D01*
X140778212Y-83310291D01*
X140778217Y-83310297D01*
X140889701Y-83421781D01*
X140889707Y-83421786D01*
X140889711Y-83421789D01*
X141020814Y-83509390D01*
X141020827Y-83509397D01*
X141166498Y-83569735D01*
X141166503Y-83569737D01*
X141321153Y-83600499D01*
X141321156Y-83600500D01*
X141321158Y-83600500D01*
X141478844Y-83600500D01*
X141478845Y-83600499D01*
X141633497Y-83569737D01*
X141779179Y-83509394D01*
X141910289Y-83421789D01*
X142021789Y-83310289D01*
X142109394Y-83179179D01*
X142169737Y-83033497D01*
X142200500Y-82878842D01*
X142200500Y-82721158D01*
X142200500Y-82721155D01*
X142200500Y-82720973D01*
X142200065Y-82718972D01*
X142170397Y-82569824D01*
X142169994Y-82567467D01*
X142169738Y-82566508D01*
X142169737Y-82566506D01*
X142169737Y-82566503D01*
X142169735Y-82566498D01*
X142109397Y-82420827D01*
X142109390Y-82420814D01*
X142021789Y-82289711D01*
X142021786Y-82289707D01*
X142021781Y-82289701D01*
X141910297Y-82178217D01*
X141910291Y-82178212D01*
X141910290Y-82178211D01*
X141779191Y-82090613D01*
X141779190Y-82090612D01*
X141779185Y-82090609D01*
X141779172Y-82090602D01*
X141779165Y-82090598D01*
X141633502Y-82030264D01*
X141633471Y-82030257D01*
X141478847Y-81999500D01*
X141478845Y-81999500D01*
X141478842Y-81999500D01*
X141321158Y-81999500D01*
X141321155Y-81999500D01*
X141321153Y-81999500D01*
X141166527Y-82030257D01*
X141166496Y-82030264D01*
X141020833Y-82090598D01*
X141020824Y-82090603D01*
X141020807Y-82090613D01*
X140889708Y-82178211D01*
X140889707Y-82178212D01*
X140889701Y-82178217D01*
X140778217Y-82289701D01*
X140778212Y-82289707D01*
X140778211Y-82289708D01*
X140690613Y-82420807D01*
X140690603Y-82420824D01*
X140690598Y-82420833D01*
X140630264Y-82566496D01*
X140630257Y-82566527D01*
X140599500Y-82721150D01*
X140599500Y-82721153D01*
X140599500Y-82878846D01*
X140599500Y-82878848D01*
X140599499Y-82878848D01*
X131800500Y-82878848D01*
X131800500Y-78442329D01*
X131805523Y-78407393D01*
X131809927Y-78392395D01*
X131847672Y-78333644D01*
X131847700Y-78333619D01*
X131847699Y-78333619D01*
X131849041Y-78332456D01*
X131903920Y-78304977D01*
X131911479Y-78303333D01*
X131937832Y-78300500D01*
X153056626Y-78300500D01*
X153091562Y-78305523D01*
G37*
%TD.AperFunction*%
%TD*%
%TA.AperFunction,Conductor*%
%TO.N,/+3V3*%
G36*
X136167833Y-89317273D02*
G01*
X136183419Y-89329096D01*
X136835518Y-89910288D01*
X138719250Y-91589189D01*
X138751307Y-91634305D01*
X138790604Y-91729178D01*
X138790609Y-91729187D01*
X138878210Y-91860290D01*
X138878213Y-91860294D01*
X138989707Y-91971788D01*
X138989711Y-91971791D01*
X139120814Y-92059392D01*
X139120827Y-92059399D01*
X139208230Y-92095601D01*
X139266503Y-92119739D01*
X139295217Y-92125450D01*
X139353526Y-92154495D01*
X143882958Y-96191411D01*
X145758058Y-97862619D01*
X145795008Y-97921919D01*
X145799550Y-97956181D01*
X145775018Y-101022635D01*
X145765584Y-101069093D01*
X145755999Y-101092233D01*
X145755997Y-101092240D01*
X145725235Y-101246890D01*
X145725235Y-101404581D01*
X145755996Y-101559224D01*
X145755999Y-101559236D01*
X145760811Y-101570853D01*
X145770245Y-101619295D01*
X145737091Y-105763503D01*
X145716871Y-105830383D01*
X145663702Y-105875714D01*
X145656428Y-105878693D01*
X145582671Y-105906202D01*
X145582664Y-105906206D01*
X145467455Y-105992452D01*
X145467452Y-105992455D01*
X145381206Y-106107664D01*
X145381203Y-106107669D01*
X145332189Y-106239083D01*
X145290317Y-106295016D01*
X145224853Y-106319433D01*
X145156580Y-106304581D01*
X145128326Y-106283430D01*
X145014786Y-106169890D01*
X144842820Y-106044951D01*
X144653414Y-105948444D01*
X144653413Y-105948443D01*
X144653412Y-105948443D01*
X144451243Y-105882754D01*
X144451241Y-105882753D01*
X144451240Y-105882753D01*
X144289957Y-105857208D01*
X144241287Y-105849500D01*
X144028713Y-105849500D01*
X143980042Y-105857208D01*
X143818760Y-105882753D01*
X143616585Y-105948444D01*
X143427179Y-106044951D01*
X143255213Y-106169890D01*
X143104890Y-106320213D01*
X142979951Y-106492179D01*
X142883444Y-106681585D01*
X142817753Y-106883760D01*
X142784500Y-107093713D01*
X142784500Y-107306286D01*
X142815569Y-107502452D01*
X142817754Y-107516243D01*
X142872098Y-107683497D01*
X142883444Y-107718414D01*
X142979951Y-107907820D01*
X143104890Y-108079786D01*
X143255213Y-108230109D01*
X143427179Y-108355048D01*
X143427181Y-108355049D01*
X143427184Y-108355051D01*
X143616588Y-108451557D01*
X143818757Y-108517246D01*
X144028713Y-108550500D01*
X144028714Y-108550500D01*
X144241286Y-108550500D01*
X144241287Y-108550500D01*
X144451243Y-108517246D01*
X144653412Y-108451557D01*
X144842816Y-108355051D01*
X144986719Y-108250500D01*
X145014784Y-108230110D01*
X145014784Y-108230109D01*
X145014792Y-108230104D01*
X145128329Y-108116566D01*
X145189648Y-108083084D01*
X145259340Y-108088068D01*
X145315274Y-108129939D01*
X145332189Y-108160917D01*
X145381202Y-108292328D01*
X145381206Y-108292335D01*
X145467452Y-108407544D01*
X145467455Y-108407547D01*
X145582664Y-108493793D01*
X145582669Y-108493796D01*
X145633497Y-108512753D01*
X145689430Y-108554623D01*
X145713848Y-108620086D01*
X145714160Y-108629927D01*
X145700002Y-110399706D01*
X145699994Y-110400412D01*
X145611802Y-116838450D01*
X145598747Y-116892159D01*
X143395832Y-121302738D01*
X143348267Y-121353917D01*
X143309091Y-121368948D01*
X143138170Y-121402947D01*
X143138160Y-121402950D01*
X142956092Y-121478364D01*
X142956079Y-121478371D01*
X142792218Y-121587860D01*
X142792214Y-121587863D01*
X142652863Y-121727214D01*
X142652860Y-121727218D01*
X142543371Y-121891079D01*
X142543364Y-121891092D01*
X142467950Y-122073160D01*
X142467947Y-122073170D01*
X142429500Y-122266456D01*
X142429500Y-123208241D01*
X142416433Y-123263648D01*
X141526501Y-125045429D01*
X140836206Y-126427511D01*
X140834260Y-126431407D01*
X140786695Y-126482586D01*
X140723327Y-126500000D01*
X139386348Y-126500000D01*
X139319309Y-126480315D01*
X139273554Y-126427511D01*
X139263610Y-126358353D01*
X139268766Y-126339565D01*
X139267969Y-126339324D01*
X139269731Y-126333509D01*
X139269737Y-126333497D01*
X139300500Y-126178842D01*
X139300500Y-126021158D01*
X139300500Y-126021155D01*
X139300499Y-126021153D01*
X139299844Y-126017861D01*
X139269737Y-125866503D01*
X139235242Y-125783223D01*
X139209397Y-125720827D01*
X139209390Y-125720814D01*
X139121789Y-125589711D01*
X139121786Y-125589707D01*
X139010292Y-125478213D01*
X139010288Y-125478210D01*
X138879185Y-125390609D01*
X138879172Y-125390602D01*
X138733501Y-125330264D01*
X138733489Y-125330261D01*
X138578845Y-125299500D01*
X138578842Y-125299500D01*
X138421158Y-125299500D01*
X138421155Y-125299500D01*
X138266510Y-125330261D01*
X138266498Y-125330264D01*
X138120827Y-125390602D01*
X138120814Y-125390609D01*
X137989711Y-125478210D01*
X137989707Y-125478213D01*
X137873903Y-125594018D01*
X137872591Y-125592706D01*
X137822004Y-125627155D01*
X137752159Y-125629017D01*
X137692396Y-125592822D01*
X137680810Y-125578042D01*
X137621789Y-125489710D01*
X137510292Y-125378213D01*
X137510288Y-125378210D01*
X137379185Y-125290609D01*
X137379172Y-125290602D01*
X137233501Y-125230264D01*
X137233489Y-125230261D01*
X137078845Y-125199500D01*
X137078842Y-125199500D01*
X136921158Y-125199500D01*
X136921155Y-125199500D01*
X136766510Y-125230261D01*
X136760676Y-125232031D01*
X136759873Y-125229385D01*
X136702056Y-125235396D01*
X136639687Y-125203902D01*
X136604245Y-125143689D01*
X136600500Y-125113444D01*
X136600500Y-124300096D01*
X136620185Y-124233057D01*
X136636814Y-124212420D01*
X138220898Y-122628335D01*
X138282219Y-122594852D01*
X138351911Y-122599836D01*
X138396258Y-122628337D01*
X138489707Y-122721786D01*
X138489711Y-122721789D01*
X138620814Y-122809390D01*
X138620827Y-122809397D01*
X138765931Y-122869500D01*
X138766503Y-122869737D01*
X138921153Y-122900499D01*
X138921156Y-122900500D01*
X138921158Y-122900500D01*
X139078844Y-122900500D01*
X139078845Y-122900499D01*
X139233497Y-122869737D01*
X139379179Y-122809394D01*
X139510289Y-122721789D01*
X139621789Y-122610289D01*
X139709394Y-122479179D01*
X139769737Y-122333497D01*
X139800500Y-122178842D01*
X139800500Y-122021158D01*
X139800500Y-122021155D01*
X139800499Y-122021153D01*
X139783871Y-121937561D01*
X139769737Y-121866503D01*
X139733865Y-121779900D01*
X139709397Y-121720827D01*
X139709390Y-121720814D01*
X139646514Y-121626714D01*
X139625636Y-121560037D01*
X139644120Y-121492656D01*
X139661928Y-121470149D01*
X139721789Y-121410289D01*
X139809394Y-121279179D01*
X139869737Y-121133497D01*
X139900500Y-120978842D01*
X139900500Y-120821158D01*
X139900500Y-120821155D01*
X139900499Y-120821153D01*
X139890272Y-120769737D01*
X139869737Y-120666503D01*
X139869735Y-120666498D01*
X139809397Y-120520827D01*
X139809390Y-120520814D01*
X139721789Y-120389711D01*
X139721786Y-120389707D01*
X139610292Y-120278213D01*
X139610288Y-120278210D01*
X139479185Y-120190609D01*
X139479172Y-120190602D01*
X139333501Y-120130264D01*
X139333489Y-120130261D01*
X139178845Y-120099500D01*
X139178842Y-120099500D01*
X139117848Y-120099500D01*
X139050809Y-120079815D01*
X139005054Y-120027011D01*
X138996231Y-119999692D01*
X138969738Y-119866508D01*
X138969737Y-119866507D01*
X138969737Y-119866503D01*
X138918940Y-119743867D01*
X138909397Y-119720827D01*
X138909390Y-119720814D01*
X138821789Y-119589711D01*
X138821786Y-119589707D01*
X138721683Y-119489604D01*
X138688198Y-119428281D01*
X138685364Y-119401923D01*
X138685364Y-119285837D01*
X138685363Y-119285835D01*
X138679332Y-119255516D01*
X138654601Y-119131185D01*
X138654599Y-119131180D01*
X138591927Y-118979874D01*
X138594579Y-118978775D01*
X138582833Y-118922385D01*
X138607826Y-118857138D01*
X138658981Y-118817759D01*
X138679179Y-118809394D01*
X138810289Y-118721789D01*
X138921789Y-118610289D01*
X139009394Y-118479179D01*
X139069737Y-118333497D01*
X139100500Y-118178842D01*
X139100500Y-118021158D01*
X139100500Y-118021155D01*
X139100499Y-118021153D01*
X139069737Y-117866503D01*
X139055149Y-117831284D01*
X139009397Y-117720827D01*
X139009390Y-117720814D01*
X138921789Y-117589711D01*
X138921786Y-117589707D01*
X138810292Y-117478213D01*
X138810288Y-117478210D01*
X138679185Y-117390609D01*
X138679172Y-117390602D01*
X138533501Y-117330264D01*
X138533489Y-117330261D01*
X138378845Y-117299500D01*
X138378842Y-117299500D01*
X138221158Y-117299500D01*
X138221155Y-117299500D01*
X138066510Y-117330261D01*
X138066498Y-117330264D01*
X137920827Y-117390602D01*
X137920814Y-117390609D01*
X137789711Y-117478210D01*
X137789707Y-117478213D01*
X137678213Y-117589707D01*
X137678210Y-117589711D01*
X137590609Y-117720814D01*
X137590602Y-117720827D01*
X137530264Y-117866498D01*
X137530261Y-117866507D01*
X137526686Y-117884483D01*
X137521975Y-117893487D01*
X137521251Y-117903624D01*
X137506054Y-117923924D01*
X137494300Y-117946394D01*
X137485468Y-117951422D01*
X137479379Y-117959557D01*
X137455620Y-117968418D01*
X137433583Y-117980967D01*
X137423435Y-117980422D01*
X137413915Y-117983974D01*
X137389136Y-117978583D01*
X137363814Y-117977226D01*
X137353753Y-117970886D01*
X137345642Y-117969122D01*
X137317388Y-117947971D01*
X137207772Y-117838355D01*
X137207770Y-117838352D01*
X137088899Y-117719481D01*
X137088898Y-117719480D01*
X137002086Y-117669360D01*
X137002086Y-117669359D01*
X137002082Y-117669358D01*
X136951967Y-117640423D01*
X136799239Y-117599499D01*
X136641125Y-117599499D01*
X136633529Y-117599499D01*
X136633513Y-117599500D01*
X135582940Y-117599500D01*
X135515901Y-117579815D01*
X135495263Y-117563185D01*
X135410289Y-117478211D01*
X135410288Y-117478210D01*
X135410287Y-117478209D01*
X135279185Y-117390609D01*
X135279172Y-117390602D01*
X135133501Y-117330264D01*
X135133489Y-117330261D01*
X134978845Y-117299500D01*
X134978842Y-117299500D01*
X134821158Y-117299500D01*
X134821155Y-117299500D01*
X134666510Y-117330261D01*
X134666498Y-117330264D01*
X134520827Y-117390602D01*
X134520814Y-117390609D01*
X134389711Y-117478210D01*
X134389707Y-117478213D01*
X134278213Y-117589707D01*
X134278210Y-117589711D01*
X134190609Y-117720814D01*
X134190602Y-117720827D01*
X134130264Y-117866498D01*
X134130261Y-117866510D01*
X134099500Y-118021153D01*
X134099500Y-118178846D01*
X134130261Y-118333489D01*
X134130264Y-118333501D01*
X134190602Y-118479172D01*
X134190609Y-118479185D01*
X134278210Y-118610288D01*
X134278213Y-118610292D01*
X134389707Y-118721786D01*
X134389711Y-118721789D01*
X134520814Y-118809390D01*
X134520827Y-118809397D01*
X134636086Y-118857138D01*
X134666503Y-118869737D01*
X134666507Y-118869737D01*
X134666508Y-118869738D01*
X134706096Y-118877613D01*
X134717694Y-118883680D01*
X134730690Y-118885231D01*
X134748054Y-118899560D01*
X134768007Y-118909998D01*
X134774483Y-118921371D01*
X134784579Y-118929703D01*
X134791439Y-118951147D01*
X134802581Y-118970714D01*
X134802365Y-118985302D01*
X134805868Y-118996251D01*
X134801888Y-119017594D01*
X134801686Y-119031296D01*
X134799580Y-119039162D01*
X134774024Y-119100861D01*
X134747885Y-119232265D01*
X134746835Y-119236191D01*
X134730679Y-119262709D01*
X134716285Y-119290228D01*
X134711457Y-119294262D01*
X134710484Y-119295860D01*
X134708241Y-119296949D01*
X134695944Y-119307227D01*
X134589711Y-119378210D01*
X134589707Y-119378213D01*
X134478213Y-119489707D01*
X134478210Y-119489711D01*
X134390609Y-119620814D01*
X134390602Y-119620827D01*
X134330264Y-119766498D01*
X134330261Y-119766510D01*
X134299500Y-119921153D01*
X134299500Y-119977223D01*
X134279815Y-120044262D01*
X134227011Y-120090017D01*
X134194234Y-120098854D01*
X134194337Y-120099368D01*
X134033715Y-120131318D01*
X134033703Y-120131321D01*
X133888032Y-120191659D01*
X133888019Y-120191666D01*
X133756917Y-120279266D01*
X133700877Y-120335307D01*
X133645416Y-120390768D01*
X133645414Y-120390770D01*
X133644837Y-120391348D01*
X133583514Y-120424833D01*
X133557155Y-120427667D01*
X133458290Y-120427667D01*
X133303645Y-120458428D01*
X133303633Y-120458431D01*
X133157962Y-120518769D01*
X133157949Y-120518776D01*
X133026846Y-120606377D01*
X133026842Y-120606380D01*
X132915348Y-120717874D01*
X132915345Y-120717878D01*
X132827744Y-120848981D01*
X132827737Y-120848994D01*
X132767399Y-120994665D01*
X132767396Y-120994677D01*
X132736635Y-121149320D01*
X132736635Y-121307013D01*
X132767396Y-121461656D01*
X132767399Y-121461668D01*
X132827737Y-121607339D01*
X132827744Y-121607352D01*
X132915345Y-121738455D01*
X132915348Y-121738459D01*
X133026842Y-121849953D01*
X133026846Y-121849956D01*
X133157949Y-121937557D01*
X133157962Y-121937564D01*
X133303633Y-121997902D01*
X133303638Y-121997904D01*
X133458293Y-122028667D01*
X133458298Y-122028667D01*
X133464353Y-122029264D01*
X133464179Y-122031024D01*
X133523190Y-122048352D01*
X133559253Y-122083776D01*
X133644492Y-122211344D01*
X133644495Y-122211348D01*
X133755989Y-122322842D01*
X133755993Y-122322845D01*
X133887096Y-122410446D01*
X133887109Y-122410453D01*
X134030238Y-122469738D01*
X134032785Y-122470793D01*
X134182126Y-122500499D01*
X134187435Y-122501555D01*
X134187438Y-122501556D01*
X134187440Y-122501556D01*
X134345126Y-122501556D01*
X134345127Y-122501555D01*
X134499779Y-122470793D01*
X134645461Y-122410450D01*
X134776571Y-122322845D01*
X134888071Y-122211345D01*
X134975676Y-122080235D01*
X134976114Y-122079179D01*
X135000146Y-122021158D01*
X135036019Y-121934553D01*
X135066782Y-121779898D01*
X135066782Y-121622214D01*
X135066782Y-121622211D01*
X135066781Y-121622209D01*
X135059949Y-121587861D01*
X135036019Y-121467559D01*
X135036017Y-121467554D01*
X134987169Y-121349622D01*
X134979700Y-121280153D01*
X134987169Y-121254718D01*
X135004226Y-121213537D01*
X135036942Y-121134554D01*
X135067705Y-120979899D01*
X135067705Y-120923833D01*
X135076752Y-120893020D01*
X135084332Y-120861809D01*
X135086533Y-120859710D01*
X135087390Y-120856794D01*
X135111651Y-120835770D01*
X135134909Y-120813605D01*
X135138432Y-120812565D01*
X135140194Y-120811039D01*
X135168265Y-120802069D01*
X135176415Y-120800500D01*
X135178842Y-120800500D01*
X135251737Y-120786000D01*
X135252060Y-120785938D01*
X135286449Y-120789229D01*
X135320899Y-120792312D01*
X135321214Y-120792556D01*
X135321612Y-120792595D01*
X135348781Y-120813971D01*
X135376077Y-120835174D01*
X135376209Y-120835550D01*
X135376523Y-120835797D01*
X135387816Y-120868450D01*
X135399322Y-120901063D01*
X135399340Y-120901771D01*
X135399361Y-120901829D01*
X135399344Y-120901897D01*
X135399500Y-120907702D01*
X135399500Y-120978846D01*
X135430261Y-121133489D01*
X135430264Y-121133501D01*
X135479574Y-121252548D01*
X135487043Y-121322018D01*
X135479574Y-121347452D01*
X135430264Y-121466498D01*
X135430261Y-121466510D01*
X135399500Y-121621153D01*
X135399500Y-121778846D01*
X135430261Y-121933489D01*
X135430264Y-121933501D01*
X135490602Y-122079172D01*
X135490609Y-122079185D01*
X135578210Y-122210288D01*
X135578213Y-122210292D01*
X135689707Y-122321786D01*
X135689711Y-122321789D01*
X135820814Y-122409390D01*
X135820827Y-122409397D01*
X135966498Y-122469735D01*
X135966503Y-122469737D01*
X136121153Y-122500499D01*
X136121156Y-122500500D01*
X136121158Y-122500500D01*
X136278843Y-122500500D01*
X136292136Y-122497855D01*
X136341571Y-122488022D01*
X136411161Y-122494248D01*
X136466339Y-122537111D01*
X136489584Y-122603000D01*
X136473517Y-122670997D01*
X136453443Y-122697320D01*
X135634137Y-123516626D01*
X135634129Y-123516634D01*
X135631286Y-123519478D01*
X135631284Y-123519480D01*
X135519480Y-123631284D01*
X135498782Y-123667135D01*
X135440423Y-123768215D01*
X135399499Y-123920943D01*
X135399499Y-123920945D01*
X135399499Y-124089046D01*
X135399500Y-124089059D01*
X135399500Y-125420234D01*
X135394171Y-125438379D01*
X135393834Y-125457287D01*
X135380334Y-125485503D01*
X135379815Y-125487273D01*
X135378602Y-125489125D01*
X135319189Y-125578042D01*
X135265576Y-125622847D01*
X135196251Y-125631554D01*
X135133224Y-125601399D01*
X135126132Y-125593982D01*
X135126097Y-125594018D01*
X135010292Y-125478213D01*
X135010288Y-125478210D01*
X134879185Y-125390609D01*
X134879172Y-125390602D01*
X134733501Y-125330264D01*
X134733489Y-125330261D01*
X134578845Y-125299500D01*
X134578842Y-125299500D01*
X134421158Y-125299500D01*
X134421155Y-125299500D01*
X134266510Y-125330261D01*
X134266498Y-125330264D01*
X134120827Y-125390602D01*
X134120814Y-125390609D01*
X133989711Y-125478210D01*
X133989707Y-125478213D01*
X133878213Y-125589707D01*
X133878210Y-125589711D01*
X133796177Y-125712481D01*
X133742564Y-125757286D01*
X133673239Y-125765993D01*
X133645623Y-125758151D01*
X133560466Y-125722878D01*
X133560454Y-125722875D01*
X133405810Y-125692114D01*
X133405807Y-125692114D01*
X133248123Y-125692114D01*
X133248120Y-125692114D01*
X133093475Y-125722875D01*
X133093463Y-125722878D01*
X132947792Y-125783216D01*
X132947779Y-125783223D01*
X132816676Y-125870824D01*
X132816672Y-125870827D01*
X132705178Y-125982321D01*
X132705175Y-125982325D01*
X132617574Y-126113428D01*
X132617567Y-126113441D01*
X132557229Y-126259112D01*
X132557226Y-126259124D01*
X132529166Y-126400191D01*
X132496781Y-126462102D01*
X132436065Y-126496676D01*
X132407549Y-126500000D01*
X132030698Y-126500000D01*
X131963659Y-126480315D01*
X131917904Y-126427511D01*
X131906869Y-126369483D01*
X131908444Y-126339565D01*
X132100000Y-122700000D01*
X132100000Y-116021153D01*
X134099500Y-116021153D01*
X134099500Y-116178846D01*
X134130261Y-116333489D01*
X134130264Y-116333501D01*
X134190602Y-116479172D01*
X134190609Y-116479185D01*
X134278210Y-116610288D01*
X134278213Y-116610292D01*
X134389707Y-116721786D01*
X134389711Y-116721789D01*
X134520814Y-116809390D01*
X134520827Y-116809397D01*
X134666498Y-116869735D01*
X134666503Y-116869737D01*
X134821153Y-116900499D01*
X134821156Y-116900500D01*
X134821158Y-116900500D01*
X134978844Y-116900500D01*
X134978845Y-116900499D01*
X135133497Y-116869737D01*
X135279179Y-116809394D01*
X135410289Y-116721789D01*
X135521789Y-116610289D01*
X135609394Y-116479179D01*
X135669737Y-116333497D01*
X135700500Y-116178842D01*
X135700500Y-116021158D01*
X135700500Y-116021155D01*
X135700499Y-116021153D01*
X137549500Y-116021153D01*
X137549500Y-116178846D01*
X137580261Y-116333489D01*
X137580264Y-116333501D01*
X137640602Y-116479172D01*
X137640609Y-116479185D01*
X137728210Y-116610288D01*
X137728213Y-116610292D01*
X137839707Y-116721786D01*
X137839711Y-116721789D01*
X137970814Y-116809390D01*
X137970827Y-116809397D01*
X138116498Y-116869735D01*
X138116503Y-116869737D01*
X138271153Y-116900499D01*
X138271156Y-116900500D01*
X138271158Y-116900500D01*
X138428844Y-116900500D01*
X138428845Y-116900499D01*
X138583497Y-116869737D01*
X138729179Y-116809394D01*
X138860289Y-116721789D01*
X138971789Y-116610289D01*
X139059394Y-116479179D01*
X139119737Y-116333497D01*
X139150500Y-116178842D01*
X139150500Y-116021158D01*
X139150500Y-116021155D01*
X139150499Y-116021153D01*
X139119738Y-115866510D01*
X139119737Y-115866503D01*
X139078389Y-115766679D01*
X139059397Y-115720827D01*
X139059390Y-115720814D01*
X138971789Y-115589711D01*
X138971786Y-115589707D01*
X138860292Y-115478213D01*
X138860288Y-115478210D01*
X138729185Y-115390609D01*
X138729172Y-115390602D01*
X138583501Y-115330264D01*
X138583489Y-115330261D01*
X138428845Y-115299500D01*
X138428842Y-115299500D01*
X138271158Y-115299500D01*
X138271155Y-115299500D01*
X138116510Y-115330261D01*
X138116498Y-115330264D01*
X137970827Y-115390602D01*
X137970814Y-115390609D01*
X137839711Y-115478210D01*
X137839707Y-115478213D01*
X137728213Y-115589707D01*
X137728210Y-115589711D01*
X137640609Y-115720814D01*
X137640602Y-115720827D01*
X137580264Y-115866498D01*
X137580261Y-115866510D01*
X137549500Y-116021153D01*
X135700499Y-116021153D01*
X135669738Y-115866510D01*
X135669737Y-115866503D01*
X135628389Y-115766679D01*
X135609397Y-115720827D01*
X135609390Y-115720814D01*
X135521789Y-115589711D01*
X135521786Y-115589707D01*
X135410292Y-115478213D01*
X135410288Y-115478210D01*
X135279185Y-115390609D01*
X135279172Y-115390602D01*
X135133501Y-115330264D01*
X135133489Y-115330261D01*
X134978845Y-115299500D01*
X134978842Y-115299500D01*
X134821158Y-115299500D01*
X134821155Y-115299500D01*
X134666510Y-115330261D01*
X134666498Y-115330264D01*
X134520827Y-115390602D01*
X134520814Y-115390609D01*
X134389711Y-115478210D01*
X134389707Y-115478213D01*
X134278213Y-115589707D01*
X134278210Y-115589711D01*
X134190609Y-115720814D01*
X134190602Y-115720827D01*
X134130264Y-115866498D01*
X134130261Y-115866510D01*
X134099500Y-116021153D01*
X132100000Y-116021153D01*
X132100000Y-114021153D01*
X134149500Y-114021153D01*
X134149500Y-114178846D01*
X134180261Y-114333489D01*
X134180264Y-114333501D01*
X134240602Y-114479172D01*
X134240609Y-114479185D01*
X134328210Y-114610288D01*
X134328213Y-114610292D01*
X134439707Y-114721786D01*
X134439711Y-114721789D01*
X134570814Y-114809390D01*
X134570827Y-114809397D01*
X134716498Y-114869735D01*
X134716503Y-114869737D01*
X134871153Y-114900499D01*
X134871156Y-114900500D01*
X134871158Y-114900500D01*
X135028844Y-114900500D01*
X135028845Y-114900499D01*
X135183497Y-114869737D01*
X135329179Y-114809394D01*
X135460289Y-114721789D01*
X135571789Y-114610289D01*
X135659394Y-114479179D01*
X135719737Y-114333497D01*
X135750500Y-114178842D01*
X135750500Y-114021158D01*
X135750500Y-114021155D01*
X135750499Y-114021153D01*
X137499500Y-114021153D01*
X137499500Y-114178846D01*
X137530261Y-114333489D01*
X137530264Y-114333501D01*
X137590602Y-114479172D01*
X137590609Y-114479185D01*
X137678210Y-114610288D01*
X137678213Y-114610292D01*
X137789707Y-114721786D01*
X137789711Y-114721789D01*
X137920814Y-114809390D01*
X137920827Y-114809397D01*
X138066498Y-114869735D01*
X138066503Y-114869737D01*
X138221153Y-114900499D01*
X138221156Y-114900500D01*
X138221158Y-114900500D01*
X138378844Y-114900500D01*
X138378845Y-114900499D01*
X138533497Y-114869737D01*
X138679179Y-114809394D01*
X138810289Y-114721789D01*
X138921789Y-114610289D01*
X139009394Y-114479179D01*
X139069737Y-114333497D01*
X139100500Y-114178842D01*
X139100500Y-114021158D01*
X139100500Y-114021155D01*
X139100499Y-114021153D01*
X139069738Y-113866510D01*
X139069737Y-113866503D01*
X139069735Y-113866498D01*
X139009397Y-113720827D01*
X139009390Y-113720814D01*
X138921789Y-113589711D01*
X138921786Y-113589707D01*
X138810292Y-113478213D01*
X138810288Y-113478210D01*
X138679185Y-113390609D01*
X138679172Y-113390602D01*
X138533501Y-113330264D01*
X138533489Y-113330261D01*
X138378845Y-113299500D01*
X138378842Y-113299500D01*
X138221158Y-113299500D01*
X138221155Y-113299500D01*
X138066510Y-113330261D01*
X138066498Y-113330264D01*
X137920827Y-113390602D01*
X137920814Y-113390609D01*
X137789711Y-113478210D01*
X137789707Y-113478213D01*
X137678213Y-113589707D01*
X137678210Y-113589711D01*
X137590609Y-113720814D01*
X137590602Y-113720827D01*
X137530264Y-113866498D01*
X137530261Y-113866510D01*
X137499500Y-114021153D01*
X135750499Y-114021153D01*
X135719738Y-113866510D01*
X135719737Y-113866503D01*
X135719735Y-113866498D01*
X135659397Y-113720827D01*
X135659390Y-113720814D01*
X135571789Y-113589711D01*
X135571786Y-113589707D01*
X135460292Y-113478213D01*
X135460288Y-113478210D01*
X135329185Y-113390609D01*
X135329172Y-113390602D01*
X135183501Y-113330264D01*
X135183489Y-113330261D01*
X135028845Y-113299500D01*
X135028842Y-113299500D01*
X134871158Y-113299500D01*
X134871155Y-113299500D01*
X134716510Y-113330261D01*
X134716498Y-113330264D01*
X134570827Y-113390602D01*
X134570814Y-113390609D01*
X134439711Y-113478210D01*
X134439707Y-113478213D01*
X134328213Y-113589707D01*
X134328210Y-113589711D01*
X134240609Y-113720814D01*
X134240602Y-113720827D01*
X134180264Y-113866498D01*
X134180261Y-113866510D01*
X134149500Y-114021153D01*
X132100000Y-114021153D01*
X132100000Y-112000000D01*
X132090012Y-111600500D01*
X132053354Y-110134153D01*
X132045529Y-109821153D01*
X132999500Y-109821153D01*
X132999500Y-109978846D01*
X133030261Y-110133489D01*
X133030264Y-110133501D01*
X133090602Y-110279172D01*
X133090609Y-110279185D01*
X133178210Y-110410288D01*
X133178213Y-110410292D01*
X133202184Y-110434263D01*
X133235669Y-110495586D01*
X133231035Y-110560378D01*
X133232030Y-110560680D01*
X133230700Y-110565062D01*
X133230685Y-110565278D01*
X133230466Y-110565833D01*
X133230260Y-110566511D01*
X133199500Y-110721153D01*
X133199500Y-110878846D01*
X133230261Y-111033489D01*
X133230264Y-111033501D01*
X133290602Y-111179172D01*
X133290609Y-111179185D01*
X133378210Y-111310288D01*
X133378213Y-111310292D01*
X133489707Y-111421786D01*
X133489711Y-111421789D01*
X133620814Y-111509390D01*
X133620827Y-111509397D01*
X133766498Y-111569735D01*
X133766503Y-111569737D01*
X133921153Y-111600499D01*
X133921156Y-111600500D01*
X133921158Y-111600500D01*
X134078844Y-111600500D01*
X134078845Y-111600499D01*
X134233497Y-111569737D01*
X134379179Y-111509394D01*
X134510289Y-111421789D01*
X134621789Y-111310289D01*
X134709394Y-111179179D01*
X134769737Y-111033497D01*
X134800500Y-110878842D01*
X134800500Y-110721158D01*
X134800500Y-110721155D01*
X134800499Y-110721153D01*
X134769737Y-110566503D01*
X134769735Y-110566498D01*
X134709397Y-110420827D01*
X134709390Y-110420814D01*
X134621790Y-110289712D01*
X134611250Y-110279172D01*
X134597814Y-110265736D01*
X134564330Y-110204416D01*
X134568962Y-110139629D01*
X134567968Y-110139328D01*
X134569297Y-110134946D01*
X134569313Y-110134724D01*
X134569537Y-110134153D01*
X134569735Y-110133501D01*
X134569737Y-110133497D01*
X134600500Y-109978842D01*
X134600500Y-109821158D01*
X134600500Y-109821155D01*
X134600499Y-109821153D01*
X134569738Y-109666510D01*
X134569737Y-109666503D01*
X134569735Y-109666498D01*
X134509397Y-109520827D01*
X134509390Y-109520814D01*
X134421789Y-109389711D01*
X134421786Y-109389707D01*
X134310292Y-109278213D01*
X134310288Y-109278210D01*
X134179185Y-109190609D01*
X134179172Y-109190602D01*
X134033501Y-109130264D01*
X134033489Y-109130261D01*
X133878845Y-109099500D01*
X133878842Y-109099500D01*
X133721158Y-109099500D01*
X133721155Y-109099500D01*
X133566510Y-109130261D01*
X133566498Y-109130264D01*
X133420827Y-109190602D01*
X133420814Y-109190609D01*
X133289711Y-109278210D01*
X133289707Y-109278213D01*
X133178213Y-109389707D01*
X133178210Y-109389711D01*
X133090609Y-109520814D01*
X133090602Y-109520827D01*
X133030264Y-109666498D01*
X133030261Y-109666510D01*
X132999500Y-109821153D01*
X132045529Y-109821153D01*
X132000058Y-108002349D01*
X132000032Y-107997644D01*
X132008614Y-107371153D01*
X132499500Y-107371153D01*
X132499500Y-107528846D01*
X132530261Y-107683489D01*
X132530264Y-107683501D01*
X132590602Y-107829172D01*
X132590609Y-107829185D01*
X132678210Y-107960288D01*
X132678213Y-107960292D01*
X132789707Y-108071786D01*
X132789711Y-108071789D01*
X132920814Y-108159390D01*
X132920827Y-108159397D01*
X133020060Y-108200500D01*
X133066503Y-108219737D01*
X133221153Y-108250499D01*
X133221156Y-108250500D01*
X133221158Y-108250500D01*
X133378844Y-108250500D01*
X133378845Y-108250499D01*
X133533497Y-108219737D01*
X133679179Y-108159394D01*
X133810289Y-108071789D01*
X133921789Y-107960289D01*
X134009394Y-107829179D01*
X134069737Y-107683497D01*
X134100500Y-107528842D01*
X134100500Y-107371158D01*
X134100500Y-107371155D01*
X134094155Y-107339258D01*
X134094155Y-107339257D01*
X134090554Y-107321153D01*
X134799500Y-107321153D01*
X134799500Y-107478846D01*
X134830261Y-107633489D01*
X134830264Y-107633501D01*
X134890602Y-107779172D01*
X134890609Y-107779185D01*
X134978210Y-107910288D01*
X134978213Y-107910292D01*
X135089707Y-108021786D01*
X135089711Y-108021789D01*
X135220814Y-108109390D01*
X135220827Y-108109397D01*
X135366498Y-108169735D01*
X135366503Y-108169737D01*
X135521153Y-108200499D01*
X135521156Y-108200500D01*
X135521158Y-108200500D01*
X135678844Y-108200500D01*
X135678845Y-108200499D01*
X135833497Y-108169737D01*
X135979179Y-108109394D01*
X136110289Y-108021789D01*
X136134434Y-107997644D01*
X136162319Y-107969760D01*
X136223642Y-107936275D01*
X136293334Y-107941259D01*
X136337681Y-107969760D01*
X136389707Y-108021786D01*
X136389711Y-108021789D01*
X136520814Y-108109390D01*
X136520827Y-108109397D01*
X136666498Y-108169735D01*
X136666503Y-108169737D01*
X136821153Y-108200499D01*
X136821156Y-108200500D01*
X136821158Y-108200500D01*
X136978844Y-108200500D01*
X136978845Y-108200499D01*
X137133497Y-108169737D01*
X137279179Y-108109394D01*
X137410289Y-108021789D01*
X137521789Y-107910289D01*
X137591805Y-107805501D01*
X137645415Y-107760699D01*
X137714740Y-107751991D01*
X137763797Y-107771292D01*
X137775601Y-107779179D01*
X137820821Y-107809394D01*
X137820823Y-107809395D01*
X137820827Y-107809397D01*
X137966498Y-107869735D01*
X137966503Y-107869737D01*
X138094931Y-107895283D01*
X138121153Y-107900499D01*
X138121156Y-107900500D01*
X138121158Y-107900500D01*
X138278844Y-107900500D01*
X138278845Y-107900499D01*
X138433497Y-107869737D01*
X138552550Y-107820423D01*
X138622017Y-107812955D01*
X138647450Y-107820422D01*
X138766506Y-107869737D01*
X138894934Y-107895283D01*
X138921156Y-107900499D01*
X138921159Y-107900500D01*
X138921161Y-107900500D01*
X139078847Y-107900500D01*
X139078848Y-107900499D01*
X139233500Y-107869737D01*
X139379182Y-107809394D01*
X139510292Y-107721789D01*
X139621792Y-107610289D01*
X139645923Y-107574173D01*
X139699534Y-107529368D01*
X139768859Y-107520659D01*
X139831887Y-107550813D01*
X139863587Y-107595610D01*
X139887223Y-107652672D01*
X139887228Y-107652682D01*
X139974829Y-107783785D01*
X139974832Y-107783789D01*
X140086326Y-107895283D01*
X140086330Y-107895286D01*
X140217433Y-107982887D01*
X140217446Y-107982894D01*
X140363117Y-108043232D01*
X140363122Y-108043234D01*
X140426681Y-108055876D01*
X140502929Y-108071044D01*
X140564840Y-108103429D01*
X140599414Y-108164145D01*
X140600358Y-108216841D01*
X140599500Y-108221156D01*
X140599500Y-108378846D01*
X140630261Y-108533489D01*
X140630264Y-108533501D01*
X140690602Y-108679172D01*
X140690609Y-108679185D01*
X140778210Y-108810288D01*
X140778213Y-108810292D01*
X140889707Y-108921786D01*
X140889711Y-108921789D01*
X141020814Y-109009390D01*
X141020827Y-109009397D01*
X141166498Y-109069735D01*
X141166503Y-109069737D01*
X141316131Y-109099500D01*
X141321153Y-109100499D01*
X141321156Y-109100500D01*
X141321158Y-109100500D01*
X141478844Y-109100500D01*
X141478845Y-109100499D01*
X141633497Y-109069737D01*
X141779179Y-109009394D01*
X141910289Y-108921789D01*
X142021789Y-108810289D01*
X142109394Y-108679179D01*
X142169737Y-108533497D01*
X142200500Y-108378842D01*
X142200500Y-108221158D01*
X142200500Y-108221156D01*
X142200500Y-108221155D01*
X142200499Y-108221153D01*
X142178269Y-108109397D01*
X142169737Y-108066503D01*
X142141215Y-107997644D01*
X142109397Y-107920827D01*
X142109390Y-107920814D01*
X142021789Y-107789711D01*
X142021786Y-107789707D01*
X141910292Y-107678213D01*
X141910288Y-107678210D01*
X141779185Y-107590609D01*
X141779172Y-107590602D01*
X141633501Y-107530264D01*
X141633491Y-107530261D01*
X141493688Y-107502452D01*
X141431777Y-107470067D01*
X141397203Y-107409351D01*
X141396263Y-107356642D01*
X141397119Y-107352338D01*
X141397119Y-107194652D01*
X141397118Y-107194650D01*
X141392735Y-107172615D01*
X141366356Y-107040000D01*
X141366354Y-107039995D01*
X141306016Y-106894324D01*
X141306009Y-106894311D01*
X141218408Y-106763208D01*
X141218405Y-106763204D01*
X141106911Y-106651710D01*
X141106907Y-106651707D01*
X140975804Y-106564106D01*
X140975791Y-106564099D01*
X140830120Y-106503761D01*
X140830108Y-106503758D01*
X140675464Y-106472997D01*
X140675461Y-106472997D01*
X140517777Y-106472997D01*
X140517774Y-106472997D01*
X140363129Y-106503758D01*
X140363117Y-106503761D01*
X140217446Y-106564099D01*
X140217433Y-106564106D01*
X140086330Y-106651707D01*
X140086326Y-106651710D01*
X139974832Y-106763204D01*
X139974827Y-106763210D01*
X139950696Y-106799325D01*
X139897084Y-106844129D01*
X139827759Y-106852836D01*
X139764731Y-106822681D01*
X139733034Y-106777885D01*
X139709400Y-106720827D01*
X139709393Y-106720814D01*
X139621792Y-106589711D01*
X139621789Y-106589707D01*
X139510295Y-106478213D01*
X139510291Y-106478210D01*
X139379188Y-106390609D01*
X139379175Y-106390602D01*
X139233504Y-106330264D01*
X139233492Y-106330261D01*
X139078848Y-106299500D01*
X139078845Y-106299500D01*
X138921161Y-106299500D01*
X138921158Y-106299500D01*
X138766513Y-106330261D01*
X138766501Y-106330264D01*
X138647453Y-106379575D01*
X138577983Y-106387044D01*
X138552549Y-106379575D01*
X138433501Y-106330264D01*
X138433489Y-106330261D01*
X138278845Y-106299500D01*
X138278842Y-106299500D01*
X138121158Y-106299500D01*
X138121155Y-106299500D01*
X137966510Y-106330261D01*
X137966498Y-106330264D01*
X137820827Y-106390602D01*
X137820814Y-106390609D01*
X137689711Y-106478210D01*
X137689707Y-106478213D01*
X137578213Y-106589707D01*
X137578210Y-106589711D01*
X137508195Y-106694496D01*
X137454583Y-106739301D01*
X137385258Y-106748008D01*
X137336202Y-106728707D01*
X137279185Y-106690609D01*
X137279172Y-106690602D01*
X137133501Y-106630264D01*
X137133491Y-106630261D01*
X136996333Y-106602978D01*
X136934422Y-106570593D01*
X136905964Y-106528813D01*
X136875705Y-106455761D01*
X136875698Y-106455748D01*
X136788097Y-106324645D01*
X136788094Y-106324641D01*
X136676600Y-106213147D01*
X136676596Y-106213144D01*
X136545493Y-106125543D01*
X136545480Y-106125536D01*
X136399809Y-106065198D01*
X136399797Y-106065195D01*
X136245153Y-106034434D01*
X136245150Y-106034434D01*
X136087466Y-106034434D01*
X136087463Y-106034434D01*
X135932818Y-106065195D01*
X135932806Y-106065198D01*
X135787135Y-106125536D01*
X135787122Y-106125543D01*
X135656019Y-106213144D01*
X135656015Y-106213147D01*
X135544521Y-106324641D01*
X135544518Y-106324645D01*
X135456917Y-106455748D01*
X135456912Y-106455758D01*
X135408040Y-106573746D01*
X135364199Y-106628149D01*
X135340932Y-106640854D01*
X135220824Y-106690604D01*
X135220814Y-106690609D01*
X135089711Y-106778210D01*
X135089707Y-106778213D01*
X134978213Y-106889707D01*
X134978210Y-106889711D01*
X134890609Y-107020814D01*
X134890602Y-107020827D01*
X134830264Y-107166498D01*
X134830261Y-107166510D01*
X134799500Y-107321153D01*
X134090554Y-107321153D01*
X134069738Y-107216510D01*
X134069737Y-107216503D01*
X134051558Y-107172615D01*
X134009397Y-107070827D01*
X134009390Y-107070814D01*
X133921789Y-106939711D01*
X133921786Y-106939707D01*
X133810292Y-106828213D01*
X133810288Y-106828210D01*
X133679185Y-106740609D01*
X133679172Y-106740602D01*
X133533501Y-106680264D01*
X133533489Y-106680261D01*
X133378845Y-106649500D01*
X133378842Y-106649500D01*
X133221158Y-106649500D01*
X133221155Y-106649500D01*
X133066510Y-106680261D01*
X133066498Y-106680264D01*
X132920827Y-106740602D01*
X132920814Y-106740609D01*
X132789711Y-106828210D01*
X132789707Y-106828213D01*
X132678213Y-106939707D01*
X132678210Y-106939711D01*
X132590609Y-107070814D01*
X132590602Y-107070827D01*
X132530264Y-107216498D01*
X132530261Y-107216510D01*
X132499500Y-107371153D01*
X132008614Y-107371153D01*
X132055265Y-103965642D01*
X132062039Y-103471153D01*
X132499500Y-103471153D01*
X132499500Y-103628846D01*
X132530261Y-103783489D01*
X132530264Y-103783501D01*
X132590602Y-103929172D01*
X132590609Y-103929185D01*
X132678210Y-104060288D01*
X132678213Y-104060292D01*
X132789707Y-104171786D01*
X132789711Y-104171789D01*
X132920814Y-104259390D01*
X132920827Y-104259397D01*
X133066498Y-104319735D01*
X133066503Y-104319737D01*
X133221153Y-104350499D01*
X133221156Y-104350500D01*
X133221158Y-104350500D01*
X133378844Y-104350500D01*
X133378845Y-104350499D01*
X133533497Y-104319737D01*
X133679179Y-104259394D01*
X133810289Y-104171789D01*
X133921789Y-104060289D01*
X134009394Y-103929179D01*
X134069737Y-103783497D01*
X134095636Y-103653294D01*
X134998855Y-103653294D01*
X134998855Y-103810987D01*
X135029616Y-103965630D01*
X135029619Y-103965642D01*
X135089957Y-104111313D01*
X135089964Y-104111326D01*
X135177565Y-104242429D01*
X135177568Y-104242433D01*
X135289062Y-104353927D01*
X135289066Y-104353930D01*
X135420169Y-104441531D01*
X135420182Y-104441538D01*
X135565853Y-104501876D01*
X135565858Y-104501878D01*
X135720508Y-104532640D01*
X135720511Y-104532641D01*
X135720513Y-104532641D01*
X135878199Y-104532641D01*
X135878200Y-104532640D01*
X136032852Y-104501878D01*
X136178534Y-104441535D01*
X136309644Y-104353930D01*
X136421144Y-104242430D01*
X136508749Y-104111320D01*
X136509177Y-104110288D01*
X136529887Y-104060288D01*
X136569092Y-103965638D01*
X136591832Y-103851319D01*
X136624217Y-103789408D01*
X136684932Y-103754834D01*
X136754702Y-103758573D01*
X136811374Y-103799440D01*
X136828010Y-103828058D01*
X136890602Y-103979172D01*
X136890609Y-103979185D01*
X136978210Y-104110288D01*
X136978213Y-104110292D01*
X137089707Y-104221786D01*
X137089711Y-104221789D01*
X137220814Y-104309390D01*
X137220827Y-104309397D01*
X137320060Y-104350500D01*
X137366503Y-104369737D01*
X137521153Y-104400499D01*
X137521156Y-104400500D01*
X137521158Y-104400500D01*
X137678844Y-104400500D01*
X137678845Y-104400499D01*
X137833497Y-104369737D01*
X137979179Y-104309394D01*
X138110289Y-104221789D01*
X138221789Y-104110289D01*
X138309394Y-103979179D01*
X138369737Y-103833497D01*
X138400500Y-103678842D01*
X138400500Y-103521158D01*
X138400500Y-103521155D01*
X138400499Y-103521153D01*
X139399500Y-103521153D01*
X139399500Y-103678846D01*
X139430261Y-103833489D01*
X139430264Y-103833501D01*
X139490602Y-103979172D01*
X139490609Y-103979185D01*
X139578210Y-104110288D01*
X139578213Y-104110292D01*
X139689707Y-104221786D01*
X139689711Y-104221789D01*
X139820814Y-104309390D01*
X139820827Y-104309397D01*
X139920060Y-104350500D01*
X139966503Y-104369737D01*
X140121153Y-104400499D01*
X140121156Y-104400500D01*
X140121158Y-104400500D01*
X140278844Y-104400500D01*
X140278845Y-104400499D01*
X140433497Y-104369737D01*
X140452547Y-104361845D01*
X140522016Y-104354377D01*
X140547452Y-104361845D01*
X140566503Y-104369737D01*
X140721153Y-104400499D01*
X140721156Y-104400500D01*
X140721158Y-104400500D01*
X140878844Y-104400500D01*
X140878845Y-104400499D01*
X141033497Y-104369737D01*
X141179179Y-104309394D01*
X141310289Y-104221789D01*
X141421789Y-104110289D01*
X141509394Y-103979179D01*
X141569737Y-103833497D01*
X141600500Y-103678842D01*
X141600500Y-103521158D01*
X141600500Y-103521155D01*
X141600499Y-103521153D01*
X141590553Y-103471153D01*
X141569737Y-103366503D01*
X141564125Y-103352955D01*
X141509397Y-103220827D01*
X141509390Y-103220814D01*
X141421789Y-103089711D01*
X141421786Y-103089707D01*
X141310292Y-102978213D01*
X141310288Y-102978210D01*
X141179185Y-102890609D01*
X141179172Y-102890602D01*
X141033501Y-102830264D01*
X141033489Y-102830261D01*
X140878845Y-102799500D01*
X140878842Y-102799500D01*
X140721158Y-102799500D01*
X140721155Y-102799500D01*
X140566511Y-102830260D01*
X140566506Y-102830262D01*
X140566504Y-102830262D01*
X140566503Y-102830263D01*
X140547449Y-102838155D01*
X140477982Y-102845623D01*
X140452553Y-102838156D01*
X140433497Y-102830263D01*
X140433493Y-102830262D01*
X140433488Y-102830260D01*
X140278845Y-102799500D01*
X140278842Y-102799500D01*
X140121158Y-102799500D01*
X140121155Y-102799500D01*
X139966510Y-102830261D01*
X139966498Y-102830264D01*
X139820827Y-102890602D01*
X139820814Y-102890609D01*
X139689711Y-102978210D01*
X139689707Y-102978213D01*
X139578213Y-103089707D01*
X139578210Y-103089711D01*
X139490609Y-103220814D01*
X139490602Y-103220827D01*
X139430264Y-103366498D01*
X139430261Y-103366510D01*
X139399500Y-103521153D01*
X138400499Y-103521153D01*
X138390553Y-103471153D01*
X138369737Y-103366503D01*
X138364125Y-103352955D01*
X138309397Y-103220827D01*
X138309390Y-103220814D01*
X138221789Y-103089711D01*
X138221786Y-103089707D01*
X138110292Y-102978213D01*
X138110288Y-102978210D01*
X137979185Y-102890609D01*
X137979172Y-102890602D01*
X137833501Y-102830264D01*
X137833489Y-102830261D01*
X137678845Y-102799500D01*
X137678842Y-102799500D01*
X137521158Y-102799500D01*
X137521155Y-102799500D01*
X137366510Y-102830261D01*
X137366498Y-102830264D01*
X137220827Y-102890602D01*
X137220814Y-102890609D01*
X137089711Y-102978210D01*
X137089707Y-102978213D01*
X136978213Y-103089707D01*
X136978210Y-103089711D01*
X136890609Y-103220814D01*
X136890602Y-103220827D01*
X136830264Y-103366498D01*
X136830261Y-103366508D01*
X136807522Y-103480822D01*
X136775136Y-103542733D01*
X136714420Y-103577307D01*
X136644651Y-103573566D01*
X136587979Y-103532699D01*
X136571344Y-103504082D01*
X136508752Y-103352967D01*
X136508745Y-103352955D01*
X136421144Y-103221852D01*
X136421141Y-103221848D01*
X136309647Y-103110354D01*
X136309643Y-103110351D01*
X136178540Y-103022750D01*
X136178527Y-103022743D01*
X136032856Y-102962405D01*
X136032844Y-102962402D01*
X135878200Y-102931641D01*
X135878197Y-102931641D01*
X135720513Y-102931641D01*
X135720510Y-102931641D01*
X135565865Y-102962402D01*
X135565853Y-102962405D01*
X135420182Y-103022743D01*
X135420169Y-103022750D01*
X135289066Y-103110351D01*
X135289062Y-103110354D01*
X135177568Y-103221848D01*
X135177565Y-103221852D01*
X135089964Y-103352955D01*
X135089957Y-103352968D01*
X135029619Y-103498639D01*
X135029616Y-103498651D01*
X134998855Y-103653294D01*
X134095636Y-103653294D01*
X134100500Y-103628842D01*
X134100500Y-103471158D01*
X134100500Y-103471155D01*
X134100499Y-103471153D01*
X134079684Y-103366510D01*
X134069737Y-103316503D01*
X134030102Y-103220814D01*
X134009397Y-103170827D01*
X134009390Y-103170814D01*
X133921789Y-103039711D01*
X133921786Y-103039707D01*
X133810292Y-102928213D01*
X133810288Y-102928210D01*
X133679185Y-102840609D01*
X133679172Y-102840602D01*
X133533501Y-102780264D01*
X133533489Y-102780261D01*
X133378845Y-102749500D01*
X133378842Y-102749500D01*
X133221158Y-102749500D01*
X133221155Y-102749500D01*
X133066510Y-102780261D01*
X133066498Y-102780264D01*
X132920827Y-102840602D01*
X132920814Y-102840609D01*
X132789711Y-102928210D01*
X132789707Y-102928213D01*
X132678213Y-103039707D01*
X132678210Y-103039711D01*
X132590609Y-103170814D01*
X132590602Y-103170827D01*
X132530264Y-103316498D01*
X132530261Y-103316510D01*
X132499500Y-103471153D01*
X132062039Y-103471153D01*
X132062146Y-103463367D01*
X132062146Y-103463366D01*
X132100000Y-100700013D01*
X132100000Y-100700010D01*
X132099552Y-100689711D01*
X132086248Y-100383711D01*
X132083528Y-100321153D01*
X134149500Y-100321153D01*
X134149500Y-100478846D01*
X134180261Y-100633489D01*
X134180264Y-100633501D01*
X134240602Y-100779172D01*
X134240609Y-100779185D01*
X134328210Y-100910288D01*
X134328213Y-100910292D01*
X134439707Y-101021786D01*
X134439711Y-101021789D01*
X134570814Y-101109390D01*
X134570827Y-101109397D01*
X134716498Y-101169735D01*
X134716503Y-101169737D01*
X134871153Y-101200499D01*
X134871156Y-101200500D01*
X134871158Y-101200500D01*
X135028844Y-101200500D01*
X135028845Y-101200499D01*
X135183497Y-101169737D01*
X135300790Y-101121153D01*
X137299500Y-101121153D01*
X137299500Y-101278846D01*
X137330261Y-101433489D01*
X137330264Y-101433501D01*
X137390602Y-101579172D01*
X137390609Y-101579185D01*
X137478210Y-101710288D01*
X137478213Y-101710292D01*
X137589707Y-101821786D01*
X137589711Y-101821789D01*
X137720814Y-101909390D01*
X137720827Y-101909397D01*
X137866498Y-101969735D01*
X137866503Y-101969737D01*
X138021153Y-102000499D01*
X138021156Y-102000500D01*
X138021158Y-102000500D01*
X138178844Y-102000500D01*
X138178845Y-102000499D01*
X138333497Y-101969737D01*
X138452548Y-101920425D01*
X138522017Y-101912956D01*
X138547453Y-101920425D01*
X138666503Y-101969737D01*
X138821153Y-102000499D01*
X138821156Y-102000500D01*
X138821158Y-102000500D01*
X138978844Y-102000500D01*
X138978845Y-102000499D01*
X139133497Y-101969737D01*
X139252548Y-101920425D01*
X139322017Y-101912956D01*
X139347453Y-101920425D01*
X139466503Y-101969737D01*
X139621153Y-102000499D01*
X139621156Y-102000500D01*
X139621158Y-102000500D01*
X139778844Y-102000500D01*
X139778845Y-102000499D01*
X139933497Y-101969737D01*
X140079179Y-101909394D01*
X140210289Y-101821789D01*
X140321789Y-101710289D01*
X140409394Y-101579179D01*
X140469737Y-101433497D01*
X140500500Y-101278842D01*
X140500500Y-101121158D01*
X140500500Y-101121155D01*
X140500499Y-101121153D01*
X140494746Y-101092233D01*
X140469737Y-100966503D01*
X140446452Y-100910288D01*
X140409397Y-100820827D01*
X140409390Y-100820814D01*
X140321789Y-100689711D01*
X140321786Y-100689707D01*
X140210292Y-100578213D01*
X140210288Y-100578210D01*
X140079185Y-100490609D01*
X140079172Y-100490602D01*
X139933501Y-100430264D01*
X139933489Y-100430261D01*
X139778845Y-100399500D01*
X139778842Y-100399500D01*
X139621158Y-100399500D01*
X139621155Y-100399500D01*
X139466510Y-100430261D01*
X139466498Y-100430264D01*
X139347452Y-100479574D01*
X139277982Y-100487043D01*
X139252548Y-100479574D01*
X139133501Y-100430264D01*
X139133489Y-100430261D01*
X138978845Y-100399500D01*
X138978842Y-100399500D01*
X138821158Y-100399500D01*
X138821155Y-100399500D01*
X138666510Y-100430261D01*
X138666498Y-100430264D01*
X138547452Y-100479574D01*
X138477982Y-100487043D01*
X138452548Y-100479574D01*
X138333501Y-100430264D01*
X138333489Y-100430261D01*
X138178845Y-100399500D01*
X138178842Y-100399500D01*
X138021158Y-100399500D01*
X138021155Y-100399500D01*
X137866510Y-100430261D01*
X137866498Y-100430264D01*
X137720827Y-100490602D01*
X137720814Y-100490609D01*
X137589711Y-100578210D01*
X137589707Y-100578213D01*
X137478213Y-100689707D01*
X137478210Y-100689711D01*
X137390609Y-100820814D01*
X137390602Y-100820827D01*
X137330264Y-100966498D01*
X137330261Y-100966510D01*
X137299500Y-101121153D01*
X135300790Y-101121153D01*
X135329179Y-101109394D01*
X135460289Y-101021789D01*
X135571789Y-100910289D01*
X135659394Y-100779179D01*
X135719737Y-100633497D01*
X135750500Y-100478842D01*
X135750500Y-100321158D01*
X135750500Y-100321155D01*
X135750499Y-100321153D01*
X135719738Y-100166510D01*
X135719737Y-100166503D01*
X135719735Y-100166498D01*
X135659397Y-100020827D01*
X135659390Y-100020814D01*
X135571789Y-99889711D01*
X135571786Y-99889707D01*
X135460292Y-99778213D01*
X135460288Y-99778210D01*
X135329185Y-99690609D01*
X135329172Y-99690602D01*
X135183501Y-99630264D01*
X135183489Y-99630261D01*
X135028845Y-99599500D01*
X135028842Y-99599500D01*
X134871158Y-99599500D01*
X134871155Y-99599500D01*
X134716510Y-99630261D01*
X134716498Y-99630264D01*
X134570827Y-99690602D01*
X134570814Y-99690609D01*
X134439711Y-99778210D01*
X134439707Y-99778213D01*
X134328213Y-99889707D01*
X134328210Y-99889711D01*
X134240609Y-100020814D01*
X134240602Y-100020827D01*
X134180264Y-100166498D01*
X134180261Y-100166510D01*
X134149500Y-100321153D01*
X132083528Y-100321153D01*
X132083498Y-100320452D01*
X132056113Y-99690602D01*
X132000112Y-98402576D01*
X131999996Y-98397423D01*
X131997574Y-96321153D01*
X133699500Y-96321153D01*
X133699500Y-96478846D01*
X133730261Y-96633489D01*
X133730264Y-96633501D01*
X133790602Y-96779172D01*
X133790609Y-96779185D01*
X133878210Y-96910288D01*
X133878213Y-96910292D01*
X133989707Y-97021786D01*
X133989711Y-97021789D01*
X134120814Y-97109390D01*
X134120827Y-97109397D01*
X134266498Y-97169735D01*
X134266503Y-97169737D01*
X134421153Y-97200499D01*
X134421156Y-97200500D01*
X134421158Y-97200500D01*
X134578844Y-97200500D01*
X134578845Y-97200499D01*
X134733497Y-97169737D01*
X134879179Y-97109394D01*
X135010289Y-97021789D01*
X135121789Y-96910289D01*
X135209394Y-96779179D01*
X135269737Y-96633497D01*
X135300500Y-96478842D01*
X135300500Y-96321158D01*
X135300500Y-96321155D01*
X135300499Y-96321153D01*
X135276807Y-96202046D01*
X135269737Y-96166503D01*
X135241343Y-96097953D01*
X135209397Y-96020827D01*
X135209390Y-96020814D01*
X135121789Y-95889711D01*
X135121786Y-95889707D01*
X135010292Y-95778213D01*
X135010288Y-95778210D01*
X134879185Y-95690609D01*
X134879172Y-95690602D01*
X134733501Y-95630264D01*
X134733489Y-95630261D01*
X134578845Y-95599500D01*
X134578842Y-95599500D01*
X134421158Y-95599500D01*
X134421155Y-95599500D01*
X134266510Y-95630261D01*
X134266498Y-95630264D01*
X134120827Y-95690602D01*
X134120814Y-95690609D01*
X133989711Y-95778210D01*
X133989707Y-95778213D01*
X133878213Y-95889707D01*
X133878210Y-95889711D01*
X133790609Y-96020814D01*
X133790602Y-96020827D01*
X133730264Y-96166498D01*
X133730261Y-96166510D01*
X133699500Y-96321153D01*
X131997574Y-96321153D01*
X131996641Y-95521153D01*
X139899500Y-95521153D01*
X139899500Y-95678846D01*
X139930261Y-95833489D01*
X139930264Y-95833501D01*
X139990602Y-95979172D01*
X139990609Y-95979185D01*
X140078210Y-96110288D01*
X140078213Y-96110292D01*
X140098009Y-96130088D01*
X140131494Y-96191411D01*
X140126510Y-96261103D01*
X140113432Y-96286657D01*
X140090610Y-96320814D01*
X140090602Y-96320828D01*
X140030264Y-96466498D01*
X140030261Y-96466510D01*
X139999500Y-96621153D01*
X139999500Y-96778846D01*
X140030261Y-96933489D01*
X140030264Y-96933501D01*
X140090602Y-97079172D01*
X140090612Y-97079190D01*
X140151732Y-97170663D01*
X140172610Y-97237340D01*
X140163191Y-97287004D01*
X140145274Y-97330264D01*
X140130262Y-97366506D01*
X140130260Y-97366511D01*
X140099500Y-97521153D01*
X140099500Y-97678846D01*
X140130261Y-97833489D01*
X140130264Y-97833501D01*
X140190602Y-97979172D01*
X140190609Y-97979185D01*
X140278210Y-98110288D01*
X140278213Y-98110292D01*
X140389707Y-98221786D01*
X140389711Y-98221789D01*
X140520814Y-98309390D01*
X140520818Y-98309392D01*
X140520821Y-98309394D01*
X140664138Y-98368757D01*
X140718537Y-98412595D01*
X140731243Y-98435864D01*
X140790602Y-98579172D01*
X140790609Y-98579185D01*
X140878210Y-98710288D01*
X140878213Y-98710292D01*
X140989707Y-98821786D01*
X140989711Y-98821789D01*
X141120814Y-98909390D01*
X141120827Y-98909397D01*
X141266498Y-98969735D01*
X141266503Y-98969737D01*
X141421153Y-99000499D01*
X141421156Y-99000500D01*
X141421158Y-99000500D01*
X141578844Y-99000500D01*
X141578845Y-99000499D01*
X141733497Y-98969737D01*
X141879179Y-98909394D01*
X142010289Y-98821789D01*
X142121789Y-98710289D01*
X142209394Y-98579179D01*
X142269737Y-98433497D01*
X142300500Y-98278842D01*
X142300500Y-98121158D01*
X142300500Y-98121155D01*
X142284209Y-98039258D01*
X142284209Y-98039257D01*
X142280608Y-98021153D01*
X143599500Y-98021153D01*
X143599500Y-98178846D01*
X143630261Y-98333489D01*
X143630264Y-98333501D01*
X143690602Y-98479172D01*
X143690609Y-98479185D01*
X143778210Y-98610288D01*
X143778213Y-98610292D01*
X143889707Y-98721786D01*
X143889711Y-98721789D01*
X144020814Y-98809390D01*
X144020827Y-98809397D01*
X144166498Y-98869735D01*
X144166503Y-98869737D01*
X144321153Y-98900499D01*
X144321156Y-98900500D01*
X144321158Y-98900500D01*
X144478844Y-98900500D01*
X144478845Y-98900499D01*
X144633497Y-98869737D01*
X144779179Y-98809394D01*
X144910289Y-98721789D01*
X145021789Y-98610289D01*
X145109394Y-98479179D01*
X145169737Y-98333497D01*
X145200500Y-98178842D01*
X145200500Y-98021158D01*
X145200500Y-98021155D01*
X145200499Y-98021153D01*
X145169738Y-97866510D01*
X145169737Y-97866503D01*
X145145557Y-97808126D01*
X145109397Y-97720827D01*
X145109390Y-97720814D01*
X145021789Y-97589711D01*
X145021786Y-97589707D01*
X144910292Y-97478213D01*
X144910288Y-97478210D01*
X144779185Y-97390609D01*
X144779172Y-97390602D01*
X144633501Y-97330264D01*
X144633489Y-97330261D01*
X144478845Y-97299500D01*
X144478842Y-97299500D01*
X144321158Y-97299500D01*
X144321155Y-97299500D01*
X144166510Y-97330261D01*
X144166498Y-97330264D01*
X144020827Y-97390602D01*
X144020814Y-97390609D01*
X143889711Y-97478210D01*
X143889707Y-97478213D01*
X143778213Y-97589707D01*
X143778210Y-97589711D01*
X143690609Y-97720814D01*
X143690602Y-97720827D01*
X143630264Y-97866498D01*
X143630261Y-97866510D01*
X143599500Y-98021153D01*
X142280608Y-98021153D01*
X142278834Y-98012237D01*
X142269737Y-97966503D01*
X142228314Y-97866498D01*
X142209397Y-97820827D01*
X142209390Y-97820814D01*
X142121789Y-97689711D01*
X142121786Y-97689707D01*
X142010292Y-97578213D01*
X142010288Y-97578210D01*
X141879185Y-97490609D01*
X141879172Y-97490602D01*
X141735864Y-97431243D01*
X141681460Y-97387402D01*
X141668761Y-97364147D01*
X141609394Y-97220821D01*
X141609392Y-97220818D01*
X141609390Y-97220814D01*
X141548267Y-97129337D01*
X141527389Y-97062659D01*
X141536808Y-97012993D01*
X141569737Y-96933497D01*
X141600500Y-96778842D01*
X141600500Y-96621158D01*
X141600500Y-96621155D01*
X141600499Y-96621153D01*
X141572192Y-96478846D01*
X141569737Y-96466503D01*
X141509534Y-96321158D01*
X141509397Y-96320827D01*
X141509390Y-96320814D01*
X141421789Y-96189711D01*
X141421786Y-96189707D01*
X141401989Y-96169910D01*
X141368504Y-96108587D01*
X141373488Y-96038895D01*
X141386563Y-96013347D01*
X141409394Y-95979179D01*
X141469737Y-95833497D01*
X141500500Y-95678842D01*
X141500500Y-95521158D01*
X141500500Y-95521155D01*
X141500499Y-95521153D01*
X141469738Y-95366510D01*
X141469737Y-95366503D01*
X141469735Y-95366498D01*
X141409397Y-95220827D01*
X141409390Y-95220814D01*
X141321789Y-95089711D01*
X141321786Y-95089707D01*
X141210292Y-94978213D01*
X141210288Y-94978210D01*
X141079185Y-94890609D01*
X141079172Y-94890602D01*
X140933501Y-94830264D01*
X140933489Y-94830261D01*
X140778845Y-94799500D01*
X140778842Y-94799500D01*
X140621158Y-94799500D01*
X140621155Y-94799500D01*
X140466510Y-94830261D01*
X140466498Y-94830264D01*
X140320827Y-94890602D01*
X140320814Y-94890609D01*
X140189711Y-94978210D01*
X140189707Y-94978213D01*
X140078213Y-95089707D01*
X140078210Y-95089711D01*
X139990609Y-95220814D01*
X139990602Y-95220827D01*
X139930264Y-95366498D01*
X139930261Y-95366510D01*
X139899500Y-95521153D01*
X131996641Y-95521153D01*
X131994815Y-93955466D01*
X133565187Y-93955466D01*
X133565187Y-94113159D01*
X133595948Y-94267802D01*
X133595951Y-94267814D01*
X133656289Y-94413485D01*
X133656296Y-94413498D01*
X133743897Y-94544601D01*
X133743900Y-94544605D01*
X133855394Y-94656099D01*
X133855398Y-94656102D01*
X133986501Y-94743703D01*
X133986514Y-94743710D01*
X134121205Y-94799500D01*
X134132190Y-94804050D01*
X134263961Y-94830261D01*
X134286840Y-94834812D01*
X134286843Y-94834813D01*
X134286845Y-94834813D01*
X134444531Y-94834813D01*
X134444532Y-94834812D01*
X134599184Y-94804050D01*
X134744866Y-94743707D01*
X134875976Y-94656102D01*
X134987476Y-94544602D01*
X135075081Y-94413492D01*
X135135424Y-94267810D01*
X135166187Y-94113155D01*
X135166187Y-93955471D01*
X135166187Y-93955468D01*
X135166186Y-93955466D01*
X135135425Y-93800823D01*
X135135424Y-93800816D01*
X135106441Y-93730844D01*
X135075084Y-93655140D01*
X135075077Y-93655127D01*
X134987476Y-93524024D01*
X134987473Y-93524020D01*
X134875979Y-93412526D01*
X134875975Y-93412523D01*
X134744872Y-93324922D01*
X134744859Y-93324915D01*
X134599188Y-93264577D01*
X134599176Y-93264574D01*
X134444532Y-93233813D01*
X134444529Y-93233813D01*
X134286845Y-93233813D01*
X134286842Y-93233813D01*
X134132197Y-93264574D01*
X134132185Y-93264577D01*
X133986514Y-93324915D01*
X133986501Y-93324922D01*
X133855398Y-93412523D01*
X133855394Y-93412526D01*
X133743900Y-93524020D01*
X133743897Y-93524024D01*
X133656296Y-93655127D01*
X133656289Y-93655140D01*
X133595951Y-93800811D01*
X133595948Y-93800823D01*
X133565187Y-93955466D01*
X131994815Y-93955466D01*
X131992675Y-92121153D01*
X132899500Y-92121153D01*
X132899500Y-92278846D01*
X132930261Y-92433489D01*
X132930264Y-92433501D01*
X132990602Y-92579172D01*
X132990609Y-92579185D01*
X133078210Y-92710288D01*
X133078213Y-92710292D01*
X133189707Y-92821786D01*
X133189711Y-92821789D01*
X133320814Y-92909390D01*
X133320827Y-92909397D01*
X133466498Y-92969735D01*
X133466503Y-92969737D01*
X133611817Y-92998642D01*
X133621153Y-93000499D01*
X133621156Y-93000500D01*
X133621158Y-93000500D01*
X133778844Y-93000500D01*
X133778845Y-93000499D01*
X133933497Y-92969737D01*
X134079179Y-92909394D01*
X134210289Y-92821789D01*
X134321789Y-92710289D01*
X134392772Y-92604056D01*
X134446384Y-92559250D01*
X134471683Y-92551329D01*
X134509981Y-92543710D01*
X134599139Y-92525976D01*
X134744821Y-92465633D01*
X134875931Y-92378028D01*
X134987431Y-92266528D01*
X135075036Y-92135418D01*
X135135379Y-91989736D01*
X135166142Y-91835081D01*
X135166142Y-91677397D01*
X135166142Y-91677394D01*
X135166141Y-91677392D01*
X135135379Y-91522742D01*
X135097074Y-91430264D01*
X135075039Y-91377066D01*
X135075032Y-91377053D01*
X134987431Y-91245950D01*
X134987428Y-91245946D01*
X134875934Y-91134452D01*
X134875930Y-91134449D01*
X134744827Y-91046848D01*
X134744814Y-91046841D01*
X134599143Y-90986503D01*
X134599131Y-90986500D01*
X134444487Y-90955739D01*
X134444484Y-90955739D01*
X134286800Y-90955739D01*
X134286797Y-90955739D01*
X134132152Y-90986500D01*
X134132140Y-90986503D01*
X133986469Y-91046841D01*
X133986456Y-91046848D01*
X133855353Y-91134449D01*
X133855349Y-91134452D01*
X133743855Y-91245946D01*
X133743852Y-91245950D01*
X133672869Y-91352183D01*
X133619256Y-91396988D01*
X133593959Y-91404909D01*
X133466508Y-91430261D01*
X133466498Y-91430264D01*
X133320827Y-91490602D01*
X133320814Y-91490609D01*
X133189711Y-91578210D01*
X133189707Y-91578213D01*
X133078213Y-91689707D01*
X133078210Y-91689711D01*
X132990609Y-91820814D01*
X132990602Y-91820827D01*
X132930264Y-91966498D01*
X132930261Y-91966510D01*
X132899500Y-92121153D01*
X131992675Y-92121153D01*
X131989532Y-89426459D01*
X132009138Y-89359399D01*
X132061889Y-89313583D01*
X132113385Y-89302317D01*
X133575358Y-89300612D01*
X133642418Y-89320217D01*
X133688234Y-89372968D01*
X133699500Y-89424611D01*
X133699500Y-89478846D01*
X133730261Y-89633489D01*
X133730264Y-89633501D01*
X133790602Y-89779172D01*
X133790609Y-89779185D01*
X133878210Y-89910288D01*
X133878213Y-89910292D01*
X133989707Y-90021786D01*
X133989711Y-90021789D01*
X134120814Y-90109390D01*
X134120827Y-90109397D01*
X134205553Y-90144491D01*
X134266503Y-90169737D01*
X134421153Y-90200499D01*
X134421156Y-90200500D01*
X134421158Y-90200500D01*
X134578844Y-90200500D01*
X134578845Y-90200499D01*
X134733497Y-90169737D01*
X134879179Y-90109394D01*
X135010289Y-90021789D01*
X135121789Y-89910289D01*
X135209394Y-89779179D01*
X135269737Y-89633497D01*
X135300500Y-89478842D01*
X135300500Y-89422454D01*
X135320185Y-89355415D01*
X135372989Y-89309660D01*
X135424350Y-89298455D01*
X136100771Y-89297666D01*
X136167833Y-89317273D01*
G37*
%TD.AperFunction*%
%TD*%
M02*
