%TF.GenerationSoftware,KiCad,Pcbnew,10.0.2*%
%TF.CreationDate,2026-05-19T17:18:53+02:00*%
%TF.ProjectId,btaudio,62746175-6469-46f2-9e6b-696361645f70,rev?*%
%TF.SameCoordinates,Original*%
%TF.FileFunction,Copper,L2,Inr*%
%TF.FilePolarity,Positive*%
%FSLAX46Y46*%
G04 Gerber Fmt 4.6, Leading zero omitted, Abs format (unit mm)*
G04 Created by KiCad (PCBNEW 10.0.2) date 2026-05-19 17:18:53*
%MOMM*%
%LPD*%
G01*
G04 APERTURE LIST*
%TA.AperFunction,ComponentPad*%
%ADD10O,1.000000X2.100000*%
%TD*%
%TA.AperFunction,ComponentPad*%
%ADD11O,1.000000X1.600000*%
%TD*%
%TA.AperFunction,ComponentPad*%
%ADD12R,1.700000X1.700000*%
%TD*%
%TA.AperFunction,ComponentPad*%
%ADD13C,1.700000*%
%TD*%
%TA.AperFunction,ViaPad*%
%ADD14C,0.600000*%
%TD*%
G04 APERTURE END LIST*
D10*
%TO.N,GND*%
%TO.C,J2*%
X143430000Y-122915000D03*
D11*
X143430000Y-127095000D03*
D10*
X152070000Y-122915000D03*
D11*
X152070000Y-127095000D03*
%TD*%
D12*
%TO.N,GND*%
%TO.C,J1*%
X151500000Y-107790000D03*
D13*
%TO.N,Net-(J1-Pin_2)*%
X151500000Y-110330000D03*
%TO.N,Net-(J1-Pin_3)*%
X151500000Y-112870000D03*
%TO.N,Net-(J1-Pin_4)*%
X151500000Y-115410000D03*
%TD*%
D12*
%TO.N,/VBAT*%
%TO.C,J6*%
X146675000Y-107200000D03*
D13*
%TO.N,GND*%
X144135000Y-107200000D03*
%TD*%
D14*
%TO.N,GND*%
X151000000Y-100200000D03*
X151600000Y-104100000D03*
X144400000Y-98100000D03*
X140200000Y-103600000D03*
X147740000Y-80670000D03*
X134683197Y-78698113D03*
X134500000Y-89400000D03*
X143341437Y-79520000D03*
X137100000Y-120900000D03*
X136300000Y-82200000D03*
X134683195Y-83700162D03*
X138800000Y-79500000D03*
X137600000Y-103600000D03*
X146640000Y-80670000D03*
X141977567Y-80839182D03*
X137130141Y-79776859D03*
X138350000Y-116100000D03*
X133300000Y-107450000D03*
X133792723Y-83702233D03*
X140551742Y-79273363D03*
X132132976Y-81654238D03*
X133537135Y-121228167D03*
X135725990Y-78698113D03*
X134500000Y-96400000D03*
X137832820Y-80680870D03*
X137000000Y-126000000D03*
X134900000Y-116100000D03*
X140800000Y-96700000D03*
X139949192Y-80870308D03*
X132141313Y-80732976D03*
X137845462Y-79500000D03*
X146641437Y-79520000D03*
X136323291Y-79207788D03*
X136200000Y-120900000D03*
X133099998Y-83100000D03*
X140981536Y-80859933D03*
X134365687Y-94034313D03*
X133099998Y-82200002D03*
X136323289Y-83190487D03*
X136200000Y-121700000D03*
X150400000Y-80900000D03*
X144441437Y-79520000D03*
X148400000Y-82800000D03*
X138800000Y-80660000D03*
X143340000Y-80670000D03*
X133099998Y-79266022D03*
X147741437Y-79520000D03*
X135725988Y-83700162D03*
X148700000Y-79900000D03*
X136300002Y-80198275D03*
X145541437Y-79520000D03*
X133792725Y-78696042D03*
X133100000Y-80200000D03*
X141484018Y-79273363D03*
X140596619Y-107273497D03*
X140800000Y-103600000D03*
X135799355Y-103732141D03*
X149400000Y-80600000D03*
X134365642Y-91756239D03*
X145540000Y-80670000D03*
X150400000Y-82800000D03*
X151000000Y-88500000D03*
X137100000Y-121600000D03*
X136166308Y-106834934D03*
X147900000Y-104000000D03*
X136900000Y-86000000D03*
X141400000Y-108300000D03*
X133300000Y-103550000D03*
X133326965Y-126492614D03*
X134400000Y-87500000D03*
X151000000Y-83200000D03*
X144440000Y-80670000D03*
X137300000Y-81600000D03*
%TO.N,/VIN*%
X139500000Y-91350002D03*
X149400000Y-123425000D03*
X146000000Y-123424999D03*
%TO.N,/D+*%
X142060626Y-90065649D03*
X148200000Y-120500000D03*
%TO.N,/D-*%
X147400000Y-120500000D03*
X141300000Y-89600000D03*
%TO.N,/VBAT*%
X140700000Y-95600000D03*
X140500000Y-88500000D03*
X146525735Y-101325735D03*
%TO.N,/PCM_OUTR*%
X138300000Y-114100000D03*
X139000003Y-107100000D03*
%TO.N,/+3V3*%
X132100000Y-126200000D03*
X144200000Y-113100000D03*
X136723384Y-103746827D03*
X135000000Y-103700000D03*
X132600000Y-115900000D03*
X133400000Y-90100000D03*
X133600000Y-94800000D03*
X145200000Y-98100000D03*
X133600000Y-97100000D03*
X140596874Y-121350000D03*
X134808038Y-107286863D03*
X139650000Y-110600000D03*
%TO.N,Net-(U3-INL-)*%
X137884864Y-119364682D03*
X134900000Y-118100000D03*
%TO.N,Net-(J1-Pin_2)*%
X151100000Y-95500000D03*
%TO.N,Net-(U1-~{RST}{slash}PIO[1])*%
X146602118Y-102122083D03*
X149900000Y-93900000D03*
%TO.N,Net-(U3-INR-)*%
X135543761Y-119334358D03*
X138300000Y-118100000D03*
%TO.N,Net-(U1-SYS_CTRL)*%
X152000000Y-100600000D03*
X150385421Y-95012149D03*
%TO.N,/CAPP*%
X135600000Y-107400000D03*
X133800000Y-109900000D03*
%TO.N,/CAPM*%
X136900000Y-107400000D03*
X134000000Y-110800000D03*
%TO.N,/PCM_OUTL*%
X134950000Y-114100000D03*
X138200000Y-107100000D03*
%TO.N,/I2S_SCK*%
X139700000Y-101200000D03*
X140700000Y-86500000D03*
%TO.N,/I2S_SDATA*%
X138900000Y-101200000D03*
X140700000Y-85700000D03*
%TO.N,/I2S_LRCK*%
X138100000Y-101200000D03*
X138800000Y-85500000D03*
%TO.N,Net-(U2-LDOO)*%
X134950000Y-100400000D03*
X133700000Y-92200000D03*
%TO.N,Net-(U1-AIO[0]{slash}LED[0])*%
X140900000Y-97600000D03*
X146519955Y-115387500D03*
%TO.N,Net-(U1-AIO[1]{slash}LED[1])*%
X148370000Y-115387500D03*
X141500000Y-98200000D03*
%TO.N,/AMP_EN*%
X139000000Y-122100000D03*
X137800000Y-85800000D03*
X141400000Y-82800000D03*
%TO.N,/HP_OUTR*%
X134500000Y-126100000D03*
X135100000Y-120000000D03*
%TO.N,/GAIN0*%
X134267205Y-120901057D03*
%TO.N,/GAIN1*%
X134266282Y-121701056D03*
%TO.N,/SGND_TRACE*%
X136000000Y-126000000D03*
X139100000Y-120900000D03*
%TO.N,/HP_OUTL*%
X138200000Y-120100000D03*
X138500000Y-126100000D03*
%TD*%
%TA.AperFunction,Conductor*%
%TO.N,GND*%
G36*
X153141495Y-78320185D02*
G01*
X153187250Y-78372989D01*
X153198455Y-78424741D01*
X153136589Y-109890602D01*
X153100243Y-128376247D01*
X153080426Y-128443247D01*
X153027533Y-128488898D01*
X152976246Y-128500003D01*
X131933289Y-128500528D01*
X131866249Y-128480845D01*
X131820493Y-128428042D01*
X131809286Y-128376875D01*
X131805743Y-127109088D01*
X131825240Y-127041997D01*
X131877915Y-126996095D01*
X131947046Y-126985958D01*
X131953920Y-126987125D01*
X131999013Y-126996095D01*
X132021157Y-127000500D01*
X132021158Y-127000500D01*
X132178844Y-127000500D01*
X132178845Y-127000499D01*
X132333497Y-126969737D01*
X132479179Y-126909394D01*
X132610289Y-126821789D01*
X132721789Y-126710289D01*
X132809394Y-126579179D01*
X132869737Y-126433497D01*
X132900500Y-126278842D01*
X132900500Y-126121158D01*
X132900500Y-126121155D01*
X132884209Y-126039258D01*
X132884209Y-126039257D01*
X132880608Y-126021153D01*
X133699500Y-126021153D01*
X133699500Y-126178846D01*
X133730261Y-126333489D01*
X133730264Y-126333501D01*
X133790602Y-126479172D01*
X133790609Y-126479185D01*
X133878210Y-126610288D01*
X133878213Y-126610292D01*
X133989707Y-126721786D01*
X133989711Y-126721789D01*
X134120814Y-126809390D01*
X134120827Y-126809397D01*
X134266498Y-126869735D01*
X134266503Y-126869737D01*
X134421153Y-126900499D01*
X134421156Y-126900500D01*
X134421158Y-126900500D01*
X134578844Y-126900500D01*
X134578845Y-126900499D01*
X134733497Y-126869737D01*
X134879179Y-126809394D01*
X135010289Y-126721789D01*
X135121789Y-126610289D01*
X135180811Y-126521956D01*
X135234421Y-126477152D01*
X135303746Y-126468445D01*
X135366774Y-126498599D01*
X135373867Y-126506017D01*
X135373903Y-126505982D01*
X135489707Y-126621786D01*
X135489711Y-126621789D01*
X135620814Y-126709390D01*
X135620827Y-126709397D01*
X135766498Y-126769735D01*
X135766503Y-126769737D01*
X135921153Y-126800499D01*
X135921156Y-126800500D01*
X135921158Y-126800500D01*
X136078844Y-126800500D01*
X136078845Y-126800499D01*
X136233497Y-126769737D01*
X136379179Y-126709394D01*
X136510289Y-126621789D01*
X136621789Y-126510289D01*
X136709394Y-126379179D01*
X136769737Y-126233497D01*
X136800500Y-126078842D01*
X136800500Y-126021153D01*
X137699500Y-126021153D01*
X137699500Y-126178846D01*
X137730261Y-126333489D01*
X137730264Y-126333501D01*
X137790602Y-126479172D01*
X137790609Y-126479185D01*
X137878210Y-126610288D01*
X137878213Y-126610292D01*
X137989707Y-126721786D01*
X137989711Y-126721789D01*
X138120814Y-126809390D01*
X138120827Y-126809397D01*
X138266498Y-126869735D01*
X138266503Y-126869737D01*
X138421153Y-126900499D01*
X138421156Y-126900500D01*
X138421158Y-126900500D01*
X138578844Y-126900500D01*
X138578845Y-126900499D01*
X138733497Y-126869737D01*
X138879179Y-126809394D01*
X139010289Y-126721789D01*
X139121789Y-126610289D01*
X139209394Y-126479179D01*
X139269737Y-126333497D01*
X139300500Y-126178842D01*
X139300500Y-126021158D01*
X139300500Y-126021155D01*
X139300499Y-126021153D01*
X139289627Y-125966498D01*
X139269737Y-125866503D01*
X139228314Y-125766498D01*
X139209397Y-125720827D01*
X139209390Y-125720814D01*
X139121789Y-125589711D01*
X139121786Y-125589707D01*
X139010292Y-125478213D01*
X139010288Y-125478210D01*
X138879185Y-125390609D01*
X138879172Y-125390602D01*
X138733501Y-125330264D01*
X138733489Y-125330261D01*
X138578845Y-125299500D01*
X138578842Y-125299500D01*
X138421158Y-125299500D01*
X138421155Y-125299500D01*
X138266510Y-125330261D01*
X138266498Y-125330264D01*
X138120827Y-125390602D01*
X138120814Y-125390609D01*
X137989711Y-125478210D01*
X137989707Y-125478213D01*
X137878213Y-125589707D01*
X137878210Y-125589711D01*
X137790609Y-125720814D01*
X137790602Y-125720827D01*
X137730264Y-125866498D01*
X137730261Y-125866510D01*
X137699500Y-126021153D01*
X136800500Y-126021153D01*
X136800500Y-125921158D01*
X136800500Y-125921155D01*
X136800499Y-125921153D01*
X136780543Y-125820827D01*
X136769737Y-125766503D01*
X136737929Y-125689711D01*
X136709397Y-125620827D01*
X136709390Y-125620814D01*
X136621789Y-125489711D01*
X136621786Y-125489707D01*
X136510292Y-125378213D01*
X136510288Y-125378210D01*
X136379185Y-125290609D01*
X136379172Y-125290602D01*
X136233501Y-125230264D01*
X136233489Y-125230261D01*
X136078845Y-125199500D01*
X136078842Y-125199500D01*
X135921158Y-125199500D01*
X135921155Y-125199500D01*
X135766510Y-125230261D01*
X135766498Y-125230264D01*
X135620827Y-125290602D01*
X135620814Y-125290609D01*
X135489711Y-125378210D01*
X135489707Y-125378213D01*
X135378213Y-125489707D01*
X135378210Y-125489711D01*
X135319189Y-125578042D01*
X135265576Y-125622847D01*
X135196251Y-125631554D01*
X135133224Y-125601399D01*
X135126132Y-125593982D01*
X135126097Y-125594018D01*
X135010292Y-125478213D01*
X135010288Y-125478210D01*
X134879185Y-125390609D01*
X134879172Y-125390602D01*
X134733501Y-125330264D01*
X134733489Y-125330261D01*
X134578845Y-125299500D01*
X134578842Y-125299500D01*
X134421158Y-125299500D01*
X134421155Y-125299500D01*
X134266510Y-125330261D01*
X134266498Y-125330264D01*
X134120827Y-125390602D01*
X134120814Y-125390609D01*
X133989711Y-125478210D01*
X133989707Y-125478213D01*
X133878213Y-125589707D01*
X133878210Y-125589711D01*
X133790609Y-125720814D01*
X133790602Y-125720827D01*
X133730264Y-125866498D01*
X133730261Y-125866510D01*
X133699500Y-126021153D01*
X132880608Y-126021153D01*
X132869738Y-125966510D01*
X132869737Y-125966503D01*
X132850955Y-125921158D01*
X132809397Y-125820827D01*
X132809390Y-125820814D01*
X132721789Y-125689711D01*
X132721786Y-125689707D01*
X132610292Y-125578213D01*
X132610288Y-125578210D01*
X132479185Y-125490609D01*
X132479172Y-125490602D01*
X132333501Y-125430264D01*
X132333489Y-125430261D01*
X132178845Y-125399500D01*
X132178842Y-125399500D01*
X132021158Y-125399500D01*
X132021155Y-125399500D01*
X131948857Y-125413881D01*
X131928042Y-125412018D01*
X131907362Y-125415051D01*
X131893941Y-125408967D01*
X131879266Y-125407654D01*
X131862760Y-125394832D01*
X131843725Y-125386203D01*
X131835724Y-125373830D01*
X131824088Y-125364791D01*
X131817134Y-125345080D01*
X131805787Y-125327531D01*
X131802118Y-125302513D01*
X131800844Y-125298901D01*
X131800666Y-125292610D01*
X131800660Y-125290609D01*
X131800500Y-125233147D01*
X131800500Y-123369234D01*
X144284500Y-123369234D01*
X144284500Y-123520765D01*
X144323719Y-123667136D01*
X144360075Y-123730106D01*
X144399485Y-123798365D01*
X144506635Y-123905515D01*
X144637865Y-123981281D01*
X144784234Y-124020500D01*
X144784236Y-124020500D01*
X144935764Y-124020500D01*
X144935766Y-124020500D01*
X145082135Y-123981281D01*
X145213365Y-123905515D01*
X145213368Y-123905511D01*
X145217523Y-123903113D01*
X145285423Y-123886640D01*
X145351450Y-123909492D01*
X145375379Y-123931838D01*
X145378211Y-123935289D01*
X145489707Y-124046785D01*
X145489711Y-124046788D01*
X145620814Y-124134389D01*
X145620827Y-124134396D01*
X145766498Y-124194734D01*
X145766503Y-124194736D01*
X145921153Y-124225498D01*
X145921156Y-124225499D01*
X145921158Y-124225499D01*
X146078844Y-124225499D01*
X146078845Y-124225498D01*
X146233497Y-124194736D01*
X146346166Y-124148066D01*
X146379172Y-124134396D01*
X146379172Y-124134395D01*
X146379179Y-124134393D01*
X146510289Y-124046788D01*
X146621789Y-123935288D01*
X146709394Y-123804178D01*
X146769737Y-123658496D01*
X146800500Y-123503841D01*
X146800500Y-123346157D01*
X146800500Y-123346154D01*
X146800499Y-123346153D01*
X148599500Y-123346153D01*
X148599500Y-123503846D01*
X148630261Y-123658489D01*
X148630264Y-123658501D01*
X148690602Y-123804172D01*
X148690609Y-123804185D01*
X148778210Y-123935288D01*
X148778213Y-123935292D01*
X148889707Y-124046786D01*
X148889711Y-124046789D01*
X149020814Y-124134390D01*
X149020827Y-124134397D01*
X149166496Y-124194734D01*
X149166503Y-124194737D01*
X149321148Y-124225498D01*
X149321153Y-124225499D01*
X149321156Y-124225500D01*
X149321158Y-124225500D01*
X149478844Y-124225500D01*
X149478845Y-124225499D01*
X149633497Y-124194737D01*
X149779179Y-124134394D01*
X149910289Y-124046789D01*
X150021789Y-123935289D01*
X150055854Y-123884307D01*
X150109465Y-123839502D01*
X150178790Y-123830795D01*
X150241818Y-123860949D01*
X150246637Y-123865517D01*
X150286635Y-123905515D01*
X150417865Y-123981281D01*
X150564234Y-124020500D01*
X150564236Y-124020500D01*
X150715764Y-124020500D01*
X150715766Y-124020500D01*
X150862135Y-123981281D01*
X150993365Y-123905515D01*
X151100515Y-123798365D01*
X151176281Y-123667135D01*
X151215500Y-123520766D01*
X151215500Y-123369234D01*
X151176281Y-123222865D01*
X151100515Y-123091635D01*
X150993365Y-122984485D01*
X150911424Y-122937176D01*
X150862136Y-122908719D01*
X150788950Y-122889109D01*
X150715766Y-122869500D01*
X150564234Y-122869500D01*
X150417863Y-122908719D01*
X150286635Y-122984485D01*
X150286630Y-122984489D01*
X150262655Y-123008463D01*
X150201331Y-123041946D01*
X150131640Y-123036959D01*
X150075707Y-122995086D01*
X150071875Y-122989669D01*
X150021792Y-122914715D01*
X150021786Y-122914707D01*
X149910292Y-122803213D01*
X149910288Y-122803210D01*
X149779185Y-122715609D01*
X149779172Y-122715602D01*
X149633501Y-122655264D01*
X149633489Y-122655261D01*
X149478845Y-122624500D01*
X149478842Y-122624500D01*
X149321158Y-122624500D01*
X149321155Y-122624500D01*
X149166510Y-122655261D01*
X149166498Y-122655264D01*
X149020827Y-122715602D01*
X149020814Y-122715609D01*
X148889711Y-122803210D01*
X148889707Y-122803213D01*
X148778213Y-122914707D01*
X148778210Y-122914711D01*
X148690609Y-123045814D01*
X148690602Y-123045827D01*
X148630264Y-123191498D01*
X148630261Y-123191510D01*
X148599500Y-123346153D01*
X146800499Y-123346153D01*
X146800499Y-123346152D01*
X146769737Y-123191502D01*
X146709397Y-123045827D01*
X146709397Y-123045826D01*
X146709390Y-123045813D01*
X146621789Y-122914710D01*
X146621786Y-122914706D01*
X146510292Y-122803212D01*
X146510288Y-122803209D01*
X146379185Y-122715608D01*
X146379172Y-122715601D01*
X146233501Y-122655263D01*
X146233489Y-122655260D01*
X146078845Y-122624499D01*
X146078842Y-122624499D01*
X145921158Y-122624499D01*
X145921155Y-122624499D01*
X145766510Y-122655260D01*
X145766498Y-122655263D01*
X145620827Y-122715601D01*
X145620814Y-122715608D01*
X145489711Y-122803209D01*
X145489707Y-122803212D01*
X145378211Y-122914708D01*
X145363199Y-122937176D01*
X145309586Y-122981980D01*
X145240261Y-122990686D01*
X145198098Y-122975670D01*
X145082138Y-122908720D01*
X145082135Y-122908719D01*
X144935766Y-122869500D01*
X144784234Y-122869500D01*
X144637863Y-122908719D01*
X144506635Y-122984485D01*
X144506632Y-122984487D01*
X144399487Y-123091632D01*
X144399485Y-123091635D01*
X144323719Y-123222863D01*
X144284500Y-123369234D01*
X131800500Y-123369234D01*
X131800500Y-121622209D01*
X133465782Y-121622209D01*
X133465782Y-121779902D01*
X133496543Y-121934545D01*
X133496546Y-121934557D01*
X133556884Y-122080228D01*
X133556891Y-122080241D01*
X133644492Y-122211344D01*
X133644495Y-122211348D01*
X133755989Y-122322842D01*
X133755993Y-122322845D01*
X133887096Y-122410446D01*
X133887109Y-122410453D01*
X134032780Y-122470791D01*
X134032785Y-122470793D01*
X134187435Y-122501555D01*
X134187438Y-122501556D01*
X134187440Y-122501556D01*
X134345126Y-122501556D01*
X134345127Y-122501555D01*
X134499779Y-122470793D01*
X134645461Y-122410450D01*
X134776571Y-122322845D01*
X134888071Y-122211345D01*
X134975676Y-122080235D01*
X135036019Y-121934553D01*
X135066782Y-121779898D01*
X135066782Y-121622214D01*
X135066782Y-121622211D01*
X135066781Y-121622209D01*
X135046806Y-121521789D01*
X135036019Y-121467559D01*
X135031070Y-121455611D01*
X134987169Y-121349622D01*
X134979700Y-121280153D01*
X134987169Y-121254718D01*
X135036940Y-121134558D01*
X135036942Y-121134554D01*
X135067705Y-120979899D01*
X135067705Y-120923833D01*
X135087390Y-120856794D01*
X135140194Y-120811039D01*
X135172970Y-120802204D01*
X135172868Y-120801689D01*
X135259334Y-120784488D01*
X135333497Y-120769737D01*
X135479179Y-120709394D01*
X135610289Y-120621789D01*
X135721789Y-120510289D01*
X135809394Y-120379179D01*
X135869737Y-120233497D01*
X135890062Y-120131318D01*
X135895090Y-120106041D01*
X135927475Y-120044130D01*
X135947817Y-120027130D01*
X136008667Y-119986471D01*
X136054050Y-119956147D01*
X136165550Y-119844647D01*
X136253155Y-119713537D01*
X136313498Y-119567855D01*
X136344261Y-119413200D01*
X136344261Y-119285835D01*
X137084364Y-119285835D01*
X137084364Y-119443528D01*
X137115125Y-119598171D01*
X137115128Y-119598183D01*
X137175466Y-119743854D01*
X137175473Y-119743867D01*
X137263073Y-119874969D01*
X137263074Y-119874970D01*
X137263075Y-119874971D01*
X137363182Y-119975078D01*
X137396666Y-120036399D01*
X137399500Y-120062758D01*
X137399500Y-120178846D01*
X137430261Y-120333489D01*
X137430264Y-120333501D01*
X137490602Y-120479172D01*
X137490609Y-120479185D01*
X137578210Y-120610288D01*
X137578213Y-120610292D01*
X137689707Y-120721786D01*
X137689711Y-120721789D01*
X137820814Y-120809390D01*
X137820827Y-120809397D01*
X137966498Y-120869735D01*
X137966503Y-120869737D01*
X138100496Y-120896390D01*
X138121153Y-120900499D01*
X138121156Y-120900500D01*
X138182152Y-120900500D01*
X138249191Y-120920185D01*
X138294946Y-120972989D01*
X138303769Y-121000308D01*
X138330261Y-121133491D01*
X138330264Y-121133501D01*
X138390602Y-121279172D01*
X138390609Y-121279185D01*
X138453485Y-121373285D01*
X138474363Y-121439963D01*
X138455878Y-121507343D01*
X138438064Y-121529857D01*
X138378213Y-121589707D01*
X138378210Y-121589711D01*
X138290609Y-121720814D01*
X138290602Y-121720827D01*
X138230264Y-121866498D01*
X138230261Y-121866510D01*
X138199500Y-122021153D01*
X138199500Y-122178846D01*
X138230261Y-122333489D01*
X138230264Y-122333501D01*
X138290602Y-122479172D01*
X138290609Y-122479185D01*
X138378210Y-122610288D01*
X138378213Y-122610292D01*
X138489707Y-122721786D01*
X138489711Y-122721789D01*
X138620814Y-122809390D01*
X138620827Y-122809397D01*
X138765931Y-122869500D01*
X138766503Y-122869737D01*
X138921153Y-122900499D01*
X138921156Y-122900500D01*
X138921158Y-122900500D01*
X139078844Y-122900500D01*
X139078845Y-122900499D01*
X139233497Y-122869737D01*
X139379179Y-122809394D01*
X139510289Y-122721789D01*
X139621789Y-122610289D01*
X139709394Y-122479179D01*
X139769737Y-122333497D01*
X139800500Y-122178842D01*
X139800500Y-122021158D01*
X139796954Y-122003331D01*
X139803181Y-121933739D01*
X139846043Y-121878561D01*
X139911933Y-121855316D01*
X139979930Y-121871383D01*
X140006252Y-121891457D01*
X140086581Y-121971786D01*
X140086585Y-121971789D01*
X140217688Y-122059390D01*
X140217701Y-122059397D01*
X140268024Y-122080241D01*
X140363377Y-122119737D01*
X140518027Y-122150499D01*
X140518030Y-122150500D01*
X140518032Y-122150500D01*
X140675718Y-122150500D01*
X140675719Y-122150499D01*
X140830371Y-122119737D01*
X140976053Y-122059394D01*
X141107163Y-121971789D01*
X141218663Y-121860289D01*
X141306268Y-121729179D01*
X141309728Y-121720827D01*
X141364037Y-121589711D01*
X141366611Y-121583497D01*
X141397374Y-121428842D01*
X141397374Y-121271158D01*
X141397374Y-121271155D01*
X141397373Y-121271153D01*
X141393661Y-121252490D01*
X141366611Y-121116503D01*
X141366609Y-121116498D01*
X141306271Y-120970827D01*
X141306264Y-120970814D01*
X141218663Y-120839711D01*
X141218660Y-120839707D01*
X141107166Y-120728213D01*
X141107162Y-120728210D01*
X140976059Y-120640609D01*
X140976046Y-120640602D01*
X140830375Y-120580264D01*
X140830363Y-120580261D01*
X140675719Y-120549500D01*
X140675716Y-120549500D01*
X140518032Y-120549500D01*
X140518029Y-120549500D01*
X140363384Y-120580261D01*
X140363372Y-120580264D01*
X140217701Y-120640602D01*
X140217688Y-120640609D01*
X140086585Y-120728210D01*
X140086579Y-120728215D01*
X140079988Y-120734806D01*
X140018664Y-120768288D01*
X139948972Y-120763301D01*
X139893040Y-120721427D01*
X139870693Y-120671311D01*
X139869737Y-120666503D01*
X139869735Y-120666498D01*
X139809397Y-120520827D01*
X139809390Y-120520814D01*
X139784763Y-120483957D01*
X139742798Y-120421153D01*
X146599500Y-120421153D01*
X146599500Y-120578846D01*
X146630261Y-120733489D01*
X146630264Y-120733501D01*
X146690602Y-120879172D01*
X146690609Y-120879185D01*
X146778210Y-121010288D01*
X146778213Y-121010292D01*
X146889707Y-121121786D01*
X146889711Y-121121789D01*
X147020814Y-121209390D01*
X147020827Y-121209397D01*
X147166498Y-121269735D01*
X147166503Y-121269737D01*
X147311928Y-121298664D01*
X147321153Y-121300499D01*
X147321156Y-121300500D01*
X147321158Y-121300500D01*
X147478844Y-121300500D01*
X147478845Y-121300499D01*
X147633497Y-121269737D01*
X147752548Y-121220425D01*
X147822017Y-121212956D01*
X147847452Y-121220425D01*
X147966498Y-121269735D01*
X147966503Y-121269737D01*
X148111928Y-121298664D01*
X148121153Y-121300499D01*
X148121156Y-121300500D01*
X148121158Y-121300500D01*
X148278844Y-121300500D01*
X148278845Y-121300499D01*
X148433497Y-121269737D01*
X148579179Y-121209394D01*
X148710289Y-121121789D01*
X148821789Y-121010289D01*
X148909394Y-120879179D01*
X148969737Y-120733497D01*
X149000500Y-120578842D01*
X149000500Y-120421158D01*
X149000500Y-120421155D01*
X149000499Y-120421153D01*
X148983061Y-120333489D01*
X148969737Y-120266503D01*
X148938739Y-120191666D01*
X148909397Y-120120827D01*
X148909390Y-120120814D01*
X148821789Y-119989711D01*
X148821786Y-119989707D01*
X148710292Y-119878213D01*
X148710288Y-119878210D01*
X148579185Y-119790609D01*
X148579172Y-119790602D01*
X148433501Y-119730264D01*
X148433489Y-119730261D01*
X148278845Y-119699500D01*
X148278842Y-119699500D01*
X148121158Y-119699500D01*
X148121155Y-119699500D01*
X147966510Y-119730261D01*
X147966498Y-119730264D01*
X147847452Y-119779574D01*
X147777982Y-119787043D01*
X147752548Y-119779574D01*
X147633501Y-119730264D01*
X147633489Y-119730261D01*
X147478845Y-119699500D01*
X147478842Y-119699500D01*
X147321158Y-119699500D01*
X147321155Y-119699500D01*
X147166510Y-119730261D01*
X147166498Y-119730264D01*
X147020827Y-119790602D01*
X147020814Y-119790609D01*
X146889711Y-119878210D01*
X146889707Y-119878213D01*
X146778213Y-119989707D01*
X146778210Y-119989711D01*
X146690609Y-120120814D01*
X146690602Y-120120827D01*
X146630264Y-120266498D01*
X146630261Y-120266510D01*
X146599500Y-120421153D01*
X139742798Y-120421153D01*
X139721789Y-120389711D01*
X139721786Y-120389707D01*
X139610292Y-120278213D01*
X139610288Y-120278210D01*
X139479185Y-120190609D01*
X139479172Y-120190602D01*
X139333501Y-120130264D01*
X139333489Y-120130261D01*
X139178845Y-120099500D01*
X139178842Y-120099500D01*
X139117848Y-120099500D01*
X139050809Y-120079815D01*
X139005054Y-120027011D01*
X138996231Y-119999692D01*
X138969738Y-119866508D01*
X138969737Y-119866507D01*
X138969737Y-119866503D01*
X138918940Y-119743867D01*
X138909397Y-119720827D01*
X138909390Y-119720814D01*
X138821789Y-119589711D01*
X138821786Y-119589707D01*
X138721683Y-119489604D01*
X138688198Y-119428281D01*
X138685364Y-119401923D01*
X138685364Y-119285837D01*
X138685363Y-119285835D01*
X138679332Y-119255516D01*
X138654601Y-119131185D01*
X138654599Y-119131180D01*
X138591927Y-118979874D01*
X138594579Y-118978775D01*
X138582833Y-118922385D01*
X138607826Y-118857138D01*
X138658981Y-118817759D01*
X138679179Y-118809394D01*
X138810289Y-118721789D01*
X138921789Y-118610289D01*
X139009394Y-118479179D01*
X139069737Y-118333497D01*
X139100500Y-118178842D01*
X139100500Y-118021158D01*
X139100500Y-118021155D01*
X139100499Y-118021153D01*
X139069738Y-117866510D01*
X139069737Y-117866503D01*
X139069735Y-117866498D01*
X139009397Y-117720827D01*
X139009390Y-117720814D01*
X138921789Y-117589711D01*
X138921786Y-117589707D01*
X138810292Y-117478213D01*
X138810288Y-117478210D01*
X138679185Y-117390609D01*
X138679172Y-117390602D01*
X138533501Y-117330264D01*
X138533489Y-117330261D01*
X138378845Y-117299500D01*
X138378842Y-117299500D01*
X138221158Y-117299500D01*
X138221155Y-117299500D01*
X138066510Y-117330261D01*
X138066498Y-117330264D01*
X137920827Y-117390602D01*
X137920814Y-117390609D01*
X137789711Y-117478210D01*
X137789707Y-117478213D01*
X137678213Y-117589707D01*
X137678210Y-117589711D01*
X137590609Y-117720814D01*
X137590602Y-117720827D01*
X137530264Y-117866498D01*
X137530261Y-117866510D01*
X137499500Y-118021153D01*
X137499500Y-118178846D01*
X137530261Y-118333489D01*
X137530264Y-118333501D01*
X137592937Y-118484807D01*
X137590284Y-118485905D01*
X137602031Y-118542296D01*
X137577038Y-118607543D01*
X137525885Y-118646920D01*
X137505690Y-118655285D01*
X137505678Y-118655291D01*
X137374575Y-118742892D01*
X137374571Y-118742895D01*
X137263077Y-118854389D01*
X137263074Y-118854393D01*
X137175473Y-118985496D01*
X137175466Y-118985509D01*
X137115128Y-119131180D01*
X137115125Y-119131192D01*
X137084364Y-119285835D01*
X136344261Y-119285835D01*
X136344261Y-119255516D01*
X136344261Y-119255513D01*
X136344260Y-119255511D01*
X136313499Y-119100868D01*
X136313498Y-119100861D01*
X136313496Y-119100856D01*
X136253158Y-118955185D01*
X136253151Y-118955172D01*
X136165550Y-118824069D01*
X136165547Y-118824065D01*
X136054053Y-118712571D01*
X136054049Y-118712568D01*
X135922946Y-118624967D01*
X135922933Y-118624960D01*
X135777262Y-118564622D01*
X135777255Y-118564620D01*
X135737662Y-118556744D01*
X135675752Y-118524358D01*
X135641179Y-118463641D01*
X135644920Y-118393872D01*
X135647286Y-118387696D01*
X135669737Y-118333497D01*
X135700500Y-118178842D01*
X135700500Y-118021158D01*
X135700500Y-118021155D01*
X135700499Y-118021153D01*
X135669738Y-117866510D01*
X135669737Y-117866503D01*
X135669735Y-117866498D01*
X135609397Y-117720827D01*
X135609390Y-117720814D01*
X135521789Y-117589711D01*
X135521786Y-117589707D01*
X135410292Y-117478213D01*
X135410288Y-117478210D01*
X135279185Y-117390609D01*
X135279172Y-117390602D01*
X135133501Y-117330264D01*
X135133489Y-117330261D01*
X134978845Y-117299500D01*
X134978842Y-117299500D01*
X134821158Y-117299500D01*
X134821155Y-117299500D01*
X134666510Y-117330261D01*
X134666498Y-117330264D01*
X134520827Y-117390602D01*
X134520814Y-117390609D01*
X134389711Y-117478210D01*
X134389707Y-117478213D01*
X134278213Y-117589707D01*
X134278210Y-117589711D01*
X134190609Y-117720814D01*
X134190602Y-117720827D01*
X134130264Y-117866498D01*
X134130261Y-117866510D01*
X134099500Y-118021153D01*
X134099500Y-118178846D01*
X134130261Y-118333489D01*
X134130264Y-118333501D01*
X134190602Y-118479172D01*
X134190609Y-118479185D01*
X134278210Y-118610288D01*
X134278213Y-118610292D01*
X134389707Y-118721786D01*
X134389711Y-118721789D01*
X134520814Y-118809390D01*
X134520827Y-118809397D01*
X134629449Y-118854389D01*
X134666503Y-118869737D01*
X134666507Y-118869737D01*
X134666508Y-118869738D01*
X134706096Y-118877613D01*
X134717694Y-118883680D01*
X134730690Y-118885231D01*
X134748054Y-118899560D01*
X134768007Y-118909998D01*
X134774483Y-118921371D01*
X134784579Y-118929703D01*
X134791439Y-118951147D01*
X134802581Y-118970714D01*
X134802365Y-118985302D01*
X134805868Y-118996251D01*
X134801888Y-119017594D01*
X134801686Y-119031296D01*
X134799580Y-119039162D01*
X134774024Y-119100861D01*
X134747885Y-119232265D01*
X134746835Y-119236191D01*
X134730679Y-119262709D01*
X134716285Y-119290228D01*
X134711457Y-119294262D01*
X134710484Y-119295860D01*
X134708241Y-119296949D01*
X134695944Y-119307227D01*
X134589711Y-119378210D01*
X134589707Y-119378213D01*
X134478213Y-119489707D01*
X134478210Y-119489711D01*
X134390609Y-119620814D01*
X134390602Y-119620827D01*
X134330264Y-119766498D01*
X134330261Y-119766510D01*
X134299500Y-119921153D01*
X134299500Y-119977223D01*
X134279815Y-120044262D01*
X134227011Y-120090017D01*
X134194234Y-120098854D01*
X134194337Y-120099368D01*
X134033715Y-120131318D01*
X134033703Y-120131321D01*
X133888032Y-120191659D01*
X133888019Y-120191666D01*
X133756916Y-120279267D01*
X133756912Y-120279270D01*
X133645418Y-120390764D01*
X133645415Y-120390768D01*
X133557814Y-120521871D01*
X133557807Y-120521884D01*
X133497469Y-120667555D01*
X133497466Y-120667567D01*
X133466705Y-120822210D01*
X133466705Y-120979903D01*
X133497466Y-121134546D01*
X133497469Y-121134558D01*
X133546318Y-121252490D01*
X133553787Y-121321959D01*
X133546318Y-121347394D01*
X133496546Y-121467554D01*
X133496543Y-121467566D01*
X133465782Y-121622209D01*
X131800500Y-121622209D01*
X131800500Y-116531941D01*
X131820185Y-116464902D01*
X131872989Y-116419147D01*
X131942147Y-116409203D01*
X132005703Y-116438228D01*
X132012181Y-116444260D01*
X132089707Y-116521786D01*
X132089711Y-116521789D01*
X132220814Y-116609390D01*
X132220827Y-116609397D01*
X132366498Y-116669735D01*
X132366503Y-116669737D01*
X132521153Y-116700499D01*
X132521156Y-116700500D01*
X132521158Y-116700500D01*
X132678844Y-116700500D01*
X132678845Y-116700499D01*
X132833497Y-116669737D01*
X132979179Y-116609394D01*
X133110289Y-116521789D01*
X133221789Y-116410289D01*
X133309394Y-116279179D01*
X133369737Y-116133497D01*
X133400500Y-115978842D01*
X133400500Y-115821158D01*
X133400500Y-115821155D01*
X133400499Y-115821153D01*
X133399500Y-115816130D01*
X133369737Y-115666503D01*
X133350885Y-115620989D01*
X133309397Y-115520827D01*
X133309390Y-115520814D01*
X133221789Y-115389711D01*
X133221786Y-115389707D01*
X133140732Y-115308653D01*
X145719455Y-115308653D01*
X145719455Y-115466346D01*
X145750216Y-115620989D01*
X145750219Y-115621001D01*
X145810557Y-115766672D01*
X145810564Y-115766685D01*
X145898165Y-115897788D01*
X145898168Y-115897792D01*
X146009662Y-116009286D01*
X146009666Y-116009289D01*
X146140769Y-116096890D01*
X146140782Y-116096897D01*
X146286453Y-116157235D01*
X146286458Y-116157237D01*
X146441108Y-116187999D01*
X146441111Y-116188000D01*
X146441113Y-116188000D01*
X146598799Y-116188000D01*
X146598800Y-116187999D01*
X146753452Y-116157237D01*
X146899134Y-116096894D01*
X147030244Y-116009289D01*
X147141744Y-115897789D01*
X147229349Y-115766679D01*
X147289692Y-115620997D01*
X147320455Y-115466342D01*
X147320455Y-115308658D01*
X147320455Y-115308655D01*
X147320454Y-115308653D01*
X147569500Y-115308653D01*
X147569500Y-115466346D01*
X147600261Y-115620989D01*
X147600264Y-115621001D01*
X147660602Y-115766672D01*
X147660609Y-115766685D01*
X147748210Y-115897788D01*
X147748213Y-115897792D01*
X147859707Y-116009286D01*
X147859711Y-116009289D01*
X147990814Y-116096890D01*
X147990827Y-116096897D01*
X148136498Y-116157235D01*
X148136503Y-116157237D01*
X148291153Y-116187999D01*
X148291156Y-116188000D01*
X148291158Y-116188000D01*
X148448844Y-116188000D01*
X148448845Y-116187999D01*
X148603497Y-116157237D01*
X148749179Y-116096894D01*
X148880289Y-116009289D01*
X148991789Y-115897789D01*
X149079394Y-115766679D01*
X149139737Y-115620997D01*
X149170500Y-115466342D01*
X149170500Y-115308658D01*
X149170500Y-115308655D01*
X149170499Y-115308653D01*
X149139738Y-115154010D01*
X149139737Y-115154003D01*
X149129903Y-115130261D01*
X149079397Y-115008327D01*
X149079390Y-115008314D01*
X148991789Y-114877211D01*
X148991786Y-114877207D01*
X148880292Y-114765713D01*
X148880288Y-114765710D01*
X148749185Y-114678109D01*
X148749172Y-114678102D01*
X148603501Y-114617764D01*
X148603489Y-114617761D01*
X148448845Y-114587000D01*
X148448842Y-114587000D01*
X148291158Y-114587000D01*
X148291155Y-114587000D01*
X148136510Y-114617761D01*
X148136498Y-114617764D01*
X147990827Y-114678102D01*
X147990814Y-114678109D01*
X147859711Y-114765710D01*
X147859707Y-114765713D01*
X147748213Y-114877207D01*
X147748210Y-114877211D01*
X147660609Y-115008314D01*
X147660602Y-115008327D01*
X147600264Y-115153998D01*
X147600261Y-115154010D01*
X147569500Y-115308653D01*
X147320454Y-115308653D01*
X147289693Y-115154010D01*
X147289692Y-115154003D01*
X147279858Y-115130261D01*
X147229352Y-115008327D01*
X147229345Y-115008314D01*
X147141744Y-114877211D01*
X147141741Y-114877207D01*
X147030247Y-114765713D01*
X147030243Y-114765710D01*
X146899140Y-114678109D01*
X146899127Y-114678102D01*
X146753456Y-114617764D01*
X146753444Y-114617761D01*
X146598800Y-114587000D01*
X146598797Y-114587000D01*
X146441113Y-114587000D01*
X146441110Y-114587000D01*
X146286465Y-114617761D01*
X146286453Y-114617764D01*
X146140782Y-114678102D01*
X146140769Y-114678109D01*
X146009666Y-114765710D01*
X146009662Y-114765713D01*
X145898168Y-114877207D01*
X145898165Y-114877211D01*
X145810564Y-115008314D01*
X145810557Y-115008327D01*
X145750219Y-115153998D01*
X145750216Y-115154010D01*
X145719455Y-115308653D01*
X133140732Y-115308653D01*
X133110292Y-115278213D01*
X133110288Y-115278210D01*
X132979185Y-115190609D01*
X132979172Y-115190602D01*
X132833501Y-115130264D01*
X132833489Y-115130261D01*
X132678845Y-115099500D01*
X132678842Y-115099500D01*
X132521158Y-115099500D01*
X132521155Y-115099500D01*
X132366510Y-115130261D01*
X132366498Y-115130264D01*
X132220827Y-115190602D01*
X132220814Y-115190609D01*
X132089711Y-115278210D01*
X132089707Y-115278213D01*
X132012181Y-115355740D01*
X131950858Y-115389225D01*
X131881166Y-115384241D01*
X131825233Y-115342369D01*
X131800816Y-115276905D01*
X131800500Y-115268059D01*
X131800500Y-114021153D01*
X134149500Y-114021153D01*
X134149500Y-114178846D01*
X134180261Y-114333489D01*
X134180264Y-114333501D01*
X134240602Y-114479172D01*
X134240609Y-114479185D01*
X134328210Y-114610288D01*
X134328213Y-114610292D01*
X134439707Y-114721786D01*
X134439711Y-114721789D01*
X134570814Y-114809390D01*
X134570827Y-114809397D01*
X134716498Y-114869735D01*
X134716503Y-114869737D01*
X134826340Y-114891585D01*
X134871153Y-114900499D01*
X134871156Y-114900500D01*
X134871158Y-114900500D01*
X135028844Y-114900500D01*
X135028845Y-114900499D01*
X135183497Y-114869737D01*
X135329179Y-114809394D01*
X135460289Y-114721789D01*
X135571789Y-114610289D01*
X135659394Y-114479179D01*
X135719737Y-114333497D01*
X135750500Y-114178842D01*
X135750500Y-114021158D01*
X135750500Y-114021155D01*
X135750499Y-114021153D01*
X137499500Y-114021153D01*
X137499500Y-114178846D01*
X137530261Y-114333489D01*
X137530264Y-114333501D01*
X137590602Y-114479172D01*
X137590609Y-114479185D01*
X137678210Y-114610288D01*
X137678213Y-114610292D01*
X137789707Y-114721786D01*
X137789711Y-114721789D01*
X137920814Y-114809390D01*
X137920827Y-114809397D01*
X138066498Y-114869735D01*
X138066503Y-114869737D01*
X138176340Y-114891585D01*
X138221153Y-114900499D01*
X138221156Y-114900500D01*
X138221158Y-114900500D01*
X138378844Y-114900500D01*
X138378845Y-114900499D01*
X138533497Y-114869737D01*
X138679179Y-114809394D01*
X138810289Y-114721789D01*
X138921789Y-114610289D01*
X139009394Y-114479179D01*
X139069737Y-114333497D01*
X139100500Y-114178842D01*
X139100500Y-114021158D01*
X139100500Y-114021155D01*
X139100499Y-114021153D01*
X139076499Y-113900499D01*
X139069737Y-113866503D01*
X139046080Y-113809390D01*
X139009397Y-113720827D01*
X139009390Y-113720814D01*
X138921789Y-113589711D01*
X138921786Y-113589707D01*
X138810292Y-113478213D01*
X138810288Y-113478210D01*
X138679185Y-113390609D01*
X138679172Y-113390602D01*
X138533501Y-113330264D01*
X138533489Y-113330261D01*
X138378845Y-113299500D01*
X138378842Y-113299500D01*
X138221158Y-113299500D01*
X138221155Y-113299500D01*
X138066510Y-113330261D01*
X138066498Y-113330264D01*
X137920827Y-113390602D01*
X137920814Y-113390609D01*
X137789711Y-113478210D01*
X137789707Y-113478213D01*
X137678213Y-113589707D01*
X137678210Y-113589711D01*
X137590609Y-113720814D01*
X137590602Y-113720827D01*
X137530264Y-113866498D01*
X137530261Y-113866510D01*
X137499500Y-114021153D01*
X135750499Y-114021153D01*
X135726499Y-113900499D01*
X135719737Y-113866503D01*
X135696080Y-113809390D01*
X135659397Y-113720827D01*
X135659390Y-113720814D01*
X135571789Y-113589711D01*
X135571786Y-113589707D01*
X135460292Y-113478213D01*
X135460288Y-113478210D01*
X135329185Y-113390609D01*
X135329172Y-113390602D01*
X135183501Y-113330264D01*
X135183489Y-113330261D01*
X135028845Y-113299500D01*
X135028842Y-113299500D01*
X134871158Y-113299500D01*
X134871155Y-113299500D01*
X134716510Y-113330261D01*
X134716498Y-113330264D01*
X134570827Y-113390602D01*
X134570814Y-113390609D01*
X134439711Y-113478210D01*
X134439707Y-113478213D01*
X134328213Y-113589707D01*
X134328210Y-113589711D01*
X134240609Y-113720814D01*
X134240602Y-113720827D01*
X134180264Y-113866498D01*
X134180261Y-113866510D01*
X134149500Y-114021153D01*
X131800500Y-114021153D01*
X131800500Y-113021153D01*
X143399500Y-113021153D01*
X143399500Y-113178846D01*
X143430261Y-113333489D01*
X143430264Y-113333501D01*
X143490602Y-113479172D01*
X143490609Y-113479185D01*
X143578210Y-113610288D01*
X143578213Y-113610292D01*
X143689707Y-113721786D01*
X143689711Y-113721789D01*
X143820814Y-113809390D01*
X143820827Y-113809397D01*
X143958683Y-113866498D01*
X143966503Y-113869737D01*
X144119167Y-113900104D01*
X144121153Y-113900499D01*
X144121156Y-113900500D01*
X144121158Y-113900500D01*
X144278844Y-113900500D01*
X144278845Y-113900499D01*
X144433497Y-113869737D01*
X144579179Y-113809394D01*
X144710289Y-113721789D01*
X144821789Y-113610289D01*
X144909394Y-113479179D01*
X144969737Y-113333497D01*
X145000500Y-113178842D01*
X145000500Y-113021158D01*
X145000500Y-113021155D01*
X145000499Y-113021153D01*
X144969737Y-112866503D01*
X144969735Y-112866498D01*
X144909397Y-112720827D01*
X144909390Y-112720814D01*
X144821789Y-112589711D01*
X144821786Y-112589707D01*
X144710292Y-112478213D01*
X144710288Y-112478210D01*
X144579185Y-112390609D01*
X144579172Y-112390602D01*
X144433501Y-112330264D01*
X144433489Y-112330261D01*
X144278845Y-112299500D01*
X144278842Y-112299500D01*
X144121158Y-112299500D01*
X144121155Y-112299500D01*
X143966510Y-112330261D01*
X143966498Y-112330264D01*
X143820827Y-112390602D01*
X143820814Y-112390609D01*
X143689711Y-112478210D01*
X143689707Y-112478213D01*
X143578213Y-112589707D01*
X143578210Y-112589711D01*
X143490609Y-112720814D01*
X143490602Y-112720827D01*
X143430264Y-112866498D01*
X143430261Y-112866510D01*
X143399500Y-113021153D01*
X131800500Y-113021153D01*
X131800500Y-109821153D01*
X132999500Y-109821153D01*
X132999500Y-109978846D01*
X133030261Y-110133489D01*
X133030264Y-110133501D01*
X133090602Y-110279172D01*
X133090609Y-110279185D01*
X133178210Y-110410288D01*
X133178213Y-110410292D01*
X133202184Y-110434263D01*
X133235669Y-110495586D01*
X133231035Y-110560378D01*
X133232030Y-110560680D01*
X133230700Y-110565062D01*
X133230685Y-110565278D01*
X133230466Y-110565833D01*
X133230260Y-110566511D01*
X133199500Y-110721153D01*
X133199500Y-110878846D01*
X133230261Y-111033489D01*
X133230264Y-111033501D01*
X133290602Y-111179172D01*
X133290609Y-111179185D01*
X133378210Y-111310288D01*
X133378213Y-111310292D01*
X133489707Y-111421786D01*
X133489711Y-111421789D01*
X133620814Y-111509390D01*
X133620827Y-111509397D01*
X133766498Y-111569735D01*
X133766503Y-111569737D01*
X133918644Y-111600000D01*
X133921153Y-111600499D01*
X133921156Y-111600500D01*
X133921158Y-111600500D01*
X134078844Y-111600500D01*
X134078845Y-111600499D01*
X134233497Y-111569737D01*
X134379179Y-111509394D01*
X134510289Y-111421789D01*
X134621789Y-111310289D01*
X134709394Y-111179179D01*
X134769737Y-111033497D01*
X134800500Y-110878842D01*
X134800500Y-110721158D01*
X134800500Y-110721155D01*
X134800499Y-110721153D01*
X134769737Y-110566503D01*
X134750955Y-110521158D01*
X134750953Y-110521153D01*
X138849500Y-110521153D01*
X138849500Y-110678846D01*
X138880261Y-110833489D01*
X138880264Y-110833501D01*
X138940602Y-110979172D01*
X138940609Y-110979185D01*
X139028210Y-111110288D01*
X139028213Y-111110292D01*
X139139707Y-111221786D01*
X139139711Y-111221789D01*
X139270814Y-111309390D01*
X139270827Y-111309397D01*
X139416498Y-111369735D01*
X139416503Y-111369737D01*
X139571153Y-111400499D01*
X139571156Y-111400500D01*
X139571158Y-111400500D01*
X139728844Y-111400500D01*
X139728845Y-111400499D01*
X139883497Y-111369737D01*
X140029179Y-111309394D01*
X140160289Y-111221789D01*
X140271789Y-111110289D01*
X140359394Y-110979179D01*
X140419737Y-110833497D01*
X140450500Y-110678842D01*
X140450500Y-110521158D01*
X140450500Y-110521155D01*
X140450499Y-110521153D01*
X140430543Y-110420827D01*
X140419737Y-110366503D01*
X140360592Y-110223713D01*
X150149500Y-110223713D01*
X150149500Y-110436286D01*
X150170125Y-110566511D01*
X150182754Y-110646243D01*
X150243594Y-110833489D01*
X150248444Y-110848414D01*
X150344951Y-111037820D01*
X150469890Y-111209786D01*
X150620213Y-111360109D01*
X150792182Y-111485050D01*
X150800946Y-111489516D01*
X150851742Y-111537491D01*
X150868536Y-111605312D01*
X150845998Y-111671447D01*
X150800946Y-111710484D01*
X150792182Y-111714949D01*
X150620213Y-111839890D01*
X150469890Y-111990213D01*
X150344951Y-112162179D01*
X150248444Y-112351585D01*
X150182753Y-112553760D01*
X150149500Y-112763713D01*
X150149500Y-112976286D01*
X150181581Y-113178842D01*
X150182754Y-113186243D01*
X150230601Y-113333501D01*
X150248444Y-113388414D01*
X150344951Y-113577820D01*
X150469890Y-113749786D01*
X150620213Y-113900109D01*
X150792182Y-114025050D01*
X150800946Y-114029516D01*
X150851742Y-114077491D01*
X150868536Y-114145312D01*
X150845998Y-114211447D01*
X150800946Y-114250484D01*
X150792182Y-114254949D01*
X150620213Y-114379890D01*
X150469890Y-114530213D01*
X150344951Y-114702179D01*
X150248444Y-114891585D01*
X150182753Y-115093760D01*
X150149500Y-115303713D01*
X150149500Y-115516286D01*
X150166084Y-115620997D01*
X150182754Y-115726243D01*
X150213592Y-115821153D01*
X150248444Y-115928414D01*
X150344951Y-116117820D01*
X150469890Y-116289786D01*
X150620213Y-116440109D01*
X150792179Y-116565048D01*
X150792181Y-116565049D01*
X150792184Y-116565051D01*
X150981588Y-116661557D01*
X151183757Y-116727246D01*
X151393713Y-116760500D01*
X151393714Y-116760500D01*
X151606286Y-116760500D01*
X151606287Y-116760500D01*
X151816243Y-116727246D01*
X152018412Y-116661557D01*
X152207816Y-116565051D01*
X152253388Y-116531941D01*
X152379786Y-116440109D01*
X152379788Y-116440106D01*
X152379792Y-116440104D01*
X152530104Y-116289792D01*
X152530106Y-116289788D01*
X152530109Y-116289786D01*
X152655048Y-116117820D01*
X152655047Y-116117820D01*
X152655051Y-116117816D01*
X152751557Y-115928412D01*
X152817246Y-115726243D01*
X152850500Y-115516287D01*
X152850500Y-115303713D01*
X152817246Y-115093757D01*
X152751557Y-114891588D01*
X152655051Y-114702184D01*
X152655049Y-114702181D01*
X152655048Y-114702179D01*
X152530109Y-114530213D01*
X152379786Y-114379890D01*
X152207820Y-114254951D01*
X152207115Y-114254591D01*
X152199054Y-114250485D01*
X152148259Y-114202512D01*
X152131463Y-114134692D01*
X152153999Y-114068556D01*
X152199054Y-114029515D01*
X152207816Y-114025051D01*
X152229789Y-114009086D01*
X152379786Y-113900109D01*
X152379788Y-113900106D01*
X152379792Y-113900104D01*
X152530104Y-113749792D01*
X152530106Y-113749788D01*
X152530109Y-113749786D01*
X152655048Y-113577820D01*
X152655047Y-113577820D01*
X152655051Y-113577816D01*
X152751557Y-113388412D01*
X152817246Y-113186243D01*
X152850500Y-112976287D01*
X152850500Y-112763713D01*
X152817246Y-112553757D01*
X152751557Y-112351588D01*
X152655051Y-112162184D01*
X152655049Y-112162181D01*
X152655048Y-112162179D01*
X152530109Y-111990213D01*
X152379786Y-111839890D01*
X152207820Y-111714951D01*
X152207115Y-111714591D01*
X152199054Y-111710485D01*
X152148259Y-111662512D01*
X152131463Y-111594692D01*
X152153999Y-111528556D01*
X152199054Y-111489515D01*
X152207816Y-111485051D01*
X152229789Y-111469086D01*
X152379786Y-111360109D01*
X152379788Y-111360106D01*
X152379792Y-111360104D01*
X152530104Y-111209792D01*
X152530106Y-111209788D01*
X152530109Y-111209786D01*
X152655048Y-111037820D01*
X152655047Y-111037820D01*
X152655051Y-111037816D01*
X152751557Y-110848412D01*
X152817246Y-110646243D01*
X152850500Y-110436287D01*
X152850500Y-110223713D01*
X152817246Y-110013757D01*
X152751557Y-109811588D01*
X152655051Y-109622184D01*
X152655049Y-109622181D01*
X152655048Y-109622179D01*
X152530109Y-109450213D01*
X152379786Y-109299890D01*
X152207820Y-109174951D01*
X152018414Y-109078444D01*
X152018413Y-109078443D01*
X152018412Y-109078443D01*
X151816243Y-109012754D01*
X151816241Y-109012753D01*
X151816240Y-109012753D01*
X151654957Y-108987208D01*
X151606287Y-108979500D01*
X151393713Y-108979500D01*
X151345042Y-108987208D01*
X151183760Y-109012753D01*
X150981585Y-109078444D01*
X150792179Y-109174951D01*
X150620213Y-109299890D01*
X150469890Y-109450213D01*
X150344951Y-109622179D01*
X150248444Y-109811585D01*
X150248443Y-109811587D01*
X150248443Y-109811588D01*
X150245334Y-109821158D01*
X150182753Y-110013760D01*
X150149500Y-110223713D01*
X140360592Y-110223713D01*
X140359394Y-110220821D01*
X140359390Y-110220814D01*
X140271789Y-110089711D01*
X140271786Y-110089707D01*
X140160292Y-109978213D01*
X140160288Y-109978210D01*
X140029185Y-109890609D01*
X140029172Y-109890602D01*
X139883501Y-109830264D01*
X139883489Y-109830261D01*
X139728845Y-109799500D01*
X139728842Y-109799500D01*
X139571158Y-109799500D01*
X139571155Y-109799500D01*
X139416510Y-109830261D01*
X139416498Y-109830264D01*
X139270827Y-109890602D01*
X139270814Y-109890609D01*
X139139711Y-109978210D01*
X139139707Y-109978213D01*
X139028213Y-110089707D01*
X139028210Y-110089711D01*
X138940609Y-110220814D01*
X138940602Y-110220827D01*
X138880264Y-110366498D01*
X138880261Y-110366510D01*
X138849500Y-110521153D01*
X134750953Y-110521153D01*
X134709397Y-110420827D01*
X134709390Y-110420814D01*
X134621790Y-110289712D01*
X134611250Y-110279172D01*
X134597814Y-110265736D01*
X134564330Y-110204416D01*
X134568962Y-110139629D01*
X134567968Y-110139328D01*
X134569297Y-110134946D01*
X134569313Y-110134724D01*
X134569537Y-110134153D01*
X134569735Y-110133501D01*
X134569737Y-110133497D01*
X134600500Y-109978842D01*
X134600500Y-109821158D01*
X134600500Y-109821155D01*
X134600499Y-109821153D01*
X134569738Y-109666510D01*
X134569737Y-109666503D01*
X134551378Y-109622179D01*
X134509397Y-109520827D01*
X134509390Y-109520814D01*
X134421789Y-109389711D01*
X134421786Y-109389707D01*
X134310292Y-109278213D01*
X134310288Y-109278210D01*
X134179185Y-109190609D01*
X134179172Y-109190602D01*
X134033501Y-109130264D01*
X134033489Y-109130261D01*
X133878845Y-109099500D01*
X133878842Y-109099500D01*
X133721158Y-109099500D01*
X133721155Y-109099500D01*
X133566510Y-109130261D01*
X133566498Y-109130264D01*
X133420827Y-109190602D01*
X133420814Y-109190609D01*
X133289711Y-109278210D01*
X133289707Y-109278213D01*
X133178213Y-109389707D01*
X133178210Y-109389711D01*
X133090609Y-109520814D01*
X133090602Y-109520827D01*
X133030264Y-109666498D01*
X133030261Y-109666510D01*
X132999500Y-109821153D01*
X131800500Y-109821153D01*
X131800500Y-107208016D01*
X134007538Y-107208016D01*
X134007538Y-107365709D01*
X134038299Y-107520352D01*
X134038302Y-107520364D01*
X134098640Y-107666035D01*
X134098647Y-107666048D01*
X134186248Y-107797151D01*
X134186251Y-107797155D01*
X134297745Y-107908649D01*
X134297749Y-107908652D01*
X134428852Y-107996253D01*
X134428865Y-107996260D01*
X134555833Y-108048851D01*
X134574541Y-108056600D01*
X134729191Y-108087362D01*
X134729194Y-108087363D01*
X134729196Y-108087363D01*
X134886882Y-108087363D01*
X134886883Y-108087362D01*
X135041535Y-108056600D01*
X135042189Y-108056328D01*
X135042559Y-108056288D01*
X135047366Y-108054831D01*
X135047642Y-108055741D01*
X135111656Y-108048851D01*
X135158541Y-108067779D01*
X135220821Y-108109394D01*
X135220824Y-108109395D01*
X135220827Y-108109397D01*
X135336919Y-108157483D01*
X135366503Y-108169737D01*
X135521153Y-108200499D01*
X135521156Y-108200500D01*
X135521158Y-108200500D01*
X135678844Y-108200500D01*
X135678845Y-108200499D01*
X135833497Y-108169737D01*
X135979179Y-108109394D01*
X136110289Y-108021789D01*
X136135825Y-107996253D01*
X136162319Y-107969760D01*
X136223642Y-107936275D01*
X136293334Y-107941259D01*
X136337681Y-107969760D01*
X136389707Y-108021786D01*
X136389711Y-108021789D01*
X136520814Y-108109390D01*
X136520827Y-108109397D01*
X136636919Y-108157483D01*
X136666503Y-108169737D01*
X136821153Y-108200499D01*
X136821156Y-108200500D01*
X136821158Y-108200500D01*
X136978844Y-108200500D01*
X136978845Y-108200499D01*
X137133497Y-108169737D01*
X137279179Y-108109394D01*
X137410289Y-108021789D01*
X137521789Y-107910289D01*
X137591805Y-107805501D01*
X137645415Y-107760699D01*
X137714740Y-107751991D01*
X137763797Y-107771292D01*
X137802504Y-107797155D01*
X137820821Y-107809394D01*
X137820823Y-107809395D01*
X137820827Y-107809397D01*
X137966498Y-107869735D01*
X137966503Y-107869737D01*
X138121153Y-107900499D01*
X138121156Y-107900500D01*
X138121158Y-107900500D01*
X138278844Y-107900500D01*
X138278845Y-107900499D01*
X138433497Y-107869737D01*
X138552550Y-107820423D01*
X138622017Y-107812955D01*
X138647450Y-107820422D01*
X138766506Y-107869737D01*
X138921156Y-107900499D01*
X138921159Y-107900500D01*
X138921161Y-107900500D01*
X139078847Y-107900500D01*
X139078848Y-107900499D01*
X139233500Y-107869737D01*
X139379182Y-107809394D01*
X139510292Y-107721789D01*
X139621792Y-107610289D01*
X139709397Y-107479179D01*
X139769740Y-107333497D01*
X139800503Y-107178842D01*
X139800503Y-107021158D01*
X139800503Y-107021155D01*
X139800502Y-107021153D01*
X139769740Y-106866503D01*
X139766525Y-106858741D01*
X139709400Y-106720827D01*
X139709393Y-106720814D01*
X139621792Y-106589711D01*
X139621789Y-106589707D01*
X139510295Y-106478213D01*
X139510291Y-106478210D01*
X139396098Y-106401908D01*
X139379186Y-106390608D01*
X139379175Y-106390602D01*
X139233504Y-106330264D01*
X139233492Y-106330261D01*
X139092095Y-106302135D01*
X145324500Y-106302135D01*
X145324500Y-108097870D01*
X145324501Y-108097876D01*
X145330908Y-108157483D01*
X145381202Y-108292328D01*
X145381206Y-108292335D01*
X145467452Y-108407544D01*
X145467455Y-108407547D01*
X145582664Y-108493793D01*
X145582671Y-108493797D01*
X145717517Y-108544091D01*
X145717516Y-108544091D01*
X145724444Y-108544835D01*
X145777127Y-108550500D01*
X147572872Y-108550499D01*
X147632483Y-108544091D01*
X147767331Y-108493796D01*
X147882546Y-108407546D01*
X147968796Y-108292331D01*
X148019091Y-108157483D01*
X148025500Y-108097873D01*
X148025499Y-106302128D01*
X148019091Y-106242517D01*
X147968796Y-106107669D01*
X147968795Y-106107668D01*
X147968793Y-106107664D01*
X147882547Y-105992455D01*
X147882544Y-105992452D01*
X147767335Y-105906206D01*
X147767328Y-105906202D01*
X147632482Y-105855908D01*
X147632483Y-105855908D01*
X147572883Y-105849501D01*
X147572881Y-105849500D01*
X147572873Y-105849500D01*
X147572864Y-105849500D01*
X145777129Y-105849500D01*
X145777123Y-105849501D01*
X145717516Y-105855908D01*
X145582671Y-105906202D01*
X145582664Y-105906206D01*
X145467455Y-105992452D01*
X145467452Y-105992455D01*
X145381206Y-106107664D01*
X145381202Y-106107671D01*
X145330908Y-106242517D01*
X145324782Y-106299500D01*
X145324501Y-106302123D01*
X145324500Y-106302135D01*
X139092095Y-106302135D01*
X139078848Y-106299500D01*
X139078845Y-106299500D01*
X138921161Y-106299500D01*
X138921158Y-106299500D01*
X138766513Y-106330261D01*
X138766501Y-106330264D01*
X138647453Y-106379575D01*
X138577983Y-106387044D01*
X138552549Y-106379575D01*
X138433501Y-106330264D01*
X138433489Y-106330261D01*
X138278845Y-106299500D01*
X138278842Y-106299500D01*
X138121158Y-106299500D01*
X138121155Y-106299500D01*
X137966510Y-106330261D01*
X137966498Y-106330264D01*
X137820827Y-106390602D01*
X137820814Y-106390609D01*
X137689711Y-106478210D01*
X137689707Y-106478213D01*
X137578213Y-106589707D01*
X137578210Y-106589711D01*
X137508195Y-106694496D01*
X137454583Y-106739301D01*
X137385258Y-106748008D01*
X137336202Y-106728707D01*
X137279185Y-106690609D01*
X137279172Y-106690602D01*
X137133501Y-106630264D01*
X137133489Y-106630261D01*
X136978845Y-106599500D01*
X136978842Y-106599500D01*
X136821158Y-106599500D01*
X136821155Y-106599500D01*
X136666510Y-106630261D01*
X136666498Y-106630264D01*
X136520827Y-106690602D01*
X136520814Y-106690609D01*
X136389711Y-106778210D01*
X136389707Y-106778213D01*
X136337681Y-106830240D01*
X136276358Y-106863725D01*
X136206666Y-106858741D01*
X136162319Y-106830240D01*
X136110292Y-106778213D01*
X136110288Y-106778210D01*
X135979185Y-106690609D01*
X135979172Y-106690602D01*
X135833501Y-106630264D01*
X135833489Y-106630261D01*
X135678845Y-106599500D01*
X135678842Y-106599500D01*
X135521158Y-106599500D01*
X135521155Y-106599500D01*
X135366505Y-106630261D01*
X135366496Y-106630264D01*
X135365822Y-106630544D01*
X135365440Y-106630584D01*
X135360670Y-106632032D01*
X135360395Y-106631126D01*
X135296352Y-106638004D01*
X135249492Y-106619079D01*
X135187223Y-106577472D01*
X135187210Y-106577465D01*
X135041539Y-106517127D01*
X135041527Y-106517124D01*
X134886883Y-106486363D01*
X134886880Y-106486363D01*
X134729196Y-106486363D01*
X134729193Y-106486363D01*
X134574548Y-106517124D01*
X134574536Y-106517127D01*
X134428865Y-106577465D01*
X134428852Y-106577472D01*
X134297749Y-106665073D01*
X134297745Y-106665076D01*
X134186251Y-106776570D01*
X134186248Y-106776574D01*
X134098647Y-106907677D01*
X134098640Y-106907690D01*
X134038302Y-107053361D01*
X134038299Y-107053373D01*
X134007538Y-107208016D01*
X131800500Y-107208016D01*
X131800500Y-103621153D01*
X134199500Y-103621153D01*
X134199500Y-103778846D01*
X134230261Y-103933489D01*
X134230264Y-103933501D01*
X134290602Y-104079172D01*
X134290609Y-104079185D01*
X134378210Y-104210288D01*
X134378213Y-104210292D01*
X134489707Y-104321786D01*
X134489711Y-104321789D01*
X134620814Y-104409390D01*
X134620827Y-104409397D01*
X134733872Y-104456221D01*
X134766503Y-104469737D01*
X134921153Y-104500499D01*
X134921156Y-104500500D01*
X134921158Y-104500500D01*
X135078844Y-104500500D01*
X135078845Y-104500499D01*
X135233497Y-104469737D01*
X135379179Y-104409394D01*
X135510289Y-104321789D01*
X135621789Y-104210289D01*
X135709394Y-104079179D01*
X135737433Y-104011484D01*
X135781271Y-103957084D01*
X135847565Y-103935018D01*
X135915265Y-103952296D01*
X135962876Y-104003432D01*
X135966554Y-104011486D01*
X136013988Y-104126002D01*
X136013993Y-104126012D01*
X136101594Y-104257115D01*
X136101597Y-104257119D01*
X136213091Y-104368613D01*
X136213095Y-104368616D01*
X136344198Y-104456217D01*
X136344211Y-104456224D01*
X136489882Y-104516562D01*
X136489887Y-104516564D01*
X136644537Y-104547326D01*
X136644540Y-104547327D01*
X136644542Y-104547327D01*
X136802228Y-104547327D01*
X136802229Y-104547326D01*
X136956881Y-104516564D01*
X137102563Y-104456221D01*
X137233673Y-104368616D01*
X137345173Y-104257116D01*
X137432778Y-104126006D01*
X137493121Y-103980324D01*
X137523884Y-103825669D01*
X137523884Y-103667985D01*
X137523884Y-103667982D01*
X137523883Y-103667980D01*
X137493122Y-103513337D01*
X137493121Y-103513330D01*
X137492491Y-103511808D01*
X137432781Y-103367654D01*
X137432774Y-103367641D01*
X137345173Y-103236538D01*
X137345170Y-103236534D01*
X137233676Y-103125040D01*
X137233672Y-103125037D01*
X137102569Y-103037436D01*
X137102556Y-103037429D01*
X136956885Y-102977091D01*
X136956873Y-102977088D01*
X136802229Y-102946327D01*
X136802226Y-102946327D01*
X136644542Y-102946327D01*
X136644539Y-102946327D01*
X136489894Y-102977088D01*
X136489882Y-102977091D01*
X136344211Y-103037429D01*
X136344198Y-103037436D01*
X136213095Y-103125037D01*
X136213091Y-103125040D01*
X136101597Y-103236534D01*
X136101594Y-103236538D01*
X136013993Y-103367641D01*
X136013988Y-103367650D01*
X135985951Y-103435340D01*
X135942110Y-103489743D01*
X135875816Y-103511808D01*
X135808117Y-103494529D01*
X135760506Y-103443392D01*
X135756829Y-103435339D01*
X135709397Y-103320827D01*
X135709390Y-103320814D01*
X135621789Y-103189711D01*
X135621786Y-103189707D01*
X135510292Y-103078213D01*
X135510288Y-103078210D01*
X135379185Y-102990609D01*
X135379172Y-102990602D01*
X135233501Y-102930264D01*
X135233489Y-102930261D01*
X135078845Y-102899500D01*
X135078842Y-102899500D01*
X134921158Y-102899500D01*
X134921155Y-102899500D01*
X134766510Y-102930261D01*
X134766498Y-102930264D01*
X134620827Y-102990602D01*
X134620814Y-102990609D01*
X134489711Y-103078210D01*
X134489707Y-103078213D01*
X134378213Y-103189707D01*
X134378210Y-103189711D01*
X134290609Y-103320814D01*
X134290602Y-103320827D01*
X134230264Y-103466498D01*
X134230261Y-103466510D01*
X134199500Y-103621153D01*
X131800500Y-103621153D01*
X131800500Y-100321153D01*
X134149500Y-100321153D01*
X134149500Y-100478846D01*
X134180261Y-100633489D01*
X134180264Y-100633501D01*
X134240602Y-100779172D01*
X134240609Y-100779185D01*
X134328210Y-100910288D01*
X134328213Y-100910292D01*
X134439707Y-101021786D01*
X134439711Y-101021789D01*
X134570814Y-101109390D01*
X134570827Y-101109397D01*
X134716498Y-101169735D01*
X134716503Y-101169737D01*
X134871153Y-101200499D01*
X134871156Y-101200500D01*
X134871158Y-101200500D01*
X135028844Y-101200500D01*
X135028845Y-101200499D01*
X135183497Y-101169737D01*
X135300790Y-101121153D01*
X137299500Y-101121153D01*
X137299500Y-101278846D01*
X137330261Y-101433489D01*
X137330264Y-101433501D01*
X137390602Y-101579172D01*
X137390609Y-101579185D01*
X137478210Y-101710288D01*
X137478213Y-101710292D01*
X137589707Y-101821786D01*
X137589711Y-101821789D01*
X137720814Y-101909390D01*
X137720827Y-101909397D01*
X137866498Y-101969735D01*
X137866503Y-101969737D01*
X138021153Y-102000499D01*
X138021156Y-102000500D01*
X138021158Y-102000500D01*
X138178844Y-102000500D01*
X138178845Y-102000499D01*
X138333497Y-101969737D01*
X138452548Y-101920425D01*
X138522017Y-101912956D01*
X138547453Y-101920425D01*
X138666503Y-101969737D01*
X138821153Y-102000499D01*
X138821156Y-102000500D01*
X138821158Y-102000500D01*
X138978844Y-102000500D01*
X138978845Y-102000499D01*
X139133497Y-101969737D01*
X139252548Y-101920425D01*
X139322017Y-101912956D01*
X139347453Y-101920425D01*
X139466503Y-101969737D01*
X139621153Y-102000499D01*
X139621156Y-102000500D01*
X139621158Y-102000500D01*
X139778844Y-102000500D01*
X139778845Y-102000499D01*
X139933497Y-101969737D01*
X140079179Y-101909394D01*
X140210289Y-101821789D01*
X140321789Y-101710289D01*
X140409394Y-101579179D01*
X140469737Y-101433497D01*
X140500500Y-101278842D01*
X140500500Y-101246888D01*
X145725235Y-101246888D01*
X145725235Y-101404581D01*
X145755996Y-101559224D01*
X145755999Y-101559236D01*
X145816337Y-101704907D01*
X145816344Y-101704919D01*
X145836384Y-101734911D01*
X145857262Y-101801588D01*
X145847844Y-101851253D01*
X145832381Y-101888585D01*
X145832379Y-101888588D01*
X145801618Y-102043236D01*
X145801618Y-102200929D01*
X145832379Y-102355572D01*
X145832382Y-102355584D01*
X145892720Y-102501255D01*
X145892727Y-102501268D01*
X145980328Y-102632371D01*
X145980331Y-102632375D01*
X146091825Y-102743869D01*
X146091829Y-102743872D01*
X146222932Y-102831473D01*
X146222945Y-102831480D01*
X146368616Y-102891818D01*
X146368621Y-102891820D01*
X146523271Y-102922582D01*
X146523274Y-102922583D01*
X146523276Y-102922583D01*
X146680962Y-102922583D01*
X146680963Y-102922582D01*
X146835615Y-102891820D01*
X146981297Y-102831477D01*
X147112407Y-102743872D01*
X147223907Y-102632372D01*
X147311512Y-102501262D01*
X147371855Y-102355580D01*
X147402618Y-102200925D01*
X147402618Y-102043241D01*
X147402618Y-102043238D01*
X147402617Y-102043236D01*
X147387997Y-101969737D01*
X147371855Y-101888586D01*
X147331028Y-101790020D01*
X147311515Y-101742910D01*
X147311507Y-101742895D01*
X147291469Y-101712907D01*
X147270590Y-101646230D01*
X147280009Y-101596562D01*
X147287207Y-101579185D01*
X147295472Y-101559232D01*
X147326235Y-101404577D01*
X147326235Y-101246893D01*
X147326235Y-101246890D01*
X147326234Y-101246888D01*
X147317007Y-101200500D01*
X147295472Y-101092238D01*
X147295470Y-101092233D01*
X147235132Y-100946562D01*
X147235125Y-100946549D01*
X147147524Y-100815446D01*
X147147521Y-100815442D01*
X147036027Y-100703948D01*
X147036023Y-100703945D01*
X146907649Y-100618168D01*
X146907647Y-100618167D01*
X146904916Y-100616342D01*
X146904907Y-100616337D01*
X146759236Y-100555999D01*
X146759224Y-100555996D01*
X146604580Y-100525235D01*
X146604577Y-100525235D01*
X146446893Y-100525235D01*
X146446890Y-100525235D01*
X146292245Y-100555996D01*
X146292233Y-100555999D01*
X146146562Y-100616337D01*
X146146549Y-100616344D01*
X146015446Y-100703945D01*
X146015442Y-100703948D01*
X145903948Y-100815442D01*
X145903945Y-100815446D01*
X145816344Y-100946549D01*
X145816337Y-100946562D01*
X145755999Y-101092233D01*
X145755996Y-101092245D01*
X145725235Y-101246888D01*
X140500500Y-101246888D01*
X140500500Y-101121158D01*
X140500500Y-101121155D01*
X140500499Y-101121153D01*
X140480734Y-101021788D01*
X140469737Y-100966503D01*
X140446452Y-100910288D01*
X140409397Y-100820827D01*
X140409390Y-100820814D01*
X140321789Y-100689711D01*
X140321786Y-100689707D01*
X140210292Y-100578213D01*
X140210288Y-100578210D01*
X140124897Y-100521153D01*
X151199500Y-100521153D01*
X151199500Y-100678846D01*
X151230261Y-100833489D01*
X151230264Y-100833501D01*
X151290602Y-100979172D01*
X151290609Y-100979185D01*
X151378210Y-101110288D01*
X151378213Y-101110292D01*
X151489707Y-101221786D01*
X151489711Y-101221789D01*
X151620814Y-101309390D01*
X151620827Y-101309397D01*
X151766498Y-101369735D01*
X151766503Y-101369737D01*
X151921153Y-101400499D01*
X151921156Y-101400500D01*
X151921158Y-101400500D01*
X152078844Y-101400500D01*
X152078845Y-101400499D01*
X152233497Y-101369737D01*
X152379179Y-101309394D01*
X152510289Y-101221789D01*
X152621789Y-101110289D01*
X152709394Y-100979179D01*
X152769737Y-100833497D01*
X152800500Y-100678842D01*
X152800500Y-100521158D01*
X152800500Y-100521155D01*
X152800499Y-100521153D01*
X152792228Y-100479574D01*
X152769737Y-100366503D01*
X152750955Y-100321158D01*
X152709397Y-100220827D01*
X152709390Y-100220814D01*
X152621789Y-100089711D01*
X152621786Y-100089707D01*
X152510292Y-99978213D01*
X152510288Y-99978210D01*
X152379185Y-99890609D01*
X152379172Y-99890602D01*
X152233501Y-99830264D01*
X152233489Y-99830261D01*
X152078845Y-99799500D01*
X152078842Y-99799500D01*
X151921158Y-99799500D01*
X151921155Y-99799500D01*
X151766510Y-99830261D01*
X151766498Y-99830264D01*
X151620827Y-99890602D01*
X151620814Y-99890609D01*
X151489711Y-99978210D01*
X151489707Y-99978213D01*
X151378213Y-100089707D01*
X151378210Y-100089711D01*
X151290609Y-100220814D01*
X151290602Y-100220827D01*
X151230264Y-100366498D01*
X151230261Y-100366510D01*
X151199500Y-100521153D01*
X140124897Y-100521153D01*
X140079185Y-100490609D01*
X140079172Y-100490602D01*
X139933501Y-100430264D01*
X139933489Y-100430261D01*
X139778845Y-100399500D01*
X139778842Y-100399500D01*
X139621158Y-100399500D01*
X139621155Y-100399500D01*
X139466510Y-100430261D01*
X139466498Y-100430264D01*
X139347452Y-100479574D01*
X139277982Y-100487043D01*
X139252548Y-100479574D01*
X139133501Y-100430264D01*
X139133489Y-100430261D01*
X138978845Y-100399500D01*
X138978842Y-100399500D01*
X138821158Y-100399500D01*
X138821155Y-100399500D01*
X138666510Y-100430261D01*
X138666498Y-100430264D01*
X138547452Y-100479574D01*
X138477982Y-100487043D01*
X138452548Y-100479574D01*
X138333501Y-100430264D01*
X138333489Y-100430261D01*
X138178845Y-100399500D01*
X138178842Y-100399500D01*
X138021158Y-100399500D01*
X138021155Y-100399500D01*
X137866510Y-100430261D01*
X137866498Y-100430264D01*
X137720827Y-100490602D01*
X137720814Y-100490609D01*
X137589711Y-100578210D01*
X137589707Y-100578213D01*
X137478213Y-100689707D01*
X137478210Y-100689711D01*
X137390609Y-100820814D01*
X137390602Y-100820827D01*
X137330264Y-100966498D01*
X137330261Y-100966510D01*
X137299500Y-101121153D01*
X135300790Y-101121153D01*
X135329179Y-101109394D01*
X135460289Y-101021789D01*
X135571789Y-100910289D01*
X135659394Y-100779179D01*
X135719737Y-100633497D01*
X135750500Y-100478842D01*
X135750500Y-100321158D01*
X135750500Y-100321155D01*
X135750499Y-100321153D01*
X135730543Y-100220827D01*
X135719737Y-100166503D01*
X135687929Y-100089711D01*
X135659397Y-100020827D01*
X135659390Y-100020814D01*
X135571789Y-99889711D01*
X135571786Y-99889707D01*
X135460292Y-99778213D01*
X135460288Y-99778210D01*
X135329185Y-99690609D01*
X135329172Y-99690602D01*
X135183501Y-99630264D01*
X135183489Y-99630261D01*
X135028845Y-99599500D01*
X135028842Y-99599500D01*
X134871158Y-99599500D01*
X134871155Y-99599500D01*
X134716510Y-99630261D01*
X134716498Y-99630264D01*
X134570827Y-99690602D01*
X134570814Y-99690609D01*
X134439711Y-99778210D01*
X134439707Y-99778213D01*
X134328213Y-99889707D01*
X134328210Y-99889711D01*
X134240609Y-100020814D01*
X134240602Y-100020827D01*
X134180264Y-100166498D01*
X134180261Y-100166510D01*
X134149500Y-100321153D01*
X131800500Y-100321153D01*
X131800500Y-97021153D01*
X132799500Y-97021153D01*
X132799500Y-97178846D01*
X132830261Y-97333489D01*
X132830264Y-97333501D01*
X132890602Y-97479172D01*
X132890609Y-97479185D01*
X132978210Y-97610288D01*
X132978213Y-97610292D01*
X133089707Y-97721786D01*
X133089711Y-97721789D01*
X133220814Y-97809390D01*
X133220827Y-97809397D01*
X133358683Y-97866498D01*
X133366503Y-97869737D01*
X133521153Y-97900499D01*
X133521156Y-97900500D01*
X133521158Y-97900500D01*
X133678844Y-97900500D01*
X133678845Y-97900499D01*
X133833497Y-97869737D01*
X133951592Y-97820821D01*
X133979172Y-97809397D01*
X133979172Y-97809396D01*
X133979179Y-97809394D01*
X134110289Y-97721789D01*
X134221789Y-97610289D01*
X134281348Y-97521153D01*
X140099500Y-97521153D01*
X140099500Y-97678846D01*
X140130261Y-97833489D01*
X140130264Y-97833501D01*
X140190602Y-97979172D01*
X140190609Y-97979185D01*
X140278210Y-98110288D01*
X140278213Y-98110292D01*
X140389707Y-98221786D01*
X140389711Y-98221789D01*
X140520814Y-98309390D01*
X140520818Y-98309392D01*
X140520821Y-98309394D01*
X140664138Y-98368757D01*
X140718537Y-98412595D01*
X140731243Y-98435864D01*
X140790602Y-98579172D01*
X140790609Y-98579185D01*
X140878210Y-98710288D01*
X140878213Y-98710292D01*
X140989707Y-98821786D01*
X140989711Y-98821789D01*
X141120814Y-98909390D01*
X141120827Y-98909397D01*
X141266498Y-98969735D01*
X141266503Y-98969737D01*
X141421153Y-99000499D01*
X141421156Y-99000500D01*
X141421158Y-99000500D01*
X141578844Y-99000500D01*
X141578845Y-99000499D01*
X141733497Y-98969737D01*
X141879179Y-98909394D01*
X142010289Y-98821789D01*
X142121789Y-98710289D01*
X142209394Y-98579179D01*
X142269737Y-98433497D01*
X142300500Y-98278842D01*
X142300500Y-98121158D01*
X142300500Y-98121155D01*
X142284209Y-98039258D01*
X142284209Y-98039257D01*
X142280608Y-98021153D01*
X144399500Y-98021153D01*
X144399500Y-98178846D01*
X144430261Y-98333489D01*
X144430264Y-98333501D01*
X144490602Y-98479172D01*
X144490609Y-98479185D01*
X144578210Y-98610288D01*
X144578213Y-98610292D01*
X144689707Y-98721786D01*
X144689711Y-98721789D01*
X144820814Y-98809390D01*
X144820827Y-98809397D01*
X144966498Y-98869735D01*
X144966503Y-98869737D01*
X145121153Y-98900499D01*
X145121156Y-98900500D01*
X145121158Y-98900500D01*
X145278844Y-98900500D01*
X145278845Y-98900499D01*
X145433497Y-98869737D01*
X145579179Y-98809394D01*
X145710289Y-98721789D01*
X145821789Y-98610289D01*
X145909394Y-98479179D01*
X145969737Y-98333497D01*
X146000500Y-98178842D01*
X146000500Y-98021158D01*
X146000500Y-98021155D01*
X146000499Y-98021153D01*
X145969738Y-97866510D01*
X145969737Y-97866503D01*
X145909794Y-97721786D01*
X145909397Y-97720827D01*
X145909390Y-97720814D01*
X145821789Y-97589711D01*
X145821786Y-97589707D01*
X145710292Y-97478213D01*
X145710288Y-97478210D01*
X145579185Y-97390609D01*
X145579172Y-97390602D01*
X145433501Y-97330264D01*
X145433489Y-97330261D01*
X145278845Y-97299500D01*
X145278842Y-97299500D01*
X145121158Y-97299500D01*
X145121155Y-97299500D01*
X144966510Y-97330261D01*
X144966498Y-97330264D01*
X144820827Y-97390602D01*
X144820814Y-97390609D01*
X144689711Y-97478210D01*
X144689707Y-97478213D01*
X144578213Y-97589707D01*
X144578210Y-97589711D01*
X144490609Y-97720814D01*
X144490602Y-97720827D01*
X144430264Y-97866498D01*
X144430261Y-97866510D01*
X144399500Y-98021153D01*
X142280608Y-98021153D01*
X142278834Y-98012237D01*
X142269737Y-97966503D01*
X142242398Y-97900500D01*
X142209397Y-97820827D01*
X142209390Y-97820814D01*
X142121789Y-97689711D01*
X142121786Y-97689707D01*
X142010292Y-97578213D01*
X142010288Y-97578210D01*
X141879185Y-97490609D01*
X141879172Y-97490602D01*
X141735864Y-97431243D01*
X141681460Y-97387402D01*
X141668761Y-97364147D01*
X141609394Y-97220821D01*
X141609392Y-97220818D01*
X141609390Y-97220814D01*
X141521789Y-97089711D01*
X141521786Y-97089707D01*
X141410292Y-96978213D01*
X141410288Y-96978210D01*
X141279185Y-96890609D01*
X141279172Y-96890602D01*
X141133501Y-96830264D01*
X141133489Y-96830261D01*
X140978845Y-96799500D01*
X140978842Y-96799500D01*
X140821158Y-96799500D01*
X140821155Y-96799500D01*
X140666510Y-96830261D01*
X140666498Y-96830264D01*
X140520827Y-96890602D01*
X140520814Y-96890609D01*
X140389711Y-96978210D01*
X140389707Y-96978213D01*
X140278213Y-97089707D01*
X140278210Y-97089711D01*
X140190609Y-97220814D01*
X140190602Y-97220827D01*
X140130264Y-97366498D01*
X140130261Y-97366510D01*
X140099500Y-97521153D01*
X134281348Y-97521153D01*
X134309394Y-97479179D01*
X134369737Y-97333497D01*
X134400500Y-97178842D01*
X134400500Y-97021158D01*
X134400500Y-97021155D01*
X134400499Y-97021153D01*
X134374531Y-96890606D01*
X134369737Y-96866503D01*
X134369735Y-96866498D01*
X134309397Y-96720827D01*
X134309390Y-96720814D01*
X134221789Y-96589711D01*
X134221786Y-96589707D01*
X134110292Y-96478213D01*
X134110288Y-96478210D01*
X133979185Y-96390609D01*
X133979172Y-96390602D01*
X133833501Y-96330264D01*
X133833489Y-96330261D01*
X133678845Y-96299500D01*
X133678842Y-96299500D01*
X133521158Y-96299500D01*
X133521155Y-96299500D01*
X133366510Y-96330261D01*
X133366498Y-96330264D01*
X133220827Y-96390602D01*
X133220814Y-96390609D01*
X133089711Y-96478210D01*
X133089707Y-96478213D01*
X132978213Y-96589707D01*
X132978210Y-96589711D01*
X132890609Y-96720814D01*
X132890602Y-96720827D01*
X132830264Y-96866498D01*
X132830261Y-96866510D01*
X132799500Y-97021153D01*
X131800500Y-97021153D01*
X131800500Y-94721153D01*
X132799500Y-94721153D01*
X132799500Y-94878846D01*
X132830261Y-95033489D01*
X132830264Y-95033501D01*
X132890602Y-95179172D01*
X132890609Y-95179185D01*
X132978210Y-95310288D01*
X132978213Y-95310292D01*
X133089707Y-95421786D01*
X133089711Y-95421789D01*
X133220814Y-95509390D01*
X133220827Y-95509397D01*
X133366498Y-95569735D01*
X133366503Y-95569737D01*
X133521153Y-95600499D01*
X133521156Y-95600500D01*
X133521158Y-95600500D01*
X133678844Y-95600500D01*
X133678845Y-95600499D01*
X133833497Y-95569737D01*
X133950790Y-95521153D01*
X139899500Y-95521153D01*
X139899500Y-95678846D01*
X139930261Y-95833489D01*
X139930264Y-95833501D01*
X139990602Y-95979172D01*
X139990609Y-95979185D01*
X140078210Y-96110288D01*
X140078213Y-96110292D01*
X140189707Y-96221786D01*
X140189711Y-96221789D01*
X140320814Y-96309390D01*
X140320827Y-96309397D01*
X140466498Y-96369735D01*
X140466503Y-96369737D01*
X140621153Y-96400499D01*
X140621156Y-96400500D01*
X140621158Y-96400500D01*
X140778844Y-96400500D01*
X140778845Y-96400499D01*
X140933497Y-96369737D01*
X141079179Y-96309394D01*
X141210289Y-96221789D01*
X141321789Y-96110289D01*
X141409394Y-95979179D01*
X141469737Y-95833497D01*
X141500500Y-95678842D01*
X141500500Y-95521158D01*
X141500500Y-95521155D01*
X141500499Y-95521153D01*
X141480734Y-95421788D01*
X141469737Y-95366503D01*
X141428314Y-95266498D01*
X141409397Y-95220827D01*
X141409390Y-95220814D01*
X141321789Y-95089711D01*
X141321786Y-95089707D01*
X141210292Y-94978213D01*
X141210288Y-94978210D01*
X141079185Y-94890609D01*
X141079172Y-94890602D01*
X140933501Y-94830264D01*
X140933489Y-94830261D01*
X140778845Y-94799500D01*
X140778842Y-94799500D01*
X140621158Y-94799500D01*
X140621155Y-94799500D01*
X140466510Y-94830261D01*
X140466498Y-94830264D01*
X140320827Y-94890602D01*
X140320814Y-94890609D01*
X140189711Y-94978210D01*
X140189707Y-94978213D01*
X140078213Y-95089707D01*
X140078210Y-95089711D01*
X139990609Y-95220814D01*
X139990602Y-95220827D01*
X139930264Y-95366498D01*
X139930261Y-95366510D01*
X139899500Y-95521153D01*
X133950790Y-95521153D01*
X133979179Y-95509394D01*
X134110289Y-95421789D01*
X134221789Y-95310289D01*
X134309394Y-95179179D01*
X134369737Y-95033497D01*
X134400500Y-94878842D01*
X134400500Y-94721158D01*
X134400500Y-94721155D01*
X134400499Y-94721153D01*
X134389870Y-94667719D01*
X134369737Y-94566503D01*
X134342961Y-94501859D01*
X134309397Y-94420827D01*
X134309390Y-94420814D01*
X134221789Y-94289711D01*
X134221786Y-94289707D01*
X134110292Y-94178213D01*
X134110288Y-94178210D01*
X133979185Y-94090609D01*
X133979172Y-94090602D01*
X133833501Y-94030264D01*
X133833489Y-94030261D01*
X133678845Y-93999500D01*
X133678842Y-93999500D01*
X133521158Y-93999500D01*
X133521155Y-93999500D01*
X133366510Y-94030261D01*
X133366498Y-94030264D01*
X133220827Y-94090602D01*
X133220814Y-94090609D01*
X133089711Y-94178210D01*
X133089707Y-94178213D01*
X132978213Y-94289707D01*
X132978210Y-94289711D01*
X132890609Y-94420814D01*
X132890602Y-94420827D01*
X132830264Y-94566498D01*
X132830261Y-94566510D01*
X132799500Y-94721153D01*
X131800500Y-94721153D01*
X131800500Y-93821153D01*
X149099500Y-93821153D01*
X149099500Y-93978846D01*
X149130261Y-94133489D01*
X149130264Y-94133501D01*
X149190602Y-94279172D01*
X149190609Y-94279185D01*
X149278210Y-94410288D01*
X149278213Y-94410292D01*
X149389710Y-94521789D01*
X149520815Y-94609390D01*
X149520821Y-94609394D01*
X149547073Y-94620267D01*
X149601475Y-94664106D01*
X149623541Y-94730400D01*
X149615971Y-94772380D01*
X149617451Y-94772829D01*
X149615681Y-94778660D01*
X149584921Y-94933302D01*
X149584921Y-95090995D01*
X149615682Y-95245638D01*
X149615685Y-95245650D01*
X149676023Y-95391321D01*
X149676030Y-95391334D01*
X149763631Y-95522437D01*
X149763634Y-95522441D01*
X149875128Y-95633935D01*
X149875132Y-95633938D01*
X150006235Y-95721539D01*
X150006248Y-95721546D01*
X150151919Y-95781884D01*
X150151924Y-95781886D01*
X150247788Y-95800954D01*
X150303290Y-95811995D01*
X150365201Y-95844380D01*
X150388458Y-95875160D01*
X150390606Y-95879180D01*
X150478210Y-96010289D01*
X150589707Y-96121786D01*
X150589711Y-96121789D01*
X150720814Y-96209390D01*
X150720827Y-96209397D01*
X150866498Y-96269735D01*
X150866503Y-96269737D01*
X151016131Y-96299500D01*
X151021153Y-96300499D01*
X151021156Y-96300500D01*
X151021158Y-96300500D01*
X151178844Y-96300500D01*
X151178845Y-96300499D01*
X151333497Y-96269737D01*
X151479179Y-96209394D01*
X151610289Y-96121789D01*
X151721789Y-96010289D01*
X151809394Y-95879179D01*
X151869737Y-95733497D01*
X151900500Y-95578842D01*
X151900500Y-95421158D01*
X151900500Y-95421155D01*
X151900499Y-95421153D01*
X151878447Y-95310292D01*
X151869737Y-95266503D01*
X151869735Y-95266498D01*
X151809397Y-95120827D01*
X151809390Y-95120814D01*
X151721789Y-94989711D01*
X151721786Y-94989707D01*
X151610292Y-94878213D01*
X151610288Y-94878210D01*
X151479185Y-94790609D01*
X151479172Y-94790602D01*
X151333501Y-94730264D01*
X151333491Y-94730261D01*
X151182129Y-94700153D01*
X151120218Y-94667768D01*
X151096960Y-94636984D01*
X151094813Y-94632967D01*
X151007210Y-94501859D01*
X150895713Y-94390362D01*
X150895709Y-94390359D01*
X150764604Y-94302757D01*
X150764601Y-94302755D01*
X150764600Y-94302755D01*
X150738346Y-94291880D01*
X150683944Y-94248039D01*
X150661880Y-94181745D01*
X150669456Y-94139775D01*
X150667969Y-94139324D01*
X150669731Y-94133509D01*
X150669737Y-94133497D01*
X150700500Y-93978842D01*
X150700500Y-93821158D01*
X150700500Y-93821155D01*
X150700499Y-93821153D01*
X150669738Y-93666510D01*
X150669737Y-93666503D01*
X150669735Y-93666498D01*
X150609397Y-93520827D01*
X150609390Y-93520814D01*
X150521789Y-93389711D01*
X150521786Y-93389707D01*
X150410292Y-93278213D01*
X150410288Y-93278210D01*
X150279185Y-93190609D01*
X150279172Y-93190602D01*
X150133501Y-93130264D01*
X150133489Y-93130261D01*
X149978845Y-93099500D01*
X149978842Y-93099500D01*
X149821158Y-93099500D01*
X149821155Y-93099500D01*
X149666510Y-93130261D01*
X149666498Y-93130264D01*
X149520827Y-93190602D01*
X149520814Y-93190609D01*
X149389711Y-93278210D01*
X149389707Y-93278213D01*
X149278213Y-93389707D01*
X149278210Y-93389711D01*
X149190609Y-93520814D01*
X149190602Y-93520827D01*
X149130264Y-93666498D01*
X149130261Y-93666510D01*
X149099500Y-93821153D01*
X131800500Y-93821153D01*
X131800500Y-92121153D01*
X132899500Y-92121153D01*
X132899500Y-92278846D01*
X132930261Y-92433489D01*
X132930264Y-92433501D01*
X132990602Y-92579172D01*
X132990609Y-92579185D01*
X133078210Y-92710288D01*
X133078213Y-92710292D01*
X133189707Y-92821786D01*
X133189711Y-92821789D01*
X133320814Y-92909390D01*
X133320827Y-92909397D01*
X133466498Y-92969735D01*
X133466503Y-92969737D01*
X133621153Y-93000499D01*
X133621156Y-93000500D01*
X133621158Y-93000500D01*
X133778844Y-93000500D01*
X133778845Y-93000499D01*
X133933497Y-92969737D01*
X134079179Y-92909394D01*
X134210289Y-92821789D01*
X134321789Y-92710289D01*
X134409394Y-92579179D01*
X134469737Y-92433497D01*
X134500500Y-92278842D01*
X134500500Y-92121158D01*
X134500500Y-92121155D01*
X134500499Y-92121153D01*
X134488214Y-92059392D01*
X134469737Y-91966503D01*
X134469735Y-91966498D01*
X134409397Y-91820827D01*
X134409390Y-91820814D01*
X134321789Y-91689711D01*
X134321786Y-91689707D01*
X134210292Y-91578213D01*
X134210288Y-91578210D01*
X134079185Y-91490609D01*
X134079172Y-91490602D01*
X133933501Y-91430264D01*
X133933489Y-91430261D01*
X133778845Y-91399500D01*
X133778842Y-91399500D01*
X133621158Y-91399500D01*
X133621155Y-91399500D01*
X133466510Y-91430261D01*
X133466498Y-91430264D01*
X133320827Y-91490602D01*
X133320814Y-91490609D01*
X133189711Y-91578210D01*
X133189707Y-91578213D01*
X133078213Y-91689707D01*
X133078210Y-91689711D01*
X132990609Y-91820814D01*
X132990602Y-91820827D01*
X132930264Y-91966498D01*
X132930261Y-91966510D01*
X132899500Y-92121153D01*
X131800500Y-92121153D01*
X131800500Y-91271155D01*
X138699500Y-91271155D01*
X138699500Y-91428848D01*
X138730261Y-91583491D01*
X138730264Y-91583503D01*
X138790602Y-91729174D01*
X138790609Y-91729187D01*
X138878210Y-91860290D01*
X138878213Y-91860294D01*
X138989707Y-91971788D01*
X138989711Y-91971791D01*
X139120814Y-92059392D01*
X139120827Y-92059399D01*
X139266498Y-92119737D01*
X139266503Y-92119739D01*
X139421153Y-92150501D01*
X139421156Y-92150502D01*
X139421158Y-92150502D01*
X139578844Y-92150502D01*
X139578845Y-92150501D01*
X139733497Y-92119739D01*
X139879179Y-92059396D01*
X140010289Y-91971791D01*
X140121789Y-91860291D01*
X140209394Y-91729181D01*
X140269737Y-91583499D01*
X140300500Y-91428844D01*
X140300500Y-91271160D01*
X140300500Y-91271157D01*
X140300499Y-91271155D01*
X140269738Y-91116512D01*
X140269737Y-91116505D01*
X140269735Y-91116500D01*
X140209397Y-90970829D01*
X140209390Y-90970816D01*
X140121789Y-90839713D01*
X140121786Y-90839709D01*
X140010292Y-90728215D01*
X140010288Y-90728212D01*
X139879185Y-90640611D01*
X139879172Y-90640604D01*
X139733501Y-90580266D01*
X139733489Y-90580263D01*
X139578845Y-90549502D01*
X139578842Y-90549502D01*
X139421158Y-90549502D01*
X139421155Y-90549502D01*
X139266510Y-90580263D01*
X139266498Y-90580266D01*
X139120827Y-90640604D01*
X139120814Y-90640611D01*
X138989711Y-90728212D01*
X138989707Y-90728215D01*
X138878213Y-90839709D01*
X138878210Y-90839713D01*
X138790609Y-90970816D01*
X138790602Y-90970829D01*
X138730264Y-91116500D01*
X138730261Y-91116512D01*
X138699500Y-91271155D01*
X131800500Y-91271155D01*
X131800500Y-90021153D01*
X132599500Y-90021153D01*
X132599500Y-90178846D01*
X132630261Y-90333489D01*
X132630264Y-90333501D01*
X132690602Y-90479172D01*
X132690609Y-90479185D01*
X132778210Y-90610288D01*
X132778213Y-90610292D01*
X132889707Y-90721786D01*
X132889711Y-90721789D01*
X133020814Y-90809390D01*
X133020827Y-90809397D01*
X133157838Y-90866148D01*
X133166503Y-90869737D01*
X133321153Y-90900499D01*
X133321156Y-90900500D01*
X133321158Y-90900500D01*
X133478844Y-90900500D01*
X133478845Y-90900499D01*
X133633497Y-90869737D01*
X133779179Y-90809394D01*
X133910289Y-90721789D01*
X134021789Y-90610289D01*
X134109394Y-90479179D01*
X134169737Y-90333497D01*
X134200500Y-90178842D01*
X134200500Y-90021158D01*
X134200500Y-90021155D01*
X134200499Y-90021153D01*
X134193667Y-89986807D01*
X134169737Y-89866503D01*
X134156062Y-89833489D01*
X134109397Y-89720827D01*
X134109390Y-89720814D01*
X134021789Y-89589711D01*
X134021786Y-89589707D01*
X133910292Y-89478213D01*
X133910288Y-89478210D01*
X133779185Y-89390609D01*
X133779172Y-89390602D01*
X133633501Y-89330264D01*
X133633489Y-89330261D01*
X133478845Y-89299500D01*
X133478842Y-89299500D01*
X133321158Y-89299500D01*
X133321155Y-89299500D01*
X133166510Y-89330261D01*
X133166498Y-89330264D01*
X133020827Y-89390602D01*
X133020814Y-89390609D01*
X132889711Y-89478210D01*
X132889707Y-89478213D01*
X132778213Y-89589707D01*
X132778210Y-89589711D01*
X132690609Y-89720814D01*
X132690602Y-89720827D01*
X132630264Y-89866498D01*
X132630261Y-89866510D01*
X132599500Y-90021153D01*
X131800500Y-90021153D01*
X131800500Y-88421153D01*
X139699500Y-88421153D01*
X139699500Y-88578846D01*
X139730261Y-88733489D01*
X139730264Y-88733501D01*
X139790602Y-88879172D01*
X139790609Y-88879185D01*
X139878210Y-89010288D01*
X139878213Y-89010292D01*
X139989707Y-89121786D01*
X139989711Y-89121789D01*
X140120814Y-89209390D01*
X140120827Y-89209397D01*
X140266498Y-89269735D01*
X140266503Y-89269737D01*
X140398083Y-89295910D01*
X140417121Y-89299697D01*
X140479032Y-89332082D01*
X140513606Y-89392797D01*
X140514548Y-89445504D01*
X140499500Y-89521158D01*
X140499500Y-89678846D01*
X140530261Y-89833489D01*
X140530264Y-89833501D01*
X140590602Y-89979172D01*
X140590609Y-89979185D01*
X140678210Y-90110288D01*
X140678213Y-90110292D01*
X140789707Y-90221786D01*
X140789711Y-90221789D01*
X140920814Y-90309390D01*
X140920827Y-90309397D01*
X141066498Y-90369735D01*
X141066503Y-90369737D01*
X141221153Y-90400499D01*
X141221156Y-90400500D01*
X141221158Y-90400500D01*
X141255333Y-90400500D01*
X141322372Y-90420185D01*
X141358435Y-90455609D01*
X141438836Y-90575937D01*
X141438839Y-90575941D01*
X141550333Y-90687435D01*
X141550337Y-90687438D01*
X141681440Y-90775039D01*
X141681453Y-90775046D01*
X141827124Y-90835384D01*
X141827129Y-90835386D01*
X141981779Y-90866148D01*
X141981782Y-90866149D01*
X141981784Y-90866149D01*
X142139470Y-90866149D01*
X142139471Y-90866148D01*
X142294123Y-90835386D01*
X142439805Y-90775043D01*
X142570915Y-90687438D01*
X142682415Y-90575938D01*
X142770020Y-90444828D01*
X142830363Y-90299146D01*
X142861126Y-90144491D01*
X142861126Y-89986807D01*
X142861126Y-89986804D01*
X142861125Y-89986802D01*
X142830631Y-89833501D01*
X142830363Y-89832152D01*
X142784246Y-89720814D01*
X142770023Y-89686476D01*
X142770016Y-89686463D01*
X142682415Y-89555360D01*
X142682412Y-89555356D01*
X142570918Y-89443862D01*
X142570914Y-89443859D01*
X142439811Y-89356258D01*
X142439798Y-89356251D01*
X142294127Y-89295913D01*
X142294115Y-89295910D01*
X142139471Y-89265149D01*
X142139468Y-89265149D01*
X142105293Y-89265149D01*
X142038254Y-89245464D01*
X142002191Y-89210040D01*
X141921789Y-89089711D01*
X141921786Y-89089707D01*
X141810292Y-88978213D01*
X141810288Y-88978210D01*
X141679185Y-88890609D01*
X141679172Y-88890602D01*
X141533501Y-88830264D01*
X141533491Y-88830261D01*
X141382877Y-88800302D01*
X141320966Y-88767917D01*
X141286392Y-88707201D01*
X141285452Y-88654493D01*
X141300500Y-88578844D01*
X141300500Y-88421155D01*
X141300499Y-88421153D01*
X141269738Y-88266510D01*
X141269737Y-88266503D01*
X141269735Y-88266498D01*
X141209397Y-88120827D01*
X141209390Y-88120814D01*
X141121789Y-87989711D01*
X141121786Y-87989707D01*
X141010292Y-87878213D01*
X141010288Y-87878210D01*
X140879185Y-87790609D01*
X140879172Y-87790602D01*
X140733501Y-87730264D01*
X140733489Y-87730261D01*
X140578845Y-87699500D01*
X140578842Y-87699500D01*
X140421158Y-87699500D01*
X140421155Y-87699500D01*
X140266510Y-87730261D01*
X140266498Y-87730264D01*
X140120827Y-87790602D01*
X140120814Y-87790609D01*
X139989711Y-87878210D01*
X139989707Y-87878213D01*
X139878213Y-87989707D01*
X139878210Y-87989711D01*
X139790609Y-88120814D01*
X139790602Y-88120827D01*
X139730264Y-88266498D01*
X139730261Y-88266510D01*
X139699500Y-88421153D01*
X131800500Y-88421153D01*
X131800500Y-85721153D01*
X136999500Y-85721153D01*
X136999500Y-85878846D01*
X137030261Y-86033489D01*
X137030264Y-86033501D01*
X137090602Y-86179172D01*
X137090609Y-86179185D01*
X137178210Y-86310288D01*
X137178213Y-86310292D01*
X137289707Y-86421786D01*
X137289711Y-86421789D01*
X137420814Y-86509390D01*
X137420827Y-86509397D01*
X137566498Y-86569735D01*
X137566503Y-86569737D01*
X137721153Y-86600499D01*
X137721156Y-86600500D01*
X137721158Y-86600500D01*
X137878844Y-86600500D01*
X137878845Y-86600499D01*
X138033497Y-86569737D01*
X138179179Y-86509394D01*
X138310289Y-86421789D01*
X138421789Y-86310289D01*
X138421792Y-86310284D01*
X138424991Y-86306387D01*
X138482733Y-86267047D01*
X138552578Y-86265170D01*
X138562501Y-86268522D01*
X138566492Y-86269732D01*
X138566503Y-86269737D01*
X138721153Y-86300499D01*
X138721156Y-86300500D01*
X138721158Y-86300500D01*
X138878844Y-86300500D01*
X138878845Y-86300499D01*
X139033497Y-86269737D01*
X139179179Y-86209394D01*
X139310289Y-86121789D01*
X139421789Y-86010289D01*
X139509394Y-85879179D01*
X139569737Y-85733497D01*
X139592083Y-85621158D01*
X139592084Y-85621153D01*
X139899500Y-85621153D01*
X139899500Y-85778846D01*
X139930261Y-85933489D01*
X139930264Y-85933501D01*
X139979574Y-86052548D01*
X139987043Y-86122018D01*
X139979574Y-86147452D01*
X139930264Y-86266498D01*
X139930261Y-86266510D01*
X139899500Y-86421153D01*
X139899500Y-86578846D01*
X139930261Y-86733489D01*
X139930264Y-86733501D01*
X139990602Y-86879172D01*
X139990609Y-86879185D01*
X140078210Y-87010288D01*
X140078213Y-87010292D01*
X140189707Y-87121786D01*
X140189711Y-87121789D01*
X140320814Y-87209390D01*
X140320827Y-87209397D01*
X140466498Y-87269735D01*
X140466503Y-87269737D01*
X140621153Y-87300499D01*
X140621156Y-87300500D01*
X140621158Y-87300500D01*
X140778844Y-87300500D01*
X140778845Y-87300499D01*
X140933497Y-87269737D01*
X141079179Y-87209394D01*
X141210289Y-87121789D01*
X141321789Y-87010289D01*
X141409394Y-86879179D01*
X141469737Y-86733497D01*
X141500500Y-86578842D01*
X141500500Y-86421158D01*
X141500500Y-86421155D01*
X141500499Y-86421153D01*
X141478447Y-86310292D01*
X141469737Y-86266503D01*
X141433569Y-86179185D01*
X141420425Y-86147452D01*
X141412956Y-86077983D01*
X141420425Y-86052548D01*
X141469735Y-85933501D01*
X141469737Y-85933497D01*
X141500500Y-85778842D01*
X141500500Y-85621158D01*
X141500500Y-85621155D01*
X141500499Y-85621153D01*
X141469738Y-85466510D01*
X141469737Y-85466503D01*
X141450955Y-85421158D01*
X141409397Y-85320827D01*
X141409390Y-85320814D01*
X141321789Y-85189711D01*
X141321786Y-85189707D01*
X141210292Y-85078213D01*
X141210288Y-85078210D01*
X141079185Y-84990609D01*
X141079172Y-84990602D01*
X140933501Y-84930264D01*
X140933489Y-84930261D01*
X140778845Y-84899500D01*
X140778842Y-84899500D01*
X140621158Y-84899500D01*
X140621155Y-84899500D01*
X140466510Y-84930261D01*
X140466498Y-84930264D01*
X140320827Y-84990602D01*
X140320814Y-84990609D01*
X140189711Y-85078210D01*
X140189707Y-85078213D01*
X140078213Y-85189707D01*
X140078210Y-85189711D01*
X139990609Y-85320814D01*
X139990602Y-85320827D01*
X139930264Y-85466498D01*
X139930261Y-85466510D01*
X139899500Y-85621153D01*
X139592084Y-85621153D01*
X139598107Y-85590875D01*
X139598107Y-85590874D01*
X139600500Y-85578844D01*
X139600500Y-85421155D01*
X139600499Y-85421153D01*
X139580543Y-85320827D01*
X139569737Y-85266503D01*
X139537929Y-85189711D01*
X139509397Y-85120827D01*
X139509390Y-85120814D01*
X139421789Y-84989711D01*
X139421786Y-84989707D01*
X139310292Y-84878213D01*
X139310288Y-84878210D01*
X139179185Y-84790609D01*
X139179172Y-84790602D01*
X139033501Y-84730264D01*
X139033489Y-84730261D01*
X138878845Y-84699500D01*
X138878842Y-84699500D01*
X138721158Y-84699500D01*
X138721155Y-84699500D01*
X138566510Y-84730261D01*
X138566498Y-84730264D01*
X138420827Y-84790602D01*
X138420814Y-84790609D01*
X138289712Y-84878209D01*
X138178205Y-84989717D01*
X138174993Y-84993631D01*
X138117243Y-85032959D01*
X138047398Y-85034822D01*
X138037485Y-85031473D01*
X138033488Y-85030260D01*
X137878845Y-84999500D01*
X137878842Y-84999500D01*
X137721158Y-84999500D01*
X137721155Y-84999500D01*
X137566510Y-85030261D01*
X137566498Y-85030264D01*
X137420827Y-85090602D01*
X137420814Y-85090609D01*
X137289711Y-85178210D01*
X137289707Y-85178213D01*
X137178213Y-85289707D01*
X137178210Y-85289711D01*
X137090609Y-85420814D01*
X137090602Y-85420827D01*
X137030264Y-85566498D01*
X137030261Y-85566510D01*
X136999500Y-85721153D01*
X131800500Y-85721153D01*
X131800500Y-82721153D01*
X140599500Y-82721153D01*
X140599500Y-82878846D01*
X140630261Y-83033489D01*
X140630264Y-83033501D01*
X140690602Y-83179172D01*
X140690609Y-83179185D01*
X140778210Y-83310288D01*
X140778213Y-83310292D01*
X140889707Y-83421786D01*
X140889711Y-83421789D01*
X141020814Y-83509390D01*
X141020827Y-83509397D01*
X141166498Y-83569735D01*
X141166503Y-83569737D01*
X141321153Y-83600499D01*
X141321156Y-83600500D01*
X141321158Y-83600500D01*
X141478844Y-83600500D01*
X141478845Y-83600499D01*
X141633497Y-83569737D01*
X141779179Y-83509394D01*
X141910289Y-83421789D01*
X142021789Y-83310289D01*
X142109394Y-83179179D01*
X142169737Y-83033497D01*
X142200500Y-82878842D01*
X142200500Y-82721158D01*
X142200500Y-82721155D01*
X142200499Y-82721153D01*
X142169738Y-82566510D01*
X142169737Y-82566503D01*
X142169735Y-82566498D01*
X142109397Y-82420827D01*
X142109390Y-82420814D01*
X142021789Y-82289711D01*
X142021786Y-82289707D01*
X141910292Y-82178213D01*
X141910288Y-82178210D01*
X141779185Y-82090609D01*
X141779172Y-82090602D01*
X141633501Y-82030264D01*
X141633489Y-82030261D01*
X141478845Y-81999500D01*
X141478842Y-81999500D01*
X141321158Y-81999500D01*
X141321155Y-81999500D01*
X141166510Y-82030261D01*
X141166498Y-82030264D01*
X141020827Y-82090602D01*
X141020814Y-82090609D01*
X140889711Y-82178210D01*
X140889707Y-82178213D01*
X140778213Y-82289707D01*
X140778210Y-82289711D01*
X140690609Y-82420814D01*
X140690602Y-82420827D01*
X140630264Y-82566498D01*
X140630261Y-82566510D01*
X140599500Y-82721153D01*
X131800500Y-82721153D01*
X131800500Y-78424500D01*
X131820185Y-78357461D01*
X131872989Y-78311706D01*
X131924500Y-78300500D01*
X153074456Y-78300500D01*
X153141495Y-78320185D01*
G37*
%TD.AperFunction*%
%TD*%
M02*
